G04 EAGLE Gerber RS-274X export*
G75*
%MOMM*%
%FSLAX34Y34*%
%LPD*%
%INSolderpaste Top*%
%IPPOS*%
%AMOC8*
5,1,8,0,0,1.08239X$1,22.5*%
G01*
%ADD10R,1.500000X1.500000*%
%ADD11R,1.100000X1.000000*%
%ADD12R,1.000000X1.100000*%
%ADD13R,0.600000X0.800000*%
%ADD14R,0.800000X0.600000*%
%ADD15R,0.600000X2.200000*%
%ADD16R,0.660400X2.032000*%
%ADD17R,1.220000X0.620000*%
%ADD18R,1.000000X1.400000*%
%ADD19R,1.400000X1.000000*%
%ADD20R,1.219200X2.235200*%
%ADD21R,3.600000X2.200000*%
%ADD22R,0.550000X1.000000*%


D10*
X365000Y427500D03*
X365000Y462500D03*
D11*
X182700Y200800D03*
X199700Y200800D03*
X215600Y301300D03*
X232600Y301300D03*
X320000Y196100D03*
X337000Y196100D03*
X364900Y286600D03*
X381900Y286600D03*
D12*
X232000Y327100D03*
X232000Y344100D03*
D11*
X142300Y274600D03*
X125300Y274600D03*
D12*
X175000Y411500D03*
X175000Y428500D03*
X275000Y411500D03*
X275000Y428500D03*
D13*
X195500Y181100D03*
X212500Y181100D03*
X208100Y164200D03*
X225100Y164200D03*
X241900Y89000D03*
X224900Y89000D03*
X241800Y115000D03*
X224800Y115000D03*
D14*
X207400Y327100D03*
X207400Y344100D03*
D15*
X195400Y141000D03*
X195400Y89000D03*
X208100Y141000D03*
X182700Y141000D03*
X170000Y141000D03*
X208100Y89000D03*
X182700Y89000D03*
X170000Y89000D03*
X144600Y141000D03*
X144600Y89000D03*
X157300Y141000D03*
X131900Y141000D03*
X157300Y89000D03*
X131900Y89000D03*
D16*
X215550Y214266D03*
X215550Y275734D03*
X228250Y214266D03*
X240950Y214266D03*
X228250Y275734D03*
X240950Y275734D03*
X253650Y214266D03*
X253650Y275734D03*
X266350Y214266D03*
X266350Y275734D03*
X279050Y214266D03*
X291750Y214266D03*
X279050Y275734D03*
X291750Y275734D03*
X304450Y214266D03*
X304450Y275734D03*
D17*
X307000Y174500D03*
X307000Y165000D03*
X307000Y155500D03*
X333000Y155500D03*
X333000Y165000D03*
X333000Y174500D03*
X352000Y264500D03*
X352000Y255000D03*
X352000Y245500D03*
X378000Y245500D03*
X378000Y255000D03*
X378000Y264500D03*
D10*
X227500Y475000D03*
X262500Y475000D03*
D18*
X126500Y474100D03*
X117000Y496100D03*
X136000Y496100D03*
D19*
X222800Y530000D03*
X200800Y520500D03*
X200800Y539500D03*
X136000Y530000D03*
X114000Y520500D03*
X114000Y539500D03*
D18*
X405000Y411000D03*
X414500Y389000D03*
X395500Y389000D03*
X365000Y411000D03*
X374500Y389000D03*
X355500Y389000D03*
X325000Y411000D03*
X334500Y389000D03*
X315500Y389000D03*
X86800Y462850D03*
X96300Y440850D03*
X77300Y440850D03*
D19*
X52550Y143300D03*
X30550Y133800D03*
X30550Y152800D03*
D12*
X132000Y44000D03*
X115000Y44000D03*
D11*
X90000Y521500D03*
X90000Y538500D03*
X155000Y506500D03*
X155000Y523500D03*
X176800Y538500D03*
X176800Y521500D03*
D12*
X252400Y364700D03*
X269400Y364700D03*
X269500Y344100D03*
X252500Y344100D03*
X325200Y286500D03*
X342200Y286500D03*
X342200Y306800D03*
X325200Y306800D03*
D11*
X405000Y237900D03*
X405000Y254900D03*
D12*
X365100Y229300D03*
X382100Y229300D03*
X115000Y64500D03*
X132000Y64500D03*
X348500Y229300D03*
X331500Y229300D03*
X356500Y365000D03*
X373500Y365000D03*
X316500Y365000D03*
X333500Y365000D03*
X396500Y365000D03*
X413500Y365000D03*
X396500Y344000D03*
X413500Y344000D03*
X316500Y344000D03*
X333500Y344000D03*
X356600Y344000D03*
X373600Y344000D03*
X325100Y480600D03*
X342100Y480600D03*
X365000Y480600D03*
X382000Y480600D03*
X405000Y480600D03*
X422000Y480600D03*
D11*
X146856Y291452D03*
X146856Y308452D03*
D12*
X62100Y420300D03*
X45100Y420300D03*
X62100Y440800D03*
X45100Y440800D03*
X45100Y461200D03*
X62100Y461200D03*
D11*
X125300Y291500D03*
X125300Y308500D03*
X192400Y451200D03*
X192400Y468200D03*
X82796Y291703D03*
X82796Y308703D03*
X255000Y175000D03*
X255000Y158000D03*
D12*
X266500Y105000D03*
X283500Y105000D03*
D11*
X359900Y148100D03*
X359900Y165100D03*
D12*
X320000Y140000D03*
X337000Y140000D03*
X305300Y140000D03*
X288300Y140000D03*
D10*
X86900Y480400D03*
X51900Y480400D03*
X325000Y427500D03*
X325000Y462500D03*
X405000Y427500D03*
X405000Y462500D03*
D20*
X201886Y389012D03*
X225000Y389012D03*
X248114Y389012D03*
D21*
X225000Y450990D03*
D11*
X88000Y274500D03*
X105000Y274500D03*
X105000Y291500D03*
X105000Y308500D03*
X155000Y457300D03*
X155000Y474300D03*
D22*
X126900Y454900D03*
X136400Y454900D03*
X117400Y454900D03*
X117400Y427900D03*
X136400Y427900D03*
X126900Y427900D03*
D14*
X417500Y318500D03*
X417500Y301500D03*
X432500Y318500D03*
X432500Y301500D03*
D22*
X285000Y326000D03*
X294500Y326000D03*
X275500Y326000D03*
X275500Y299000D03*
X294500Y299000D03*
X285000Y299000D03*
D12*
X283561Y84667D03*
X266561Y84667D03*
X242031Y132625D03*
X225031Y132625D03*
M02*
