G04 EAGLE Gerber RS-274X export*
G75*
%MOMM*%
%FSLAX34Y34*%
%LPD*%
%IN*%
%IPPOS*%
%AMOC8*
5,1,8,0,0,1.08239X$1,22.5*%
G01*
%ADD10C,0.254000*%


D10*
X0Y0D02*
X450000Y0D01*
X450000Y720000D01*
X0Y720000D01*
X0Y0D01*
X295586Y611927D02*
X295654Y612972D01*
X295791Y614011D01*
X295996Y615038D01*
X296267Y616050D01*
X296603Y617042D01*
X297004Y618010D01*
X297468Y618949D01*
X297991Y619857D01*
X298573Y620728D01*
X299211Y621559D01*
X299902Y622346D01*
X300643Y623087D01*
X301430Y623778D01*
X302261Y624416D01*
X303132Y624998D01*
X304040Y625521D01*
X304979Y625985D01*
X305947Y626386D01*
X306939Y626722D01*
X307951Y626993D01*
X308978Y627198D01*
X310017Y627335D01*
X311062Y627403D01*
X312110Y627403D01*
X313155Y627335D01*
X314194Y627198D01*
X315221Y626993D01*
X316233Y626722D01*
X317225Y626386D01*
X318193Y625985D01*
X319132Y625521D01*
X320040Y624998D01*
X320911Y624416D01*
X321742Y623778D01*
X322529Y623087D01*
X323270Y622346D01*
X323961Y621559D01*
X324598Y620728D01*
X325180Y619857D01*
X325704Y618949D01*
X326168Y618010D01*
X326568Y617042D01*
X326905Y616050D01*
X327176Y615038D01*
X327381Y614011D01*
X327517Y612972D01*
X327586Y611927D01*
X327586Y610879D01*
X327517Y609834D01*
X327381Y608795D01*
X327176Y607768D01*
X326905Y606756D01*
X326568Y605764D01*
X326168Y604796D01*
X325704Y603857D01*
X325180Y602949D01*
X324598Y602078D01*
X323961Y601247D01*
X323270Y600460D01*
X322529Y599719D01*
X321742Y599028D01*
X320911Y598391D01*
X320040Y597809D01*
X319132Y597285D01*
X318193Y596821D01*
X317225Y596421D01*
X316233Y596084D01*
X315221Y595813D01*
X314194Y595608D01*
X313155Y595472D01*
X312110Y595403D01*
X311062Y595403D01*
X310017Y595472D01*
X308978Y595608D01*
X307951Y595813D01*
X306939Y596084D01*
X305947Y596421D01*
X304979Y596821D01*
X304040Y597285D01*
X303132Y597809D01*
X302261Y598391D01*
X301430Y599028D01*
X300643Y599719D01*
X299902Y600460D01*
X299211Y601247D01*
X298573Y602078D01*
X297991Y602949D01*
X297468Y603857D01*
X297004Y604796D01*
X296603Y605764D01*
X296267Y606756D01*
X295996Y607768D01*
X295791Y608795D01*
X295654Y609834D01*
X295586Y610879D01*
X295586Y611927D01*
X120586Y611927D02*
X120654Y612972D01*
X120791Y614011D01*
X120996Y615038D01*
X121267Y616050D01*
X121603Y617042D01*
X122004Y618010D01*
X122468Y618949D01*
X122991Y619857D01*
X123573Y620728D01*
X124211Y621559D01*
X124902Y622346D01*
X125643Y623087D01*
X126430Y623778D01*
X127261Y624416D01*
X128132Y624998D01*
X129040Y625521D01*
X129979Y625985D01*
X130947Y626386D01*
X131939Y626722D01*
X132951Y626993D01*
X133978Y627198D01*
X135017Y627335D01*
X136062Y627403D01*
X137110Y627403D01*
X138155Y627335D01*
X139194Y627198D01*
X140221Y626993D01*
X141233Y626722D01*
X142225Y626386D01*
X143193Y625985D01*
X144132Y625521D01*
X145040Y624998D01*
X145911Y624416D01*
X146742Y623778D01*
X147529Y623087D01*
X148270Y622346D01*
X148961Y621559D01*
X149598Y620728D01*
X150180Y619857D01*
X150704Y618949D01*
X151168Y618010D01*
X151568Y617042D01*
X151905Y616050D01*
X152176Y615038D01*
X152381Y614011D01*
X152517Y612972D01*
X152586Y611927D01*
X152586Y610879D01*
X152517Y609834D01*
X152381Y608795D01*
X152176Y607768D01*
X151905Y606756D01*
X151568Y605764D01*
X151168Y604796D01*
X150704Y603857D01*
X150180Y602949D01*
X149598Y602078D01*
X148961Y601247D01*
X148270Y600460D01*
X147529Y599719D01*
X146742Y599028D01*
X145911Y598391D01*
X145040Y597809D01*
X144132Y597285D01*
X143193Y596821D01*
X142225Y596421D01*
X141233Y596084D01*
X140221Y595813D01*
X139194Y595608D01*
X138155Y595472D01*
X137110Y595403D01*
X136062Y595403D01*
X135017Y595472D01*
X133978Y595608D01*
X132951Y595813D01*
X131939Y596084D01*
X130947Y596421D01*
X129979Y596821D01*
X129040Y597285D01*
X128132Y597809D01*
X127261Y598391D01*
X126430Y599028D01*
X125643Y599719D01*
X124902Y600460D01*
X124211Y601247D01*
X123573Y602078D01*
X122991Y602949D01*
X122468Y603857D01*
X122004Y604796D01*
X121603Y605764D01*
X121267Y606756D01*
X120996Y607768D01*
X120791Y608795D01*
X120654Y609834D01*
X120586Y610879D01*
X120586Y611927D01*
M02*
