G04 EAGLE Gerber RS-274X export*
G75*
%MOMM*%
%FSLAX34Y34*%
%LPD*%
%INBottom Copper*%
%IPPOS*%
%AMOC8*
5,1,8,0,0,1.08239X$1,22.5*%
G01*
%ADD10C,1.117600*%
%ADD11C,1.408000*%
%ADD12C,1.508000*%
%ADD13P,1.429621X8X337.500000*%
%ADD14C,1.320800*%
%ADD15C,1.508000*%
%ADD16P,1.197556X8X22.500000*%
%ADD17C,0.812800*%
%ADD18C,0.756400*%
%ADD19C,0.400000*%
%ADD20C,0.381000*%
%ADD21C,0.406400*%
%ADD22C,0.600000*%
%ADD23C,0.609600*%
%ADD24C,0.706400*%

G36*
X305979Y2002D02*
X305979Y2002D01*
X305988Y2001D01*
X306181Y2022D01*
X306370Y2041D01*
X306379Y2043D01*
X306388Y2044D01*
X306571Y2102D01*
X306755Y2159D01*
X306763Y2163D01*
X306772Y2166D01*
X306939Y2258D01*
X307109Y2351D01*
X307116Y2356D01*
X307124Y2361D01*
X307271Y2485D01*
X307419Y2608D01*
X307424Y2615D01*
X307431Y2621D01*
X307551Y2773D01*
X307671Y2922D01*
X307675Y2930D01*
X307681Y2937D01*
X307768Y3110D01*
X307857Y3279D01*
X307859Y3288D01*
X307863Y3296D01*
X307915Y3482D01*
X307968Y3666D01*
X307969Y3675D01*
X307971Y3684D01*
X307985Y3877D01*
X308001Y4068D01*
X308000Y4076D01*
X308000Y4085D01*
X307976Y4278D01*
X307954Y4467D01*
X307951Y4476D01*
X307950Y4485D01*
X307889Y4668D01*
X307829Y4850D01*
X307825Y4858D01*
X307822Y4866D01*
X307726Y5033D01*
X307631Y5201D01*
X307625Y5208D01*
X307621Y5215D01*
X307406Y5468D01*
X293883Y18991D01*
X291223Y21651D01*
X291223Y23274D01*
X291221Y23296D01*
X291223Y23318D01*
X291201Y23495D01*
X291183Y23674D01*
X291177Y23696D01*
X291174Y23718D01*
X291118Y23887D01*
X291065Y24059D01*
X291055Y24079D01*
X291048Y24100D01*
X290959Y24256D01*
X290874Y24413D01*
X290859Y24430D01*
X290848Y24450D01*
X290730Y24586D01*
X290616Y24722D01*
X290598Y24736D01*
X290584Y24753D01*
X290442Y24863D01*
X290302Y24975D01*
X290282Y24985D01*
X290265Y24999D01*
X289969Y25150D01*
X289613Y25298D01*
X287063Y27848D01*
X285683Y31179D01*
X285683Y49866D01*
X287063Y53197D01*
X289613Y55747D01*
X292945Y57127D01*
X296551Y57127D01*
X299883Y55747D01*
X302433Y53197D01*
X303813Y49866D01*
X303813Y31179D01*
X302433Y27848D01*
X300151Y25566D01*
X300139Y25552D01*
X300126Y25540D01*
X300012Y25396D01*
X299896Y25254D01*
X299887Y25238D01*
X299876Y25224D01*
X299793Y25060D01*
X299707Y24898D01*
X299702Y24881D01*
X299694Y24865D01*
X299644Y24688D01*
X299592Y24513D01*
X299591Y24495D01*
X299586Y24478D01*
X299573Y24294D01*
X299556Y24112D01*
X299558Y24094D01*
X299557Y24076D01*
X299580Y23894D01*
X299599Y23711D01*
X299605Y23694D01*
X299607Y23677D01*
X299665Y23503D01*
X299721Y23327D01*
X299730Y23312D01*
X299735Y23295D01*
X299827Y23135D01*
X299916Y22975D01*
X299927Y22962D01*
X299936Y22946D01*
X300151Y22693D01*
X314326Y8518D01*
X314347Y8501D01*
X314364Y8481D01*
X314502Y8374D01*
X314637Y8263D01*
X314661Y8250D01*
X314682Y8234D01*
X314839Y8156D01*
X314993Y8074D01*
X315019Y8067D01*
X315043Y8055D01*
X315212Y8009D01*
X315379Y7959D01*
X315406Y7957D01*
X315432Y7950D01*
X315762Y7923D01*
X323815Y7923D01*
X323824Y7924D01*
X323833Y7923D01*
X324025Y7944D01*
X324216Y7963D01*
X324224Y7966D01*
X324233Y7966D01*
X324415Y8024D01*
X324601Y8081D01*
X324609Y8085D01*
X324617Y8088D01*
X324785Y8181D01*
X324955Y8273D01*
X324962Y8278D01*
X324969Y8283D01*
X325116Y8408D01*
X325264Y8531D01*
X325270Y8538D01*
X325276Y8543D01*
X325395Y8694D01*
X325516Y8844D01*
X325520Y8852D01*
X325526Y8859D01*
X325614Y9032D01*
X325702Y9202D01*
X325704Y9210D01*
X325708Y9218D01*
X325760Y9405D01*
X325813Y9589D01*
X325814Y9597D01*
X325816Y9606D01*
X325830Y9799D01*
X325846Y9990D01*
X325845Y9999D01*
X325846Y10008D01*
X325821Y10200D01*
X325799Y10390D01*
X325796Y10398D01*
X325795Y10407D01*
X325734Y10590D01*
X325674Y10772D01*
X325670Y10780D01*
X325667Y10789D01*
X325571Y10956D01*
X325476Y11123D01*
X325471Y11130D01*
X325466Y11138D01*
X325251Y11391D01*
X319283Y17359D01*
X316623Y20019D01*
X316623Y23274D01*
X316621Y23296D01*
X316623Y23318D01*
X316601Y23495D01*
X316583Y23674D01*
X316577Y23696D01*
X316574Y23718D01*
X316518Y23887D01*
X316465Y24059D01*
X316455Y24079D01*
X316448Y24100D01*
X316359Y24256D01*
X316274Y24413D01*
X316259Y24430D01*
X316248Y24450D01*
X316130Y24586D01*
X316016Y24722D01*
X315998Y24736D01*
X315984Y24753D01*
X315842Y24863D01*
X315702Y24975D01*
X315682Y24985D01*
X315665Y24999D01*
X315369Y25150D01*
X315013Y25298D01*
X312463Y27848D01*
X311083Y31179D01*
X311083Y49866D01*
X312463Y53197D01*
X315013Y55747D01*
X318345Y57127D01*
X321951Y57127D01*
X325283Y55747D01*
X327833Y53197D01*
X329213Y49866D01*
X329213Y31179D01*
X327833Y27848D01*
X325282Y25297D01*
X325273Y25292D01*
X325260Y25288D01*
X325096Y25197D01*
X324930Y25108D01*
X324920Y25100D01*
X324908Y25093D01*
X324765Y24972D01*
X324620Y24852D01*
X324611Y24842D01*
X324601Y24833D01*
X324484Y24686D01*
X324366Y24539D01*
X324360Y24527D01*
X324351Y24517D01*
X324266Y24350D01*
X324179Y24183D01*
X324175Y24170D01*
X324169Y24158D01*
X324118Y23976D01*
X324066Y23796D01*
X324065Y23783D01*
X324061Y23770D01*
X324047Y23581D01*
X324031Y23395D01*
X324033Y23382D01*
X324032Y23369D01*
X324055Y23181D01*
X324076Y22995D01*
X324080Y22983D01*
X324082Y22969D01*
X324142Y22791D01*
X324199Y22612D01*
X324206Y22600D01*
X324210Y22587D01*
X324304Y22424D01*
X324396Y22260D01*
X324404Y22250D01*
X324411Y22239D01*
X324626Y21986D01*
X330819Y15792D01*
X330840Y15775D01*
X330858Y15755D01*
X330996Y15648D01*
X331131Y15537D01*
X331155Y15524D01*
X331176Y15508D01*
X331333Y15430D01*
X331487Y15348D01*
X331512Y15341D01*
X331536Y15329D01*
X331706Y15283D01*
X331873Y15234D01*
X331899Y15231D01*
X331925Y15224D01*
X332256Y15197D01*
X388467Y15197D01*
X388494Y15200D01*
X388521Y15198D01*
X388695Y15220D01*
X388868Y15237D01*
X388894Y15245D01*
X388920Y15248D01*
X389086Y15304D01*
X389253Y15355D01*
X389277Y15368D01*
X389302Y15376D01*
X389454Y15464D01*
X389607Y15547D01*
X389628Y15564D01*
X389651Y15577D01*
X389904Y15792D01*
X423358Y49246D01*
X423375Y49267D01*
X423395Y49284D01*
X423502Y49422D01*
X423613Y49557D01*
X423625Y49581D01*
X423642Y49602D01*
X423720Y49759D01*
X423801Y49913D01*
X423809Y49939D01*
X423821Y49963D01*
X423867Y50132D01*
X423916Y50299D01*
X423919Y50326D01*
X423926Y50352D01*
X423953Y50682D01*
X423953Y266666D01*
X423952Y266675D01*
X423953Y266684D01*
X423932Y266876D01*
X423913Y267067D01*
X423910Y267075D01*
X423909Y267084D01*
X423852Y267266D01*
X423795Y267452D01*
X423790Y267459D01*
X423788Y267468D01*
X423695Y267636D01*
X423603Y267806D01*
X423597Y267812D01*
X423593Y267820D01*
X423467Y267968D01*
X423345Y268115D01*
X423338Y268120D01*
X423332Y268127D01*
X423181Y268247D01*
X423031Y268367D01*
X423024Y268371D01*
X423016Y268377D01*
X422844Y268464D01*
X422674Y268553D01*
X422666Y268555D01*
X422658Y268559D01*
X422472Y268611D01*
X422287Y268664D01*
X422278Y268665D01*
X422270Y268667D01*
X422077Y268681D01*
X421886Y268697D01*
X421877Y268696D01*
X421868Y268697D01*
X421675Y268672D01*
X421486Y268650D01*
X421478Y268647D01*
X421469Y268646D01*
X421286Y268585D01*
X421103Y268525D01*
X421095Y268521D01*
X421087Y268518D01*
X420921Y268423D01*
X420753Y268327D01*
X420746Y268321D01*
X420738Y268317D01*
X420485Y268102D01*
X419013Y266630D01*
X417264Y265905D01*
X417263Y265905D01*
X417062Y265822D01*
X414951Y265822D01*
X413001Y266630D01*
X411508Y268123D01*
X410928Y269521D01*
X410914Y269549D01*
X410904Y269578D01*
X410819Y269726D01*
X410738Y269876D01*
X410718Y269900D01*
X410703Y269927D01*
X410488Y270180D01*
X400995Y279673D01*
X399423Y281245D01*
X398727Y282926D01*
X398727Y298511D01*
X398726Y298520D01*
X398727Y298529D01*
X398706Y298719D01*
X398687Y298912D01*
X398685Y298920D01*
X398684Y298929D01*
X398626Y299112D01*
X398569Y299296D01*
X398565Y299304D01*
X398562Y299313D01*
X398469Y299481D01*
X398377Y299650D01*
X398372Y299657D01*
X398367Y299665D01*
X398242Y299813D01*
X398120Y299960D01*
X398113Y299965D01*
X398107Y299972D01*
X397955Y300092D01*
X397806Y300212D01*
X397798Y300216D01*
X397791Y300222D01*
X397618Y300310D01*
X397449Y300398D01*
X397440Y300400D01*
X397432Y300404D01*
X397245Y300456D01*
X397062Y300509D01*
X397053Y300510D01*
X397044Y300512D01*
X396852Y300526D01*
X396660Y300542D01*
X396651Y300541D01*
X396642Y300541D01*
X396452Y300517D01*
X396260Y300495D01*
X396252Y300492D01*
X396243Y300491D01*
X396061Y300430D01*
X395878Y300370D01*
X395870Y300366D01*
X395861Y300363D01*
X395694Y300267D01*
X395527Y300172D01*
X395520Y300166D01*
X395512Y300162D01*
X395259Y299947D01*
X395167Y299855D01*
X395151Y299834D01*
X395130Y299817D01*
X395024Y299679D01*
X394912Y299544D01*
X394900Y299520D01*
X394884Y299499D01*
X394806Y299343D01*
X394724Y299188D01*
X394716Y299162D01*
X394704Y299138D01*
X394659Y298969D01*
X394609Y298802D01*
X394607Y298775D01*
X394600Y298750D01*
X394573Y298419D01*
X394573Y273232D01*
X394576Y273201D01*
X394574Y273169D01*
X394596Y273000D01*
X394613Y272831D01*
X394622Y272801D01*
X394626Y272770D01*
X394727Y272454D01*
X395307Y271056D01*
X395307Y268944D01*
X394499Y266994D01*
X393006Y265501D01*
X391056Y264693D01*
X388944Y264693D01*
X386994Y265501D01*
X385501Y266994D01*
X384693Y268944D01*
X384693Y271056D01*
X385273Y272454D01*
X385282Y272484D01*
X385296Y272512D01*
X385340Y272677D01*
X385389Y272840D01*
X385392Y272871D01*
X385400Y272901D01*
X385427Y273232D01*
X385427Y298419D01*
X385425Y298446D01*
X385427Y298472D01*
X385405Y298646D01*
X385387Y298820D01*
X385380Y298845D01*
X385376Y298872D01*
X385321Y299037D01*
X385269Y299205D01*
X385256Y299228D01*
X385248Y299253D01*
X385161Y299405D01*
X385077Y299559D01*
X385060Y299579D01*
X385047Y299602D01*
X384832Y299855D01*
X382739Y301948D01*
X381877Y304031D01*
X381872Y304039D01*
X381870Y304047D01*
X381777Y304217D01*
X381686Y304386D01*
X381681Y304393D01*
X381676Y304400D01*
X381553Y304548D01*
X381430Y304696D01*
X381423Y304702D01*
X381417Y304709D01*
X381267Y304829D01*
X381117Y304950D01*
X381109Y304954D01*
X381102Y304960D01*
X380930Y305048D01*
X380761Y305137D01*
X380752Y305139D01*
X380744Y305143D01*
X380559Y305196D01*
X380374Y305250D01*
X380365Y305251D01*
X380357Y305253D01*
X380166Y305268D01*
X379973Y305285D01*
X379964Y305284D01*
X379956Y305284D01*
X379764Y305261D01*
X379573Y305239D01*
X379565Y305237D01*
X379556Y305236D01*
X379373Y305175D01*
X379190Y305116D01*
X379182Y305112D01*
X379174Y305109D01*
X379007Y305014D01*
X378838Y304920D01*
X378832Y304914D01*
X378824Y304910D01*
X378680Y304784D01*
X378533Y304658D01*
X378527Y304651D01*
X378520Y304645D01*
X378403Y304493D01*
X378284Y304341D01*
X378280Y304333D01*
X378275Y304326D01*
X378123Y304031D01*
X377261Y301948D01*
X374852Y299539D01*
X371704Y298235D01*
X368296Y298235D01*
X365148Y299539D01*
X363040Y301647D01*
X363033Y301653D01*
X363028Y301660D01*
X362878Y301780D01*
X362729Y301902D01*
X362721Y301907D01*
X362714Y301912D01*
X362544Y302001D01*
X362373Y302091D01*
X362364Y302094D01*
X362357Y302098D01*
X362172Y302151D01*
X361987Y302206D01*
X361978Y302207D01*
X361970Y302209D01*
X361779Y302225D01*
X361586Y302242D01*
X361577Y302241D01*
X361568Y302242D01*
X361379Y302220D01*
X361186Y302199D01*
X361177Y302196D01*
X361169Y302195D01*
X360987Y302136D01*
X360802Y302077D01*
X360794Y302073D01*
X360786Y302070D01*
X360617Y301975D01*
X360450Y301882D01*
X360443Y301877D01*
X360435Y301872D01*
X360289Y301746D01*
X360143Y301622D01*
X360137Y301615D01*
X360130Y301609D01*
X360013Y301458D01*
X359893Y301306D01*
X359889Y301298D01*
X359884Y301291D01*
X359798Y301119D01*
X359711Y300947D01*
X359708Y300939D01*
X359704Y300931D01*
X359654Y300745D01*
X359603Y300559D01*
X359602Y300550D01*
X359600Y300542D01*
X359573Y300211D01*
X359573Y279090D01*
X358877Y277410D01*
X355519Y274052D01*
X355499Y274028D01*
X355475Y274007D01*
X355371Y273872D01*
X355263Y273740D01*
X355249Y273713D01*
X355230Y273688D01*
X355078Y273393D01*
X354499Y271994D01*
X353006Y270501D01*
X351056Y269693D01*
X348944Y269693D01*
X348338Y269944D01*
X348325Y269948D01*
X348314Y269954D01*
X348133Y270006D01*
X347953Y270061D01*
X347940Y270062D01*
X347927Y270066D01*
X347738Y270081D01*
X347552Y270099D01*
X347539Y270098D01*
X347525Y270099D01*
X347339Y270077D01*
X347152Y270057D01*
X347139Y270053D01*
X347126Y270052D01*
X346948Y269994D01*
X346767Y269937D01*
X346756Y269931D01*
X346743Y269927D01*
X346579Y269834D01*
X346414Y269744D01*
X346404Y269736D01*
X346392Y269729D01*
X346250Y269606D01*
X346106Y269485D01*
X346098Y269475D01*
X346087Y269466D01*
X345973Y269318D01*
X345855Y269170D01*
X345849Y269158D01*
X345841Y269148D01*
X345757Y268980D01*
X345671Y268812D01*
X345667Y268799D01*
X345661Y268787D01*
X345612Y268605D01*
X345561Y268425D01*
X345560Y268411D01*
X345557Y268398D01*
X345530Y268068D01*
X345530Y267679D01*
X292645Y214794D01*
X292639Y214787D01*
X292632Y214782D01*
X292512Y214632D01*
X292390Y214483D01*
X292385Y214475D01*
X292380Y214468D01*
X292291Y214297D01*
X292201Y214127D01*
X292198Y214119D01*
X292194Y214111D01*
X292141Y213925D01*
X292086Y213741D01*
X292085Y213732D01*
X292083Y213724D01*
X292067Y213532D01*
X292050Y213340D01*
X292051Y213331D01*
X292050Y213322D01*
X292072Y213133D01*
X292093Y212940D01*
X292096Y212931D01*
X292097Y212923D01*
X292156Y212741D01*
X292215Y212556D01*
X292219Y212548D01*
X292222Y212540D01*
X292317Y212371D01*
X292410Y212204D01*
X292415Y212197D01*
X292420Y212189D01*
X292546Y212043D01*
X292670Y211897D01*
X292677Y211891D01*
X292683Y211884D01*
X292834Y211767D01*
X292986Y211647D01*
X292994Y211643D01*
X293001Y211638D01*
X293173Y211552D01*
X293345Y211465D01*
X293353Y211462D01*
X293361Y211458D01*
X293548Y211408D01*
X293733Y211357D01*
X293742Y211356D01*
X293750Y211354D01*
X294081Y211327D01*
X328756Y211327D01*
X330436Y210631D01*
X350477Y190590D01*
X351173Y188910D01*
X351173Y186232D01*
X351176Y186201D01*
X351174Y186170D01*
X351196Y186000D01*
X351213Y185831D01*
X351222Y185801D01*
X351226Y185770D01*
X351327Y185454D01*
X351907Y184056D01*
X351907Y181944D01*
X351099Y179994D01*
X349606Y178501D01*
X347656Y177693D01*
X345544Y177693D01*
X343594Y178501D01*
X342101Y179994D01*
X341293Y181944D01*
X341293Y184056D01*
X341589Y184770D01*
X341596Y184792D01*
X341606Y184812D01*
X341654Y184984D01*
X341706Y185156D01*
X341708Y185178D01*
X341714Y185200D01*
X341727Y185379D01*
X341744Y185557D01*
X341742Y185579D01*
X341743Y185601D01*
X341721Y185779D01*
X341702Y185957D01*
X341696Y185978D01*
X341693Y186001D01*
X341636Y186171D01*
X341583Y186342D01*
X341572Y186361D01*
X341565Y186382D01*
X341475Y186537D01*
X341389Y186695D01*
X341375Y186712D01*
X341364Y186731D01*
X341149Y186984D01*
X326547Y201586D01*
X326526Y201603D01*
X326509Y201624D01*
X326371Y201731D01*
X326235Y201841D01*
X326212Y201854D01*
X326191Y201870D01*
X326034Y201948D01*
X325880Y202030D01*
X325854Y202038D01*
X325830Y202050D01*
X325661Y202095D01*
X325494Y202145D01*
X325467Y202147D01*
X325441Y202154D01*
X325111Y202181D01*
X285318Y202181D01*
X285304Y202180D01*
X285291Y202181D01*
X285105Y202160D01*
X284917Y202141D01*
X284904Y202137D01*
X284891Y202136D01*
X284713Y202079D01*
X284532Y202023D01*
X284520Y202017D01*
X284508Y202013D01*
X284343Y201921D01*
X284178Y201831D01*
X284168Y201823D01*
X284156Y201816D01*
X284012Y201693D01*
X283869Y201574D01*
X283861Y201563D01*
X283850Y201555D01*
X283734Y201406D01*
X283617Y201260D01*
X283610Y201248D01*
X283602Y201238D01*
X283517Y201068D01*
X283431Y200903D01*
X283427Y200890D01*
X283421Y200878D01*
X283371Y200696D01*
X283320Y200516D01*
X283319Y200502D01*
X283315Y200489D01*
X283302Y200303D01*
X283287Y200114D01*
X283288Y200101D01*
X283287Y200088D01*
X283312Y199901D01*
X283334Y199715D01*
X283338Y199702D01*
X283340Y199689D01*
X283407Y199480D01*
X283407Y197344D01*
X282599Y195394D01*
X281106Y193901D01*
X280927Y193827D01*
X280907Y193816D01*
X280886Y193809D01*
X280730Y193721D01*
X280572Y193637D01*
X280555Y193623D01*
X280535Y193612D01*
X280399Y193494D01*
X280261Y193380D01*
X280247Y193363D01*
X280230Y193348D01*
X280121Y193207D01*
X280008Y193068D01*
X279997Y193048D01*
X279984Y193030D01*
X279904Y192870D01*
X279821Y192711D01*
X279814Y192690D01*
X279804Y192670D01*
X279758Y192496D01*
X279708Y192325D01*
X279706Y192303D01*
X279700Y192281D01*
X279673Y191950D01*
X279673Y166293D01*
X278977Y164613D01*
X277405Y163041D01*
X276415Y162051D01*
X276395Y162027D01*
X276372Y162006D01*
X276268Y161872D01*
X276160Y161740D01*
X276145Y161712D01*
X276126Y161687D01*
X275975Y161392D01*
X275395Y159993D01*
X273903Y158500D01*
X271952Y157693D01*
X269841Y157693D01*
X267891Y158500D01*
X266398Y159993D01*
X265590Y161944D01*
X265590Y164055D01*
X266398Y166005D01*
X267891Y167498D01*
X269273Y168071D01*
X269293Y168081D01*
X269314Y168088D01*
X269471Y168177D01*
X269628Y168261D01*
X269645Y168275D01*
X269665Y168286D01*
X269801Y168404D01*
X269939Y168518D01*
X269953Y168535D01*
X269970Y168549D01*
X270079Y168691D01*
X270192Y168830D01*
X270203Y168850D01*
X270216Y168868D01*
X270296Y169028D01*
X270379Y169187D01*
X270386Y169208D01*
X270396Y169228D01*
X270442Y169402D01*
X270492Y169573D01*
X270494Y169595D01*
X270500Y169617D01*
X270527Y169948D01*
X270527Y196310D01*
X271223Y197990D01*
X271947Y198714D01*
X271953Y198721D01*
X271959Y198726D01*
X272079Y198875D01*
X272202Y199025D01*
X272206Y199033D01*
X272212Y199040D01*
X272300Y199210D01*
X272391Y199381D01*
X272393Y199390D01*
X272397Y199397D01*
X272450Y199582D01*
X272505Y199767D01*
X272506Y199776D01*
X272509Y199784D01*
X272524Y199975D01*
X272542Y200168D01*
X272541Y200177D01*
X272542Y200186D01*
X272519Y200375D01*
X272498Y200568D01*
X272496Y200577D01*
X272495Y200585D01*
X272435Y200768D01*
X272377Y200952D01*
X272373Y200960D01*
X272370Y200968D01*
X272276Y201135D01*
X272182Y201304D01*
X272176Y201311D01*
X272172Y201319D01*
X272047Y201464D01*
X271922Y201611D01*
X271915Y201617D01*
X271909Y201624D01*
X271757Y201741D01*
X271606Y201861D01*
X271598Y201865D01*
X271591Y201870D01*
X271419Y201956D01*
X271247Y202043D01*
X271238Y202046D01*
X271230Y202050D01*
X271045Y202099D01*
X270859Y202151D01*
X270850Y202152D01*
X270841Y202154D01*
X270511Y202181D01*
X262475Y202181D01*
X262449Y202179D01*
X262422Y202181D01*
X262248Y202159D01*
X262074Y202141D01*
X262049Y202134D01*
X262022Y202130D01*
X261857Y202075D01*
X261690Y202023D01*
X261666Y202010D01*
X261641Y202002D01*
X261489Y201915D01*
X261336Y201831D01*
X261315Y201814D01*
X261292Y201801D01*
X261039Y201586D01*
X259802Y200349D01*
X259785Y200329D01*
X259764Y200311D01*
X259657Y200173D01*
X259547Y200038D01*
X259534Y200014D01*
X259518Y199993D01*
X259440Y199836D01*
X259358Y199682D01*
X259350Y199657D01*
X259338Y199632D01*
X259293Y199463D01*
X259243Y199296D01*
X259241Y199270D01*
X259234Y199244D01*
X259207Y198913D01*
X259207Y198785D01*
X259209Y198758D01*
X259207Y198732D01*
X259229Y198558D01*
X259247Y198384D01*
X259254Y198359D01*
X259258Y198332D01*
X259313Y198167D01*
X259360Y198016D01*
X259360Y55797D01*
X259361Y55789D01*
X259360Y55780D01*
X259381Y55588D01*
X259400Y55397D01*
X259402Y55388D01*
X259403Y55379D01*
X259461Y55197D01*
X259518Y55012D01*
X259522Y55004D01*
X259525Y54996D01*
X259618Y54827D01*
X259709Y54658D01*
X259715Y54651D01*
X259720Y54643D01*
X259845Y54495D01*
X259967Y54349D01*
X259974Y54343D01*
X259980Y54336D01*
X260132Y54216D01*
X260281Y54096D01*
X260289Y54092D01*
X260296Y54087D01*
X260468Y53999D01*
X260638Y53911D01*
X260647Y53908D01*
X260655Y53904D01*
X260841Y53852D01*
X261025Y53799D01*
X261034Y53799D01*
X261043Y53796D01*
X261235Y53782D01*
X261426Y53766D01*
X261435Y53768D01*
X261444Y53767D01*
X261637Y53791D01*
X261826Y53813D01*
X261835Y53816D01*
X261844Y53817D01*
X262026Y53879D01*
X262209Y53938D01*
X262217Y53943D01*
X262225Y53945D01*
X262391Y54041D01*
X262560Y54136D01*
X262567Y54142D01*
X262574Y54146D01*
X262827Y54361D01*
X264213Y55747D01*
X267545Y57127D01*
X271151Y57127D01*
X274483Y55747D01*
X277033Y53197D01*
X278413Y49866D01*
X278413Y31179D01*
X277033Y27848D01*
X274483Y25298D01*
X271800Y24186D01*
X271151Y23918D01*
X267545Y23918D01*
X264213Y25298D01*
X261663Y27848D01*
X260283Y31179D01*
X260283Y43217D01*
X260281Y43243D01*
X260283Y43270D01*
X260261Y43444D01*
X260243Y43617D01*
X260236Y43643D01*
X260232Y43670D01*
X260177Y43835D01*
X260125Y44002D01*
X260113Y44026D01*
X260104Y44051D01*
X260017Y44203D01*
X259934Y44356D01*
X259917Y44377D01*
X259903Y44400D01*
X259688Y44653D01*
X256480Y47861D01*
X256473Y47867D01*
X256468Y47874D01*
X256318Y47994D01*
X256169Y48116D01*
X256161Y48120D01*
X256154Y48126D01*
X255983Y48215D01*
X255813Y48305D01*
X255805Y48307D01*
X255797Y48311D01*
X255612Y48365D01*
X255427Y48420D01*
X255418Y48420D01*
X255410Y48423D01*
X255219Y48439D01*
X255026Y48456D01*
X255017Y48455D01*
X255009Y48456D01*
X254819Y48434D01*
X254626Y48413D01*
X254617Y48410D01*
X254609Y48409D01*
X254427Y48349D01*
X254242Y48291D01*
X254234Y48287D01*
X254226Y48284D01*
X254058Y48189D01*
X253890Y48096D01*
X253883Y48091D01*
X253875Y48086D01*
X253729Y47960D01*
X253583Y47836D01*
X253577Y47829D01*
X253571Y47823D01*
X253453Y47672D01*
X253333Y47520D01*
X253329Y47512D01*
X253324Y47505D01*
X253238Y47333D01*
X253151Y47161D01*
X253149Y47152D01*
X253145Y47144D01*
X253094Y46958D01*
X253043Y46773D01*
X253042Y46764D01*
X253040Y46756D01*
X253013Y46425D01*
X253013Y31179D01*
X251633Y27848D01*
X249083Y25298D01*
X246400Y24186D01*
X245751Y23918D01*
X242145Y23918D01*
X238813Y25298D01*
X236263Y27848D01*
X234883Y31179D01*
X234883Y49866D01*
X236263Y53197D01*
X238813Y55747D01*
X239264Y55934D01*
X239284Y55945D01*
X239305Y55951D01*
X239461Y56040D01*
X239619Y56124D01*
X239637Y56138D01*
X239656Y56149D01*
X239791Y56266D01*
X239930Y56381D01*
X239944Y56398D01*
X239961Y56413D01*
X240070Y56554D01*
X240183Y56693D01*
X240194Y56713D01*
X240207Y56731D01*
X240287Y56891D01*
X240370Y57050D01*
X240377Y57071D01*
X240387Y57091D01*
X240433Y57265D01*
X240484Y57436D01*
X240485Y57458D01*
X240491Y57480D01*
X240518Y57811D01*
X240518Y138537D01*
X240516Y138563D01*
X240518Y138590D01*
X240496Y138764D01*
X240478Y138937D01*
X240471Y138963D01*
X240467Y138990D01*
X240412Y139155D01*
X240360Y139322D01*
X240348Y139346D01*
X240339Y139371D01*
X240252Y139523D01*
X240169Y139676D01*
X240152Y139697D01*
X240138Y139720D01*
X239923Y139973D01*
X238879Y141018D01*
X238071Y142968D01*
X238071Y145080D01*
X238879Y147030D01*
X240371Y148523D01*
X242322Y149331D01*
X244433Y149331D01*
X246384Y148523D01*
X247876Y147030D01*
X248592Y145301D01*
X248594Y145297D01*
X248596Y145293D01*
X248689Y145120D01*
X248783Y144946D01*
X248785Y144943D01*
X248788Y144939D01*
X248913Y144789D01*
X249039Y144636D01*
X249042Y144633D01*
X249045Y144630D01*
X249198Y144507D01*
X249352Y144382D01*
X249356Y144380D01*
X249359Y144377D01*
X249532Y144287D01*
X249708Y144195D01*
X249712Y144194D01*
X249716Y144192D01*
X249904Y144138D01*
X250094Y144082D01*
X250099Y144082D01*
X250103Y144081D01*
X250301Y144064D01*
X250496Y144048D01*
X250500Y144048D01*
X250505Y144048D01*
X250699Y144070D01*
X250896Y144093D01*
X250900Y144094D01*
X250904Y144095D01*
X251090Y144155D01*
X251279Y144216D01*
X251283Y144218D01*
X251287Y144219D01*
X251459Y144316D01*
X251630Y144412D01*
X251634Y144415D01*
X251638Y144417D01*
X251786Y144546D01*
X251936Y144674D01*
X251939Y144678D01*
X251942Y144680D01*
X252062Y144835D01*
X252185Y144991D01*
X252187Y144995D01*
X252189Y144999D01*
X252277Y145175D01*
X252365Y145351D01*
X252367Y145355D01*
X252369Y145359D01*
X252420Y145550D01*
X252472Y145739D01*
X252472Y145744D01*
X252473Y145748D01*
X252500Y146079D01*
X252500Y191879D01*
X252498Y191901D01*
X252500Y191923D01*
X252478Y192101D01*
X252460Y192279D01*
X252454Y192300D01*
X252451Y192323D01*
X252395Y192493D01*
X252342Y192664D01*
X252332Y192684D01*
X252325Y192705D01*
X252236Y192860D01*
X252150Y193018D01*
X252136Y193035D01*
X252125Y193055D01*
X252007Y193190D01*
X251893Y193327D01*
X251875Y193341D01*
X251861Y193358D01*
X251718Y193468D01*
X251579Y193580D01*
X251559Y193590D01*
X251541Y193604D01*
X251246Y193755D01*
X250627Y194012D01*
X250614Y194016D01*
X250603Y194022D01*
X250422Y194074D01*
X250242Y194128D01*
X250229Y194129D01*
X250216Y194133D01*
X250027Y194149D01*
X249841Y194166D01*
X249828Y194165D01*
X249814Y194166D01*
X249628Y194144D01*
X249441Y194125D01*
X249428Y194121D01*
X249415Y194119D01*
X249237Y194061D01*
X249056Y194005D01*
X249045Y193998D01*
X249032Y193994D01*
X248868Y193902D01*
X248703Y193812D01*
X248693Y193803D01*
X248681Y193796D01*
X248539Y193673D01*
X248395Y193552D01*
X248387Y193542D01*
X248376Y193533D01*
X248262Y193385D01*
X248144Y193238D01*
X248138Y193226D01*
X248130Y193215D01*
X248046Y193047D01*
X247960Y192879D01*
X247956Y192867D01*
X247950Y192855D01*
X247901Y192672D01*
X247850Y192492D01*
X247849Y192479D01*
X247846Y192466D01*
X247819Y192135D01*
X247819Y164968D01*
X208802Y125951D01*
X208785Y125931D01*
X208764Y125913D01*
X208657Y125775D01*
X208547Y125640D01*
X208534Y125616D01*
X208518Y125595D01*
X208440Y125438D01*
X208358Y125284D01*
X208350Y125259D01*
X208338Y125234D01*
X208293Y125065D01*
X208243Y124898D01*
X208241Y124872D01*
X208234Y124846D01*
X208207Y124515D01*
X208207Y123844D01*
X207399Y121894D01*
X205906Y120401D01*
X204105Y119655D01*
X203956Y119593D01*
X201844Y119593D01*
X199894Y120401D01*
X198401Y121894D01*
X198306Y122124D01*
X198302Y122132D01*
X198299Y122140D01*
X198207Y122309D01*
X198116Y122479D01*
X198110Y122486D01*
X198106Y122494D01*
X197982Y122640D01*
X197859Y122789D01*
X197852Y122795D01*
X197847Y122802D01*
X197696Y122921D01*
X197547Y123043D01*
X197539Y123047D01*
X197532Y123053D01*
X197360Y123141D01*
X197190Y123230D01*
X197182Y123232D01*
X197174Y123237D01*
X196987Y123290D01*
X196804Y123343D01*
X196795Y123344D01*
X196786Y123346D01*
X196593Y123361D01*
X196403Y123378D01*
X196394Y123377D01*
X196385Y123377D01*
X196194Y123354D01*
X196003Y123333D01*
X195994Y123330D01*
X195985Y123329D01*
X195803Y123268D01*
X195619Y123209D01*
X195611Y123205D01*
X195603Y123202D01*
X195436Y123107D01*
X195268Y123013D01*
X195261Y123007D01*
X195253Y123003D01*
X195108Y122876D01*
X194962Y122751D01*
X194956Y122744D01*
X194950Y122738D01*
X194832Y122586D01*
X194714Y122434D01*
X194710Y122426D01*
X194704Y122419D01*
X194553Y122124D01*
X194499Y121994D01*
X193006Y120501D01*
X191056Y119693D01*
X188944Y119693D01*
X186994Y120501D01*
X185501Y121994D01*
X184693Y123944D01*
X184693Y126056D01*
X185501Y128006D01*
X186994Y129499D01*
X188944Y130307D01*
X189615Y130307D01*
X189642Y130309D01*
X189668Y130307D01*
X189842Y130329D01*
X190016Y130347D01*
X190041Y130354D01*
X190068Y130358D01*
X190233Y130413D01*
X190401Y130465D01*
X190424Y130478D01*
X190449Y130486D01*
X190601Y130573D01*
X190755Y130657D01*
X190775Y130674D01*
X190798Y130687D01*
X191051Y130902D01*
X232330Y172181D01*
X232347Y172201D01*
X232368Y172219D01*
X232475Y172357D01*
X232585Y172492D01*
X232598Y172516D01*
X232614Y172537D01*
X232692Y172694D01*
X232774Y172848D01*
X232782Y172873D01*
X232794Y172898D01*
X232839Y173067D01*
X232889Y173234D01*
X232891Y173260D01*
X232898Y173286D01*
X232925Y173617D01*
X232925Y207793D01*
X250127Y224995D01*
X282134Y224995D01*
X282160Y224997D01*
X282187Y224995D01*
X282361Y225017D01*
X282534Y225035D01*
X282560Y225042D01*
X282587Y225046D01*
X282752Y225101D01*
X282919Y225153D01*
X282943Y225166D01*
X282968Y225174D01*
X283120Y225261D01*
X283273Y225345D01*
X283294Y225362D01*
X283317Y225375D01*
X283570Y225590D01*
X317927Y259947D01*
X317930Y259950D01*
X317934Y259953D01*
X318058Y260107D01*
X318182Y260258D01*
X318185Y260262D01*
X318187Y260266D01*
X318281Y260444D01*
X318371Y260614D01*
X318372Y260618D01*
X318374Y260622D01*
X318430Y260813D01*
X318486Y261000D01*
X318486Y261004D01*
X318488Y261009D01*
X318504Y261201D01*
X318522Y261401D01*
X318522Y261406D01*
X318522Y261410D01*
X318501Y261600D01*
X318479Y261801D01*
X318477Y261806D01*
X318477Y261810D01*
X318418Y261994D01*
X318357Y262185D01*
X318355Y262189D01*
X318354Y262193D01*
X318257Y262366D01*
X318163Y262537D01*
X318160Y262541D01*
X318157Y262545D01*
X318028Y262696D01*
X317902Y262844D01*
X317899Y262847D01*
X317896Y262851D01*
X317742Y262971D01*
X317586Y263094D01*
X317582Y263096D01*
X317579Y263099D01*
X317403Y263187D01*
X317227Y263276D01*
X317223Y263278D01*
X317219Y263280D01*
X317029Y263332D01*
X316839Y263384D01*
X316835Y263385D01*
X316831Y263386D01*
X316638Y263399D01*
X316438Y263414D01*
X316433Y263413D01*
X316429Y263413D01*
X316239Y263389D01*
X316038Y263363D01*
X316034Y263362D01*
X316030Y263361D01*
X315714Y263260D01*
X314060Y262575D01*
X313824Y262575D01*
X313797Y262572D01*
X313771Y262574D01*
X313597Y262552D01*
X313423Y262535D01*
X313398Y262527D01*
X313371Y262524D01*
X313206Y262468D01*
X313038Y262417D01*
X313015Y262404D01*
X312990Y262396D01*
X312838Y262308D01*
X312684Y262225D01*
X312664Y262208D01*
X312641Y262195D01*
X312388Y261980D01*
X282881Y232473D01*
X282167Y232473D01*
X282141Y232471D01*
X282114Y232473D01*
X281940Y232451D01*
X281767Y232433D01*
X281741Y232426D01*
X281715Y232422D01*
X281549Y232367D01*
X281382Y232315D01*
X281358Y232302D01*
X281333Y232294D01*
X281181Y232207D01*
X281028Y232124D01*
X281007Y232106D01*
X280984Y232093D01*
X280731Y231878D01*
X280564Y231711D01*
X278705Y230941D01*
X276694Y230941D01*
X274835Y231711D01*
X273412Y233134D01*
X272638Y235003D01*
X272630Y235018D01*
X272624Y235035D01*
X272535Y235196D01*
X272448Y235357D01*
X272437Y235371D01*
X272428Y235387D01*
X272309Y235526D01*
X272192Y235668D01*
X272178Y235679D01*
X272166Y235693D01*
X272021Y235806D01*
X271879Y235921D01*
X271863Y235930D01*
X271849Y235941D01*
X271686Y236023D01*
X271523Y236109D01*
X271505Y236114D01*
X271489Y236122D01*
X271313Y236170D01*
X271136Y236222D01*
X271118Y236223D01*
X271101Y236228D01*
X270918Y236240D01*
X270735Y236256D01*
X270717Y236254D01*
X270699Y236255D01*
X270517Y236232D01*
X270335Y236211D01*
X270318Y236206D01*
X270300Y236203D01*
X269984Y236102D01*
X269131Y235748D01*
X268894Y235748D01*
X268868Y235746D01*
X268841Y235748D01*
X268667Y235726D01*
X268494Y235708D01*
X268468Y235700D01*
X268442Y235697D01*
X268276Y235641D01*
X268109Y235590D01*
X268085Y235577D01*
X268060Y235569D01*
X267908Y235482D01*
X267755Y235398D01*
X267734Y235381D01*
X267711Y235368D01*
X267458Y235153D01*
X264341Y232036D01*
X241882Y232036D01*
X236989Y236930D01*
X236968Y236946D01*
X236951Y236967D01*
X236813Y237074D01*
X236678Y237185D01*
X236654Y237197D01*
X236633Y237214D01*
X236476Y237292D01*
X236322Y237373D01*
X236296Y237381D01*
X236272Y237393D01*
X236103Y237438D01*
X235936Y237488D01*
X235909Y237490D01*
X235883Y237497D01*
X235553Y237524D01*
X235002Y237524D01*
X234874Y237537D01*
X234865Y237536D01*
X234855Y237537D01*
X234663Y237515D01*
X234474Y237495D01*
X234465Y237492D01*
X234455Y237491D01*
X234272Y237432D01*
X234089Y237375D01*
X234081Y237371D01*
X234072Y237368D01*
X233905Y237275D01*
X233736Y237182D01*
X233729Y237176D01*
X233721Y237171D01*
X233575Y237047D01*
X233428Y236923D01*
X233422Y236916D01*
X233415Y236909D01*
X233296Y236758D01*
X233177Y236608D01*
X233173Y236600D01*
X233167Y236592D01*
X233081Y236421D01*
X232993Y236250D01*
X232990Y236241D01*
X232986Y236233D01*
X232935Y236048D01*
X232883Y235863D01*
X232882Y235853D01*
X232880Y235844D01*
X232867Y235653D01*
X232852Y235461D01*
X232853Y235452D01*
X232852Y235443D01*
X232871Y235297D01*
X232871Y234201D01*
X232875Y234170D01*
X232872Y234139D01*
X232895Y233969D01*
X232911Y233800D01*
X232920Y233770D01*
X232925Y233739D01*
X233026Y233423D01*
X233605Y232025D01*
X233605Y229913D01*
X232798Y227963D01*
X231305Y226470D01*
X229354Y225662D01*
X227243Y225662D01*
X225293Y226470D01*
X223800Y227963D01*
X222992Y229913D01*
X222992Y232142D01*
X222989Y232169D01*
X222991Y232195D01*
X222969Y232369D01*
X222952Y232543D01*
X222944Y232568D01*
X222941Y232595D01*
X222885Y232760D01*
X222834Y232928D01*
X222821Y232951D01*
X222813Y232976D01*
X222725Y233128D01*
X222642Y233282D01*
X222625Y233302D01*
X222612Y233325D01*
X222397Y233578D01*
X134040Y321935D01*
X134033Y321941D01*
X134028Y321948D01*
X133878Y322068D01*
X133729Y322190D01*
X133721Y322194D01*
X133714Y322200D01*
X133543Y322289D01*
X133373Y322379D01*
X133364Y322381D01*
X133357Y322386D01*
X133171Y322439D01*
X132987Y322494D01*
X132978Y322494D01*
X132970Y322497D01*
X132778Y322513D01*
X132586Y322530D01*
X132577Y322529D01*
X132568Y322530D01*
X132379Y322508D01*
X132186Y322487D01*
X132177Y322484D01*
X132169Y322483D01*
X131987Y322424D01*
X131802Y322365D01*
X131794Y322361D01*
X131786Y322358D01*
X131617Y322263D01*
X131450Y322170D01*
X131443Y322165D01*
X131435Y322160D01*
X131289Y322034D01*
X131143Y321910D01*
X131137Y321903D01*
X131130Y321897D01*
X131013Y321746D01*
X130893Y321594D01*
X130889Y321586D01*
X130884Y321579D01*
X130798Y321407D01*
X130711Y321235D01*
X130708Y321226D01*
X130704Y321218D01*
X130654Y321032D01*
X130603Y320847D01*
X130602Y320838D01*
X130600Y320830D01*
X130573Y320499D01*
X130573Y317988D01*
X129765Y316037D01*
X129386Y315658D01*
X129369Y315637D01*
X129348Y315620D01*
X129241Y315482D01*
X129131Y315347D01*
X129118Y315323D01*
X129102Y315302D01*
X129024Y315145D01*
X128942Y314991D01*
X128934Y314965D01*
X128922Y314941D01*
X128877Y314772D01*
X128827Y314605D01*
X128825Y314578D01*
X128818Y314553D01*
X128791Y314222D01*
X128791Y265038D01*
X128792Y265020D01*
X128791Y265002D01*
X128812Y264820D01*
X128831Y264637D01*
X128836Y264620D01*
X128838Y264603D01*
X128895Y264428D01*
X128949Y264252D01*
X128957Y264237D01*
X128963Y264220D01*
X129053Y264059D01*
X129140Y263898D01*
X129152Y263885D01*
X129161Y263869D01*
X129281Y263730D01*
X129398Y263589D01*
X129412Y263578D01*
X129424Y263564D01*
X129569Y263452D01*
X129712Y263337D01*
X129728Y263329D01*
X129742Y263318D01*
X129907Y263236D01*
X130069Y263151D01*
X130086Y263146D01*
X130102Y263138D01*
X130281Y263091D01*
X130456Y263040D01*
X130474Y263038D01*
X130491Y263034D01*
X130822Y263007D01*
X130956Y263007D01*
X132906Y262199D01*
X134399Y260706D01*
X135207Y258756D01*
X135207Y256644D01*
X134399Y254694D01*
X134120Y254415D01*
X134103Y254394D01*
X134082Y254377D01*
X133975Y254239D01*
X133865Y254103D01*
X133852Y254080D01*
X133836Y254059D01*
X133758Y253902D01*
X133676Y253748D01*
X133668Y253722D01*
X133656Y253698D01*
X133611Y253529D01*
X133561Y253362D01*
X133559Y253335D01*
X133552Y253309D01*
X133525Y252979D01*
X133525Y188349D01*
X133525Y188345D01*
X133525Y188340D01*
X133545Y188146D01*
X133565Y187949D01*
X133566Y187945D01*
X133566Y187940D01*
X133625Y187751D01*
X133683Y187564D01*
X133685Y187560D01*
X133686Y187556D01*
X133782Y187381D01*
X133875Y187210D01*
X133877Y187206D01*
X133880Y187202D01*
X134008Y187049D01*
X134132Y186901D01*
X134136Y186898D01*
X134139Y186894D01*
X134295Y186770D01*
X134446Y186648D01*
X134450Y186646D01*
X134454Y186643D01*
X134631Y186552D01*
X134803Y186463D01*
X134808Y186462D01*
X134812Y186459D01*
X135004Y186405D01*
X135190Y186351D01*
X135195Y186351D01*
X135199Y186350D01*
X135395Y186335D01*
X135592Y186318D01*
X135596Y186319D01*
X135600Y186319D01*
X135795Y186342D01*
X135991Y186365D01*
X135996Y186367D01*
X136000Y186367D01*
X136187Y186429D01*
X136374Y186490D01*
X136378Y186492D01*
X136382Y186494D01*
X136551Y186590D01*
X136725Y186688D01*
X136728Y186691D01*
X136732Y186693D01*
X136881Y186823D01*
X137029Y186951D01*
X137032Y186955D01*
X137036Y186958D01*
X137157Y187115D01*
X137276Y187269D01*
X137278Y187273D01*
X137281Y187277D01*
X137433Y187572D01*
X137796Y188450D01*
X138686Y189782D01*
X139818Y190914D01*
X141150Y191804D01*
X142629Y192416D01*
X142969Y192484D01*
X142969Y184600D01*
X142969Y176716D01*
X142629Y176784D01*
X141150Y177396D01*
X139818Y178286D01*
X138686Y179418D01*
X137796Y180750D01*
X137433Y181628D01*
X137431Y181632D01*
X137429Y181636D01*
X137336Y181809D01*
X137242Y181983D01*
X137240Y181986D01*
X137237Y181990D01*
X137112Y182140D01*
X136986Y182293D01*
X136983Y182296D01*
X136980Y182299D01*
X136826Y182423D01*
X136673Y182547D01*
X136669Y182549D01*
X136666Y182552D01*
X136491Y182642D01*
X136317Y182734D01*
X136313Y182735D01*
X136309Y182737D01*
X136121Y182791D01*
X135930Y182847D01*
X135926Y182847D01*
X135922Y182849D01*
X135724Y182865D01*
X135529Y182882D01*
X135525Y182881D01*
X135520Y182882D01*
X135325Y182859D01*
X135129Y182837D01*
X135125Y182835D01*
X135121Y182835D01*
X134933Y182773D01*
X134746Y182713D01*
X134742Y182711D01*
X134738Y182710D01*
X134565Y182612D01*
X134394Y182517D01*
X134391Y182514D01*
X134387Y182512D01*
X134239Y182384D01*
X134089Y182255D01*
X134086Y182252D01*
X134082Y182249D01*
X133963Y182095D01*
X133840Y181938D01*
X133838Y181934D01*
X133836Y181931D01*
X133749Y181756D01*
X133660Y181578D01*
X133658Y181574D01*
X133656Y181570D01*
X133605Y181380D01*
X133553Y181190D01*
X133553Y181186D01*
X133552Y181181D01*
X133525Y180851D01*
X133525Y173540D01*
X130865Y170881D01*
X130865Y170880D01*
X124120Y164135D01*
X124103Y164114D01*
X124082Y164097D01*
X123975Y163959D01*
X123865Y163823D01*
X123852Y163800D01*
X123836Y163779D01*
X123758Y163622D01*
X123676Y163468D01*
X123668Y163442D01*
X123656Y163418D01*
X123611Y163249D01*
X123561Y163082D01*
X123559Y163055D01*
X123552Y163029D01*
X123525Y162699D01*
X123525Y159822D01*
X123527Y159795D01*
X123525Y159768D01*
X123547Y159594D01*
X123565Y159421D01*
X123572Y159395D01*
X123576Y159369D01*
X123631Y159203D01*
X123683Y159036D01*
X123696Y159012D01*
X123704Y158987D01*
X123791Y158835D01*
X123875Y158682D01*
X123892Y158661D01*
X123905Y158638D01*
X124120Y158385D01*
X124499Y158006D01*
X125307Y156056D01*
X125307Y153944D01*
X124499Y151994D01*
X124025Y151520D01*
X124008Y151499D01*
X123987Y151482D01*
X123880Y151344D01*
X123770Y151208D01*
X123757Y151185D01*
X123741Y151164D01*
X123663Y151007D01*
X123581Y150853D01*
X123573Y150827D01*
X123561Y150803D01*
X123516Y150634D01*
X123466Y150467D01*
X123464Y150440D01*
X123457Y150414D01*
X123430Y150083D01*
X123430Y94418D01*
X123432Y94391D01*
X123430Y94364D01*
X123452Y94190D01*
X123470Y94017D01*
X123477Y93991D01*
X123481Y93965D01*
X123536Y93799D01*
X123588Y93632D01*
X123601Y93608D01*
X123609Y93583D01*
X123696Y93432D01*
X123780Y93278D01*
X123797Y93258D01*
X123810Y93234D01*
X124025Y92981D01*
X161300Y55706D01*
X161314Y55695D01*
X161325Y55681D01*
X161469Y55568D01*
X161611Y55451D01*
X161627Y55443D01*
X161641Y55432D01*
X161805Y55348D01*
X161967Y55263D01*
X161984Y55257D01*
X162000Y55249D01*
X162177Y55200D01*
X162353Y55148D01*
X162371Y55146D01*
X162388Y55141D01*
X162571Y55128D01*
X162754Y55111D01*
X162772Y55113D01*
X162789Y55112D01*
X162971Y55135D01*
X163154Y55155D01*
X163171Y55160D01*
X163189Y55162D01*
X163362Y55221D01*
X163538Y55276D01*
X163554Y55285D01*
X163571Y55291D01*
X163730Y55382D01*
X163890Y55471D01*
X163904Y55483D01*
X163919Y55492D01*
X164172Y55706D01*
X164213Y55747D01*
X167545Y57127D01*
X171151Y57127D01*
X174483Y55747D01*
X177033Y53197D01*
X178413Y49866D01*
X178413Y31179D01*
X177031Y27843D01*
X176922Y27708D01*
X176800Y27559D01*
X176796Y27551D01*
X176790Y27544D01*
X176702Y27374D01*
X176612Y27203D01*
X176609Y27194D01*
X176605Y27186D01*
X176552Y27002D01*
X176497Y26817D01*
X176496Y26808D01*
X176493Y26800D01*
X176478Y26608D01*
X176460Y26416D01*
X176461Y26407D01*
X176461Y26398D01*
X176483Y26208D01*
X176504Y26016D01*
X176506Y26007D01*
X176507Y25998D01*
X176567Y25815D01*
X176625Y25632D01*
X176630Y25624D01*
X176632Y25616D01*
X176728Y25447D01*
X176820Y25280D01*
X176826Y25273D01*
X176830Y25265D01*
X176956Y25119D01*
X177080Y24973D01*
X177088Y24967D01*
X177093Y24960D01*
X177245Y24843D01*
X177396Y24723D01*
X177404Y24719D01*
X177411Y24713D01*
X177584Y24628D01*
X177755Y24541D01*
X177764Y24538D01*
X177772Y24534D01*
X177960Y24484D01*
X178143Y24433D01*
X178152Y24432D01*
X178161Y24430D01*
X178492Y24403D01*
X181813Y24403D01*
X181840Y24405D01*
X181866Y24403D01*
X182040Y24425D01*
X182214Y24442D01*
X182239Y24450D01*
X182266Y24454D01*
X182431Y24509D01*
X182599Y24561D01*
X182622Y24573D01*
X182648Y24582D01*
X182799Y24669D01*
X182953Y24752D01*
X182973Y24769D01*
X182996Y24783D01*
X183249Y24997D01*
X185256Y27004D01*
X185270Y27021D01*
X185287Y27036D01*
X185397Y27177D01*
X185511Y27315D01*
X185521Y27335D01*
X185535Y27353D01*
X185616Y27513D01*
X185699Y27671D01*
X185706Y27692D01*
X185716Y27712D01*
X185763Y27885D01*
X185814Y28057D01*
X185816Y28079D01*
X185822Y28101D01*
X185834Y28279D01*
X185851Y28458D01*
X185848Y28480D01*
X185850Y28502D01*
X185827Y28680D01*
X185807Y28858D01*
X185800Y28879D01*
X185798Y28902D01*
X185696Y29217D01*
X184883Y31179D01*
X184883Y49866D01*
X186263Y53197D01*
X188813Y55747D01*
X192145Y57127D01*
X195751Y57127D01*
X199083Y55747D01*
X201633Y53197D01*
X203013Y49866D01*
X203013Y31179D01*
X201633Y27848D01*
X199083Y25298D01*
X196400Y24186D01*
X195751Y23918D01*
X192712Y23918D01*
X192685Y23915D01*
X192658Y23917D01*
X192485Y23895D01*
X192311Y23878D01*
X192286Y23870D01*
X192259Y23867D01*
X192093Y23811D01*
X191926Y23760D01*
X191903Y23747D01*
X191877Y23738D01*
X191726Y23651D01*
X191572Y23568D01*
X191552Y23551D01*
X191528Y23537D01*
X191275Y23323D01*
X188100Y20147D01*
X188083Y20126D01*
X188063Y20109D01*
X187956Y19971D01*
X187845Y19836D01*
X187832Y19812D01*
X187816Y19791D01*
X187738Y19634D01*
X187706Y19573D01*
X185421Y17289D01*
X135175Y17289D01*
X132497Y19967D01*
X132496Y19968D01*
X129970Y22494D01*
X126708Y25756D01*
X126694Y25767D01*
X126683Y25781D01*
X126539Y25895D01*
X126397Y26011D01*
X126381Y26019D01*
X126367Y26030D01*
X126203Y26114D01*
X126041Y26199D01*
X126024Y26204D01*
X126008Y26212D01*
X125831Y26262D01*
X125655Y26314D01*
X125637Y26316D01*
X125620Y26320D01*
X125437Y26334D01*
X125254Y26350D01*
X125236Y26349D01*
X125219Y26350D01*
X125037Y26327D01*
X124854Y26307D01*
X124837Y26302D01*
X124819Y26299D01*
X124646Y26241D01*
X124470Y26186D01*
X124454Y26177D01*
X124438Y26171D01*
X124278Y26079D01*
X124118Y25991D01*
X124104Y25979D01*
X124089Y25970D01*
X123836Y25756D01*
X123378Y25298D01*
X120695Y24186D01*
X120046Y23918D01*
X116440Y23918D01*
X113108Y25298D01*
X110558Y27848D01*
X109178Y31179D01*
X109178Y49866D01*
X110558Y53197D01*
X113227Y55866D01*
X113239Y55880D01*
X113252Y55891D01*
X113366Y56036D01*
X113482Y56178D01*
X113491Y56193D01*
X113502Y56207D01*
X113585Y56372D01*
X113671Y56533D01*
X113676Y56550D01*
X113684Y56566D01*
X113733Y56743D01*
X113786Y56919D01*
X113787Y56937D01*
X113792Y56954D01*
X113806Y57137D01*
X113822Y57320D01*
X113820Y57338D01*
X113821Y57356D01*
X113799Y57538D01*
X113779Y57720D01*
X113773Y57738D01*
X113771Y57755D01*
X113713Y57929D01*
X113657Y58104D01*
X113649Y58120D01*
X113643Y58137D01*
X113551Y58296D01*
X113462Y58457D01*
X113451Y58470D01*
X113442Y58486D01*
X113227Y58739D01*
X98820Y73146D01*
X98813Y73151D01*
X98808Y73158D01*
X98658Y73278D01*
X98509Y73401D01*
X98501Y73405D01*
X98494Y73410D01*
X98323Y73499D01*
X98153Y73589D01*
X98145Y73592D01*
X98137Y73596D01*
X97952Y73649D01*
X97767Y73704D01*
X97758Y73705D01*
X97750Y73707D01*
X97559Y73723D01*
X97366Y73740D01*
X97357Y73740D01*
X97349Y73740D01*
X97159Y73718D01*
X96966Y73697D01*
X96957Y73694D01*
X96949Y73693D01*
X96767Y73634D01*
X96582Y73576D01*
X96574Y73571D01*
X96566Y73568D01*
X96398Y73473D01*
X96230Y73381D01*
X96223Y73375D01*
X96215Y73371D01*
X96069Y73245D01*
X95923Y73120D01*
X95917Y73113D01*
X95911Y73107D01*
X95793Y72956D01*
X95673Y72804D01*
X95669Y72796D01*
X95664Y72789D01*
X95578Y72617D01*
X95491Y72445D01*
X95489Y72437D01*
X95485Y72429D01*
X95434Y72242D01*
X95383Y72058D01*
X95382Y72049D01*
X95380Y72040D01*
X95353Y71709D01*
X95353Y58192D01*
X95355Y58169D01*
X95353Y58147D01*
X95375Y57970D01*
X95393Y57791D01*
X95399Y57770D01*
X95402Y57748D01*
X95458Y57578D01*
X95511Y57406D01*
X95522Y57386D01*
X95529Y57365D01*
X95617Y57210D01*
X95703Y57052D01*
X95717Y57035D01*
X95728Y57016D01*
X95846Y56880D01*
X95960Y56743D01*
X95978Y56729D01*
X95992Y56712D01*
X96135Y56603D01*
X96274Y56491D01*
X96294Y56480D01*
X96312Y56467D01*
X96607Y56315D01*
X97978Y55747D01*
X100528Y53197D01*
X101908Y49866D01*
X101908Y31179D01*
X100528Y27848D01*
X97978Y25298D01*
X95295Y24186D01*
X94646Y23918D01*
X91040Y23918D01*
X87708Y25298D01*
X85158Y27848D01*
X83778Y31179D01*
X83778Y49866D01*
X85158Y53197D01*
X87708Y55747D01*
X87725Y55768D01*
X87746Y55786D01*
X87853Y55923D01*
X87963Y56059D01*
X87976Y56082D01*
X87992Y56104D01*
X88070Y56261D01*
X88152Y56415D01*
X88160Y56440D01*
X88172Y56464D01*
X88217Y56634D01*
X88267Y56800D01*
X88269Y56827D01*
X88276Y56853D01*
X88303Y57184D01*
X88303Y185871D01*
X88301Y185897D01*
X88303Y185924D01*
X88281Y186098D01*
X88263Y186271D01*
X88256Y186297D01*
X88252Y186323D01*
X88197Y186489D01*
X88145Y186656D01*
X88133Y186680D01*
X88124Y186705D01*
X88037Y186857D01*
X87954Y187010D01*
X87937Y187031D01*
X87923Y187054D01*
X87708Y187307D01*
X72723Y202292D01*
X72702Y202309D01*
X72685Y202330D01*
X72547Y202437D01*
X72411Y202547D01*
X72388Y202560D01*
X72367Y202576D01*
X72210Y202654D01*
X72056Y202736D01*
X72030Y202744D01*
X72006Y202756D01*
X71837Y202801D01*
X71670Y202851D01*
X71643Y202853D01*
X71617Y202860D01*
X71287Y202887D01*
X68585Y202887D01*
X65971Y203970D01*
X63970Y205971D01*
X62887Y208585D01*
X62887Y211415D01*
X63970Y214029D01*
X65971Y216030D01*
X68585Y217113D01*
X71415Y217113D01*
X74029Y216030D01*
X76030Y214029D01*
X77113Y211415D01*
X77113Y208713D01*
X77115Y208687D01*
X77113Y208660D01*
X77135Y208486D01*
X77153Y208313D01*
X77160Y208287D01*
X77164Y208261D01*
X77220Y208095D01*
X77271Y207928D01*
X77284Y207904D01*
X77292Y207879D01*
X77379Y207727D01*
X77463Y207574D01*
X77480Y207553D01*
X77493Y207530D01*
X77708Y207277D01*
X92693Y192292D01*
X95353Y189632D01*
X95353Y180604D01*
X95354Y180595D01*
X95353Y180586D01*
X95374Y180394D01*
X95393Y180203D01*
X95395Y180195D01*
X95396Y180186D01*
X95454Y180003D01*
X95511Y179818D01*
X95515Y179810D01*
X95518Y179802D01*
X95611Y179634D01*
X95703Y179464D01*
X95708Y179458D01*
X95713Y179450D01*
X95838Y179302D01*
X95960Y179155D01*
X95967Y179150D01*
X95973Y179143D01*
X96125Y179023D01*
X96274Y178903D01*
X96282Y178899D01*
X96289Y178893D01*
X96461Y178806D01*
X96631Y178717D01*
X96640Y178715D01*
X96648Y178711D01*
X96834Y178659D01*
X97018Y178606D01*
X97027Y178605D01*
X97036Y178603D01*
X97228Y178589D01*
X97420Y178573D01*
X97428Y178574D01*
X97437Y178573D01*
X97630Y178598D01*
X97819Y178620D01*
X97828Y178623D01*
X97837Y178624D01*
X98020Y178685D01*
X98202Y178745D01*
X98210Y178749D01*
X98219Y178752D01*
X98384Y178847D01*
X98553Y178943D01*
X98560Y178949D01*
X98567Y178953D01*
X98820Y179168D01*
X100646Y180993D01*
X100663Y181014D01*
X100683Y181031D01*
X100790Y181169D01*
X100901Y181305D01*
X100914Y181328D01*
X100930Y181349D01*
X101008Y181506D01*
X101090Y181660D01*
X101097Y181686D01*
X101109Y181710D01*
X101155Y181879D01*
X101204Y182046D01*
X101207Y182073D01*
X101214Y182099D01*
X101241Y182429D01*
X101241Y216259D01*
X101238Y216285D01*
X101240Y216312D01*
X101218Y216486D01*
X101201Y216659D01*
X101193Y216685D01*
X101190Y216711D01*
X101134Y216877D01*
X101083Y217044D01*
X101070Y217068D01*
X101062Y217093D01*
X100974Y217245D01*
X100891Y217398D01*
X100874Y217419D01*
X100861Y217442D01*
X100646Y217695D01*
X100267Y218074D01*
X99459Y220025D01*
X99459Y222136D01*
X100267Y224086D01*
X101760Y225579D01*
X101801Y225596D01*
X103710Y226387D01*
X105821Y226387D01*
X106702Y226022D01*
X106715Y226018D01*
X106727Y226012D01*
X106908Y225960D01*
X107087Y225906D01*
X107101Y225904D01*
X107114Y225901D01*
X107302Y225885D01*
X107488Y225868D01*
X107501Y225869D01*
X107515Y225868D01*
X107701Y225890D01*
X107889Y225909D01*
X107901Y225913D01*
X107915Y225915D01*
X108093Y225973D01*
X108273Y226029D01*
X108285Y226035D01*
X108297Y226040D01*
X108461Y226132D01*
X108626Y226222D01*
X108636Y226231D01*
X108648Y226237D01*
X108789Y226360D01*
X108934Y226481D01*
X108943Y226492D01*
X108953Y226501D01*
X109068Y226648D01*
X109185Y226796D01*
X109191Y226808D01*
X109200Y226819D01*
X109283Y226986D01*
X109369Y227154D01*
X109373Y227167D01*
X109379Y227179D01*
X109428Y227362D01*
X109479Y227542D01*
X109480Y227555D01*
X109483Y227568D01*
X109511Y227899D01*
X109511Y308673D01*
X109508Y308699D01*
X109510Y308726D01*
X109488Y308900D01*
X109471Y309074D01*
X109463Y309099D01*
X109459Y309126D01*
X109404Y309291D01*
X109353Y309458D01*
X109340Y309482D01*
X109331Y309507D01*
X109244Y309659D01*
X109161Y309812D01*
X109144Y309833D01*
X109130Y309856D01*
X108916Y310109D01*
X105883Y313142D01*
X105862Y313159D01*
X105845Y313179D01*
X105707Y313286D01*
X105572Y313397D01*
X105548Y313409D01*
X105527Y313426D01*
X105370Y313504D01*
X105216Y313585D01*
X105190Y313593D01*
X105166Y313605D01*
X104997Y313650D01*
X104830Y313700D01*
X104803Y313703D01*
X104778Y313709D01*
X104447Y313737D01*
X103911Y313737D01*
X101960Y314544D01*
X100467Y316037D01*
X99660Y317988D01*
X99660Y320099D01*
X100287Y321614D01*
X100296Y321643D01*
X100310Y321671D01*
X100354Y321836D01*
X100403Y321999D01*
X100406Y322030D01*
X100414Y322060D01*
X100442Y322391D01*
X100442Y328017D01*
X100439Y328043D01*
X100441Y328070D01*
X100419Y328244D01*
X100402Y328417D01*
X100394Y328443D01*
X100390Y328470D01*
X100335Y328635D01*
X100283Y328802D01*
X100271Y328826D01*
X100262Y328851D01*
X100175Y329003D01*
X100092Y329156D01*
X100075Y329177D01*
X100061Y329200D01*
X99847Y329453D01*
X30600Y398700D01*
X29911Y400363D01*
X29911Y473687D01*
X30600Y475350D01*
X131150Y575900D01*
X132813Y576589D01*
X201581Y576589D01*
X203244Y575900D01*
X211422Y567723D01*
X212111Y566060D01*
X212111Y562539D01*
X212113Y562513D01*
X212111Y562486D01*
X212133Y562312D01*
X212151Y562139D01*
X212158Y562113D01*
X212162Y562086D01*
X212217Y561921D01*
X212269Y561754D01*
X212281Y561730D01*
X212290Y561705D01*
X212377Y561553D01*
X212460Y561400D01*
X212478Y561379D01*
X212491Y561356D01*
X212706Y561103D01*
X215271Y558538D01*
X216709Y555065D01*
X216714Y555057D01*
X216716Y555048D01*
X216808Y554880D01*
X216899Y554710D01*
X216905Y554703D01*
X216909Y554695D01*
X217033Y554549D01*
X217156Y554399D01*
X217163Y554394D01*
X217169Y554387D01*
X217319Y554267D01*
X217469Y554146D01*
X217476Y554141D01*
X217483Y554136D01*
X217654Y554048D01*
X217825Y553959D01*
X217834Y553956D01*
X217842Y553952D01*
X218025Y553900D01*
X218211Y553845D01*
X218220Y553845D01*
X218229Y553842D01*
X218420Y553827D01*
X218613Y553811D01*
X218621Y553812D01*
X218630Y553811D01*
X218820Y553834D01*
X219013Y553856D01*
X219021Y553859D01*
X219030Y553860D01*
X219210Y553919D01*
X219396Y553979D01*
X219404Y553984D01*
X219412Y553986D01*
X219578Y554081D01*
X219747Y554175D01*
X219754Y554181D01*
X219762Y554186D01*
X219907Y554312D01*
X220053Y554437D01*
X220059Y554444D01*
X220066Y554450D01*
X220183Y554603D01*
X220301Y554754D01*
X220306Y554762D01*
X220311Y554769D01*
X220463Y555065D01*
X221901Y558538D01*
X224451Y561088D01*
X227783Y562468D01*
X231389Y562468D01*
X234721Y561088D01*
X237271Y558538D01*
X238181Y556340D01*
X238223Y556262D01*
X238256Y556179D01*
X238318Y556085D01*
X238371Y555985D01*
X238428Y555917D01*
X238476Y555843D01*
X238555Y555762D01*
X238628Y555675D01*
X238697Y555619D01*
X238759Y555556D01*
X238852Y555492D01*
X238940Y555421D01*
X239019Y555380D01*
X239092Y555330D01*
X239197Y555287D01*
X239297Y555234D01*
X239382Y555209D01*
X239464Y555175D01*
X239575Y555153D01*
X239683Y555121D01*
X239771Y555113D01*
X239859Y555096D01*
X239972Y555096D01*
X240084Y555086D01*
X240172Y555096D01*
X240261Y555097D01*
X240372Y555119D01*
X240484Y555132D01*
X240569Y555159D01*
X240656Y555176D01*
X240760Y555220D01*
X240868Y555255D01*
X240945Y555298D01*
X241027Y555333D01*
X241121Y555396D01*
X241219Y555451D01*
X241286Y555509D01*
X241360Y555559D01*
X241439Y555640D01*
X241525Y555713D01*
X241580Y555783D01*
X241642Y555846D01*
X241703Y555941D01*
X241773Y556030D01*
X241813Y556109D01*
X241861Y556184D01*
X241916Y556314D01*
X241954Y556390D01*
X241966Y556434D01*
X241989Y556490D01*
X242244Y557273D01*
X242964Y558687D01*
X243897Y559970D01*
X245019Y561092D01*
X246302Y562025D01*
X247716Y562745D01*
X249087Y563190D01*
X249087Y553871D01*
X249088Y553854D01*
X249087Y553836D01*
X249108Y553653D01*
X249127Y553471D01*
X249132Y553454D01*
X249134Y553436D01*
X249147Y553395D01*
X249120Y553301D01*
X249118Y553283D01*
X249114Y553266D01*
X249087Y552935D01*
X249087Y543616D01*
X247716Y544061D01*
X246302Y544781D01*
X245019Y545714D01*
X243897Y546836D01*
X242964Y548120D01*
X242244Y549533D01*
X241989Y550316D01*
X241954Y550398D01*
X241927Y550482D01*
X241873Y550581D01*
X241828Y550685D01*
X241777Y550758D01*
X241734Y550836D01*
X241661Y550922D01*
X241596Y551015D01*
X241532Y551076D01*
X241475Y551144D01*
X241387Y551214D01*
X241305Y551292D01*
X241229Y551339D01*
X241160Y551395D01*
X241060Y551446D01*
X240964Y551506D01*
X240881Y551538D01*
X240802Y551579D01*
X240693Y551609D01*
X240588Y551649D01*
X240500Y551664D01*
X240415Y551688D01*
X240302Y551697D01*
X240190Y551716D01*
X240102Y551713D01*
X240013Y551719D01*
X239901Y551706D01*
X239788Y551702D01*
X239702Y551681D01*
X239613Y551671D01*
X239506Y551635D01*
X239396Y551609D01*
X239315Y551572D01*
X239231Y551544D01*
X239133Y551488D01*
X239030Y551441D01*
X238959Y551389D01*
X238882Y551345D01*
X238796Y551270D01*
X238705Y551204D01*
X238645Y551139D01*
X238578Y551080D01*
X238509Y550991D01*
X238433Y550907D01*
X238387Y550831D01*
X238333Y550761D01*
X238268Y550636D01*
X238224Y550563D01*
X238209Y550520D01*
X238181Y550466D01*
X237271Y548268D01*
X234721Y545718D01*
X231389Y544338D01*
X227783Y544338D01*
X224451Y545718D01*
X221901Y548268D01*
X220463Y551742D01*
X220458Y551749D01*
X220456Y551758D01*
X220363Y551927D01*
X220272Y552096D01*
X220267Y552103D01*
X220262Y552111D01*
X220139Y552258D01*
X220016Y552407D01*
X220009Y552412D01*
X220003Y552419D01*
X219852Y552540D01*
X219703Y552661D01*
X219696Y552665D01*
X219688Y552670D01*
X219515Y552759D01*
X219347Y552848D01*
X219338Y552850D01*
X219330Y552854D01*
X219144Y552907D01*
X218960Y552961D01*
X218951Y552961D01*
X218943Y552964D01*
X218752Y552979D01*
X218559Y552995D01*
X218550Y552994D01*
X218541Y552995D01*
X218350Y552972D01*
X218159Y552950D01*
X218151Y552947D01*
X218142Y552946D01*
X217959Y552886D01*
X217776Y552827D01*
X217768Y552823D01*
X217760Y552820D01*
X217593Y552725D01*
X217424Y552631D01*
X217418Y552625D01*
X217410Y552620D01*
X217266Y552495D01*
X217119Y552369D01*
X217113Y552362D01*
X217106Y552356D01*
X216989Y552204D01*
X216870Y552052D01*
X216866Y552044D01*
X216861Y552037D01*
X216709Y551742D01*
X215271Y548268D01*
X212721Y545718D01*
X209389Y544338D01*
X205783Y544338D01*
X202451Y545718D01*
X199901Y548268D01*
X198991Y550466D01*
X198949Y550544D01*
X198916Y550627D01*
X198854Y550721D01*
X198801Y550821D01*
X198744Y550889D01*
X198696Y550964D01*
X198616Y551044D01*
X198544Y551131D01*
X198475Y551187D01*
X198413Y551250D01*
X198319Y551314D01*
X198232Y551385D01*
X198153Y551426D01*
X198080Y551476D01*
X197975Y551520D01*
X197875Y551572D01*
X197790Y551597D01*
X197708Y551631D01*
X197597Y551653D01*
X197489Y551685D01*
X197400Y551693D01*
X197313Y551710D01*
X197200Y551710D01*
X197088Y551720D01*
X196999Y551710D01*
X196911Y551710D01*
X196800Y551687D01*
X196688Y551675D01*
X196603Y551647D01*
X196516Y551630D01*
X196412Y551586D01*
X196304Y551551D01*
X196227Y551508D01*
X196145Y551474D01*
X196051Y551410D01*
X195953Y551355D01*
X195885Y551297D01*
X195812Y551247D01*
X195733Y551167D01*
X195647Y551093D01*
X195592Y551023D01*
X195530Y550960D01*
X195468Y550865D01*
X195399Y550776D01*
X195359Y550697D01*
X195310Y550622D01*
X195256Y550492D01*
X195218Y550416D01*
X195206Y550372D01*
X195182Y550316D01*
X194928Y549533D01*
X194208Y548120D01*
X193275Y546836D01*
X192153Y545714D01*
X190869Y544781D01*
X189456Y544061D01*
X188085Y543616D01*
X188085Y552935D01*
X188083Y552953D01*
X188085Y552970D01*
X188064Y553152D01*
X188045Y553335D01*
X188040Y553353D01*
X188038Y553370D01*
X187981Y553545D01*
X187927Y553720D01*
X187919Y553736D01*
X187913Y553753D01*
X187823Y553913D01*
X187735Y554074D01*
X187724Y554088D01*
X187715Y554104D01*
X187595Y554243D01*
X187478Y554384D01*
X187464Y554395D01*
X187452Y554408D01*
X187307Y554521D01*
X187164Y554636D01*
X187148Y554644D01*
X187134Y554655D01*
X186969Y554737D01*
X186807Y554822D01*
X186790Y554826D01*
X186773Y554834D01*
X186595Y554882D01*
X186420Y554933D01*
X186402Y554934D01*
X186385Y554939D01*
X186054Y554966D01*
X185118Y554966D01*
X185100Y554964D01*
X185082Y554966D01*
X184900Y554944D01*
X184717Y554926D01*
X184700Y554921D01*
X184682Y554919D01*
X184508Y554862D01*
X184332Y554808D01*
X184317Y554800D01*
X184300Y554794D01*
X184139Y554704D01*
X183978Y554616D01*
X183965Y554605D01*
X183949Y554596D01*
X183810Y554476D01*
X183669Y554359D01*
X183658Y554345D01*
X183644Y554333D01*
X183532Y554188D01*
X183417Y554045D01*
X183409Y554029D01*
X183398Y554015D01*
X183316Y553850D01*
X183231Y553687D01*
X183226Y553670D01*
X183218Y553654D01*
X183170Y553476D01*
X183120Y553301D01*
X183118Y553283D01*
X183114Y553266D01*
X183087Y552935D01*
X183087Y543616D01*
X181716Y544061D01*
X180302Y544781D01*
X179019Y545714D01*
X177897Y546836D01*
X176964Y548120D01*
X176244Y549533D01*
X175989Y550316D01*
X175954Y550398D01*
X175927Y550482D01*
X175873Y550581D01*
X175828Y550685D01*
X175777Y550758D01*
X175734Y550836D01*
X175661Y550922D01*
X175596Y551015D01*
X175532Y551076D01*
X175475Y551144D01*
X175387Y551214D01*
X175305Y551292D01*
X175229Y551339D01*
X175160Y551395D01*
X175060Y551446D01*
X174964Y551506D01*
X174881Y551538D01*
X174802Y551579D01*
X174693Y551609D01*
X174588Y551649D01*
X174500Y551664D01*
X174415Y551688D01*
X174302Y551697D01*
X174190Y551716D01*
X174102Y551713D01*
X174013Y551719D01*
X173901Y551706D01*
X173788Y551702D01*
X173702Y551681D01*
X173613Y551671D01*
X173506Y551635D01*
X173396Y551609D01*
X173315Y551572D01*
X173231Y551544D01*
X173133Y551488D01*
X173030Y551441D01*
X172959Y551389D01*
X172882Y551345D01*
X172796Y551270D01*
X172705Y551204D01*
X172645Y551139D01*
X172578Y551080D01*
X172509Y550991D01*
X172433Y550907D01*
X172387Y550831D01*
X172333Y550761D01*
X172268Y550636D01*
X172224Y550563D01*
X172209Y550520D01*
X172181Y550466D01*
X171271Y548268D01*
X168621Y545619D01*
X168604Y545598D01*
X168584Y545580D01*
X168477Y545443D01*
X168366Y545307D01*
X168353Y545284D01*
X168337Y545262D01*
X168259Y545106D01*
X168177Y544951D01*
X168170Y544926D01*
X168158Y544902D01*
X168112Y544733D01*
X168063Y544566D01*
X168060Y544539D01*
X168053Y544513D01*
X168026Y544182D01*
X168026Y541084D01*
X167337Y539421D01*
X159911Y531995D01*
X158248Y531306D01*
X157928Y531306D01*
X157802Y531293D01*
X157676Y531290D01*
X157602Y531273D01*
X157527Y531266D01*
X157407Y531229D01*
X157283Y531201D01*
X157215Y531170D01*
X157143Y531148D01*
X157032Y531088D01*
X156916Y531036D01*
X156855Y530992D01*
X156789Y530956D01*
X156692Y530875D01*
X156589Y530802D01*
X156537Y530747D01*
X156479Y530698D01*
X156400Y530600D01*
X156314Y530508D01*
X156274Y530443D01*
X156227Y530385D01*
X156169Y530273D01*
X156102Y530165D01*
X156076Y530094D01*
X156041Y530027D01*
X156007Y529906D01*
X155963Y529787D01*
X155951Y529713D01*
X155930Y529640D01*
X155920Y529514D01*
X155900Y529390D01*
X155903Y529314D01*
X155897Y529239D01*
X155912Y529114D01*
X155917Y528987D01*
X155935Y528914D01*
X155944Y528839D01*
X155983Y528719D01*
X156013Y528596D01*
X156046Y528528D01*
X156069Y528456D01*
X156131Y528346D01*
X156185Y528232D01*
X156230Y528172D01*
X156267Y528106D01*
X156349Y528010D01*
X156425Y527909D01*
X156481Y527858D01*
X156530Y527801D01*
X156630Y527724D01*
X156724Y527639D01*
X156798Y527593D01*
X156848Y527554D01*
X156914Y527522D01*
X157006Y527465D01*
X157869Y527025D01*
X159153Y526092D01*
X160275Y524970D01*
X161208Y523687D01*
X161928Y522273D01*
X162182Y521490D01*
X162218Y521408D01*
X162245Y521324D01*
X162299Y521225D01*
X162344Y521121D01*
X162395Y521049D01*
X162438Y520971D01*
X162511Y520884D01*
X162576Y520792D01*
X162640Y520730D01*
X162697Y520662D01*
X162785Y520592D01*
X162867Y520514D01*
X162942Y520467D01*
X163012Y520411D01*
X163113Y520360D01*
X163208Y520300D01*
X163291Y520268D01*
X163370Y520228D01*
X163479Y520197D01*
X163584Y520157D01*
X163672Y520142D01*
X163757Y520118D01*
X163870Y520109D01*
X163982Y520091D01*
X164070Y520094D01*
X164159Y520087D01*
X164271Y520100D01*
X164384Y520104D01*
X164470Y520125D01*
X164558Y520135D01*
X164666Y520171D01*
X164776Y520197D01*
X164857Y520234D01*
X164941Y520262D01*
X165039Y520318D01*
X165142Y520365D01*
X165213Y520417D01*
X165290Y520461D01*
X165376Y520536D01*
X165467Y520602D01*
X165527Y520668D01*
X165594Y520726D01*
X165663Y520815D01*
X165739Y520899D01*
X165785Y520975D01*
X165839Y521045D01*
X165904Y521171D01*
X165948Y521243D01*
X165963Y521286D01*
X165991Y521340D01*
X166901Y523538D01*
X169451Y526088D01*
X172783Y527468D01*
X176389Y527468D01*
X179721Y526088D01*
X182271Y523538D01*
X183709Y520065D01*
X183714Y520057D01*
X183716Y520048D01*
X183808Y519880D01*
X183899Y519710D01*
X183905Y519703D01*
X183909Y519695D01*
X184033Y519549D01*
X184156Y519399D01*
X184163Y519394D01*
X184169Y519387D01*
X184319Y519267D01*
X184469Y519146D01*
X184476Y519141D01*
X184483Y519136D01*
X184654Y519048D01*
X184825Y518959D01*
X184834Y518956D01*
X184842Y518952D01*
X185025Y518900D01*
X185211Y518845D01*
X185220Y518845D01*
X185229Y518842D01*
X185420Y518827D01*
X185613Y518811D01*
X185621Y518812D01*
X185630Y518811D01*
X185820Y518834D01*
X186013Y518856D01*
X186021Y518859D01*
X186030Y518860D01*
X186210Y518919D01*
X186396Y518979D01*
X186404Y518984D01*
X186412Y518986D01*
X186578Y519081D01*
X186747Y519175D01*
X186754Y519181D01*
X186762Y519186D01*
X186907Y519312D01*
X187053Y519437D01*
X187059Y519444D01*
X187066Y519450D01*
X187183Y519603D01*
X187301Y519754D01*
X187306Y519762D01*
X187311Y519769D01*
X187463Y520065D01*
X188901Y523538D01*
X191451Y526088D01*
X194783Y527468D01*
X198389Y527468D01*
X201721Y526088D01*
X204271Y523538D01*
X205709Y520065D01*
X205714Y520057D01*
X205716Y520048D01*
X205808Y519880D01*
X205899Y519710D01*
X205905Y519703D01*
X205909Y519695D01*
X206033Y519549D01*
X206156Y519399D01*
X206163Y519394D01*
X206169Y519387D01*
X206319Y519267D01*
X206469Y519146D01*
X206476Y519141D01*
X206483Y519136D01*
X206654Y519048D01*
X206825Y518959D01*
X206834Y518956D01*
X206842Y518952D01*
X207025Y518900D01*
X207211Y518845D01*
X207220Y518845D01*
X207229Y518842D01*
X207420Y518827D01*
X207613Y518811D01*
X207621Y518812D01*
X207630Y518811D01*
X207820Y518834D01*
X208013Y518856D01*
X208021Y518859D01*
X208030Y518860D01*
X208210Y518919D01*
X208396Y518979D01*
X208404Y518984D01*
X208412Y518986D01*
X208578Y519081D01*
X208747Y519175D01*
X208754Y519181D01*
X208762Y519186D01*
X208907Y519312D01*
X209053Y519437D01*
X209059Y519444D01*
X209066Y519450D01*
X209183Y519603D01*
X209301Y519754D01*
X209306Y519762D01*
X209311Y519769D01*
X209463Y520065D01*
X210901Y523538D01*
X213451Y526088D01*
X216783Y527468D01*
X220389Y527468D01*
X223721Y526088D01*
X226271Y523538D01*
X227709Y520065D01*
X227714Y520057D01*
X227716Y520048D01*
X227808Y519880D01*
X227899Y519710D01*
X227905Y519703D01*
X227909Y519695D01*
X228033Y519549D01*
X228156Y519399D01*
X228163Y519394D01*
X228169Y519387D01*
X228319Y519267D01*
X228469Y519146D01*
X228476Y519141D01*
X228483Y519136D01*
X228654Y519048D01*
X228825Y518959D01*
X228834Y518956D01*
X228842Y518952D01*
X229025Y518900D01*
X229211Y518845D01*
X229220Y518845D01*
X229229Y518842D01*
X229420Y518827D01*
X229613Y518811D01*
X229621Y518812D01*
X229630Y518811D01*
X229820Y518834D01*
X230013Y518856D01*
X230021Y518859D01*
X230030Y518860D01*
X230210Y518919D01*
X230396Y518979D01*
X230404Y518984D01*
X230412Y518986D01*
X230578Y519081D01*
X230747Y519175D01*
X230754Y519181D01*
X230762Y519186D01*
X230907Y519312D01*
X231053Y519437D01*
X231059Y519444D01*
X231066Y519450D01*
X231183Y519603D01*
X231301Y519754D01*
X231306Y519762D01*
X231311Y519769D01*
X231463Y520065D01*
X232901Y523538D01*
X235451Y526088D01*
X238783Y527468D01*
X242389Y527468D01*
X245721Y526088D01*
X248271Y523538D01*
X249181Y521340D01*
X249223Y521262D01*
X249256Y521179D01*
X249318Y521085D01*
X249371Y520985D01*
X249428Y520917D01*
X249476Y520843D01*
X249556Y520762D01*
X249628Y520675D01*
X249696Y520619D01*
X249759Y520556D01*
X249853Y520492D01*
X249940Y520421D01*
X250019Y520380D01*
X250092Y520330D01*
X250197Y520287D01*
X250297Y520234D01*
X250382Y520209D01*
X250464Y520175D01*
X250575Y520153D01*
X250683Y520121D01*
X250772Y520113D01*
X250859Y520096D01*
X250972Y520096D01*
X251084Y520086D01*
X251172Y520096D01*
X251261Y520096D01*
X251372Y520119D01*
X251484Y520132D01*
X251569Y520159D01*
X251656Y520176D01*
X251760Y520220D01*
X251868Y520255D01*
X251945Y520298D01*
X252027Y520332D01*
X252121Y520396D01*
X252219Y520451D01*
X252287Y520509D01*
X252360Y520559D01*
X252439Y520639D01*
X252525Y520713D01*
X252580Y520783D01*
X252642Y520846D01*
X252703Y520941D01*
X252773Y521030D01*
X252813Y521109D01*
X252861Y521184D01*
X252916Y521314D01*
X252954Y521390D01*
X252966Y521434D01*
X252989Y521490D01*
X253244Y522273D01*
X253964Y523687D01*
X254897Y524970D01*
X256019Y526092D01*
X257302Y527025D01*
X258716Y527745D01*
X260087Y528190D01*
X260087Y518871D01*
X260088Y518853D01*
X260087Y518836D01*
X260108Y518653D01*
X260127Y518471D01*
X260132Y518454D01*
X260134Y518436D01*
X260147Y518395D01*
X260120Y518301D01*
X260118Y518283D01*
X260114Y518266D01*
X260087Y517935D01*
X260087Y508616D01*
X258716Y509061D01*
X257302Y509781D01*
X256019Y510714D01*
X254897Y511836D01*
X253964Y513120D01*
X253244Y514533D01*
X252989Y515316D01*
X252954Y515398D01*
X252927Y515482D01*
X252873Y515581D01*
X252828Y515685D01*
X252777Y515758D01*
X252734Y515836D01*
X252661Y515922D01*
X252596Y516015D01*
X252532Y516076D01*
X252475Y516144D01*
X252387Y516214D01*
X252305Y516292D01*
X252230Y516339D01*
X252160Y516395D01*
X252060Y516446D01*
X251964Y516506D01*
X251881Y516538D01*
X251802Y516579D01*
X251693Y516609D01*
X251588Y516650D01*
X251500Y516664D01*
X251415Y516688D01*
X251302Y516697D01*
X251190Y516716D01*
X251102Y516713D01*
X251013Y516719D01*
X250901Y516706D01*
X250788Y516702D01*
X250702Y516681D01*
X250613Y516671D01*
X250506Y516635D01*
X250396Y516609D01*
X250315Y516572D01*
X250231Y516544D01*
X250133Y516488D01*
X250030Y516441D01*
X249959Y516389D01*
X249881Y516345D01*
X249796Y516270D01*
X249705Y516204D01*
X249645Y516139D01*
X249578Y516080D01*
X249509Y515991D01*
X249433Y515907D01*
X249387Y515831D01*
X249333Y515761D01*
X249268Y515636D01*
X249224Y515563D01*
X249209Y515520D01*
X249181Y515466D01*
X248271Y513268D01*
X245721Y510718D01*
X242389Y509338D01*
X238783Y509338D01*
X235451Y510718D01*
X232901Y513268D01*
X231463Y516742D01*
X231458Y516749D01*
X231456Y516758D01*
X231363Y516927D01*
X231272Y517096D01*
X231267Y517103D01*
X231262Y517111D01*
X231139Y517258D01*
X231016Y517407D01*
X231009Y517412D01*
X231003Y517419D01*
X230852Y517540D01*
X230703Y517661D01*
X230696Y517665D01*
X230688Y517670D01*
X230515Y517759D01*
X230347Y517848D01*
X230338Y517850D01*
X230330Y517854D01*
X230144Y517907D01*
X229960Y517961D01*
X229951Y517961D01*
X229943Y517964D01*
X229752Y517979D01*
X229559Y517995D01*
X229550Y517994D01*
X229541Y517995D01*
X229350Y517972D01*
X229159Y517950D01*
X229151Y517947D01*
X229142Y517946D01*
X228959Y517886D01*
X228776Y517827D01*
X228768Y517823D01*
X228760Y517820D01*
X228593Y517725D01*
X228424Y517631D01*
X228418Y517625D01*
X228410Y517620D01*
X228266Y517495D01*
X228119Y517369D01*
X228113Y517362D01*
X228106Y517356D01*
X227989Y517204D01*
X227870Y517052D01*
X227866Y517044D01*
X227861Y517037D01*
X227709Y516742D01*
X226271Y513268D01*
X223721Y510718D01*
X220389Y509338D01*
X216783Y509338D01*
X213451Y510718D01*
X210901Y513268D01*
X209463Y516742D01*
X209458Y516749D01*
X209456Y516758D01*
X209363Y516927D01*
X209272Y517096D01*
X209267Y517103D01*
X209262Y517111D01*
X209139Y517258D01*
X209016Y517407D01*
X209009Y517412D01*
X209003Y517419D01*
X208852Y517540D01*
X208703Y517661D01*
X208696Y517665D01*
X208688Y517670D01*
X208515Y517759D01*
X208347Y517848D01*
X208338Y517850D01*
X208330Y517854D01*
X208144Y517907D01*
X207960Y517961D01*
X207951Y517961D01*
X207943Y517964D01*
X207752Y517979D01*
X207559Y517995D01*
X207550Y517994D01*
X207541Y517995D01*
X207350Y517972D01*
X207159Y517950D01*
X207151Y517947D01*
X207142Y517946D01*
X206959Y517886D01*
X206776Y517827D01*
X206768Y517823D01*
X206760Y517820D01*
X206593Y517725D01*
X206424Y517631D01*
X206418Y517625D01*
X206410Y517620D01*
X206266Y517495D01*
X206119Y517369D01*
X206113Y517362D01*
X206106Y517356D01*
X205989Y517204D01*
X205870Y517052D01*
X205866Y517044D01*
X205861Y517037D01*
X205709Y516742D01*
X204271Y513268D01*
X201721Y510718D01*
X198389Y509338D01*
X194783Y509338D01*
X191451Y510718D01*
X188901Y513268D01*
X187463Y516742D01*
X187458Y516749D01*
X187456Y516758D01*
X187363Y516927D01*
X187272Y517096D01*
X187267Y517103D01*
X187262Y517111D01*
X187139Y517258D01*
X187016Y517407D01*
X187009Y517412D01*
X187003Y517419D01*
X186852Y517540D01*
X186703Y517661D01*
X186696Y517665D01*
X186688Y517670D01*
X186515Y517759D01*
X186347Y517848D01*
X186338Y517850D01*
X186330Y517854D01*
X186144Y517907D01*
X185960Y517961D01*
X185951Y517961D01*
X185943Y517964D01*
X185752Y517979D01*
X185559Y517995D01*
X185550Y517994D01*
X185541Y517995D01*
X185350Y517972D01*
X185159Y517950D01*
X185151Y517947D01*
X185142Y517946D01*
X184959Y517886D01*
X184776Y517827D01*
X184768Y517823D01*
X184760Y517820D01*
X184593Y517725D01*
X184424Y517631D01*
X184418Y517625D01*
X184410Y517620D01*
X184266Y517495D01*
X184119Y517369D01*
X184113Y517362D01*
X184106Y517356D01*
X183989Y517204D01*
X183870Y517052D01*
X183866Y517044D01*
X183861Y517037D01*
X183709Y516742D01*
X182271Y513268D01*
X179721Y510718D01*
X176389Y509338D01*
X172783Y509338D01*
X169451Y510718D01*
X166901Y513268D01*
X165991Y515466D01*
X165949Y515544D01*
X165916Y515627D01*
X165854Y515721D01*
X165801Y515821D01*
X165744Y515889D01*
X165696Y515964D01*
X165616Y516044D01*
X165544Y516131D01*
X165475Y516187D01*
X165413Y516250D01*
X165319Y516314D01*
X165232Y516385D01*
X165153Y516426D01*
X165080Y516476D01*
X164975Y516519D01*
X164875Y516572D01*
X164790Y516597D01*
X164708Y516631D01*
X164597Y516653D01*
X164489Y516685D01*
X164400Y516693D01*
X164313Y516710D01*
X164200Y516710D01*
X164088Y516720D01*
X164000Y516710D01*
X163911Y516710D01*
X163800Y516687D01*
X163688Y516675D01*
X163603Y516647D01*
X163516Y516630D01*
X163412Y516586D01*
X163304Y516551D01*
X163227Y516508D01*
X163145Y516474D01*
X163052Y516410D01*
X162953Y516355D01*
X162885Y516297D01*
X162812Y516247D01*
X162733Y516167D01*
X162647Y516093D01*
X162592Y516023D01*
X162530Y515960D01*
X162468Y515865D01*
X162399Y515776D01*
X162359Y515697D01*
X162310Y515622D01*
X162256Y515492D01*
X162218Y515416D01*
X162206Y515372D01*
X162182Y515316D01*
X161928Y514533D01*
X161208Y513120D01*
X160275Y511836D01*
X159153Y510714D01*
X157869Y509781D01*
X156456Y509061D01*
X155085Y508616D01*
X155085Y517935D01*
X155083Y517953D01*
X155085Y517970D01*
X155064Y518151D01*
X155045Y518335D01*
X155040Y518353D01*
X155038Y518370D01*
X154981Y518545D01*
X154927Y518720D01*
X154919Y518736D01*
X154913Y518753D01*
X154823Y518913D01*
X154735Y519074D01*
X154724Y519088D01*
X154715Y519104D01*
X154595Y519243D01*
X154478Y519384D01*
X154464Y519395D01*
X154452Y519408D01*
X154307Y519521D01*
X154164Y519636D01*
X154148Y519644D01*
X154134Y519655D01*
X153969Y519737D01*
X153942Y519751D01*
X153886Y519849D01*
X153799Y520011D01*
X153788Y520024D01*
X153779Y520040D01*
X153659Y520179D01*
X153541Y520320D01*
X153528Y520331D01*
X153516Y520345D01*
X153371Y520457D01*
X153228Y520572D01*
X153212Y520580D01*
X153198Y520591D01*
X153033Y520673D01*
X152870Y520758D01*
X152853Y520763D01*
X152837Y520771D01*
X152659Y520819D01*
X152483Y520869D01*
X152466Y520871D01*
X152448Y520875D01*
X152118Y520902D01*
X142799Y520902D01*
X143244Y522273D01*
X143964Y523687D01*
X144897Y524970D01*
X146019Y526092D01*
X147302Y527025D01*
X148166Y527465D01*
X148272Y527533D01*
X148383Y527593D01*
X148441Y527641D01*
X148505Y527682D01*
X148596Y527770D01*
X148693Y527851D01*
X148740Y527910D01*
X148794Y527962D01*
X148866Y528066D01*
X148945Y528165D01*
X148980Y528232D01*
X149022Y528294D01*
X149072Y528410D01*
X149130Y528522D01*
X149151Y528594D01*
X149181Y528664D01*
X149207Y528788D01*
X149242Y528909D01*
X149248Y528984D01*
X149263Y529058D01*
X149264Y529184D01*
X149275Y529310D01*
X149266Y529385D01*
X149266Y529461D01*
X149243Y529585D01*
X149228Y529710D01*
X149204Y529782D01*
X149190Y529856D01*
X149142Y529973D01*
X149103Y530093D01*
X149066Y530159D01*
X149037Y530228D01*
X148967Y530334D01*
X148905Y530443D01*
X148856Y530500D01*
X148814Y530563D01*
X148724Y530653D01*
X148642Y530748D01*
X148582Y530794D01*
X148529Y530848D01*
X148424Y530918D01*
X148324Y530995D01*
X148256Y531029D01*
X148193Y531070D01*
X148077Y531118D01*
X147963Y531174D01*
X147890Y531194D01*
X147821Y531222D01*
X147697Y531246D01*
X147574Y531279D01*
X147487Y531286D01*
X147425Y531298D01*
X147352Y531297D01*
X147244Y531306D01*
X111867Y531306D01*
X111841Y531303D01*
X111814Y531305D01*
X111640Y531283D01*
X111467Y531266D01*
X111441Y531258D01*
X111414Y531255D01*
X111249Y531199D01*
X111082Y531148D01*
X111058Y531135D01*
X111033Y531127D01*
X110881Y531039D01*
X110728Y530956D01*
X110707Y530939D01*
X110684Y530926D01*
X110431Y530711D01*
X47925Y468205D01*
X47908Y468185D01*
X47888Y468167D01*
X47781Y468029D01*
X47670Y467894D01*
X47658Y467870D01*
X47641Y467849D01*
X47563Y467692D01*
X47482Y467538D01*
X47474Y467513D01*
X47462Y467488D01*
X47416Y467319D01*
X47367Y467152D01*
X47364Y467126D01*
X47357Y467100D01*
X47330Y466769D01*
X47330Y422561D01*
X47332Y422547D01*
X47330Y422534D01*
X47352Y422348D01*
X47370Y422160D01*
X47374Y422147D01*
X47376Y422134D01*
X47433Y421956D01*
X47488Y421775D01*
X47495Y421763D01*
X47499Y421751D01*
X47591Y421586D01*
X47680Y421421D01*
X47689Y421411D01*
X47695Y421399D01*
X47818Y421255D01*
X47938Y421112D01*
X47948Y421104D01*
X47957Y421093D01*
X48106Y420977D01*
X48252Y420860D01*
X48263Y420853D01*
X48274Y420845D01*
X48443Y420760D01*
X48609Y420674D01*
X48622Y420670D01*
X48634Y420664D01*
X48816Y420615D01*
X48996Y420563D01*
X49009Y420562D01*
X49022Y420558D01*
X49209Y420545D01*
X49397Y420530D01*
X49410Y420531D01*
X49424Y420530D01*
X49610Y420555D01*
X49797Y420577D01*
X49810Y420581D01*
X49823Y420583D01*
X50032Y420650D01*
X52167Y420650D01*
X54118Y419842D01*
X55610Y418349D01*
X56418Y416399D01*
X56418Y414288D01*
X56411Y414271D01*
X56405Y414250D01*
X56395Y414230D01*
X56347Y414057D01*
X56295Y413886D01*
X56293Y413863D01*
X56287Y413842D01*
X56274Y413662D01*
X56257Y413485D01*
X56259Y413463D01*
X56257Y413440D01*
X56280Y413262D01*
X56298Y413084D01*
X56305Y413063D01*
X56308Y413041D01*
X56365Y412871D01*
X56418Y412700D01*
X56429Y412680D01*
X56436Y412659D01*
X56526Y412504D01*
X56612Y412347D01*
X56626Y412330D01*
X56637Y412310D01*
X56852Y412057D01*
X117655Y351254D01*
X117662Y351248D01*
X117668Y351242D01*
X117817Y351121D01*
X117966Y350999D01*
X117974Y350995D01*
X117981Y350989D01*
X118152Y350900D01*
X118322Y350810D01*
X118331Y350808D01*
X118339Y350804D01*
X118524Y350750D01*
X118708Y350696D01*
X118717Y350695D01*
X118725Y350692D01*
X118917Y350677D01*
X119109Y350659D01*
X119118Y350660D01*
X119127Y350659D01*
X119316Y350682D01*
X119509Y350703D01*
X119518Y350705D01*
X119527Y350706D01*
X119709Y350766D01*
X119893Y350824D01*
X119901Y350828D01*
X119909Y350831D01*
X120078Y350926D01*
X120245Y351019D01*
X120252Y351025D01*
X120260Y351029D01*
X120406Y351155D01*
X120552Y351279D01*
X120558Y351286D01*
X120565Y351292D01*
X120682Y351444D01*
X120802Y351595D01*
X120806Y351603D01*
X120812Y351610D01*
X120897Y351783D01*
X120984Y351954D01*
X120987Y351963D01*
X120991Y351971D01*
X121041Y352157D01*
X121092Y352342D01*
X121093Y352351D01*
X121095Y352360D01*
X121122Y352690D01*
X121122Y382656D01*
X121119Y382687D01*
X121122Y382718D01*
X121099Y382887D01*
X121083Y383056D01*
X121073Y383086D01*
X121069Y383117D01*
X120990Y383365D01*
X120990Y441158D01*
X120987Y441189D01*
X120989Y441220D01*
X120967Y441390D01*
X120950Y441559D01*
X120941Y441588D01*
X120937Y441619D01*
X120835Y441935D01*
X120340Y443130D01*
X120340Y445241D01*
X121148Y447192D01*
X122641Y448684D01*
X124592Y449492D01*
X126703Y449492D01*
X128653Y448684D01*
X130146Y447192D01*
X130954Y445241D01*
X130954Y443130D01*
X130290Y441527D01*
X130286Y441515D01*
X130280Y441503D01*
X130275Y441486D01*
X130267Y441469D01*
X130223Y441304D01*
X130173Y441142D01*
X130172Y441128D01*
X130169Y441116D01*
X130168Y441099D01*
X130162Y441080D01*
X130135Y440750D01*
X130135Y385723D01*
X130138Y385692D01*
X130136Y385661D01*
X130158Y385492D01*
X130175Y385322D01*
X130184Y385292D01*
X130188Y385261D01*
X130220Y385164D01*
X130220Y383200D01*
X130210Y383167D01*
X130207Y383137D01*
X130199Y383106D01*
X130172Y382776D01*
X130172Y351489D01*
X130175Y351462D01*
X130173Y351436D01*
X130195Y351262D01*
X130212Y351088D01*
X130220Y351063D01*
X130223Y351036D01*
X130279Y350870D01*
X130330Y350703D01*
X130343Y350680D01*
X130351Y350654D01*
X130439Y350503D01*
X130522Y350349D01*
X130539Y350329D01*
X130552Y350306D01*
X130767Y350053D01*
X216401Y264419D01*
X216421Y264402D01*
X216439Y264382D01*
X216577Y264275D01*
X216712Y264164D01*
X216736Y264151D01*
X216757Y264135D01*
X216914Y264057D01*
X217068Y263975D01*
X217093Y263968D01*
X217117Y263956D01*
X217287Y263910D01*
X217454Y263860D01*
X217480Y263858D01*
X217506Y263851D01*
X217837Y263824D01*
X288312Y263824D01*
X288343Y263827D01*
X288375Y263825D01*
X288544Y263847D01*
X288713Y263864D01*
X288743Y263873D01*
X288774Y263877D01*
X289090Y263979D01*
X290707Y264649D01*
X290724Y264654D01*
X290750Y264657D01*
X290916Y264713D01*
X291083Y264764D01*
X291107Y264777D01*
X291132Y264785D01*
X291284Y264873D01*
X291437Y264956D01*
X291458Y264973D01*
X291481Y264986D01*
X291734Y265201D01*
X324432Y297899D01*
X324449Y297920D01*
X324470Y297937D01*
X324577Y298075D01*
X324687Y298211D01*
X324700Y298234D01*
X324716Y298255D01*
X324794Y298412D01*
X324876Y298566D01*
X324884Y298592D01*
X324896Y298616D01*
X324941Y298785D01*
X324991Y298952D01*
X324993Y298979D01*
X325000Y299005D01*
X325027Y299335D01*
X325027Y337010D01*
X325723Y338690D01*
X335910Y348877D01*
X337590Y349573D01*
X386510Y349573D01*
X388190Y348877D01*
X405604Y331462D01*
X405605Y331462D01*
X407176Y329890D01*
X407873Y328210D01*
X407873Y286571D01*
X407875Y286544D01*
X407873Y286517D01*
X407895Y286343D01*
X407913Y286170D01*
X407920Y286145D01*
X407924Y286118D01*
X407979Y285952D01*
X408031Y285785D01*
X408043Y285762D01*
X408052Y285736D01*
X408139Y285585D01*
X408222Y285431D01*
X408239Y285411D01*
X408253Y285387D01*
X408468Y285134D01*
X416955Y276647D01*
X416979Y276627D01*
X416999Y276604D01*
X417134Y276500D01*
X417266Y276392D01*
X417294Y276377D01*
X417319Y276358D01*
X417614Y276207D01*
X419013Y275627D01*
X420485Y274155D01*
X420492Y274149D01*
X420498Y274142D01*
X420647Y274022D01*
X420797Y273900D01*
X420805Y273896D01*
X420811Y273890D01*
X420982Y273801D01*
X421152Y273711D01*
X421161Y273709D01*
X421169Y273704D01*
X421353Y273651D01*
X421538Y273596D01*
X421547Y273596D01*
X421556Y273593D01*
X421747Y273577D01*
X421939Y273560D01*
X421948Y273561D01*
X421957Y273560D01*
X422146Y273582D01*
X422339Y273603D01*
X422348Y273606D01*
X422357Y273607D01*
X422539Y273666D01*
X422723Y273725D01*
X422731Y273729D01*
X422740Y273732D01*
X422907Y273826D01*
X423076Y273920D01*
X423083Y273925D01*
X423090Y273930D01*
X423235Y274055D01*
X423383Y274180D01*
X423388Y274187D01*
X423395Y274193D01*
X423512Y274343D01*
X423632Y274496D01*
X423636Y274504D01*
X423642Y274511D01*
X423727Y274683D01*
X423815Y274855D01*
X423817Y274864D01*
X423821Y274872D01*
X423871Y275058D01*
X423923Y275243D01*
X423923Y275252D01*
X423926Y275260D01*
X423953Y275591D01*
X423953Y444122D01*
X423950Y444149D01*
X423952Y444176D01*
X423930Y444350D01*
X423913Y444523D01*
X423905Y444549D01*
X423902Y444575D01*
X423846Y444741D01*
X423795Y444908D01*
X423782Y444932D01*
X423773Y444957D01*
X423686Y445109D01*
X423603Y445262D01*
X423586Y445282D01*
X423572Y445306D01*
X423358Y445559D01*
X368251Y500666D01*
X368230Y500683D01*
X368213Y500703D01*
X368075Y500810D01*
X367939Y500921D01*
X367916Y500933D01*
X367895Y500950D01*
X367738Y501028D01*
X367584Y501109D01*
X367558Y501117D01*
X367534Y501129D01*
X367365Y501175D01*
X367198Y501224D01*
X367171Y501227D01*
X367145Y501234D01*
X366815Y501261D01*
X296744Y501261D01*
X288959Y509046D01*
X288942Y509060D01*
X288927Y509077D01*
X288786Y509187D01*
X288647Y509301D01*
X288628Y509311D01*
X288610Y509325D01*
X288449Y509406D01*
X288292Y509489D01*
X288270Y509496D01*
X288250Y509506D01*
X288077Y509553D01*
X287906Y509604D01*
X287883Y509606D01*
X287862Y509612D01*
X287683Y509624D01*
X287505Y509640D01*
X287482Y509638D01*
X287460Y509640D01*
X287283Y509616D01*
X287104Y509597D01*
X287083Y509590D01*
X287061Y509587D01*
X286745Y509486D01*
X286389Y509338D01*
X282783Y509338D01*
X279451Y510718D01*
X276901Y513268D01*
X275991Y515466D01*
X275949Y515544D01*
X275916Y515627D01*
X275854Y515721D01*
X275801Y515821D01*
X275744Y515889D01*
X275696Y515964D01*
X275616Y516044D01*
X275544Y516131D01*
X275475Y516187D01*
X275413Y516250D01*
X275319Y516314D01*
X275232Y516385D01*
X275153Y516426D01*
X275080Y516476D01*
X274975Y516520D01*
X274875Y516572D01*
X274790Y516597D01*
X274708Y516631D01*
X274597Y516653D01*
X274489Y516685D01*
X274400Y516693D01*
X274313Y516710D01*
X274200Y516710D01*
X274088Y516720D01*
X273999Y516710D01*
X273911Y516710D01*
X273800Y516687D01*
X273688Y516675D01*
X273603Y516647D01*
X273516Y516630D01*
X273412Y516586D01*
X273304Y516551D01*
X273227Y516508D01*
X273145Y516474D01*
X273051Y516410D01*
X272953Y516355D01*
X272885Y516297D01*
X272812Y516247D01*
X272733Y516167D01*
X272647Y516093D01*
X272592Y516023D01*
X272530Y515960D01*
X272468Y515865D01*
X272399Y515776D01*
X272359Y515697D01*
X272310Y515622D01*
X272256Y515492D01*
X272218Y515416D01*
X272206Y515372D01*
X272182Y515316D01*
X271928Y514533D01*
X271208Y513120D01*
X270275Y511836D01*
X269153Y510714D01*
X267869Y509781D01*
X266456Y509061D01*
X265085Y508616D01*
X265085Y517935D01*
X265083Y517953D01*
X265085Y517970D01*
X265064Y518151D01*
X265045Y518335D01*
X265040Y518353D01*
X265038Y518370D01*
X265025Y518411D01*
X265052Y518506D01*
X265053Y518523D01*
X265058Y518541D01*
X265085Y518871D01*
X265085Y528190D01*
X266456Y527745D01*
X267869Y527025D01*
X269153Y526092D01*
X270275Y524970D01*
X271208Y523687D01*
X271928Y522273D01*
X272182Y521490D01*
X272218Y521409D01*
X272245Y521324D01*
X272299Y521225D01*
X272344Y521121D01*
X272395Y521048D01*
X272438Y520971D01*
X272511Y520884D01*
X272575Y520792D01*
X272640Y520730D01*
X272697Y520662D01*
X272785Y520592D01*
X272867Y520514D01*
X272942Y520467D01*
X273012Y520412D01*
X273112Y520360D01*
X273208Y520300D01*
X273291Y520268D01*
X273370Y520228D01*
X273479Y520197D01*
X273584Y520157D01*
X273672Y520142D01*
X273757Y520118D01*
X273870Y520109D01*
X273981Y520091D01*
X274070Y520094D01*
X274159Y520087D01*
X274271Y520100D01*
X274384Y520104D01*
X274470Y520125D01*
X274558Y520135D01*
X274666Y520171D01*
X274776Y520197D01*
X274856Y520234D01*
X274941Y520262D01*
X275039Y520318D01*
X275141Y520365D01*
X275213Y520417D01*
X275290Y520461D01*
X275376Y520536D01*
X275467Y520602D01*
X275527Y520667D01*
X275594Y520726D01*
X275663Y520815D01*
X275739Y520899D01*
X275785Y520975D01*
X275839Y521045D01*
X275904Y521171D01*
X275948Y521243D01*
X275963Y521286D01*
X275991Y521340D01*
X276901Y523538D01*
X279451Y526088D01*
X282783Y527468D01*
X286389Y527468D01*
X289721Y526088D01*
X292271Y523538D01*
X293709Y520065D01*
X293714Y520057D01*
X293716Y520048D01*
X293808Y519880D01*
X293899Y519710D01*
X293905Y519703D01*
X293909Y519695D01*
X294033Y519549D01*
X294156Y519399D01*
X294163Y519394D01*
X294169Y519387D01*
X294319Y519267D01*
X294469Y519146D01*
X294476Y519141D01*
X294483Y519136D01*
X294654Y519048D01*
X294825Y518959D01*
X294834Y518956D01*
X294842Y518952D01*
X295025Y518900D01*
X295211Y518845D01*
X295220Y518845D01*
X295229Y518842D01*
X295420Y518827D01*
X295613Y518811D01*
X295621Y518812D01*
X295630Y518811D01*
X295820Y518834D01*
X296013Y518856D01*
X296021Y518859D01*
X296030Y518860D01*
X296210Y518919D01*
X296396Y518979D01*
X296404Y518984D01*
X296412Y518986D01*
X296578Y519081D01*
X296747Y519175D01*
X296754Y519181D01*
X296762Y519186D01*
X296907Y519312D01*
X297053Y519437D01*
X297059Y519444D01*
X297066Y519450D01*
X297183Y519603D01*
X297301Y519754D01*
X297306Y519762D01*
X297311Y519769D01*
X297463Y520065D01*
X298901Y523538D01*
X301451Y526088D01*
X304783Y527468D01*
X308389Y527468D01*
X311721Y526088D01*
X314271Y523538D01*
X314418Y523182D01*
X314429Y523162D01*
X314436Y523141D01*
X314524Y522985D01*
X314608Y522827D01*
X314623Y522810D01*
X314634Y522790D01*
X314750Y522655D01*
X314865Y522516D01*
X314882Y522502D01*
X314897Y522486D01*
X315038Y522376D01*
X315177Y522263D01*
X315197Y522252D01*
X315215Y522239D01*
X315376Y522159D01*
X315534Y522076D01*
X315555Y522069D01*
X315575Y522059D01*
X315749Y522013D01*
X315920Y521963D01*
X315943Y521961D01*
X315964Y521955D01*
X316295Y521928D01*
X366178Y521928D01*
X438192Y449914D01*
X438192Y44045D01*
X399615Y5468D01*
X399609Y5461D01*
X399602Y5456D01*
X399482Y5306D01*
X399360Y5157D01*
X399356Y5149D01*
X399350Y5142D01*
X399261Y4971D01*
X399171Y4801D01*
X399169Y4793D01*
X399164Y4785D01*
X399111Y4599D01*
X399056Y4415D01*
X399055Y4406D01*
X399053Y4398D01*
X399037Y4206D01*
X399020Y4014D01*
X399021Y4005D01*
X399020Y3996D01*
X399042Y3807D01*
X399063Y3614D01*
X399066Y3605D01*
X399067Y3597D01*
X399126Y3415D01*
X399185Y3230D01*
X399189Y3222D01*
X399192Y3214D01*
X399287Y3045D01*
X399380Y2878D01*
X399385Y2871D01*
X399390Y2863D01*
X399516Y2717D01*
X399640Y2571D01*
X399647Y2565D01*
X399653Y2558D01*
X399804Y2441D01*
X399956Y2321D01*
X399964Y2317D01*
X399971Y2312D01*
X400143Y2226D01*
X400315Y2139D01*
X400324Y2136D01*
X400332Y2132D01*
X400518Y2082D01*
X400703Y2031D01*
X400712Y2030D01*
X400720Y2028D01*
X401051Y2001D01*
X445968Y2001D01*
X445986Y2003D01*
X446004Y2001D01*
X446186Y2022D01*
X446369Y2041D01*
X446386Y2046D01*
X446403Y2048D01*
X446578Y2105D01*
X446754Y2159D01*
X446769Y2167D01*
X446786Y2173D01*
X446946Y2263D01*
X447108Y2351D01*
X447121Y2362D01*
X447137Y2371D01*
X447276Y2491D01*
X447417Y2608D01*
X447428Y2622D01*
X447442Y2634D01*
X447554Y2779D01*
X447669Y2922D01*
X447677Y2938D01*
X447688Y2952D01*
X447770Y3117D01*
X447855Y3279D01*
X447860Y3296D01*
X447868Y3312D01*
X447915Y3491D01*
X447966Y3666D01*
X447968Y3684D01*
X447972Y3701D01*
X447999Y4032D01*
X447999Y715968D01*
X447997Y715986D01*
X447999Y716004D01*
X447978Y716186D01*
X447959Y716369D01*
X447954Y716386D01*
X447952Y716403D01*
X447895Y716578D01*
X447841Y716754D01*
X447833Y716769D01*
X447827Y716786D01*
X447737Y716946D01*
X447649Y717108D01*
X447638Y717121D01*
X447629Y717137D01*
X447509Y717276D01*
X447392Y717417D01*
X447378Y717428D01*
X447366Y717442D01*
X447221Y717554D01*
X447078Y717669D01*
X447062Y717677D01*
X447048Y717688D01*
X446883Y717770D01*
X446721Y717855D01*
X446704Y717860D01*
X446688Y717868D01*
X446509Y717915D01*
X446334Y717966D01*
X446316Y717968D01*
X446299Y717972D01*
X445968Y717999D01*
X4032Y717999D01*
X4014Y717997D01*
X3996Y717999D01*
X3814Y717978D01*
X3631Y717959D01*
X3614Y717954D01*
X3597Y717952D01*
X3422Y717895D01*
X3246Y717841D01*
X3231Y717833D01*
X3214Y717827D01*
X3054Y717737D01*
X2892Y717649D01*
X2879Y717638D01*
X2863Y717629D01*
X2724Y717509D01*
X2583Y717392D01*
X2572Y717378D01*
X2558Y717366D01*
X2446Y717221D01*
X2331Y717078D01*
X2323Y717062D01*
X2312Y717048D01*
X2230Y716883D01*
X2145Y716721D01*
X2140Y716704D01*
X2132Y716688D01*
X2085Y716509D01*
X2034Y716334D01*
X2032Y716316D01*
X2028Y716299D01*
X2001Y715968D01*
X2001Y4032D01*
X2003Y4014D01*
X2001Y3996D01*
X2022Y3814D01*
X2041Y3631D01*
X2046Y3614D01*
X2048Y3597D01*
X2105Y3422D01*
X2159Y3246D01*
X2167Y3231D01*
X2173Y3214D01*
X2263Y3054D01*
X2351Y2892D01*
X2362Y2879D01*
X2371Y2863D01*
X2491Y2724D01*
X2608Y2583D01*
X2622Y2572D01*
X2634Y2558D01*
X2779Y2446D01*
X2922Y2331D01*
X2938Y2323D01*
X2952Y2312D01*
X3117Y2230D01*
X3279Y2145D01*
X3296Y2140D01*
X3312Y2132D01*
X3491Y2085D01*
X3666Y2034D01*
X3684Y2032D01*
X3701Y2028D01*
X4032Y2001D01*
X305970Y2001D01*
X305979Y2002D01*
G37*
%LPC*%
G36*
X186541Y357153D02*
X186541Y357153D01*
X185752Y357942D01*
X185732Y357959D01*
X185714Y357979D01*
X185576Y358086D01*
X185441Y358197D01*
X185417Y358209D01*
X185396Y358226D01*
X185239Y358304D01*
X185085Y358386D01*
X185060Y358393D01*
X185035Y358405D01*
X184866Y358451D01*
X184699Y358500D01*
X184673Y358503D01*
X184647Y358510D01*
X184316Y358537D01*
X162893Y358537D01*
X160839Y359388D01*
X153687Y366539D01*
X153667Y366556D01*
X153649Y366576D01*
X153511Y366683D01*
X153376Y366794D01*
X153352Y366807D01*
X153331Y366823D01*
X153174Y366901D01*
X153020Y366983D01*
X152994Y366990D01*
X152970Y367002D01*
X152801Y367048D01*
X152634Y367098D01*
X152608Y367100D01*
X152582Y367107D01*
X152251Y367134D01*
X151016Y367134D01*
X146883Y371268D01*
X146883Y377114D01*
X147756Y377987D01*
X147773Y378008D01*
X147793Y378025D01*
X147900Y378163D01*
X148011Y378298D01*
X148023Y378322D01*
X148040Y378343D01*
X148118Y378500D01*
X148199Y378654D01*
X148207Y378680D01*
X148219Y378704D01*
X148264Y378873D01*
X148314Y379040D01*
X148316Y379067D01*
X148323Y379092D01*
X148351Y379423D01*
X148351Y424952D01*
X149201Y427006D01*
X151059Y428864D01*
X157114Y434919D01*
X157131Y434940D01*
X157151Y434957D01*
X157258Y435095D01*
X157369Y435230D01*
X157382Y435254D01*
X157398Y435275D01*
X157476Y435432D01*
X157558Y435586D01*
X157565Y435612D01*
X157577Y435636D01*
X157623Y435805D01*
X157673Y435972D01*
X157675Y435999D01*
X157682Y436025D01*
X157709Y436355D01*
X157709Y437590D01*
X158582Y438463D01*
X158599Y438484D01*
X158619Y438501D01*
X158727Y438639D01*
X158837Y438774D01*
X158850Y438798D01*
X158866Y438819D01*
X158944Y438976D01*
X159026Y439130D01*
X159033Y439156D01*
X159045Y439180D01*
X159091Y439349D01*
X159141Y439516D01*
X159143Y439543D01*
X159150Y439569D01*
X159177Y439899D01*
X159177Y459676D01*
X159174Y459703D01*
X159176Y459730D01*
X159154Y459904D01*
X159137Y460077D01*
X159129Y460102D01*
X159126Y460129D01*
X159070Y460295D01*
X159019Y460462D01*
X159006Y460485D01*
X158998Y460511D01*
X158910Y460662D01*
X158827Y460816D01*
X158810Y460836D01*
X158797Y460860D01*
X158582Y461113D01*
X119347Y500348D01*
X119326Y500365D01*
X119309Y500385D01*
X119171Y500492D01*
X119035Y500603D01*
X119012Y500615D01*
X118991Y500632D01*
X118834Y500710D01*
X118680Y500792D01*
X118654Y500799D01*
X118630Y500811D01*
X118461Y500857D01*
X118294Y500906D01*
X118267Y500909D01*
X118241Y500916D01*
X117911Y500943D01*
X116676Y500943D01*
X112542Y505077D01*
X112542Y510922D01*
X116676Y515056D01*
X122522Y515056D01*
X126656Y510922D01*
X126656Y509688D01*
X126658Y509661D01*
X126656Y509635D01*
X126678Y509461D01*
X126696Y509287D01*
X126703Y509262D01*
X126707Y509235D01*
X126762Y509069D01*
X126814Y508902D01*
X126826Y508879D01*
X126835Y508853D01*
X126922Y508702D01*
X127005Y508548D01*
X127023Y508528D01*
X127036Y508505D01*
X127251Y508252D01*
X169504Y465998D01*
X170354Y463944D01*
X170354Y439899D01*
X170357Y439873D01*
X170355Y439846D01*
X170377Y439672D01*
X170394Y439499D01*
X170402Y439473D01*
X170406Y439446D01*
X170461Y439281D01*
X170513Y439114D01*
X170525Y439090D01*
X170534Y439065D01*
X170621Y438914D01*
X170704Y438760D01*
X170721Y438739D01*
X170735Y438716D01*
X170949Y438463D01*
X171822Y437590D01*
X171822Y431744D01*
X167689Y427610D01*
X166454Y427610D01*
X166428Y427608D01*
X166401Y427609D01*
X166227Y427588D01*
X166053Y427570D01*
X166028Y427562D01*
X166001Y427559D01*
X165836Y427503D01*
X165669Y427452D01*
X165645Y427439D01*
X165620Y427431D01*
X165468Y427344D01*
X165315Y427260D01*
X165294Y427243D01*
X165271Y427230D01*
X165018Y427015D01*
X160123Y422120D01*
X160106Y422100D01*
X160086Y422082D01*
X159979Y421944D01*
X159868Y421809D01*
X159855Y421785D01*
X159839Y421764D01*
X159761Y421607D01*
X159679Y421453D01*
X159672Y421428D01*
X159660Y421404D01*
X159614Y421234D01*
X159564Y421067D01*
X159562Y421041D01*
X159555Y421015D01*
X159528Y420684D01*
X159528Y379423D01*
X159531Y379397D01*
X159529Y379370D01*
X159551Y379196D01*
X159568Y379023D01*
X159576Y378997D01*
X159579Y378970D01*
X159635Y378805D01*
X159686Y378638D01*
X159699Y378614D01*
X159707Y378589D01*
X159795Y378437D01*
X159878Y378284D01*
X159895Y378263D01*
X159908Y378240D01*
X160123Y377987D01*
X160996Y377114D01*
X160996Y375879D01*
X160999Y375853D01*
X160997Y375826D01*
X161019Y375652D01*
X161036Y375478D01*
X161044Y375453D01*
X161047Y375426D01*
X161103Y375260D01*
X161154Y375094D01*
X161167Y375070D01*
X161175Y375045D01*
X161263Y374893D01*
X161346Y374740D01*
X161363Y374719D01*
X161376Y374696D01*
X161591Y374443D01*
X165725Y370309D01*
X165745Y370292D01*
X165763Y370272D01*
X165900Y370165D01*
X166036Y370054D01*
X166060Y370042D01*
X166081Y370025D01*
X166237Y369948D01*
X166392Y369865D01*
X166417Y369858D01*
X166441Y369846D01*
X166610Y369801D01*
X166778Y369751D01*
X166804Y369748D01*
X166830Y369741D01*
X167161Y369714D01*
X184147Y369714D01*
X184173Y369717D01*
X184200Y369715D01*
X184374Y369737D01*
X184547Y369754D01*
X184573Y369762D01*
X184600Y369765D01*
X184765Y369821D01*
X184932Y369872D01*
X184956Y369885D01*
X184981Y369894D01*
X185133Y369981D01*
X185286Y370064D01*
X185307Y370081D01*
X185330Y370095D01*
X185583Y370309D01*
X186541Y371267D01*
X192387Y371267D01*
X196520Y367133D01*
X196520Y361287D01*
X192387Y357153D01*
X186541Y357153D01*
G37*
%LPD*%
%LPC*%
G36*
X133005Y593402D02*
X133005Y593402D01*
X126389Y596143D01*
X121326Y601206D01*
X118585Y607822D01*
X118585Y614984D01*
X121326Y621600D01*
X126389Y626663D01*
X129094Y627784D01*
X133005Y629404D01*
X140167Y629404D01*
X146783Y626663D01*
X151846Y621600D01*
X154587Y614984D01*
X154587Y607822D01*
X151846Y601206D01*
X146783Y596143D01*
X140167Y593402D01*
X133005Y593402D01*
G37*
%LPD*%
%LPC*%
G36*
X308005Y593402D02*
X308005Y593402D01*
X301389Y596143D01*
X296326Y601206D01*
X293585Y607822D01*
X293585Y614984D01*
X296326Y621600D01*
X301389Y626663D01*
X304094Y627784D01*
X308005Y629404D01*
X315167Y629404D01*
X321783Y626663D01*
X326846Y621600D01*
X329587Y614984D01*
X329587Y607822D01*
X326846Y601206D01*
X321783Y596143D01*
X315167Y593402D01*
X308005Y593402D01*
G37*
%LPD*%
%LPC*%
G36*
X217545Y23918D02*
X217545Y23918D01*
X214213Y25298D01*
X211663Y27848D01*
X210283Y31179D01*
X210283Y49866D01*
X211663Y53197D01*
X214213Y55747D01*
X214664Y55934D01*
X214684Y55945D01*
X214705Y55951D01*
X214861Y56040D01*
X215019Y56124D01*
X215037Y56138D01*
X215056Y56149D01*
X215191Y56266D01*
X215330Y56381D01*
X215344Y56398D01*
X215361Y56413D01*
X215470Y56554D01*
X215583Y56693D01*
X215594Y56713D01*
X215607Y56731D01*
X215687Y56891D01*
X215770Y57050D01*
X215777Y57071D01*
X215787Y57091D01*
X215833Y57265D01*
X215884Y57436D01*
X215885Y57458D01*
X215891Y57480D01*
X215918Y57811D01*
X215918Y70590D01*
X215916Y70616D01*
X215918Y70643D01*
X215896Y70817D01*
X215878Y70991D01*
X215871Y71016D01*
X215867Y71043D01*
X215812Y71208D01*
X215760Y71375D01*
X215748Y71399D01*
X215739Y71424D01*
X215652Y71576D01*
X215569Y71729D01*
X215552Y71750D01*
X215538Y71773D01*
X215323Y72026D01*
X187551Y99798D01*
X187531Y99815D01*
X187513Y99836D01*
X187375Y99943D01*
X187240Y100053D01*
X187216Y100066D01*
X187195Y100082D01*
X187038Y100160D01*
X186884Y100242D01*
X186859Y100250D01*
X186834Y100262D01*
X186665Y100307D01*
X186498Y100357D01*
X186472Y100359D01*
X186446Y100366D01*
X186115Y100393D01*
X185444Y100393D01*
X183494Y101201D01*
X182001Y102694D01*
X181193Y104644D01*
X181193Y106756D01*
X182001Y108706D01*
X183494Y110199D01*
X185444Y111007D01*
X187556Y111007D01*
X189506Y110199D01*
X190999Y108706D01*
X191807Y106756D01*
X191807Y106085D01*
X191809Y106058D01*
X191807Y106032D01*
X191829Y105858D01*
X191847Y105684D01*
X191854Y105659D01*
X191858Y105632D01*
X191913Y105467D01*
X191965Y105299D01*
X191978Y105276D01*
X191986Y105251D01*
X192073Y105099D01*
X192157Y104945D01*
X192174Y104925D01*
X192187Y104902D01*
X192402Y104649D01*
X222778Y74273D01*
X222778Y57811D01*
X222780Y57788D01*
X222778Y57766D01*
X222800Y57589D01*
X222818Y57410D01*
X222824Y57389D01*
X222827Y57367D01*
X222883Y57196D01*
X222936Y57025D01*
X222947Y57005D01*
X222954Y56984D01*
X223042Y56829D01*
X223128Y56671D01*
X223142Y56654D01*
X223153Y56635D01*
X223271Y56500D01*
X223385Y56362D01*
X223403Y56348D01*
X223417Y56331D01*
X223560Y56222D01*
X223699Y56110D01*
X223719Y56099D01*
X223737Y56086D01*
X224032Y55934D01*
X224483Y55747D01*
X227033Y53197D01*
X228413Y49866D01*
X228413Y31179D01*
X227033Y27848D01*
X224483Y25298D01*
X221800Y24186D01*
X221151Y23918D01*
X217545Y23918D01*
G37*
%LPD*%
%LPC*%
G36*
X254085Y552935D02*
X254085Y552935D01*
X254083Y552953D01*
X254085Y552970D01*
X254064Y553152D01*
X254045Y553335D01*
X254040Y553353D01*
X254038Y553370D01*
X254025Y553411D01*
X254052Y553506D01*
X254053Y553523D01*
X254058Y553541D01*
X254085Y553871D01*
X254085Y563190D01*
X255456Y562745D01*
X256869Y562025D01*
X258153Y561092D01*
X259275Y559970D01*
X260208Y558687D01*
X260928Y557273D01*
X261182Y556490D01*
X261218Y556409D01*
X261245Y556324D01*
X261299Y556225D01*
X261344Y556121D01*
X261395Y556048D01*
X261438Y555971D01*
X261511Y555884D01*
X261575Y555792D01*
X261640Y555730D01*
X261697Y555662D01*
X261785Y555592D01*
X261867Y555514D01*
X261942Y555467D01*
X262012Y555412D01*
X262112Y555360D01*
X262208Y555300D01*
X262291Y555268D01*
X262370Y555228D01*
X262479Y555197D01*
X262584Y555157D01*
X262672Y555142D01*
X262757Y555118D01*
X262870Y555109D01*
X262981Y555091D01*
X263070Y555094D01*
X263159Y555087D01*
X263271Y555100D01*
X263384Y555104D01*
X263470Y555125D01*
X263558Y555135D01*
X263666Y555171D01*
X263776Y555197D01*
X263856Y555234D01*
X263941Y555262D01*
X264039Y555318D01*
X264141Y555365D01*
X264213Y555417D01*
X264290Y555461D01*
X264376Y555536D01*
X264467Y555602D01*
X264527Y555667D01*
X264594Y555726D01*
X264663Y555815D01*
X264739Y555899D01*
X264785Y555975D01*
X264839Y556045D01*
X264904Y556171D01*
X264948Y556243D01*
X264963Y556286D01*
X264991Y556340D01*
X265901Y558538D01*
X268451Y561088D01*
X271783Y562468D01*
X275389Y562468D01*
X278721Y561088D01*
X281271Y558538D01*
X282709Y555065D01*
X282714Y555057D01*
X282716Y555048D01*
X282808Y554880D01*
X282899Y554710D01*
X282905Y554703D01*
X282909Y554695D01*
X283033Y554549D01*
X283156Y554399D01*
X283163Y554394D01*
X283169Y554387D01*
X283319Y554267D01*
X283469Y554146D01*
X283476Y554141D01*
X283483Y554136D01*
X283654Y554048D01*
X283825Y553959D01*
X283834Y553956D01*
X283842Y553952D01*
X284025Y553900D01*
X284211Y553845D01*
X284220Y553845D01*
X284229Y553842D01*
X284420Y553827D01*
X284613Y553811D01*
X284621Y553812D01*
X284630Y553811D01*
X284820Y553834D01*
X285013Y553856D01*
X285021Y553859D01*
X285030Y553860D01*
X285210Y553919D01*
X285396Y553979D01*
X285404Y553984D01*
X285412Y553986D01*
X285578Y554081D01*
X285747Y554175D01*
X285754Y554181D01*
X285762Y554186D01*
X285907Y554312D01*
X286053Y554437D01*
X286059Y554444D01*
X286066Y554450D01*
X286183Y554603D01*
X286301Y554754D01*
X286306Y554762D01*
X286311Y554769D01*
X286463Y555065D01*
X287901Y558538D01*
X290451Y561088D01*
X293783Y562468D01*
X297389Y562468D01*
X300721Y561088D01*
X303271Y558538D01*
X304651Y555206D01*
X304651Y551600D01*
X303271Y548268D01*
X300721Y545718D01*
X297389Y544338D01*
X293783Y544338D01*
X290451Y545718D01*
X287901Y548268D01*
X286463Y551742D01*
X286458Y551749D01*
X286456Y551758D01*
X286363Y551927D01*
X286272Y552096D01*
X286267Y552103D01*
X286262Y552111D01*
X286139Y552258D01*
X286016Y552407D01*
X286009Y552412D01*
X286003Y552419D01*
X285852Y552540D01*
X285703Y552661D01*
X285696Y552665D01*
X285688Y552670D01*
X285515Y552759D01*
X285347Y552848D01*
X285338Y552850D01*
X285330Y552854D01*
X285144Y552907D01*
X284960Y552961D01*
X284951Y552961D01*
X284943Y552964D01*
X284752Y552979D01*
X284559Y552995D01*
X284550Y552994D01*
X284541Y552995D01*
X284350Y552972D01*
X284159Y552950D01*
X284151Y552947D01*
X284142Y552946D01*
X283959Y552886D01*
X283776Y552827D01*
X283768Y552823D01*
X283760Y552820D01*
X283593Y552725D01*
X283424Y552631D01*
X283418Y552625D01*
X283410Y552620D01*
X283266Y552495D01*
X283119Y552369D01*
X283113Y552362D01*
X283106Y552356D01*
X282989Y552204D01*
X282870Y552052D01*
X282866Y552044D01*
X282861Y552037D01*
X282709Y551742D01*
X281271Y548268D01*
X278721Y545718D01*
X275389Y544338D01*
X271783Y544338D01*
X268451Y545718D01*
X265901Y548268D01*
X264991Y550466D01*
X264949Y550544D01*
X264916Y550627D01*
X264854Y550721D01*
X264801Y550821D01*
X264744Y550889D01*
X264696Y550964D01*
X264616Y551044D01*
X264544Y551131D01*
X264475Y551187D01*
X264413Y551250D01*
X264319Y551314D01*
X264232Y551385D01*
X264153Y551426D01*
X264080Y551476D01*
X263975Y551520D01*
X263875Y551572D01*
X263790Y551597D01*
X263708Y551631D01*
X263597Y551653D01*
X263489Y551685D01*
X263400Y551693D01*
X263313Y551710D01*
X263200Y551710D01*
X263088Y551720D01*
X262999Y551710D01*
X262911Y551710D01*
X262800Y551687D01*
X262688Y551675D01*
X262603Y551647D01*
X262516Y551630D01*
X262412Y551586D01*
X262304Y551551D01*
X262227Y551508D01*
X262145Y551474D01*
X262051Y551410D01*
X261953Y551355D01*
X261885Y551297D01*
X261812Y551247D01*
X261733Y551167D01*
X261647Y551093D01*
X261592Y551023D01*
X261530Y550960D01*
X261468Y550865D01*
X261399Y550776D01*
X261359Y550697D01*
X261310Y550622D01*
X261256Y550492D01*
X261218Y550416D01*
X261206Y550372D01*
X261182Y550316D01*
X260928Y549533D01*
X260208Y548120D01*
X259275Y546836D01*
X258153Y545714D01*
X256869Y544781D01*
X255456Y544061D01*
X254085Y543616D01*
X254085Y552935D01*
G37*
%LPD*%
%LPC*%
G36*
X369017Y23918D02*
X369017Y23918D01*
X365685Y25298D01*
X363135Y27848D01*
X361755Y31179D01*
X361755Y49866D01*
X363135Y53197D01*
X365685Y55747D01*
X369017Y57127D01*
X372623Y57127D01*
X375955Y55747D01*
X378505Y53197D01*
X379885Y49866D01*
X379885Y31179D01*
X378505Y27848D01*
X375955Y25298D01*
X373272Y24186D01*
X372623Y23918D01*
X369017Y23918D01*
G37*
%LPD*%
%LPC*%
G36*
X412517Y516370D02*
X412517Y516370D01*
X407756Y521131D01*
X407756Y527865D01*
X412517Y532627D01*
X419251Y532627D01*
X424013Y527865D01*
X424013Y521131D01*
X419251Y516370D01*
X412517Y516370D01*
G37*
%LPD*%
%LPC*%
G36*
X399899Y530738D02*
X399899Y530738D01*
X396911Y531975D01*
X394625Y534262D01*
X393387Y537250D01*
X393387Y540484D01*
X394625Y543471D01*
X396911Y545758D01*
X399899Y546995D01*
X403133Y546995D01*
X406121Y545758D01*
X408407Y543471D01*
X409645Y540484D01*
X409645Y537250D01*
X408407Y534262D01*
X406121Y531975D01*
X403133Y530738D01*
X399899Y530738D01*
G37*
%LPD*%
%LPC*%
G36*
X68585Y228287D02*
X68585Y228287D01*
X65971Y229370D01*
X63970Y231371D01*
X62887Y233985D01*
X62887Y236815D01*
X63970Y239429D01*
X65971Y241430D01*
X68585Y242513D01*
X71415Y242513D01*
X74029Y241430D01*
X76030Y239429D01*
X77113Y236815D01*
X77113Y233985D01*
X76030Y231371D01*
X74029Y229370D01*
X71415Y228287D01*
X68585Y228287D01*
G37*
%LPD*%
%LPC*%
G36*
X143585Y228287D02*
X143585Y228287D01*
X140971Y229370D01*
X138970Y231371D01*
X137887Y233985D01*
X137887Y236815D01*
X138970Y239429D01*
X140971Y241430D01*
X143585Y242513D01*
X146415Y242513D01*
X149029Y241430D01*
X151030Y239429D01*
X152113Y236815D01*
X152113Y233985D01*
X151030Y231371D01*
X149029Y229370D01*
X146415Y228287D01*
X143585Y228287D01*
G37*
%LPD*%
%LPC*%
G36*
X143585Y202887D02*
X143585Y202887D01*
X140971Y203970D01*
X138970Y205971D01*
X137887Y208585D01*
X137887Y211415D01*
X138970Y214029D01*
X140971Y216030D01*
X143585Y217113D01*
X146415Y217113D01*
X149029Y216030D01*
X151030Y214029D01*
X152113Y211415D01*
X152113Y208585D01*
X151030Y205971D01*
X149029Y203970D01*
X146534Y202936D01*
X146415Y202887D01*
X143585Y202887D01*
G37*
%LPD*%
%LPC*%
G36*
X347919Y43022D02*
X347919Y43022D01*
X347919Y57850D01*
X349290Y57405D01*
X350704Y56684D01*
X351987Y55752D01*
X353109Y54630D01*
X354042Y53346D01*
X354762Y51932D01*
X355253Y50423D01*
X355501Y48856D01*
X355501Y43022D01*
X347919Y43022D01*
G37*
%LPD*%
%LPC*%
G36*
X347919Y38023D02*
X347919Y38023D01*
X355501Y38023D01*
X355501Y32189D01*
X355253Y30622D01*
X354762Y29113D01*
X354042Y27699D01*
X353109Y26415D01*
X351987Y25293D01*
X350704Y24361D01*
X349290Y23640D01*
X347919Y23195D01*
X347919Y38023D01*
G37*
%LPD*%
%LPC*%
G36*
X335339Y43022D02*
X335339Y43022D01*
X335339Y48856D01*
X335588Y50423D01*
X336078Y51932D01*
X336798Y53346D01*
X337731Y54630D01*
X338853Y55752D01*
X340137Y56684D01*
X341551Y57405D01*
X342921Y57850D01*
X342921Y43022D01*
X335339Y43022D01*
G37*
%LPD*%
%LPC*%
G36*
X341551Y23640D02*
X341551Y23640D01*
X340137Y24361D01*
X338853Y25293D01*
X337731Y26415D01*
X336798Y27699D01*
X336078Y29113D01*
X335588Y30622D01*
X335339Y32189D01*
X335339Y38023D01*
X342921Y38023D01*
X342921Y23195D01*
X341551Y23640D01*
G37*
%LPD*%
%LPC*%
G36*
X148716Y509061D02*
X148716Y509061D01*
X147302Y509781D01*
X146019Y510714D01*
X144897Y511836D01*
X143964Y513120D01*
X143244Y514533D01*
X142799Y515904D01*
X150087Y515904D01*
X150087Y508616D01*
X148716Y509061D01*
G37*
%LPD*%
%LPC*%
G36*
X72031Y186631D02*
X72031Y186631D01*
X72031Y192484D01*
X72371Y192416D01*
X73850Y191804D01*
X75182Y190914D01*
X76314Y189782D01*
X77204Y188450D01*
X77816Y186971D01*
X77884Y186631D01*
X72031Y186631D01*
G37*
%LPD*%
%LPC*%
G36*
X147031Y186631D02*
X147031Y186631D01*
X147031Y192484D01*
X147371Y192416D01*
X148850Y191804D01*
X150182Y190914D01*
X151314Y189782D01*
X152204Y188450D01*
X152816Y186971D01*
X152884Y186631D01*
X147031Y186631D01*
G37*
%LPD*%
%LPC*%
G36*
X62116Y186631D02*
X62116Y186631D01*
X62184Y186971D01*
X62796Y188450D01*
X63686Y189782D01*
X64818Y190914D01*
X66150Y191804D01*
X67629Y192416D01*
X67969Y192484D01*
X67969Y186631D01*
X62116Y186631D01*
G37*
%LPD*%
%LPC*%
G36*
X72031Y182569D02*
X72031Y182569D01*
X77884Y182569D01*
X77816Y182229D01*
X77204Y180750D01*
X76314Y179418D01*
X75182Y178286D01*
X73850Y177396D01*
X72371Y176784D01*
X72031Y176716D01*
X72031Y182569D01*
G37*
%LPD*%
%LPC*%
G36*
X147031Y182569D02*
X147031Y182569D01*
X152884Y182569D01*
X152816Y182229D01*
X152204Y180750D01*
X151314Y179418D01*
X150182Y178286D01*
X148850Y177396D01*
X147371Y176784D01*
X147031Y176716D01*
X147031Y182569D01*
G37*
%LPD*%
%LPC*%
G36*
X67629Y176784D02*
X67629Y176784D01*
X66150Y177396D01*
X64818Y178286D01*
X63686Y179418D01*
X62796Y180750D01*
X62184Y182229D01*
X62116Y182569D01*
X67969Y182569D01*
X67969Y176716D01*
X67629Y176784D01*
G37*
%LPD*%
D10*
X145000Y184600D03*
X145000Y210000D03*
X145000Y235400D03*
X70000Y184600D03*
X70000Y210000D03*
X70000Y235400D03*
D11*
X370000Y306800D03*
X390000Y306800D03*
D12*
X143948Y48062D02*
X143948Y32982D01*
X169348Y32982D02*
X169348Y48062D01*
X193948Y48062D02*
X193948Y32982D01*
X219348Y32982D02*
X219348Y48062D01*
X243948Y48062D02*
X243948Y32982D01*
X269348Y32982D02*
X269348Y48062D01*
X92843Y48062D02*
X92843Y32982D01*
X118243Y32982D02*
X118243Y48062D01*
D13*
X415884Y524498D03*
D14*
X401516Y538867D03*
D12*
X294748Y48062D02*
X294748Y32982D01*
X320148Y32982D02*
X320148Y48062D01*
D15*
X152586Y518403D03*
X174586Y518403D03*
X196586Y518403D03*
X218586Y518403D03*
X240586Y518403D03*
X262586Y518403D03*
X284586Y518403D03*
X306586Y518403D03*
X141586Y553403D03*
X163586Y553403D03*
X185586Y553403D03*
X207586Y553403D03*
X229586Y553403D03*
X251586Y553403D03*
X273586Y553403D03*
X295586Y553403D03*
D12*
X345420Y48062D02*
X345420Y32982D01*
X370820Y32982D02*
X370820Y48062D01*
D16*
X153939Y374191D03*
X164766Y434667D03*
D17*
X153939Y423840D01*
X153939Y374191D01*
D16*
X189464Y364210D03*
D17*
X189379Y364126D02*
X164005Y364126D01*
X153939Y374191D01*
X189379Y364126D02*
X189464Y364210D01*
D16*
X119599Y508000D03*
D17*
X164766Y462833D02*
X164766Y434667D01*
X164766Y462833D02*
X119599Y508000D01*
D18*
X104766Y221080D03*
D19*
X118243Y58708D02*
X118243Y40522D01*
X118243Y58708D02*
X98472Y78479D01*
X104766Y180128D02*
X104766Y221080D01*
X104766Y180128D02*
X98472Y173834D01*
X98472Y78479D01*
D20*
X111962Y88554D02*
X143159Y57357D01*
D21*
X111962Y88554D02*
X111962Y168302D01*
X143159Y57357D02*
X143159Y41635D01*
X143948Y40522D01*
D18*
X125266Y319043D03*
D19*
X125266Y266941D01*
X121325Y263000D01*
X121325Y177665D01*
X111962Y168302D01*
D22*
X42806Y406306D02*
X42806Y469485D01*
X109152Y535831D01*
X123490Y325622D02*
X123490Y320820D01*
X125266Y319043D01*
X123490Y325622D02*
X42806Y406306D01*
X109152Y535831D02*
X157348Y535831D01*
X163501Y541984D01*
X163501Y553318D01*
X163586Y553403D01*
D20*
X193948Y30846D02*
X183948Y20846D01*
D21*
X130848Y26646D02*
X130848Y58199D01*
X130848Y26646D02*
X136648Y20846D01*
X183948Y20846D01*
X193948Y30846D02*
X193948Y40522D01*
X105528Y171800D02*
X113035Y179307D01*
X105528Y171800D02*
X105528Y83519D01*
X130848Y58199D01*
D18*
X104966Y319043D03*
D19*
X113035Y310974D01*
X113035Y179307D01*
D22*
X104966Y319043D02*
X104966Y330732D01*
X133713Y572064D02*
X200681Y572064D01*
X133713Y572064D02*
X34436Y472787D01*
X34436Y401263D01*
X104966Y330732D01*
X207586Y565160D02*
X200681Y572064D01*
X207586Y565160D02*
X207586Y553403D01*
D18*
X385000Y330000D03*
X190000Y125000D03*
D20*
X236355Y171355D01*
X236355Y206373D01*
X336389Y331587D02*
X342013Y337211D01*
X251547Y221565D02*
X236355Y206373D01*
X251547Y221565D02*
X284396Y221565D01*
X336389Y273558D01*
X385000Y330000D02*
X377789Y337211D01*
X342013Y337211D01*
X336389Y331587D02*
X336389Y273558D01*
D18*
X51112Y415343D03*
X228299Y230969D03*
D23*
X228299Y234144D01*
X51112Y411331D01*
X51112Y415343D01*
D18*
X355000Y320000D03*
X350000Y275000D03*
D23*
X355000Y280000D02*
X355000Y320000D01*
X355000Y280000D02*
X350000Y275000D01*
D19*
X364718Y518403D02*
X306586Y518403D01*
X434667Y448454D02*
X434667Y45505D01*
X393560Y4398D01*
X313461Y4398D01*
X294748Y23111D01*
X294748Y40522D01*
X434667Y448454D02*
X364718Y518403D01*
X298204Y504785D02*
X284586Y518403D01*
X298204Y504785D02*
X369116Y504785D01*
X427477Y446424D01*
X390769Y11672D02*
X329954Y11672D01*
X320148Y21479D01*
X320148Y40522D01*
X427477Y48381D02*
X427477Y446424D01*
X427477Y48381D02*
X390769Y11672D01*
D18*
X365000Y195000D03*
X244145Y154812D03*
X69816Y287337D03*
X83929Y108944D03*
X415000Y285000D03*
X214633Y314623D03*
X93847Y474186D03*
X350065Y465600D03*
X390065Y465600D03*
X430065Y465600D03*
X26017Y381266D03*
X305000Y355000D03*
X345000Y355000D03*
X272500Y312500D03*
X304072Y84413D03*
X158760Y286818D03*
X297900Y189800D03*
X139391Y350508D03*
X221500Y394000D03*
X260000Y394000D03*
X272000Y380000D03*
X248000Y380000D03*
X390000Y270000D03*
D23*
X390000Y306800D01*
D18*
X345000Y330000D03*
X202900Y124900D03*
D20*
X342100Y327100D02*
X345000Y330000D01*
X342100Y327100D02*
X342100Y269100D01*
X287531Y214531D01*
X254557Y214531D01*
X244389Y166389D02*
X202900Y124900D01*
X244389Y166389D02*
X244389Y204363D01*
X254557Y214531D01*
D24*
X313055Y267632D03*
X277699Y235998D03*
D19*
X281421Y235998D02*
X313055Y267632D01*
X281421Y235998D02*
X277699Y235998D01*
D18*
X278100Y198400D03*
X270897Y162999D03*
D23*
X275100Y167203D01*
X275100Y195400D02*
X278100Y198400D01*
X275100Y195400D02*
X275100Y167203D01*
D18*
X346600Y183000D03*
X253900Y198400D03*
D23*
X259740Y206754D02*
X327846Y206754D01*
X259740Y206754D02*
X253900Y200914D01*
X253900Y198400D01*
X346600Y188000D02*
X346600Y183000D01*
X346600Y188000D02*
X327846Y206754D01*
D20*
X255930Y53262D02*
X268346Y40846D01*
X255930Y196370D02*
X253900Y198400D01*
X255930Y196370D02*
X255930Y53262D01*
X268346Y40846D02*
X269348Y40522D01*
D19*
X91828Y188172D02*
X70000Y210000D01*
X91828Y188172D02*
X91828Y41537D01*
X92843Y40522D01*
D18*
X129900Y257700D03*
D19*
X130000Y175000D02*
X120000Y165000D01*
X120000Y155000D01*
D18*
X120000Y155000D03*
D20*
X120000Y92156D02*
X169348Y42808D01*
X120000Y92156D02*
X120000Y155000D01*
X169348Y42808D02*
X169348Y40522D01*
D23*
X130000Y257600D02*
X129900Y257700D01*
D19*
X130000Y257600D02*
X130000Y175000D01*
D18*
X243378Y144024D03*
D20*
X243948Y143453D01*
X243948Y40522D01*
D18*
X291660Y259299D03*
X125647Y444186D03*
D23*
X125563Y444101D01*
X125563Y384290D01*
X125647Y384205D01*
D18*
X416007Y271129D03*
D23*
X329600Y296600D02*
X292299Y259299D01*
X291660Y259299D01*
X329600Y296600D02*
X329600Y336100D01*
X338500Y345000D01*
X403300Y327300D02*
X403300Y283835D01*
X416007Y271129D01*
X385600Y345000D02*
X338500Y345000D01*
X385600Y345000D02*
X403300Y327300D01*
D22*
X125647Y348773D02*
X125647Y384205D01*
X215121Y259299D02*
X291660Y259299D01*
X215121Y259299D02*
X125647Y348773D01*
D18*
X186500Y105700D03*
D20*
X219348Y72852D01*
X219348Y40522D01*
D24*
X236322Y242581D03*
D19*
X243342Y235561D01*
D24*
X268125Y240805D03*
D19*
X262881Y235561D01*
X243342Y235561D01*
M02*
