M48
;GenerationSoftware,Autodesk,EAGLE,9.2.0*%
;CreationDate,2019-05-29T12:40:48Z*%
FMAT,2
ICI,OFF
METRIC,TZ,000.000
T8C0.300
T7C0.350
T6C0.610
T5C0.700
T4C0.813
T3C0.900
T2C1.000
T1C3.200
%
G90
M71
T1
X31159Y61140
X13659Y61140
T2
X26259Y51840
X30659Y51840
X14159Y55340
X11824Y4052
X16359Y55340
X28459Y51840
X18559Y55340
X20759Y55340
X25159Y55340
X27359Y55340
X29559Y55340
X34542Y4052
X37082Y4052
X14395Y4052
X16935Y4052
X19395Y4052
X21935Y4052
X24395Y4052
X26935Y4052
X9284Y4052
X22959Y55340
X29475Y4052
X32015Y4052
X15259Y51840
X17459Y51840
X19659Y51840
X21859Y51840
X24059Y51840
T3
X37000Y30680
X39000Y30680
T4
X40152Y53887
X41588Y52450
T5
X16477Y43467
X18946Y36421
X11960Y50800
X15394Y37419
T6
X14500Y23540
X14500Y18460
X14500Y21000
X7000Y18460
X7000Y21000
X7000Y23540
T7
X12990Y25770
X12000Y15500
X35500Y32000
X29166Y25930
X12565Y44419
X41601Y27113
X18650Y10570
X10477Y22108
X12527Y31904
X24338Y14402
X10497Y31904
X38500Y33000
X19000Y12500
X5111Y41534
X22830Y23097
X35000Y27500
X36500Y19500
X24414Y15481
X6982Y28734
X8393Y10894
X41500Y28500
X21463Y31462
X9385Y47419
X35007Y46560
X39007Y46560
X43007Y46560
X2602Y38127
X30500Y35500
X34500Y35500
X27250Y31250
X30407Y8441
X15876Y28682
X29790Y18980
X39000Y27000
X13939Y35051
X22150Y39400
X26000Y39400
X27200Y38000
X24800Y38000
X34500Y33000
X20290Y12490
X27810Y19840
X27090Y16300
X34660Y18300
X25390Y19840
T8
X27770Y23600
X31305Y26763
X23632Y24258
X26812Y24080
M30