<?xml version="1.0" encoding="UTF-8" standalone="no"?>
<!-- Created with Inkscape (http://www.inkscape.org/) -->

<svg
   xmlns:dc="http://purl.org/dc/elements/1.1/"
   xmlns:cc="http://creativecommons.org/ns#"
   xmlns:rdf="http://www.w3.org/1999/02/22-rdf-syntax-ns#"
   xmlns:svg="http://www.w3.org/2000/svg"
   xmlns="http://www.w3.org/2000/svg"
   xmlns:sodipodi="http://sodipodi.sourceforge.net/DTD/sodipodi-0.dtd"
   xmlns:inkscape="http://www.inkscape.org/namespaces/inkscape"
   id="svg4077"
   version="1.1"
   inkscape:version="0.91 r13725"
   xml:space="preserve"
   width="8.8140001mm"
   height="7mm"
   viewBox="0 0 31.23071 24.803151"
   sodipodi:docname="AR_Logo_Regular_ColorOnBlack_Short_Right_Size.svg"><metadata
     id="metadata4083"><rdf:RDF><cc:Work
         rdf:about=""><dc:format>image/svg+xml</dc:format><dc:type
           rdf:resource="http://purl.org/dc/dcmitype/StillImage" /><dc:title></dc:title></cc:Work></rdf:RDF></metadata><defs
     id="defs4081"><clipPath
       clipPathUnits="userSpaceOnUse"
       id="clipPath4091"><path
         d="m 0,1080 1920,0 L 1920,0 0,0 0,1080 Z"
         id="path4093"
         inkscape:connector-curvature="0" /></clipPath><linearGradient
       x1="0"
       y1="0"
       x2="1"
       y2="0"
       gradientUnits="userSpaceOnUse"
       gradientTransform="matrix(52.473209,0,0,-52.473209,1014.533,762.47925)"
       spreadMethod="pad"
       id="linearGradient4151"><stop
         style="stop-opacity:1;stop-color:#f8af3c"
         offset="0"
         id="stop4153" /><stop
         style="stop-opacity:1;stop-color:#f8af3c"
         offset="0.06219521"
         id="stop4155" /><stop
         style="stop-opacity:1;stop-color:#ea5b27"
         offset="1"
         id="stop4157" /></linearGradient><linearGradient
       x1="0"
       y1="0"
       x2="1"
       y2="0"
       gradientUnits="userSpaceOnUse"
       gradientTransform="matrix(175.35301,0,0,-175.35301,891.65326,678.96985)"
       spreadMethod="pad"
       id="linearGradient4173"><stop
         style="stop-opacity:1;stop-color:#f8af3c"
         offset="0"
         id="stop4175" /><stop
         style="stop-opacity:1;stop-color:#f8af3c"
         offset="0.06219521"
         id="stop4177" /><stop
         style="stop-opacity:1;stop-color:#ea5b27"
         offset="1"
         id="stop4179" /></linearGradient><linearGradient
       x1="0"
       y1="0"
       x2="1"
       y2="0"
       gradientUnits="userSpaceOnUse"
       gradientTransform="matrix(139.66774,0,0,-139.66774,768.51068,678.96985)"
       spreadMethod="pad"
       id="linearGradient4195"><stop
         style="stop-opacity:1;stop-color:#f8af3c"
         offset="0"
         id="stop4197" /><stop
         style="stop-opacity:1;stop-color:#f8af3c"
         offset="0.06219521"
         id="stop4199" /><stop
         style="stop-opacity:1;stop-color:#ea5b27"
         offset="1"
         id="stop4201" /></linearGradient></defs><sodipodi:namedview
     pagecolor="#ffffff"
     bordercolor="#666666"
     borderopacity="1"
     objecttolerance="10"
     gridtolerance="10"
     guidetolerance="10"
     inkscape:pageopacity="0"
     inkscape:pageshadow="2"
     inkscape:window-width="1920"
     inkscape:window-height="1027"
     id="namedview4079"
     showgrid="false"
     units="mm"
     inkscape:zoom="22.376296"
     inkscape:cx="14.19052"
     inkscape:cy="9.4316782"
     inkscape:window-x="-8"
     inkscape:window-y="-8"
     inkscape:window-maximized="1"
     inkscape:current-layer="g4085" /><g
     id="g4085"
     inkscape:groupmode="layer"
     inkscape:label="AR_Logo_Regular_ColorOnBlack_Short"
     transform="matrix(1.25,0,0,-1.25,0,24.803153)"><g
       id="g4087"><g
         id="g4089"
         clip-path="url(#clipPath4091)"><g
           id="g4095"
           transform="translate(811.1304,488.1348)"><path
             d="m 0,0 -5.483,14.394 c -0.589,1.545 -2.776,1.545 -3.364,0 L -14.331,0 c -0.448,-1.178 0.422,-2.44 1.683,-2.44 l 10.966,0 C -0.421,-2.44 0.449,-1.178 0,0 m -13.389,38.82 13.01,0 C 0.345,38.82 1,38.386 1.28,37.718 L 28.1,-26.139 c 0.498,-1.186 -0.373,-2.497 -1.66,-2.497 l -14.172,0 c -0.737,0 -1.399,0.449 -1.672,1.134 l -4.83,12.123 c -0.273,0.685 -0.935,1.134 -1.672,1.134 l -22.51,0 c -0.741,0 -1.406,-0.454 -1.676,-1.145 l -4.727,-12.1 c -0.27,-0.691 -0.935,-1.146 -1.677,-1.146 l -13.713,0 c -1.287,0 -2.158,1.311 -1.66,2.497 l 26.82,63.857 c 0.281,0.668 0.935,1.102 1.66,1.102"
             style="fill:#ffffff;fill-opacity:1;fill-rule:nonzero;stroke:none"
             id="path4097"
             inkscape:connector-curvature="0" /></g><g
           id="g4099"
           transform="translate(849.1646,526.9551)"><path
             d="m 0,0 14.613,0 c 0.994,0 1.8,-0.806 1.8,-1.8 l 0,-50.14 c 0,-0.995 0.806,-1.8 1.8,-1.8 l 25.069,0 c 0.994,0 1.8,-0.806 1.8,-1.8 l 0,-10.116 c 0,-0.994 -0.806,-1.8 -1.8,-1.8 l -43.282,0 c -0.994,0 -1.8,0.806 -1.8,1.8 l 0,63.856 C -1.8,-0.806 -0.994,0 0,0"
             style="fill:#ffffff;fill-opacity:1;fill-rule:nonzero;stroke:none"
             id="path4101"
             inkscape:connector-curvature="0" /></g><g
           id="g4103"
           transform="translate(903.4678,526.9551)"><path
             d="m 0,0 14.613,0 c 0.994,0 1.8,-0.806 1.8,-1.8 l 0,-63.856 c 0,-0.994 -0.806,-1.8 -1.8,-1.8 l -14.613,0 c -0.994,0 -1.8,0.806 -1.8,1.8 l 0,63.856 C -1.8,-0.806 -0.994,0 0,0"
             style="fill:#ffffff;fill-opacity:1;fill-rule:nonzero;stroke:none"
             id="path4105"
             inkscape:connector-curvature="0" /></g><g
           id="g4107"
           transform="translate(930.1123,493.2275)"><path
             d="m 0,0 c 0,21.811 17.539,35.189 37.438,35.189 8.901,0 18.006,-2.25 23.707,-6.166 0.498,-0.341 0.803,-0.897 0.803,-1.501 l 0,-11.051 c 0,-1.45 -1.619,-2.291 -2.822,-1.48 -5.076,3.428 -10.962,5.808 -18.989,5.808 -12.48,0 -21.024,-7.645 -21.024,-21.924 0,-13.716 8.095,-21.473 19.563,-21.473 3.155,0 5.578,0.488 7.824,1.326 0.704,0.262 1.169,0.938 1.169,1.69 l 0,8.113 c 0,0.994 -0.806,1.8 -1.8,1.8 l -6.406,0 c -0.994,0 -1.8,0.806 -1.8,1.8 l 0,8.992 c 0,0.994 0.806,1.8 1.8,1.8 l 23.495,0 c 0.994,0 1.8,-0.806 1.8,-1.8 l 0,-29.273 c 0,-0.728 -0.434,-1.382 -1.106,-1.662 C 58.987,-31.753 48.563,-35.64 35.864,-35.64 16.415,-35.64 0,-21.812 0,0"
             style="fill:#ffffff;fill-opacity:1;fill-rule:nonzero;stroke:none"
             id="path4109"
             inkscape:connector-curvature="0" /></g><g
           id="g4111"
           transform="translate(1010.1641,526.9551)"><path
             d="m 0,0 11.155,0 c 0.552,0 1.073,-0.253 1.414,-0.686 l 26.826,-34.025 c 1.057,-1.342 3.213,-0.594 3.213,1.114 l 0,31.797 c 0,0.994 0.806,1.8 1.8,1.8 l 12.478,0 c 0.994,0 1.8,-0.806 1.8,-1.8 l 0,-63.856 c 0,-0.994 -0.806,-1.8 -1.8,-1.8 l -11.156,0 c -0.551,0 -1.072,0.253 -1.414,0.685 l -26.825,34.027 c -1.057,1.341 -3.214,0.593 -3.214,-1.115 l 0,-31.797 c 0,-0.994 -0.805,-1.8 -1.799,-1.8 l -12.478,0 c -0.994,0 -1.8,0.806 -1.8,1.8 l 0,63.856 C -1.8,-0.806 -0.994,0 0,0"
             style="fill:#ffffff;fill-opacity:1;fill-rule:nonzero;stroke:none"
             id="path4113"
             inkscape:connector-curvature="0" /></g><g
           id="g4115"
           transform="translate(792.9268,417.3672)"><path
             d="m 0,0 c 6.362,0 9.234,2.873 9.234,8.106 0,5.336 -2.872,8.209 -9.234,8.209 l -5.396,0 c -0.987,0 -1.788,-0.799 -1.788,-1.787 l 0,-12.74 C -7.184,0.801 -6.383,0 -5.396,0 L 0,0 Z m 28.147,-34.274 -13.759,0 c -0.592,0 -1.145,0.294 -1.478,0.783 l -15.046,22.137 c -0.333,0.491 -0.886,0.784 -1.479,0.784 l -1.781,0 c -0.987,0 -1.788,-0.8 -1.788,-1.788 l 0,-20.128 c 0,-0.988 -0.8,-1.788 -1.787,-1.788 l -13.049,0 c -0.987,0 -1.787,0.8 -1.787,1.788 l 0,57.994 c 0,0.987 0.8,1.787 1.787,1.787 l 26.227,0 c 14.981,0 21.446,-9.029 21.446,-18.983 0,-7.445 -3.628,-13.624 -9.967,-16.47 -1.018,-0.457 -1.351,-1.74 -0.707,-2.65 l 14.627,-20.645 c 0.839,-1.184 -0.008,-2.821 -1.459,-2.821"
             style="fill:#ffffff;fill-opacity:1;fill-rule:nonzero;stroke:none"
             id="path4117"
             inkscape:connector-curvature="0" /></g><g
           id="g4119"
           transform="translate(853.2617,417.3672)"><path
             d="m 0,0 c -5.643,0 -9.953,-4.413 -9.953,-12.109 0,-7.697 4.31,-12.109 9.953,-12.109 5.645,0 9.954,4.412 9.954,12.109 C 9.954,-4.413 5.645,0 0,0 m 10.563,-32.604 -0.029,0.447 c -0.097,1.482 -1.834,2.18 -2.97,1.22 -3.802,-3.215 -8.834,-4.568 -12.899,-4.568 -11.904,0 -20.524,9.646 -20.524,23.396 0,13.648 8.62,23.396 20.524,23.396 4.065,0 9.097,-1.352 12.899,-4.568 1.136,-0.96 2.873,-0.263 2.97,1.22 l 0.029,0.447 c 0.062,0.939 0.842,1.671 1.784,1.671 l 11.212,0 c 0.987,0 1.788,-0.801 1.788,-1.788 l 0,-40.755 c 0,-0.988 -0.801,-1.788 -1.788,-1.788 l -11.212,0 c -0.942,0 -1.722,0.731 -1.784,1.67"
             style="fill:#ffffff;fill-opacity:1;fill-rule:nonzero;stroke:none"
             id="path4121"
             inkscape:connector-curvature="0" /></g><g
           id="g4123"
           transform="translate(887.0205,405.3613)"><path
             d="m 0,0 c 0,13.854 10.467,23.293 23.602,23.293 6.367,0 11.854,-1.496 15.401,-3.836 0.506,-0.334 0.811,-0.896 0.811,-1.503 l 0,-6.963 c 0,-1.365 -1.471,-2.228 -2.658,-1.554 -2.842,1.612 -5.874,2.261 -9.142,2.261 -6.876,0 -12.109,-4.413 -12.109,-11.698 0,-7.492 5.233,-11.904 12.109,-11.904 3.228,0 6.341,0.691 9.124,2.289 1.192,0.684 2.676,-0.169 2.676,-1.544 l 0,-7.021 c 0,-0.597 -0.297,-1.153 -0.792,-1.49 -3.546,-2.416 -9.042,-3.829 -15.42,-3.829 C 10.467,-23.499 0,-13.854 0,0"
             style="fill:#ffffff;fill-opacity:1;fill-rule:nonzero;stroke:none"
             id="path4125"
             inkscape:connector-curvature="0" /></g><g
           id="g4127"
           transform="translate(935.5557,384.8809)"><path
             d="m 0,0 0,40.755 c 0,0.987 0.8,1.788 1.788,1.788 l 12.329,0 c 0.987,0 1.788,-0.801 1.788,-1.788 L 15.905,0 c 0,-0.987 -0.801,-1.788 -1.788,-1.788 l -12.329,0 C 0.8,-1.788 0,-0.987 0,0 m 0,50.59 0,7.404 c 0,0.987 0.8,1.787 1.788,1.787 l 12.329,0 c 0.987,0 1.788,-0.8 1.788,-1.787 l 0,-7.404 c 0,-0.987 -0.801,-1.788 -1.788,-1.788 l -12.329,0 C 0.8,48.802 0,49.603 0,50.59"
             style="fill:#ffffff;fill-opacity:1;fill-rule:nonzero;stroke:none"
             id="path4129"
             inkscape:connector-curvature="0" /></g><g
           id="g4131"
           transform="translate(964.0225,427.4238)"><path
             d="m 0,0 11.416,0 c 0.942,0 1.724,-0.732 1.784,-1.672 l 0.075,-1.159 c 0.1,-1.526 1.966,-2.267 3.039,-1.177 3.338,3.392 8.322,5.238 12.786,5.238 11.8,0 16.419,-8.209 16.419,-19.189 l 0,-24.584 c 0,-0.987 -0.801,-1.788 -1.789,-1.788 l -12.33,0 c -0.987,0 -1.788,0.801 -1.788,1.788 l 0,21.711 c 0,7.184 -1.949,9.749 -6.567,9.749 -4.925,0 -8.928,-4.72 -8.928,-9.852 l 0,-21.608 c 0,-0.987 -0.8,-1.788 -1.787,-1.788 l -12.33,0 c -0.987,0 -1.788,0.801 -1.788,1.788 l 0,40.755 C -1.788,-0.801 -0.987,0 0,0"
             style="fill:#ffffff;fill-opacity:1;fill-rule:nonzero;stroke:none"
             id="path4133"
             inkscape:connector-curvature="0" /></g><g
           id="g4135"
           transform="translate(1043.5029,417.3672)"><path
             d="m 0,0 c -5.643,0 -9.953,-4.413 -9.953,-12.109 0,-7.697 4.31,-12.109 9.953,-12.109 5.645,0 9.954,4.412 9.954,12.109 C 9.954,-4.413 5.645,0 0,0 m -1.436,-55.207 c -6.365,0 -14.271,2.084 -19.543,4.806 -0.6,0.309 -0.98,0.922 -0.98,1.596 l 0,6.916 c 0,1.35 1.44,2.209 2.63,1.573 5.539,-2.965 10.717,-4.117 16.661,-4.117 7.184,0 12.109,4.002 12.109,13.442 l 0,1.951 c -3.899,-4.618 -9.748,-6.465 -14.776,-6.465 -11.903,0 -20.523,9.748 -20.523,23.396 0,13.751 8.62,23.396 20.523,23.396 4.065,0 9.097,-1.352 12.899,-4.568 1.136,-0.96 2.873,-0.263 2.97,1.22 l 0.029,0.447 c 0.062,0.939 0.842,1.671 1.784,1.671 l 11.212,0 c 0.987,0 1.788,-0.801 1.788,-1.788 l 0,-37.823 c 0,-21.55 -14.777,-25.653 -26.783,-25.653"
             style="fill:#ffffff;fill-opacity:1;fill-rule:nonzero;stroke:none"
             id="path4137"
             inkscape:connector-curvature="0" /></g></g></g><g
       id="g4139"
       transform="matrix(0.0742015,0,0,0.0742015,-57.024642,-40.459332)"><g
         id="g4141"><g
           id="g4147"><g
             id="g4149"><path
               d="m 1023.841,812.545 c -6.213,0 -10.674,-5.993 -8.925,-11.942 l 0,0 25.591,-87.271 0.263,-0.919 25.853,88.19 c 1.75,5.949 -2.712,11.942 -8.88,11.942 l 0,0 -33.902,0 z"
               style="fill:url(#linearGradient4151);stroke:none"
               id="path4159"
               inkscape:connector-curvature="0" /></g></g></g></g><g
       id="g4161"
       transform="matrix(0.0742015,0,0,0.0742015,-57.024642,-40.459332)"><g
         id="g4163"><g
           id="g4169"><g
             id="g4171"><path
               d="m 900.96,812.677 c -6.212,0 -10.674,-5.949 -8.923,-11.899 l 0,0 72.966,-248.866 c 1.138,-3.937 4.769,-6.649 8.924,-6.649 l 0,0 83.816,0 c 6.168,0 10.63,5.949 8.88,11.855 l 0,0 -72.923,248.866 c -1.182,3.98 -4.812,6.693 -8.924,6.693 l 0,0 -83.816,0 z"
               style="fill:url(#linearGradient4173);stroke:none"
               id="path4181"
               inkscape:connector-curvature="0" /></g></g></g></g><g
       id="g4183"
       transform="matrix(0.0742015,0,0,0.0742015,-57.024642,-40.459332)"><g
         id="g4185"><g
           id="g4191"><g
             id="g4193"><path
               d="m 850.741,812.677 c -4.112,0 -7.743,-2.713 -8.924,-6.693 l 0,0 -72.923,-248.866 c -1.75,-5.906 2.712,-11.855 8.881,-11.855 l 0,0 84.34,0 c 4.112,0 7.743,2.712 8.924,6.649 l 0,0 37.139,126.773 -0.262,0.831 -37.096,126.468 c -1.137,3.98 -4.768,6.693 -8.88,6.693 l 0,0 -11.199,0 z"
               style="fill:url(#linearGradient4195);stroke:none"
               id="path4203"
               inkscape:connector-curvature="0" /></g></g></g></g></g></svg>