<?xml version="1.0" encoding="UTF-8" standalone="no"?>
<!-- Generator: Adobe Illustrator 18.0.0, SVG Export Plug-In . SVG Version: 6.00 Build 0)  -->

<svg
   xmlns:dc="http://purl.org/dc/elements/1.1/"
   xmlns:cc="http://creativecommons.org/ns#"
   xmlns:rdf="http://www.w3.org/1999/02/22-rdf-syntax-ns#"
   xmlns:svg="http://www.w3.org/2000/svg"
   xmlns="http://www.w3.org/2000/svg"
   xmlns:sodipodi="http://sodipodi.sourceforge.net/DTD/sodipodi-0.dtd"
   xmlns:inkscape="http://www.inkscape.org/namespaces/inkscape"
   version="1.1"
   id="Layer_1"
   x="0px"
   y="0px"
   viewBox="0 0 106.29922 21.968503"
   enable-background="new 0 0 1927.6 396.9"
   xml:space="preserve"
   inkscape:version="0.91 r13725"
   sodipodi:docname="JLCPCB-logo-vector_Right_Size.svg"
   width="30mm"
   height="6.1999998mm"><metadata
     id="metadata3367"><rdf:RDF><cc:Work
         rdf:about=""><dc:format>image/svg+xml</dc:format><dc:type
           rdf:resource="http://purl.org/dc/dcmitype/StillImage" /><dc:title></dc:title></cc:Work></rdf:RDF></metadata><defs
     id="defs3365" /><sodipodi:namedview
     pagecolor="#ffffff"
     bordercolor="#666666"
     borderopacity="1"
     objecttolerance="10"
     gridtolerance="10"
     guidetolerance="10"
     inkscape:pageopacity="0"
     inkscape:pageshadow="2"
     inkscape:window-width="1920"
     inkscape:window-height="1027"
     id="namedview3363"
     showgrid="false"
     inkscape:zoom="11.786678"
     inkscape:cx="62.57383"
     inkscape:cy="8.6692486"
     inkscape:window-x="-8"
     inkscape:window-y="-8"
     inkscape:window-maximized="1"
     inkscape:current-layer="Layer_1"
     inkscape:document-units="mm"
     units="mm"
     borderlayer="true" /><path
     style="fill:#4990cd"
     d="m 60.787305,16.772814 c -0.87395,-0.01106 -1.830871,-0.09403 -2.73801,-0.436975 -1.74237,-0.658229 -2.732479,-1.90831 -2.815449,-3.783432 -0.143815,-3.1915802 1.178174,-5.5977105 4.004686,-7.1188273 1.504523,-0.8131061 3.141798,-1.0620162 4.839917,-0.9569208 1.32752,0.08297 2.605258,0.3429427 3.805558,0.9403268 0.193597,0.099564 0.215722,0.1935967 0.16594,0.381662 -0.254441,0.9016074 -0.503351,1.8087462 -0.741199,2.715885 -0.04978,0.1880654 -0.132752,0.215722 -0.298692,0.232316 -0.326349,0.022125 -0.564196,-0.066376 -0.807575,-0.298692 -1.028828,-0.9901088 -2.273378,-1.3773022 -3.678337,-1.1449861 -1.609618,0.2710353 -2.837574,1.5211168 -3.186048,3.1971114 -0.110627,0.525476 -0.143815,1.056484 -0.110627,1.593024 0.06638,1.128392 0.713542,1.775558 1.852997,1.875122 1.593024,0.143815 2.959264,-0.436975 4.237002,-1.305395 0.16594,-0.110626 0.320817,-0.160408 0.514414,-0.149346 0.243379,0.01659 0.464632,0.298692 0.403787,0.53654 -0.226784,0.840762 -0.464632,1.687056 -0.685885,2.527819 -0.02766,0.110627 -0.08297,0.171472 -0.188065,0.210191 -1.023297,0.392725 -2.052125,0.768855 -3.147329,0.91267 -0.459101,0.04978 -0.896077,0.07191 -1.427085,0.07191 z"
     id="path3339" /><path
     style="fill:#4990cd"
     d="m 86.756919,16.772814 c -1.001172,-0.01659 -2.041063,-0.110626 -3.02564,-0.54207 -1.593024,-0.696948 -2.478038,-1.919373 -2.555476,-3.650681 -0.149346,-3.1860482 1.16158,-5.6032412 3.98256,-7.1354207 1.498992,-0.8131061 3.136266,-1.0730788 4.839917,-0.9735148 1.32752,0.077439 2.605259,0.3374114 3.805558,0.9347955 0.188065,0.094033 0.24891,0.1770027 0.182534,0.3927247 C 93.726399,6.6891925 93.483021,7.5852686 93.250705,8.486876 93.200923,8.6749414 93.134547,8.7302547 92.94095,8.7413174 92.614601,8.7634427 92.371223,8.6694101 92.133375,8.437094 91.110078,7.4525166 89.876591,7.0653232 88.477163,7.2865766 86.862014,7.5410179 85.617464,8.8132247 85.26899,10.49475 c -0.110627,0.525477 -0.143815,1.056485 -0.110627,1.593024 0.06638,1.11733 0.708011,1.764496 1.82534,1.869591 1.321989,0.12169 2.511226,-0.243378 3.634087,-0.907138 0.232316,-0.132752 0.453569,-0.282098 0.674822,-0.431444 0.320818,-0.215722 0.608447,-0.16594 0.824169,0.138283 0.06638,0.09403 0.07191,0.177003 0.04425,0.282098 -0.232316,0.840763 -0.464632,1.681525 -0.691417,2.52782 -0.02766,0.116158 -0.0885,0.16594 -0.193597,0.204659 -1.012234,0.387193 -2.029999,0.763324 -3.119672,0.907139 -0.442507,0.07191 -0.896076,0.0885 -1.399427,0.09403 z"
     id="path3341" /><path
     style="fill:#4990cd"
     d="m 0.0864461,14.35009 c 1.0896728,2.478038 3.0367024,3.888528 5.630898,4.474849 1.4492095,0.326349 2.915013,0.293161 4.3752849,0.149346 1.869591,-0.182534 3.678337,-0.630572 5.393051,-1.427084 1.841934,-0.857357 3.40177,-2.057656 4.524631,-3.77237 0.06638,-0.09956 0.138284,-0.149346 0.265504,-0.149346 1.86406,0.0055 3.722588,0.0055 5.586648,0.0055 0.02766,0 0.04978,0.01106 0.09956,0.02213 -0.271036,0.536539 -0.597385,1.023297 -0.956921,1.487929 -2.035531,2.610789 -4.673977,4.375285 -7.75493,5.51474 -1.919373,0.708011 -3.905122,1.144986 -5.946185,1.277738 C 8.7540465,22.10502 6.3091969,21.651451 4.0413499,20.440089 1.673939,19.173413 0.3298248,17.187664 0.02560143,14.51603 0.01453876,14.449654 -0.05183725,14.361153 0.0864461,14.35009 Z"
     id="path3343" /><path
     style="fill:#4990cd"
     d="m 48.192458,16.534967 c -1.44921,0 -2.892888,0 -4.342097,0 -0.431444,0 -0.61951,-0.24891 -0.508883,-0.674823 0.940327,-3.65068 1.875122,-7.3013606 2.804386,-10.9575724 0.04978,-0.1935967 0.12169,-0.2433787 0.309755,-0.2433787 1.006703,0.011063 2.007874,0.00553 3.014577,0.00553 0.33188,0 0.542071,0.2710354 0.459101,0.5973841 -0.696948,2.715885 -1.393896,5.43177 -2.085313,8.147655 -0.08297,0.33188 -0.0885,0.33188 0.259973,0.33188 1.604086,0 3.208173,0 4.81226,0 0.3706,0 0.575259,0.271036 0.486758,0.625041 -0.16594,0.641635 -0.337412,1.277738 -0.492289,1.924904 -0.04425,0.182534 -0.12169,0.24891 -0.315286,0.243379 -1.476866,-0.0055 -2.94267,0 -4.402942,0 z"
     id="path3345" /><path
     style="fill:#4990cd"
     d="m 34.944913,16.717501 c -0.741199,-0.02766 -1.61515,-0.04425 -2.478038,-0.199128 -0.282098,-0.04978 -0.448038,-0.309755 -0.381662,-0.58079 0.182534,-0.719073 0.376131,-1.443678 0.553134,-2.168283 0.04425,-0.171471 0.121689,-0.204659 0.282098,-0.210191 0.29316,-0.01106 0.564196,0.06085 0.835231,0.154878 0.796512,0.282098 1.609618,0.282098 2.417193,0.07744 0.420382,-0.105095 0.741199,-0.359536 0.973515,-0.724604 0.259973,-0.420382 0.431444,-0.873951 0.553133,-1.349646 0.359537,-1.371771 0.70248,-2.7435416 1.062016,-4.1153124 0.06085,-0.232316 -0.01106,-0.2599727 -0.21019,-0.2544414 -0.387194,0.011063 -0.774387,-0.00553 -1.16158,0.00553 -0.16594,0.00553 -0.232316,-0.027657 -0.188066,-0.2157221 0.177003,-0.7688554 0.342943,-1.5432422 0.503352,-2.3176289 0.02766,-0.1272207 0.0885,-0.1604087 0.21019,-0.1604087 1.642807,0.00553 3.280081,0 4.922888,0.00553 0.265504,0 0.464632,0.3042234 0.392724,0.5863214 -0.519945,2.0299996 -1.03989,4.0655305 -1.565367,6.0955301 -0.149346,0.569727 -0.282098,1.144986 -0.459101,1.703651 -0.641635,2.018936 -2.063188,3.136266 -4.115312,3.506865 -0.669292,0.12169 -1.338583,0.160409 -2.146158,0.160409 z"
     id="path3347" /><path
     style="fill:#4990cd"
     d="M 6.4142922,3.2652967 C 9.0859265,1.8769319 11.846062,0.76513377 14.832983,0.31709571 17.250176,-0.042441 19.628649,0.06818568 21.918621,1.0085125 c 1.758965,0.7246047 3.230299,1.8253402 4.35316,3.3741137 0.06085,0.08297 0.110627,0.16594 0.16594,0.2544414 0.02213,0.027657 0.03319,0.060845 0.04978,0.094033 -0.04425,0.077439 -0.116158,0.044251 -0.177002,0.044251 -1.825341,0 -3.650681,0 -5.476021,0.00553 -0.138283,0 -0.226785,-0.027657 -0.315286,-0.1604087 C 19.518022,3.088294 18.05775,2.2530626 16.298786,1.9045886 14.279849,1.5008012 12.283038,1.7220545 10.297289,2.1479673 9.0638012,2.4134713 7.8579704,2.7785393 6.6742649,3.2210461 c -0.071907,0.033188 -0.149346,0.099564 -0.2599727,0.044251 z"
     id="path3349" /><path
     style="fill:#4990cd"
     d="M 25.442081,13.127665 C 24.52388,13.100009 23.605678,12.867693 22.925324,12.065649 22.283689,11.302325 22.184125,10.400718 22.339003,9.4548595 22.676414,7.3308272 24.15328,5.804179 26.255187,5.4114543 c 1.144986,-0.2101907 2.201471,-0.033188 3.064359,0.8297001 0.138284,0.1382834 0.143815,0.2101907 -0.01106,0.3374114 -0.326349,0.265504 -0.641635,0.5586647 -0.956921,0.8352314 -0.06638,0.060845 -0.12169,0.1327521 -0.221254,0.022125 C 27.37805,6.5619714 26.039467,6.7555681 25.281674,7.4912352 24.446443,8.29881 24.14222,9.3055128 24.330285,10.439436 c 0.132752,0.824169 0.918201,1.272207 1.841934,1.106267 0.45357,-0.08297 0.862888,-0.259973 1.227956,-0.542071 0.20466,-0.154877 0.354006,-0.143815 0.503352,0.07744 0.160408,0.237847 0.33188,0.464632 0.514414,0.680354 0.09956,0.121689 0.09403,0.188065 -0.02766,0.287629 -0.8297,0.70248 -1.781089,1.067548 -2.948201,1.07861 z"
     id="path3351" /><path
     style="fill:#4990cd"
     d="m 18.621946,12.994913 c -0.757792,0 -1.510054,0 -2.267847,0 -0.370599,0 -0.425912,-0.06638 -0.354005,-0.420381 0.448038,-2.262316 0.901607,-4.5246314 1.344114,-6.786947 0.04425,-0.2267847 0.12169,-0.315286 0.3706,-0.3042233 0.41485,0.022125 0.8297,0.00553 1.24455,0.00553 0.309754,0 0.37613,0.077439 0.315286,0.3871934 -0.298692,1.5045228 -0.597384,3.0090457 -0.901608,4.5135689 -0.05531,0.287629 -0.105095,0.58079 -0.177002,0.862888 -0.04978,0.193597 0.02212,0.232316 0.199128,0.232316 0.885013,-0.0055 1.770027,-0.0055 2.65504,-0.0055 0.326349,0 0.392725,0.07744 0.33188,0.398256 -0.05531,0.309754 -0.127221,0.613978 -0.177003,0.918201 -0.02766,0.154878 -0.09403,0.20466 -0.254441,0.20466 -0.779918,-0.01106 -1.554305,-0.0055 -2.328692,-0.0055 z"
     id="path3353" /><path
     style="fill:#4990cd"
     d="M 2.8521131,13.133197 C 1.989225,13.111071 1.2203696,12.934069 0.68383017,12.209464 0.30769946,11.700581 0.30769946,11.689518 0.84977019,11.379764 1.1097429,11.224886 1.3752469,11.07554 1.640751,10.926194 c 0.1714713,-0.09956 0.298692,-0.06084 0.3871933,0.110627 0.2212534,0.436975 0.5807901,0.591853 1.0509535,0.547602 0.4646321,-0.04425 0.7577928,-0.309755 0.8960761,-0.741199 C 4.2128213,10.124151 4.3013226,9.3718895 4.4562,8.636222 4.6608593,7.6737699 4.8433933,6.7057865 5.0259274,5.7433344 5.0591154,5.555269 5.1310227,5.488893 5.3301507,5.4944243 c 0.4314441,0.016594 0.8684195,0.00553 1.2998635,0.00553 0.3152861,0 0.3761307,0.071907 0.3152861,0.381662 C 6.6632022,7.2976392 6.3811042,8.7136607 6.0990062,10.129682 6.0105048,10.572189 5.9330661,11.014696 5.7284068,11.424014 5.11996,12.596657 4.1187886,13.10554 2.8521131,13.133197 Z"
     id="path3355" /><path
     style="fill:#4990cd"
     d="m 104.35209,10.251372 c 0.11063,0.06084 0.18254,0.105095 0.25444,0.143814 0.89608,0.486758 1.2888,1.272207 1.21137,2.289973 -0.11616,1.532179 -0.99564,2.4891 -2.31763,3.103078 -1.10627,0.514414 -2.28444,0.691417 -3.49028,0.724605 -1.963619,0.05531 -3.927242,0.01106 -5.890866,0.02213 -0.320817,0 -0.542071,-0.276567 -0.464632,-0.58079 0.945858,-3.6894 1.891716,-7.3787996 2.837574,-11.0681994 0.03872,-0.1604087 0.0885,-0.2267847 0.271036,-0.2267847 1.731307,0.011063 3.468148,-0.00553 5.199458,0.022125 0.93479,0.016594 1.85852,0.1493461 2.71588,0.5476021 1.01777,0.4701634 1.6594,1.2002995 1.62621,2.3950676 -0.0332,1.1726428 -0.63057,1.9636236 -1.65387,2.4780384 -0.0885,0.04425 -0.17147,0.08297 -0.29869,0.149346 z"
     id="path4057" /><path
     style="fill:#ffffff"
     d="m 99.816398,13.830145 c 0.558662,-0.03319 1.117332,-0.116158 1.609622,-0.431444 0.37613,-0.243379 0.56419,-0.636104 0.48122,-1.03436 -0.0885,-0.425913 -0.42591,-0.542071 -0.79098,-0.619509 -0.78545,-0.160409 -1.576429,-0.07744 -2.367409,-0.105096 -0.149346,-0.0055 -0.160409,0.09956 -0.182534,0.193597 -0.171472,0.658229 -0.337412,1.316458 -0.514414,2.002343 0.602915,0.0055 1.183705,0.02766 1.764495,-0.0055 z"
     id="path4055" /><path
     style="fill:#ffffff"
     d="m 100.12615,9.1008541 c 0.14935,0 0.29316,0.00553 0.44251,0 0.49229,-0.022125 0.97351,-0.08297 1.38836,-0.3871934 0.28763,-0.215722 0.39826,-0.5088827 0.33188,-0.8518254 -0.0608,-0.3042234 -0.33188,-0.3705994 -0.58632,-0.4314441 -0.61951,-0.1382833 -1.25008,-0.055313 -1.875119,-0.077439 -0.116158,-0.00553 -0.138284,0.071907 -0.154878,0.1548773 -0.121689,0.4701634 -0.232316,0.9458581 -0.365068,1.4160215 -0.04978,0.1770027 0.02766,0.182534 0.154878,0.1770027 0.221253,-0.00553 0.442506,0 0.663757,0 0,0 0,0 0,0 z"
     id="path3357" /><path
     style="fill:#4990cd"
     d="m 73.664251,4.6647242 c 0.890545,0.022125 1.952561,-0.044251 3.009046,0.055313 0.79098,0.071907 1.570899,0.199128 2.289972,0.5586647 1.305395,0.6471661 1.753433,1.7313076 1.681525,3.031171 -0.09403,1.7313081 -1.089672,2.8375751 -2.544413,3.6064301 -1.023297,0.542071 -2.140626,0.768856 -3.280081,0.885014 -0.735668,0.07191 -1.471335,0.06638 -2.207002,0.05531 -0.20466,0 -0.298693,0.03872 -0.354006,0.259973 -0.254441,1.056484 -0.542071,2.101907 -0.802043,3.15286 -0.04978,0.193597 -0.110627,0.271035 -0.320818,0.265504 -1.006702,-0.01106 -2.007874,-0.0055 -3.014577,-0.0055 -0.315286,0 -0.536539,-0.282098 -0.453569,-0.586322 0.945858,-3.678337 1.891716,-7.3566744 2.826512,-11.0350115 0.05531,-0.2046593 0.138283,-0.2544413 0.33188,-0.24891 0.879482,0.011063 1.775558,0.00553 2.837574,0.00553 z"
     id="path4051" /><path
     style="fill:#ffffff"
     d="m 73.891036,7.3750779 c -0.12169,-0.00553 -0.171472,0.033188 -0.20466,0.1604087 -0.204659,0.8075747 -0.409318,1.6206808 -0.62504,2.4282556 -0.03872,0.1548778 0.0055,0.1880658 0.154877,0.1880658 0.475695,-0.01106 0.956921,0.01659 1.432615,-0.06085 0.586322,-0.094033 1.156049,-0.2489101 1.576431,-0.7024795 0.354005,-0.3816621 0.464632,-0.8407628 0.309754,-1.3275202 -0.143814,-0.448038 -0.569727,-0.5365394 -0.967983,-0.6139781 -0.337412,-0.066376 -0.674823,-0.071907 -0.945858,-0.060845 -0.28763,-0.011063 -0.508883,0 -0.730136,-0.011063 z"
     id="path3359" /><path
     style="fill:#4990cd"
     d="m 15.126143,12.347747 c -0.519945,0.674823 -1.139455,1.106267 -1.869591,1.377302 -1.504522,0.564196 -3.042233,0.608447 -4.5854755,0.182534 -1.8142776,-0.503351 -2.350817,-1.958092 -2.0299996,-3.473677 0.448038,-2.1019073 2.2457216,-3.7115255 4.4250671,-3.9991549 0.774387,-0.1050953 1.537711,-0.1272207 2.306566,0.049782 1.841935,0.4259127 2.666103,2.0189369 1.836403,3.7170569 -0.685885,1.399427 -1.82534,2.212533 -3.446021,2.218065 -0.276567,0 -0.536539,-0.03319 -0.66376,-0.337412 -0.06638,-0.154877 -0.143815,-0.02213 -0.188065,0.0055 -0.398256,0.243379 -0.824169,0.342943 -1.2888011,0.331881 C 8.7374525,12.391998 8.1898504,11.772488 8.2838831,10.893006 8.4166351,9.6429248 9.5671526,8.3485927 10.80064,8.0664946 c 0.309755,-0.071907 0.619509,-0.088501 0.934796,-0.022125 0.29316,0.060845 0.531008,0.199128 0.685885,0.4591007 0.03319,-0.016594 0.05531,-0.022125 0.05531,-0.027657 0.07191,-0.3152861 0.271036,-0.4093188 0.586322,-0.3761307 0.254441,0.027657 0.514414,0.00553 0.813106,0.00553 -0.182534,0.4259127 -0.359537,0.8297001 -0.531008,1.2334875 -0.271036,0.6250407 -0.542071,1.2500819 -0.813106,1.8751229 -0.04425,0.09956 -0.110627,0.21019 -0.02766,0.309754 0.09403,0.116158 0.226785,0.05531 0.33188,0.01106 0.940327,-0.420381 1.593024,-1.106267 1.797684,-2.1240326 C 14.838514,8.4094374 14.290912,7.5520806 13.239958,7.2921079 11.646934,6.8938518 10.125817,7.1151052 8.8536105,8.2103093 7.9409404,8.9957588 7.387807,10.013524 7.454183,11.263606 c 0.044251,0.862888 0.4922887,1.515585 1.2998635,1.792152 1.8419345,0.625041 3.6396175,0.575259 5.2824235,-0.613978 0.07191,-0.04978 0.132752,-0.0885 0.221254,-0.0885 0.265504,-0.0055 0.542071,-0.0055 0.868419,-0.0055 z"
     id="path4047" /><path
     style="fill:#ffffff"
     d="m 11.265272,8.7579114 c -0.188065,0.00553 -0.365068,0.049782 -0.525477,0.1438147 -0.8241684,0.4867574 -1.1892364,1.2500819 -1.2445498,2.1682829 -0.022125,0.376131 0.3097547,0.630572 0.7080108,0.591853 0.182534,-0.01659 0.365068,-0.05531 0.525477,-0.154878 0.763324,-0.470163 1.089673,-1.20583 1.250081,-1.9138412 0.0055,-0.5863214 -0.254441,-0.8407627 -0.713542,-0.8352314 z"
     id="path3361" /></svg>