<?xml version="1.0" encoding="utf-8"?>
<!-- Generator: Adobe Illustrator 18.0.0, SVG Export Plug-In . SVG Version: 6.00 Build 0)  -->
<!DOCTYPE svg PUBLIC "-//W3C//DTD SVG 1.1//EN" "http://www.w3.org/Graphics/SVG/1.1/DTD/svg11.dtd">
<svg version="1.1" id="Layer_1" xmlns="http://www.w3.org/2000/svg" xmlns:xlink="http://www.w3.org/1999/xlink" x="0px" y="0px"
	 viewBox="0 0 1927.6 396.9" enable-background="new 0 0 1927.6 396.9" xml:space="preserve">
<g>
	<path fill="#4990CD" d="M1102.4,303.8c-15.8-0.2-33.1-1.7-49.5-7.9c-31.5-11.9-49.4-34.5-50.9-68.4
		c-2.6-57.7,21.3-101.2,72.4-128.7c27.2-14.7,56.8-19.2,87.5-17.3c24,1.5,47.1,6.2,68.8,17c3.5,1.8,3.9,3.5,3,6.9
		c-4.6,16.3-9.1,32.7-13.4,49.1c-0.9,3.4-2.4,3.9-5.4,4.2c-5.9,0.4-10.2-1.2-14.6-5.4c-18.6-17.9-41.1-24.9-66.5-20.7
		c-29.1,4.9-51.3,27.5-57.6,57.8c-2,9.5-2.6,19.1-2,28.8c1.2,20.4,12.9,32.1,33.5,33.9c28.8,2.6,53.5-7.9,76.6-23.6
		c3-2,5.8-2.9,9.3-2.7c4.4,0.3,8.4,5.4,7.3,9.7c-4.1,15.2-8.4,30.5-12.4,45.7c-0.5,2-1.5,3.1-3.4,3.8c-18.5,7.1-37.1,13.9-56.9,16.5
		C1119.9,303.4,1112,303.8,1102.4,303.8z"/>
	<path fill="#4990CD" d="M1571.9,303.8c-18.1-0.3-36.9-2-54.7-9.8c-28.8-12.6-44.8-34.7-46.2-66c-2.7-57.6,21-101.3,72-129
		c27.1-14.7,56.7-19.4,87.5-17.6c24,1.4,47.1,6.1,68.8,16.9c3.4,1.7,4.5,3.2,3.3,7.1c-4.7,16.1-9.1,32.3-13.3,48.6
		c-0.9,3.4-2.1,4.4-5.6,4.6c-5.9,0.4-10.3-1.3-14.6-5.5c-18.5-17.8-40.8-24.8-66.1-20.8c-29.2,4.6-51.7,27.6-58,58
		c-2,9.5-2.6,19.1-2,28.8c1.2,20.2,12.8,31.9,33,33.8c23.9,2.2,45.4-4.4,65.7-16.4c4.2-2.4,8.2-5.1,12.2-7.8c5.8-3.9,11-3,14.9,2.5
		c1.2,1.7,1.3,3.2,0.8,5.1c-4.2,15.2-8.4,30.4-12.5,45.7c-0.5,2.1-1.6,3-3.5,3.7c-18.3,7-36.7,13.8-56.4,16.4
		C1589.2,303.4,1581,303.7,1571.9,303.8z"/>
	<path fill="#4990CD" d="M5,260c19.7,44.8,54.9,70.3,101.8,80.9c26.2,5.9,52.7,5.3,79.1,2.7c33.8-3.3,66.5-11.4,97.5-25.8
		c33.3-15.5,61.5-37.2,81.8-68.2c1.2-1.8,2.5-2.7,4.8-2.7c33.7,0.1,67.3,0.1,101,0.1c0.5,0,0.9,0.2,1.8,0.4
		c-4.9,9.7-10.8,18.5-17.3,26.9c-36.8,47.2-84.5,79.1-140.2,99.7c-34.7,12.8-70.6,20.7-107.5,23.1c-46.1,3.1-90.3-5.1-131.3-27
		C33.7,347.2,9.4,311.3,3.9,263C3.7,261.8,2.5,260.2,5,260z"/>
	<path fill="#4990CD" d="M874.7,299.5c-26.2,0-52.3,0-78.5,0c-7.8,0-11.2-4.5-9.2-12.2c17-66,33.9-132,50.7-198.1
		c0.9-3.5,2.2-4.4,5.6-4.4c18.2,0.2,36.3,0.1,54.5,0.1c6,0,9.8,4.9,8.3,10.8c-12.6,49.1-25.2,98.2-37.7,147.3c-1.5,6-1.6,6,4.7,6
		c29,0,58,0,87,0c6.7,0,10.4,4.9,8.8,11.3c-3,11.6-6.1,23.1-8.9,34.8c-0.8,3.3-2.2,4.5-5.7,4.4C927.6,299.4,901.1,299.5,874.7,299.5
		z"/>
	<path fill="#4990CD" d="M635.2,302.8c-13.4-0.5-29.2-0.8-44.8-3.6c-5.1-0.9-8.1-5.6-6.9-10.5c3.3-13,6.8-26.1,10-39.2
		c0.8-3.1,2.2-3.7,5.1-3.8c5.3-0.2,10.2,1.1,15.1,2.8c14.4,5.1,29.1,5.1,43.7,1.4c7.6-1.9,13.4-6.5,17.6-13.1
		c4.7-7.6,7.8-15.8,10-24.4c6.5-24.8,12.7-49.6,19.2-74.4c1.1-4.2-0.2-4.7-3.8-4.6c-7,0.2-14-0.1-21,0.1c-3,0.1-4.2-0.5-3.4-3.9
		c3.2-13.9,6.2-27.9,9.1-41.9c0.5-2.3,1.6-2.9,3.8-2.9c29.7,0.1,59.3,0,89,0.1c4.8,0,8.4,5.5,7.1,10.6
		c-9.4,36.7-18.8,73.5-28.3,110.2c-2.7,10.3-5.1,20.7-8.3,30.8c-11.6,36.5-37.3,56.7-74.4,63.4C661.9,302.1,649.8,302.8,635.2,302.8
		z"/>
	<path fill="#4990CD" d="M119.4,59.6c48.3-25.1,98.2-45.2,152.2-53.3c43.7-6.5,86.7-4.5,128.1,12.5c31.8,13.1,58.4,33,78.7,61
		c1.1,1.5,2,3,3,4.6c0.4,0.5,0.6,1.1,0.9,1.7c-0.8,1.4-2.1,0.8-3.2,0.8c-33,0-66,0-99,0.1c-2.5,0-4.1-0.5-5.7-2.9
		c-18.1-27.7-44.5-42.8-76.3-49.1c-36.5-7.3-72.6-3.3-108.5,4.4c-22.3,4.8-44.1,11.4-65.5,19.4C122.8,59.4,121.4,60.6,119.4,59.6z"
		/>
	<path fill="#4990CD" d="M463.4,237.9c-16.6-0.5-33.2-4.7-45.5-19.2c-11.6-13.8-13.4-30.1-10.6-47.2c6.1-38.4,32.8-66,70.8-73.1
		c20.7-3.8,39.8-0.6,55.4,15c2.5,2.5,2.6,3.8-0.2,6.1c-5.9,4.8-11.6,10.1-17.3,15.1c-1.2,1.1-2.2,2.4-4,0.4
		c-13.6-15.8-37.8-12.3-51.5,1c-15.1,14.6-20.6,32.8-17.2,53.3c2.4,14.9,16.6,23,33.3,20c8.2-1.5,15.6-4.7,22.2-9.8
		c3.7-2.8,6.4-2.6,9.1,1.4c2.9,4.3,6,8.4,9.3,12.3c1.8,2.2,1.7,3.4-0.5,5.2C501.7,231.1,484.5,237.7,463.4,237.9z"/>
	<path fill="#4990CD" d="M340.1,235.5c-13.7,0-27.3,0-41,0c-6.7,0-7.7-1.2-6.4-7.6c8.1-40.9,16.3-81.8,24.3-122.7
		c0.8-4.1,2.2-5.7,6.7-5.5c7.5,0.4,15,0.1,22.5,0.1c5.6,0,6.8,1.4,5.7,7c-5.4,27.2-10.8,54.4-16.3,81.6c-1,5.2-1.9,10.5-3.2,15.6
		c-0.9,3.5,0.4,4.2,3.6,4.2c16-0.1,32-0.1,48-0.1c5.9,0,7.1,1.4,6,7.2c-1,5.6-2.3,11.1-3.2,16.6c-0.5,2.8-1.7,3.7-4.6,3.7
		C368.1,235.4,354.1,235.5,340.1,235.5z"/>
	<path fill="#4990CD" d="M55,238c-15.6-0.4-29.5-3.6-39.2-16.7c-6.8-9.2-6.8-9.4,3-15c4.7-2.8,9.5-5.5,14.3-8.2c3.1-1.8,5.4-1.1,7,2
		c4,7.9,10.5,10.7,19,9.9c8.4-0.8,13.7-5.6,16.2-13.4c4.3-13,5.9-26.6,8.7-39.9c3.7-17.4,7-34.9,10.3-52.3c0.6-3.4,1.9-4.6,5.5-4.5
		c7.8,0.3,15.7,0.1,23.5,0.1c5.7,0,6.8,1.3,5.7,6.9c-5.1,25.6-10.2,51.2-15.3,76.8c-1.6,8-3,16-6.7,23.4C96,228.3,77.9,237.5,55,238
		z"/>
	<path fill="#4990CD" d="M1890,185.9c2,1.1,3.3,1.9,4.6,2.6c16.2,8.8,23.3,23,21.9,41.4c-2.1,27.7-18,45-41.9,56.1
		c-20,9.3-41.3,12.5-63.1,13.1c-35.5,1-71,0.2-106.5,0.4c-5.8,0-9.8-5-8.4-10.5c17.1-66.7,34.2-133.4,51.3-200.1
		c0.7-2.9,1.6-4.1,4.9-4.1c31.3,0.2,62.7-0.1,94,0.4c16.9,0.3,33.6,2.7,49.1,9.9c18.4,8.5,30,21.7,29.4,43.3
		c-0.6,21.2-11.4,35.5-29.9,44.8C1893.8,184,1892.3,184.7,1890,185.9z M1808,250.6c10.1-0.6,20.2-2.1,29.1-7.8
		c6.8-4.4,10.2-11.5,8.7-18.7c-1.6-7.7-7.7-9.8-14.3-11.2c-14.2-2.9-28.5-1.4-42.8-1.9c-2.7-0.1-2.9,1.8-3.3,3.5
		c-3.1,11.9-6.1,23.8-9.3,36.2C1787,250.8,1797.5,251.2,1808,250.6z M1813.6,165.1c2.7,0,5.3,0.1,8,0c8.9-0.4,17.6-1.5,25.1-7
		c5.2-3.9,7.2-9.2,6-15.4c-1.1-5.5-6-6.7-10.6-7.8c-11.2-2.5-22.6-1-33.9-1.4c-2.1-0.1-2.5,1.3-2.8,2.8c-2.2,8.5-4.2,17.1-6.6,25.6
		c-0.9,3.2,0.5,3.3,2.8,3.2C1805.6,165,1809.6,165.1,1813.6,165.1C1813.6,165.1,1813.6,165.1,1813.6,165.1z"/>
	<path fill="#4990CD" d="M1335.2,84.9c16.1,0.4,35.3-0.8,54.4,1c14.3,1.3,28.4,3.6,41.4,10.1c23.6,11.7,31.7,31.3,30.4,54.8
		c-1.7,31.3-19.7,51.3-46,65.2c-18.5,9.8-38.7,13.9-59.3,16c-13.3,1.3-26.6,1.2-39.9,1c-3.7,0-5.4,0.7-6.4,4.7
		c-4.6,19.1-9.8,38-14.5,57c-0.9,3.5-2,4.9-5.8,4.8c-18.2-0.2-36.3-0.1-54.5-0.1c-5.7,0-9.7-5.1-8.2-10.6
		c17.1-66.5,34.2-133,51.1-199.5c1-3.7,2.5-4.6,6-4.5C1299.8,85,1316,84.9,1335.2,84.9z M1339.3,133.9c-2.2-0.1-3.1,0.6-3.7,2.9
		c-3.7,14.6-7.4,29.3-11.3,43.9c-0.7,2.8,0.1,3.4,2.8,3.4c8.6-0.2,17.3,0.3,25.9-1.1c10.6-1.7,20.9-4.5,28.5-12.7
		c6.4-6.9,8.4-15.2,5.6-24c-2.6-8.1-10.3-9.7-17.5-11.1c-6.1-1.2-12.2-1.3-17.1-1.1C1347.3,133.9,1343.3,134.1,1339.3,133.9z"/>
	<path fill="#4990CD" d="M276.9,223.8c-9.4,12.2-20.6,20-33.8,24.9c-27.2,10.2-55,11-82.9,3.3c-32.8-9.1-42.5-35.4-36.7-62.8
		c8.1-38,40.6-67.1,80-72.3c14-1.9,27.8-2.3,41.7,0.9c33.3,7.7,48.2,36.5,33.2,67.2c-12.4,25.3-33,40-62.3,40.1c-5,0-9.7-0.6-12-6.1
		c-1.2-2.8-2.6-0.4-3.4,0.1c-7.2,4.4-14.9,6.2-23.3,6c-16-0.5-25.9-11.7-24.2-27.6c2.4-22.6,23.2-46,45.5-51.1
		c5.6-1.3,11.2-1.6,16.9-0.4c5.3,1.1,9.6,3.6,12.4,8.3c0.6-0.3,1-0.4,1-0.5c1.3-5.7,4.9-7.4,10.6-6.8c4.6,0.5,9.3,0.1,14.7,0.1
		c-3.3,7.7-6.5,15-9.6,22.3c-4.9,11.3-9.8,22.6-14.7,33.9c-0.8,1.8-2,3.8-0.5,5.6c1.7,2.1,4.1,1,6,0.2c17-7.6,28.8-20,32.5-38.4
		c3.7-18.1-6.2-33.6-25.2-38.3c-28.8-7.2-56.3-3.2-79.3,16.6c-16.5,14.2-26.5,32.6-25.3,55.2c0.8,15.6,8.9,27.4,23.5,32.4
		c33.3,11.3,65.8,10.4,95.5-11.1c1.3-0.9,2.4-1.6,4-1.6C266,223.8,271,223.8,276.9,223.8z M207.1,158.9c-3.4,0.1-6.6,0.9-9.5,2.6
		c-14.9,8.8-21.5,22.6-22.5,39.2c-0.4,6.8,5.6,11.4,12.8,10.7c3.3-0.3,6.6-1,9.5-2.8c13.8-8.5,19.7-21.8,22.6-34.6
		C220.1,163.4,215.4,158.8,207.1,158.9z"/>
</g>
</svg>
