  0
SECTION
  2
HEADER
  9
$ACADVER
  1
AC1014
  9
$HANDSEED
  5
FFFF
  9
$MEASUREMENT
 70
     1
  0
ENDSEC
  0
SECTION
  2
TABLES
  0
TABLE
  2
VPORT
  5
8
330
0
100
AcDbSymbolTable
 70
     4
  0
VPORT
  5
2E
330
8
100
AcDbSymbolTableRecord
100
AcDbViewportTableRecord
  2
*ACTIVE
 70
     0
 10
0.0
 20
0.0
 11
1.0
 21
1.0
 12
210.0
 22
148.5
 13
0.0
 23
0.0
 14
10.0
 24
10.0
 15
10.0
 25
10.0
 16
0.0
 26
0.0
 36
1.0
 17
0.0
 27
0.0
 37
0.0
 40
341.0
 41
1.24
 42
50.0
 43
0.0
 44
0.0
 50
0.0
 51
0.0
 71
     0
 72
   100
 73
     1
 74
     3
 75
     0
 76
     0
 77
     0
 78
     0
  0
ENDTAB
  0
TABLE
  2
LTYPE
  5
5
330
0
100
AcDbSymbolTable
 70
     1
  0
LTYPE
  5
14
330
5
100
AcDbSymbolTableRecord
100
AcDbLinetypeTableRecord
  2
BYBLOCK
 70
     0
  3

 72
    65
 73
     0
 40
0.0
  0
LTYPE
  5
15
330
5
100
AcDbSymbolTableRecord
100
AcDbLinetypeTableRecord
  2
BYLAYER
 70
     0
  3

 72
    65
 73
     0
 40
0.0
  0
LTYPE
  5
16
330
5
100
AcDbSymbolTableRecord
100
AcDbLinetypeTableRecord
  2
CONTINUOUS
 70
     0
  3
Solid line
 72
    65
 73
     0
 40
0.0
  0
ENDTAB
  0
TABLE
  2
LAYER
  5
2
100
AcDbSymbolTable
 70
1
  0
LAYER
  5
50
100
AcDbSymbolTableRecord
100
AcDbLayerTableRecord
  2
0
 70
0
  6
CONTINUOUS
  0
ENDTAB
  0
TABLE
  2
STYLE
  5
3
330
0
100
AcDbSymbolTable
 70
     1
  0
STYLE
  5
11
330
3
100
AcDbSymbolTableRecord
100
AcDbTextStyleTableRecord
  2
STANDARD
 70
     0
 40
0.0
 41
1.0
 50
0.0
 71
     0
 42
2.5
  3
txt
  4

  0
ENDTAB
  0
TABLE
  2
VIEW
  5
6
330
0
100
AcDbSymbolTable
 70
     0
  0
ENDTAB
  0
TABLE
  2
UCS
  5
7
330
0
100
AcDbSymbolTable
 70
     0
  0
ENDTAB
  0
TABLE
  2
APPID
  5
9
330
0
100
AcDbSymbolTable
 70
     2
  0
APPID
  5
12
330
9
100
AcDbSymbolTableRecord
100
AcDbRegAppTableRecord
  2
ACAD
 70
     0
  0
ENDTAB
  0
TABLE
  2
DIMSTYLE
  5
A
330
0
100
AcDbSymbolTable
 70
     1
  0
DIMSTYLE
105
27
330
A
100
AcDbSymbolTableRecord
100
AcDbDimStyleTableRecord
  2
ISO-25
 70
     0
  3

  4

  5

  6

  7

 40
1.0
 41
2.5
 42
0.625
 43
3.75
 44
1.25
 45
0.0
 46
0.0
 47
0.0
 48
0.0
140
2.5
141
2.5
142
0.0
143
0.03937007874016
144
1.0
145
0.0
146
1.0
147
0.625
 71
     0
 72
     0
 73
     0
 74
     0
 75
     0
 76
     0
 77
     1
 78
     8
170
     0
171
     3
172
     1
173
     0
174
     0
175
     0
176
     0
177
     0
178
     0
270
     2
271
     2
272
     2
273
     2
274
     3
340
11
275
     0
280
     0
281
     0
282
     0
283
     0
284
     8
285
     0
286
     0
287
     3
288
     0
  0
ENDTAB
  0
TABLE
  2
BLOCK_RECORD
  5
1
330
0
100
AcDbSymbolTable
 70
     1
  0
BLOCK_RECORD
  5
1F
330
1
100
AcDbSymbolTableRecord
100
AcDbBlockTableRecord
  2
*MODEL_SPACE
  0
BLOCK_RECORD
  5
1B
330
1
100
AcDbSymbolTableRecord
100
AcDbBlockTableRecord
  2
*PAPER_SPACE
  0
ENDTAB
  0
ENDSEC
  0
SECTION
  2
BLOCKS
  0
BLOCK
  5
20
330
1F
100
AcDbEntity
  8
0
100
AcDbBlockBegin
  2
*MODEL_SPACE
 70
     0
 10
0.0
 20
0.0
 30
0.0
  3
*MODEL_SPACE
  1

  0
ENDBLK
  5
21
330
1F
100
AcDbEntity
  8
0
100
AcDbBlockEnd
  0
BLOCK
  5
1C
330
1B
100
AcDbEntity
 67
     1
  8
0
100
AcDbBlockBegin
  2
*PAPER_SPACE
  1

  0
ENDBLK
  5
1D
330
1B
100
AcDbEntity
 67
     1
  8
0
100
AcDbBlockEnd
  0
ENDSEC
  0
SECTION
  2
ENTITIES
  0
SPLINE
  5
100
100
AcDbEntity
  8
0
 62
7
100
AcDbSpline
 70
8
 71
3
 72
8
 73
4
 74
0
 40
0
 40
0
 40
0
 40
0
 40
1
 40
1
 40
1
 40
1
 10
17.155528
 20
1.466339
 30
0.0
 10
16.908880
 20
1.469460
 30
0.0
 10
16.638816
 20
1.492876
 30
0.0
 10
16.382801
 20
1.589663
 30
0.0
  0
SPLINE
  5
101
100
AcDbEntity
  8
0
 62
7
100
AcDbSpline
 70
8
 71
3
 72
8
 73
4
 74
0
 40
0
 40
0
 40
0
 40
0
 40
1
 40
1
 40
1
 40
1
 10
16.382801
 20
1.589663
 30
0.0
 10
15.891066
 20
1.775430
 30
0.0
 10
15.611635
 20
2.128231
 30
0.0
 10
15.588219
 20
2.657432
 30
0.0
  0
SPLINE
  5
102
100
AcDbEntity
  8
0
 62
7
100
AcDbSpline
 70
8
 71
3
 72
8
 73
4
 74
0
 40
0
 40
0
 40
0
 40
0
 40
1
 40
1
 40
1
 40
1
 10
15.588219
 20
2.657432
 30
0.0
 10
15.547631
 20
3.558166
 30
0.0
 10
15.920726
 20
4.237230
 30
0.0
 10
16.718430
 20
4.666523
 30
0.0
  0
SPLINE
  5
103
100
AcDbEntity
  8
0
 62
7
100
AcDbSpline
 70
8
 71
3
 72
8
 73
4
 74
0
 40
0
 40
0
 40
0
 40
0
 40
1
 40
1
 40
1
 40
1
 10
16.718430
 20
4.666523
 30
0.0
 10
17.143040
 20
4.895999
 30
0.0
 10
17.605115
 20
4.966247
 30
0.0
 10
18.084362
 20
4.936587
 30
0.0
  0
SPLINE
  5
104
100
AcDbEntity
  8
0
 62
7
100
AcDbSpline
 70
8
 71
3
 72
8
 73
4
 74
0
 40
0
 40
0
 40
0
 40
0
 40
1
 40
1
 40
1
 40
1
 10
18.084362
 20
4.936587
 30
0.0
 10
18.459018
 20
4.913171
 30
0.0
 10
18.819624
 20
4.839801
 30
0.0
 10
19.158375
 20
4.671206
 30
0.0
  0
SPLINE
  5
105
100
AcDbEntity
  8
0
 62
7
100
AcDbSpline
 70
8
 71
3
 72
8
 73
4
 74
0
 40
0
 40
0
 40
0
 40
0
 40
1
 40
1
 40
1
 40
1
 10
19.158375
 20
4.671206
 30
0.0
 10
19.213013
 20
4.643107
 30
0.0
 10
19.219257
 20
4.616569
 30
0.0
 10
19.205207
 20
4.563493
 30
0.0
  0
SPLINE
  5
106
100
AcDbEntity
  8
0
 62
7
100
AcDbSpline
 70
8
 71
3
 72
8
 73
4
 74
0
 40
0
 40
0
 40
0
 40
0
 40
1
 40
1
 40
1
 40
1
 10
19.205207
 20
4.563493
 30
0.0
 10
19.133398
 20
4.309039
 30
0.0
 10
19.063150
 20
4.053024
 30
0.0
 10
18.996024
 20
3.797009
 30
0.0
  0
SPLINE
  5
107
100
AcDbEntity
  8
0
 62
7
100
AcDbSpline
 70
8
 71
3
 72
8
 73
4
 74
0
 40
0
 40
0
 40
0
 40
0
 40
1
 40
1
 40
1
 40
1
 10
18.996024
 20
3.797009
 30
0.0
 10
18.981975
 20
3.743933
 30
0.0
 10
18.958559
 20
3.736128
 30
0.0
 10
18.911727
 20
3.731445
 30
0.0
  0
SPLINE
  5
108
100
AcDbEntity
  8
0
 62
7
100
AcDbSpline
 70
8
 71
3
 72
8
 73
4
 74
0
 40
0
 40
0
 40
0
 40
0
 40
1
 40
1
 40
1
 40
1
 10
18.911727
 20
3.731445
 30
0.0
 10
18.819624
 20
3.725201
 30
0.0
 10
18.752498
 20
3.750178
 30
0.0
 10
18.683811
 20
3.815742
 30
0.0
  0
SPLINE
  5
109
100
AcDbEntity
  8
0
 62
7
100
AcDbSpline
 70
8
 71
3
 72
8
 73
4
 74
0
 40
0
 40
0
 40
0
 40
0
 40
1
 40
1
 40
1
 40
1
 10
18.683811
 20
3.815742
 30
0.0
 10
18.393453
 20
4.095173
 30
0.0
 10
18.042214
 20
4.204448
 30
0.0
 10
17.645703
 20
4.138883
 30
0.0
  0
SPLINE
  5
10a
100
AcDbEntity
  8
0
 62
7
100
AcDbSpline
 70
8
 71
3
 72
8
 73
4
 74
0
 40
0
 40
0
 40
0
 40
0
 40
1
 40
1
 40
1
 40
1
 10
17.645703
 20
4.138883
 30
0.0
 10
17.191433
 20
4.062391
 30
0.0
 10
16.844876
 20
3.709590
 30
0.0
 10
16.746529
 20
3.236587
 30
0.0
  0
SPLINE
  5
10b
100
AcDbEntity
  8
0
 62
7
100
AcDbSpline
 70
8
 71
3
 72
8
 73
4
 74
0
 40
0
 40
0
 40
0
 40
0
 40
1
 40
1
 40
1
 40
1
 10
16.746529
 20
3.236587
 30
0.0
 10
16.715308
 20
3.088286
 30
0.0
 10
16.705942
 20
2.938424
 30
0.0
 10
16.715308
 20
2.787000
 30
0.0
  0
SPLINE
  5
10c
100
AcDbEntity
  8
0
 62
7
100
AcDbSpline
 70
8
 71
3
 72
8
 73
4
 74
0
 40
0
 40
0
 40
0
 40
0
 40
1
 40
1
 40
1
 40
1
 10
16.715308
 20
2.787000
 30
0.0
 10
16.734042
 20
2.468543
 30
0.0
 10
16.916685
 20
2.285898
 30
0.0
 10
17.238265
 20
2.257799
 30
0.0
  0
SPLINE
  5
10d
100
AcDbEntity
  8
0
 62
7
100
AcDbSpline
 70
8
 71
3
 72
8
 73
4
 74
0
 40
0
 40
0
 40
0
 40
0
 40
1
 40
1
 40
1
 40
1
 10
17.238265
 20
2.257799
 30
0.0
 10
17.687852
 20
2.217211
 30
0.0
 10
18.073435
 20
2.381123
 30
0.0
 10
18.434041
 20
2.626210
 30
0.0
  0
SPLINE
  5
10e
100
AcDbEntity
  8
0
 62
7
100
AcDbSpline
 70
8
 71
3
 72
8
 73
4
 74
0
 40
0
 40
0
 40
0
 40
0
 40
1
 40
1
 40
1
 40
1
 10
18.434041
 20
2.626210
 30
0.0
 10
18.480873
 20
2.657432
 30
0.0
 10
18.524583
 20
2.671481
 30
0.0
 10
18.579220
 20
2.668359
 30
0.0
  0
SPLINE
  5
10f
100
AcDbEntity
  8
0
 62
7
100
AcDbSpline
 70
8
 71
3
 72
8
 73
4
 74
0
 40
0
 40
0
 40
0
 40
0
 40
1
 40
1
 40
1
 40
1
 10
18.579220
 20
2.668359
 30
0.0
 10
18.647907
 20
2.663677
 30
0.0
 10
18.710350
 20
2.584062
 30
0.0
 10
18.693178
 20
2.516936
 30
0.0
  0
SPLINE
  5
110
100
AcDbEntity
  8
0
 62
7
100
AcDbSpline
 70
8
 71
3
 72
8
 73
4
 74
0
 40
0
 40
0
 40
0
 40
0
 40
1
 40
1
 40
1
 40
1
 10
18.693178
 20
2.516936
 30
0.0
 10
18.629174
 20
2.279654
 30
0.0
 10
18.562048
 20
2.040811
 30
0.0
 10
18.499606
 20
1.803529
 30
0.0
  0
SPLINE
  5
111
100
AcDbEntity
  8
0
 62
7
100
AcDbSpline
 70
8
 71
3
 72
8
 73
4
 74
0
 40
0
 40
0
 40
0
 40
0
 40
1
 40
1
 40
1
 40
1
 10
18.499606
 20
1.803529
 30
0.0
 10
18.491799
 20
1.772308
 30
0.0
 10
18.476190
 20
1.755136
 30
0.0
 10
18.446530
 20
1.744208
 30
0.0
  0
SPLINE
  5
112
100
AcDbEntity
  8
0
 62
7
100
AcDbSpline
 70
8
 71
3
 72
8
 73
4
 74
0
 40
0
 40
0
 40
0
 40
0
 40
1
 40
1
 40
1
 40
1
 10
18.446530
 20
1.744208
 30
0.0
 10
18.157732
 20
1.633373
 30
0.0
 10
17.867374
 20
1.527221
 30
0.0
 10
17.558283
 20
1.486633
 30
0.0
  0
SPLINE
  5
113
100
AcDbEntity
  8
0
 62
7
100
AcDbSpline
 70
8
 71
3
 72
8
 73
4
 74
0
 40
0
 40
0
 40
0
 40
0
 40
1
 40
1
 40
1
 40
1
 10
17.558283
 20
1.486633
 30
0.0
 10
17.428715
 20
1.472584
 30
0.0
 10
17.305391
 20
1.466338
 30
0.0
 10
17.155528
 20
1.466338
 30
0.0
  0
SPLINE
  5
114
100
AcDbEntity
  8
0
 62
7
100
AcDbSpline
 70
8
 71
3
 72
8
 73
4
 74
0
 40
0
 40
0
 40
0
 40
0
 40
1
 40
1
 40
1
 40
1
 10
24.484730
 20
1.466339
 30
0.0
 10
24.202177
 20
1.471021
 30
0.0
 10
23.908697
 20
1.497560
 30
0.0
 10
23.630828
 20
1.619323
 30
0.0
  0
SPLINE
  5
115
100
AcDbEntity
  8
0
 62
7
100
AcDbSpline
 70
8
 71
3
 72
8
 73
4
 74
0
 40
0
 40
0
 40
0
 40
0
 40
1
 40
1
 40
1
 40
1
 10
23.630828
 20
1.619323
 30
0.0
 10
23.181241
 20
1.816017
 30
0.0
 10
22.931470
 20
2.161013
 30
0.0
 10
22.909616
 20
2.649626
 30
0.0
  0
SPLINE
  5
116
100
AcDbEntity
  8
0
 62
7
100
AcDbSpline
 70
8
 71
3
 72
8
 73
4
 74
0
 40
0
 40
0
 40
0
 40
0
 40
1
 40
1
 40
1
 40
1
 10
22.909616
 20
2.649626
 30
0.0
 10
22.867467
 20
3.548800
 30
0.0
 10
23.237439
 20
4.230986
 30
0.0
 10
24.033582
 20
4.663401
 30
0.0
  0
SPLINE
  5
117
100
AcDbEntity
  8
0
 62
7
100
AcDbSpline
 70
8
 71
3
 72
8
 73
4
 74
0
 40
0
 40
0
 40
0
 40
0
 40
1
 40
1
 40
1
 40
1
 10
24.033582
 20
4.663401
 30
0.0
 10
24.456631
 20
4.892877
 30
0.0
 10
24.918706
 20
4.966247
 30
0.0
 10
25.399515
 20
4.938148
 30
0.0
  0
SPLINE
  5
118
100
AcDbEntity
  8
0
 62
7
100
AcDbSpline
 70
8
 71
3
 72
8
 73
4
 74
0
 40
0
 40
0
 40
0
 40
0
 40
1
 40
1
 40
1
 40
1
 10
25.399515
 20
4.938148
 30
0.0
 10
25.774170
 20
4.916293
 30
0.0
 10
26.134777
 20
4.842923
 30
0.0
 10
26.473528
 20
4.674328
 30
0.0
  0
SPLINE
  5
119
100
AcDbEntity
  8
0
 62
7
100
AcDbSpline
 70
8
 71
3
 72
8
 73
4
 74
0
 40
0
 40
0
 40
0
 40
0
 40
1
 40
1
 40
1
 40
1
 10
26.473528
 20
4.674328
 30
0.0
 10
26.526604
 20
4.647790
 30
0.0
 10
26.543776
 20
4.624374
 30
0.0
 10
26.525043
 20
4.563493
 30
0.0
  0
SPLINE
  5
11a
100
AcDbEntity
  8
0
 62
7
100
AcDbSpline
 70
8
 71
3
 72
8
 73
4
 74
0
 40
0
 40
0
 40
0
 40
0
 40
1
 40
1
 40
1
 40
1
 10
26.525043
 20
4.563493
 30
0.0
 10
26.451673
 20
4.312161
 30
0.0
 10
26.382986
 20
4.059268
 30
0.0
 10
26.317421
 20
3.804815
 30
0.0
  0
SPLINE
  5
11b
100
AcDbEntity
  8
0
 62
7
100
AcDbSpline
 70
8
 71
3
 72
8
 73
4
 74
0
 40
0
 40
0
 40
0
 40
0
 40
1
 40
1
 40
1
 40
1
 10
26.317421
 20
3.804815
 30
0.0
 10
26.303372
 20
3.751739
 30
0.0
 10
26.284639
 20
3.736128
 30
0.0
 10
26.230001
 20
3.733006
 30
0.0
  0
SPLINE
  5
11c
100
AcDbEntity
  8
0
 62
7
100
AcDbSpline
 70
8
 71
3
 72
8
 73
4
 74
0
 40
0
 40
0
 40
0
 40
0
 40
1
 40
1
 40
1
 40
1
 10
26.230001
 20
3.733006
 30
0.0
 10
26.137899
 20
3.726762
 30
0.0
 10
26.069212
 20
3.753300
 30
0.0
 10
26.002086
 20
3.818864
 30
0.0
  0
SPLINE
  5
11d
100
AcDbEntity
  8
0
 62
7
100
AcDbSpline
 70
8
 71
3
 72
8
 73
4
 74
0
 40
0
 40
0
 40
0
 40
0
 40
1
 40
1
 40
1
 40
1
 10
26.002086
 20
3.818864
 30
0.0
 10
25.713289
 20
4.096734
 30
0.0
 10
25.365171
 20
4.206009
 30
0.0
 10
24.970222
 20
4.143566
 30
0.0
  0
SPLINE
  5
11e
100
AcDbEntity
  8
0
 62
7
100
AcDbSpline
 70
8
 71
3
 72
8
 73
4
 74
0
 40
0
 40
0
 40
0
 40
0
 40
1
 40
1
 40
1
 40
1
 10
24.970222
 20
4.143566
 30
0.0
 10
24.514391
 20
4.071757
 30
0.0
 10
24.163151
 20
3.712712
 30
0.0
 10
24.064804
 20
3.238148
 30
0.0
  0
SPLINE
  5
11f
100
AcDbEntity
  8
0
 62
7
100
AcDbSpline
 70
8
 71
3
 72
8
 73
4
 74
0
 40
0
 40
0
 40
0
 40
0
 40
1
 40
1
 40
1
 40
1
 10
24.064804
 20
3.238148
 30
0.0
 10
24.033582
 20
3.089847
 30
0.0
 10
24.024216
 20
2.939985
 30
0.0
 10
24.033582
 20
2.788561
 30
0.0
  0
SPLINE
  5
120
100
AcDbEntity
  8
0
 62
7
100
AcDbSpline
 70
8
 71
3
 72
8
 73
4
 74
0
 40
0
 40
0
 40
0
 40
0
 40
1
 40
1
 40
1
 40
1
 10
24.033582
 20
2.788561
 30
0.0
 10
24.052316
 20
2.473226
 30
0.0
 10
24.233399
 20
2.290581
 30
0.0
 10
24.548734
 20
2.260921
 30
0.0
  0
SPLINE
  5
121
100
AcDbEntity
  8
0
 62
7
100
AcDbSpline
 70
8
 71
3
 72
8
 73
4
 74
0
 40
0
 40
0
 40
0
 40
0
 40
1
 40
1
 40
1
 40
1
 10
24.548734
 20
2.260921
 30
0.0
 10
24.921829
 20
2.226578
 30
0.0
 10
25.257458
 20
2.329608
 30
0.0
 10
25.574354
 20
2.516936
 30
0.0
  0
SPLINE
  5
122
100
AcDbEntity
  8
0
 62
7
100
AcDbSpline
 70
8
 71
3
 72
8
 73
4
 74
0
 40
0
 40
0
 40
0
 40
0
 40
1
 40
1
 40
1
 40
1
 10
25.574354
 20
2.516936
 30
0.0
 10
25.639919
 20
2.554401
 30
0.0
 10
25.702361
 20
2.596550
 30
0.0
 10
25.764804
 20
2.638699
 30
0.0
  0
SPLINE
  5
123
100
AcDbEntity
  8
0
 62
7
100
AcDbSpline
 70
8
 71
3
 72
8
 73
4
 74
0
 40
0
 40
0
 40
0
 40
0
 40
1
 40
1
 40
1
 40
1
 10
25.764804
 20
2.638699
 30
0.0
 10
25.855346
 20
2.699580
 30
0.0
 10
25.936521
 20
2.685531
 30
0.0
 10
25.997403
 20
2.599672
 30
0.0
  0
SPLINE
  5
124
100
AcDbEntity
  8
0
 62
7
100
AcDbSpline
 70
8
 71
3
 72
8
 73
4
 74
0
 40
0
 40
0
 40
0
 40
0
 40
1
 40
1
 40
1
 40
1
 10
25.997403
 20
2.599672
 30
0.0
 10
26.016137
 20
2.573135
 30
0.0
 10
26.017697
 20
2.549718
 30
0.0
 10
26.009891
 20
2.520058
 30
0.0
  0
SPLINE
  5
125
100
AcDbEntity
  8
0
 62
7
100
AcDbSpline
 70
8
 71
3
 72
8
 73
4
 74
0
 40
0
 40
0
 40
0
 40
0
 40
1
 40
1
 40
1
 40
1
 10
26.009891
 20
2.520058
 30
0.0
 10
25.944326
 20
2.282776
 30
0.0
 10
25.878761
 20
2.045494
 30
0.0
 10
25.814758
 20
1.806651
 30
0.0
  0
SPLINE
  5
126
100
AcDbEntity
  8
0
 62
7
100
AcDbSpline
 70
8
 71
3
 72
8
 73
4
 74
0
 40
0
 40
0
 40
0
 40
0
 40
1
 40
1
 40
1
 40
1
 10
25.814758
 20
1.806651
 30
0.0
 10
25.806951
 20
1.773869
 30
0.0
 10
25.789781
 20
1.759819
 30
0.0
 10
25.760120
 20
1.748892
 30
0.0
  0
SPLINE
  5
127
100
AcDbEntity
  8
0
 62
7
100
AcDbSpline
 70
8
 71
3
 72
8
 73
4
 74
0
 40
0
 40
0
 40
0
 40
0
 40
1
 40
1
 40
1
 40
1
 10
25.760120
 20
1.748892
 30
0.0
 10
25.474445
 20
1.639617
 30
0.0
 10
25.187210
 20
1.533465
 30
0.0
 10
24.879680
 20
1.492877
 30
0.0
  0
SPLINE
  5
128
100
AcDbEntity
  8
0
 62
7
100
AcDbSpline
 70
8
 71
3
 72
8
 73
4
 74
0
 40
0
 40
0
 40
0
 40
0
 40
1
 40
1
 40
1
 40
1
 10
24.879680
 20
1.492877
 30
0.0
 10
24.754794
 20
1.472582
 30
0.0
 10
24.626787
 20
1.467900
 30
0.0
 10
24.484730
 20
1.466340
 30
0.0
  0
LWPOLYLINE
  5
129
100
AcDbEntity
  8
0
 62
7
100
AcDbPolyline
 90
2
 70
1
 10
17.155528
 20
1.466338
 30
0.0
 10
17.155528
 20
1.466339
 30
0.0
  0
SPLINE
  5
12a
100
AcDbEntity
  8
0
 62
7
100
AcDbSpline
 70
8
 71
3
 72
8
 73
4
 74
0
 40
0
 40
0
 40
0
 40
0
 40
1
 40
1
 40
1
 40
1
 10
0.024397
 20
2.150086
 30
0.0
 10
0.331927
 20
1.450728
 30
0.0
 10
0.881422
 20
1.052656
 30
0.0
 10
1.613562
 20
0.887184
 30
0.0
  0
SPLINE
  5
12b
100
AcDbEntity
  8
0
 62
7
100
AcDbSpline
 70
8
 71
3
 72
8
 73
4
 74
0
 40
0
 40
0
 40
0
 40
0
 40
1
 40
1
 40
1
 40
1
 10
1.613562
 20
0.887184
 30
0.0
 10
2.022561
 20
0.795081
 30
0.0
 10
2.436243
 20
0.804447
 30
0.0
 10
2.848364
 20
0.845035
 30
0.0
  0
SPLINE
  5
12c
100
AcDbEntity
  8
0
 62
7
100
AcDbSpline
 70
8
 71
3
 72
8
 73
4
 74
0
 40
0
 40
0
 40
0
 40
0
 40
1
 40
1
 40
1
 40
1
 10
2.848364
 20
0.845035
 30
0.0
 10
3.376004
 20
0.896550
 30
0.0
 10
3.886473
 20
1.022996
 30
0.0
 10
4.370403
 20
1.247790
 30
0.0
  0
SPLINE
  5
12d
100
AcDbEntity
  8
0
 62
7
100
AcDbSpline
 70
8
 71
3
 72
8
 73
4
 74
0
 40
0
 40
0
 40
0
 40
0
 40
1
 40
1
 40
1
 40
1
 10
4.370403
 20
1.247790
 30
0.0
 10
4.890238
 20
1.489755
 30
0.0
 10
5.330458
 20
1.828506
 30
0.0
 10
5.647354
 20
2.312436
 30
0.0
  0
SPLINE
  5
12e
100
AcDbEntity
  8
0
 62
7
100
AcDbSpline
 70
8
 71
3
 72
8
 73
4
 74
0
 40
0
 40
0
 40
0
 40
0
 40
1
 40
1
 40
1
 40
1
 10
5.647354
 20
2.312436
 30
0.0
 10
5.666088
 20
2.340534
 30
0.0
 10
5.686381
 20
2.354585
 30
0.0
 10
5.722286
 20
2.354585
 30
0.0
  0
SPLINE
  5
12f
100
AcDbEntity
  8
0
 62
7
100
AcDbSpline
 70
8
 71
3
 72
8
 73
4
 74
0
 40
0
 40
0
 40
0
 40
0
 40
1
 40
1
 40
1
 40
1
 10
5.722286
 20
2.354585
 30
0.0
 10
6.248365
 20
2.353033
 30
0.0
 10
6.772883
 20
2.353033
 30
0.0
 10
7.298962
 20
2.353033
 30
0.0
  0
SPLINE
  5
130
100
AcDbEntity
  8
0
 62
7
100
AcDbSpline
 70
8
 71
3
 72
8
 73
4
 74
0
 40
0
 40
0
 40
0
 40
0
 40
1
 40
1
 40
1
 40
1
 10
7.298962
 20
2.353033
 30
0.0
 10
7.306768
 20
2.353033
 30
0.0
 10
7.313011
 20
2.349912
 30
0.0
 10
7.327060
 20
2.346787
 30
0.0
  0
SPLINE
  5
131
100
AcDbEntity
  8
0
 62
7
100
AcDbSpline
 70
8
 71
3
 72
8
 73
4
 74
0
 40
0
 40
0
 40
0
 40
0
 40
1
 40
1
 40
1
 40
1
 10
7.327060
 20
2.346787
 30
0.0
 10
7.250567
 20
2.195364
 30
0.0
 10
7.158465
 20
2.057990
 30
0.0
 10
7.056995
 20
1.926861
 30
0.0
  0
SPLINE
  5
132
100
AcDbEntity
  8
0
 62
7
100
AcDbSpline
 70
8
 71
3
 72
8
 73
4
 74
0
 40
0
 40
0
 40
0
 40
0
 40
1
 40
1
 40
1
 40
1
 10
7.056995
 20
1.926861
 30
0.0
 10
6.482523
 20
1.190038
 30
0.0
 10
5.737895
 20
0.692058
 30
0.0
 10
4.868382
 20
0.370479
 30
0.0
  0
SPLINE
  5
133
100
AcDbEntity
  8
0
 62
7
100
AcDbSpline
 70
8
 71
3
 72
8
 73
4
 74
0
 40
0
 40
0
 40
0
 40
0
 40
1
 40
1
 40
1
 40
1
 10
4.868382
 20
0.370479
 30
0.0
 10
4.326692
 20
0.170662
 30
0.0
 10
3.766270
 20
0.047338
 30
0.0
 10
3.190236
 20
0.009872
 30
0.0
  0
SPLINE
  5
134
100
AcDbEntity
  8
0
 62
7
100
AcDbSpline
 70
8
 71
3
 72
8
 73
4
 74
0
 40
0
 40
0
 40
0
 40
0
 40
1
 40
1
 40
1
 40
1
 10
3.190236
 20
0.009872
 30
0.0
 10
2.470586
 20
-0.038528
 30
0.0
 10
1.780596
 20
0.089479
 30
0.0
 10
1.140559
 20
0.431352
 30
0.0
  0
SPLINE
  5
135
100
AcDbEntity
  8
0
 62
7
100
AcDbSpline
 70
8
 71
3
 72
8
 73
4
 74
0
 40
0
 40
0
 40
0
 40
0
 40
1
 40
1
 40
1
 40
1
 10
1.140559
 20
0.431352
 30
0.0
 10
0.472423
 20
0.788837
 30
0.0
 10
0.093084
 20
1.349259
 30
0.0
 10
0.007225
 20
2.103254
 30
0.0
  0
SPLINE
  5
136
100
AcDbEntity
  8
0
 62
7
100
AcDbSpline
 70
8
 71
3
 72
8
 73
4
 74
0
 40
0
 40
0
 40
0
 40
0
 40
1
 40
1
 40
1
 40
1
 10
0.007225
 20
2.103254
 30
0.0
 10
0.004103
 20
2.121986
 30
0.0
 10
-0.014630
 20
2.146963
 30
0.0
 10
0.024397
 20
2.150086
 30
0.0
  0
LWPOLYLINE
  5
137
100
AcDbEntity
  8
0
 62
7
100
AcDbPolyline
 90
2
 70
1
 10
24.484730
 20
1.466340
 30
0.0
 10
24.484730
 20
1.466339
 30
0.0
  0
SPLINE
  5
138
100
AcDbEntity
  8
0
 62
7
100
AcDbSpline
 70
8
 71
3
 72
8
 73
4
 74
0
 40
0
 40
0
 40
0
 40
0
 40
1
 40
1
 40
1
 40
1
 10
13.600983
 20
1.533465
 30
0.0
 10
13.191983
 20
1.533465
 30
0.0
 10
12.784545
 20
1.533465
 30
0.0
 10
12.375546
 20
1.533465
 30
0.0
  0
SPLINE
  5
139
100
AcDbEntity
  8
0
 62
7
100
AcDbSpline
 70
8
 71
3
 72
8
 73
4
 74
0
 40
0
 40
0
 40
0
 40
0
 40
1
 40
1
 40
1
 40
1
 10
12.375546
 20
1.533465
 30
0.0
 10
12.253783
 20
1.533465
 30
0.0
 10
12.200707
 20
1.603713
 30
0.0
 10
12.231928
 20
1.723915
 30
0.0
  0
SPLINE
  5
13a
100
AcDbEntity
  8
0
 62
7
100
AcDbSpline
 70
8
 71
3
 72
8
 73
4
 74
0
 40
0
 40
0
 40
0
 40
0
 40
1
 40
1
 40
1
 40
1
 10
12.231928
 20
1.723915
 30
0.0
 10
12.497309
 20
2.754218
 30
0.0
 10
12.761129
 20
3.784521
 30
0.0
 10
13.023388
 20
4.816385
 30
0.0
  0
SPLINE
  5
13b
100
AcDbEntity
  8
0
 62
7
100
AcDbSpline
 70
8
 71
3
 72
8
 73
4
 74
0
 40
0
 40
0
 40
0
 40
0
 40
1
 40
1
 40
1
 40
1
 10
13.023388
 20
4.816385
 30
0.0
 10
13.037437
 20
4.871022
 30
0.0
 10
13.057732
 20
4.885072
 30
0.0
 10
13.110808
 20
4.885072
 30
0.0
  0
SPLINE
  5
13c
100
AcDbEntity
  8
0
 62
7
100
AcDbSpline
 70
8
 71
3
 72
8
 73
4
 74
0
 40
0
 40
0
 40
0
 40
0
 40
1
 40
1
 40
1
 40
1
 10
13.110808
 20
4.885072
 30
0.0
 10
13.394922
 20
4.881950
 30
0.0
 10
13.677475
 20
4.883511
 30
0.0
 10
13.961589
 20
4.883511
 30
0.0
  0
SPLINE
  5
13d
100
AcDbEntity
  8
0
 62
7
100
AcDbSpline
 70
8
 71
3
 72
8
 73
4
 74
0
 40
0
 40
0
 40
0
 40
0
 40
1
 40
1
 40
1
 40
1
 10
13.961589
 20
4.883511
 30
0.0
 10
14.055253
 20
4.883511
 30
0.0
 10
14.114573
 20
4.807019
 30
0.0
 10
14.091157
 20
4.714916
 30
0.0
  0
SPLINE
  5
13e
100
AcDbEntity
  8
0
 62
7
100
AcDbSpline
 70
8
 71
3
 72
8
 73
4
 74
0
 40
0
 40
0
 40
0
 40
0
 40
1
 40
1
 40
1
 40
1
 10
14.091157
 20
4.714916
 30
0.0
 10
13.894463
 20
3.948433
 30
0.0
 10
13.697769
 20
3.181950
 30
0.0
 10
13.502635
 20
2.415467
 30
0.0
  0
SPLINE
  5
13f
100
AcDbEntity
  8
0
 62
7
100
AcDbSpline
 70
8
 71
3
 72
8
 73
4
 74
0
 40
0
 40
0
 40
0
 40
0
 40
1
 40
1
 40
1
 40
1
 10
13.502635
 20
2.415467
 30
0.0
 10
13.479220
 20
2.321803
 30
0.0
 10
13.477659
 20
2.321803
 30
0.0
 10
13.576006
 20
2.321803
 30
0.0
  0
SPLINE
  5
140
100
AcDbEntity
  8
0
 62
7
100
AcDbSpline
 70
8
 71
3
 72
8
 73
4
 74
0
 40
0
 40
0
 40
0
 40
0
 40
1
 40
1
 40
1
 40
1
 10
13.576006
 20
2.321803
 30
0.0
 10
14.028714
 20
2.321803
 30
0.0
 10
14.481423
 20
2.321803
 30
0.0
 10
14.934132
 20
2.321803
 30
0.0
  0
SPLINE
  5
141
100
AcDbEntity
  8
0
 62
7
100
AcDbSpline
 70
8
 71
3
 72
8
 73
4
 74
0
 40
0
 40
0
 40
0
 40
0
 40
1
 40
1
 40
1
 40
1
 10
14.934132
 20
2.321803
 30
0.0
 10
15.038724
 20
2.321803
 30
0.0
 10
15.096483
 20
2.245311
 30
0.0
 10
15.071506
 20
2.145403
 30
0.0
  0
SPLINE
  5
142
100
AcDbEntity
  8
0
 62
7
100
AcDbSpline
 70
8
 71
3
 72
8
 73
4
 74
0
 40
0
 40
0
 40
0
 40
0
 40
1
 40
1
 40
1
 40
1
 10
15.071506
 20
2.145403
 30
0.0
 10
15.024674
 20
1.964319
 30
0.0
 10
14.976281
 20
1.784797
 30
0.0
 10
14.932571
 20
1.602152
 30
0.0
  0
SPLINE
  5
143
100
AcDbEntity
  8
0
 62
7
100
AcDbSpline
 70
8
 71
3
 72
8
 73
4
 74
0
 40
0
 40
0
 40
0
 40
0
 40
1
 40
1
 40
1
 40
1
 10
14.932571
 20
1.602152
 30
0.0
 10
14.920083
 20
1.550637
 30
0.0
 10
14.898228
 20
1.531904
 30
0.0
 10
14.843591
 20
1.533465
 30
0.0
  0
SPLINE
  5
144
100
AcDbEntity
  8
0
 62
7
100
AcDbSpline
 70
8
 71
3
 72
8
 73
4
 74
0
 40
0
 40
0
 40
0
 40
0
 40
1
 40
1
 40
1
 40
1
 10
14.843591
 20
1.533465
 30
0.0
 10
14.426786
 20
1.535017
 30
0.0
 10
14.013104
 20
1.533465
 30
0.0
 10
13.600983
 20
1.533465
 30
0.0
  0
LWPOLYLINE
  5
145
100
AcDbEntity
  8
0
 62
7
100
AcDbPolyline
 90
2
 70
1
 10
0.024397
 20
2.150086
 30
0.0
 10
0.024397
 20
2.150086
 30
0.0
  0
SPLINE
  5
146
100
AcDbEntity
  8
0
 62
7
100
AcDbSpline
 70
8
 71
3
 72
8
 73
4
 74
0
 40
0
 40
0
 40
0
 40
0
 40
1
 40
1
 40
1
 40
1
 10
9.862231
 20
1.481950
 30
0.0
 10
9.653048
 20
1.489756
 30
0.0
 10
9.406400
 20
1.494438
 30
0.0
 10
9.162874
 20
1.538148
 30
0.0
  0
SPLINE
  5
147
100
AcDbEntity
  8
0
 62
7
100
AcDbSpline
 70
8
 71
3
 72
8
 73
4
 74
0
 40
0
 40
0
 40
0
 40
0
 40
1
 40
1
 40
1
 40
1
 10
9.162874
 20
1.538148
 30
0.0
 10
9.083259
 20
1.552197
 30
0.0
 10
9.036427
 20
1.625568
 30
0.0
 10
9.055160
 20
1.702060
 30
0.0
  0
SPLINE
  5
148
100
AcDbEntity
  8
0
 62
7
100
AcDbSpline
 70
8
 71
3
 72
8
 73
4
 74
0
 40
0
 40
0
 40
0
 40
0
 40
1
 40
1
 40
1
 40
1
 10
9.055160
 20
1.702060
 30
0.0
 10
9.106675
 20
1.904998
 30
0.0
 10
9.161313
 20
2.109498
 30
0.0
 10
9.211267
 20
2.313997
 30
0.0
  0
SPLINE
  5
149
100
AcDbEntity
  8
0
 62
7
100
AcDbSpline
 70
8
 71
3
 72
8
 73
4
 74
0
 40
0
 40
0
 40
0
 40
0
 40
1
 40
1
 40
1
 40
1
 10
9.211267
 20
2.313997
 30
0.0
 10
9.223755
 20
2.362390
 30
0.0
 10
9.245610
 20
2.371757
 30
0.0
 10
9.290881
 20
2.373318
 30
0.0
  0
SPLINE
  5
14a
100
AcDbEntity
  8
0
 62
7
100
AcDbSpline
 70
8
 71
3
 72
8
 73
4
 74
0
 40
0
 40
0
 40
0
 40
0
 40
1
 40
1
 40
1
 40
1
 10
9.290881
 20
2.373318
 30
0.0
 10
9.373617
 20
2.376439
 30
0.0
 10
9.450110
 20
2.356145
 30
0.0
 10
9.526602
 20
2.329608
 30
0.0
  0
SPLINE
  5
14b
100
AcDbEntity
  8
0
 62
7
100
AcDbSpline
 70
8
 71
3
 72
8
 73
4
 74
0
 40
0
 40
0
 40
0
 40
0
 40
1
 40
1
 40
1
 40
1
 10
9.526602
 20
2.329608
 30
0.0
 10
9.751395
 20
2.249994
 30
0.0
 10
9.980872
 20
2.249994
 30
0.0
 10
10.208787
 20
2.307753
 30
0.0
  0
SPLINE
  5
14c
100
AcDbEntity
  8
0
 62
7
100
AcDbSpline
 70
8
 71
3
 72
8
 73
4
 74
0
 40
0
 40
0
 40
0
 40
0
 40
1
 40
1
 40
1
 40
1
 10
10.208787
 20
2.307753
 30
0.0
 10
10.327429
 20
2.337413
 30
0.0
 10
10.417970
 20
2.409222
 30
0.0
 10
10.483535
 20
2.512252
 30
0.0
  0
SPLINE
  5
14d
100
AcDbEntity
  8
0
 62
7
100
AcDbSpline
 70
8
 71
3
 72
8
 73
4
 74
0
 40
0
 40
0
 40
0
 40
0
 40
1
 40
1
 40
1
 40
1
 10
10.483535
 20
2.512252
 30
0.0
 10
10.556905
 20
2.630893
 30
0.0
 10
10.605298
 20
2.758900
 30
0.0
 10
10.639641
 20
2.893152
 30
0.0
  0
SPLINE
  5
14e
100
AcDbEntity
  8
0
 62
7
100
AcDbSpline
 70
8
 71
3
 72
8
 73
4
 74
0
 40
0
 40
0
 40
0
 40
0
 40
1
 40
1
 40
1
 40
1
 10
10.639641
 20
2.893152
 30
0.0
 10
10.741111
 20
3.280296
 30
0.0
 10
10.837897
 20
3.667440
 30
0.0
 10
10.939366
 20
4.054585
 30
0.0
  0
SPLINE
  5
14f
100
AcDbEntity
  8
0
 62
7
100
AcDbSpline
 70
8
 71
3
 72
8
 73
4
 74
0
 40
0
 40
0
 40
0
 40
0
 40
1
 40
1
 40
1
 40
1
 10
10.939366
 20
4.054585
 30
0.0
 10
10.956539
 20
4.120149
 30
0.0
 10
10.936245
 20
4.127955
 30
0.0
 10
10.880046
 20
4.126394
 30
0.0
  0
SPLINE
  5
150
100
AcDbEntity
  8
0
 62
7
100
AcDbSpline
 70
8
 71
3
 72
8
 73
4
 74
0
 40
0
 40
0
 40
0
 40
0
 40
1
 40
1
 40
1
 40
1
 10
10.880046
 20
4.126394
 30
0.0
 10
10.770771
 20
4.123271
 30
0.0
 10
10.661496
 20
4.127954
 30
0.0
 10
10.552222
 20
4.124833
 30
0.0
  0
SPLINE
  5
151
100
AcDbEntity
  8
0
 62
7
100
AcDbSpline
 70
8
 71
3
 72
8
 73
4
 74
0
 40
0
 40
0
 40
0
 40
0
 40
1
 40
1
 40
1
 40
1
 10
10.552222
 20
4.124833
 30
0.0
 10
10.505390
 20
4.123272
 30
0.0
 10
10.486657
 20
4.132638
 30
0.0
 10
10.499146
 20
4.185715
 30
0.0
  0
SPLINE
  5
152
100
AcDbEntity
  8
0
 62
7
100
AcDbSpline
 70
8
 71
3
 72
8
 73
4
 74
0
 40
0
 40
0
 40
0
 40
0
 40
1
 40
1
 40
1
 40
1
 10
10.499146
 20
4.185715
 30
0.0
 10
10.549100
 20
4.402703
 30
0.0
 10
10.595932
 20
4.621252
 30
0.0
 10
10.641203
 20
4.839801
 30
0.0
  0
SPLINE
  5
153
100
AcDbEntity
  8
0
 62
7
100
AcDbSpline
 70
8
 71
3
 72
8
 73
4
 74
0
 40
0
 40
0
 40
0
 40
0
 40
1
 40
1
 40
1
 40
1
 10
10.641203
 20
4.839801
 30
0.0
 10
10.649009
 20
4.875705
 30
0.0
 10
10.666179
 20
4.885072
 30
0.0
 10
10.700523
 20
4.885072
 30
0.0
  0
SPLINE
  5
154
100
AcDbEntity
  8
0
 62
7
100
AcDbSpline
 70
8
 71
3
 72
8
 73
4
 74
0
 40
0
 40
0
 40
0
 40
0
 40
1
 40
1
 40
1
 40
1
 10
10.700523
 20
4.885072
 30
0.0
 10
11.164160
 20
4.883511
 30
0.0
 10
11.626235
 20
4.885072
 30
0.0
 10
12.089871
 20
4.883511
 30
0.0
  0
SPLINE
  5
155
100
AcDbEntity
  8
0
 62
7
100
AcDbSpline
 70
8
 71
3
 72
8
 73
4
 74
0
 40
0
 40
0
 40
0
 40
0
 40
1
 40
1
 40
1
 40
1
 10
12.089871
 20
4.883511
 30
0.0
 10
12.164803
 20
4.883511
 30
0.0
 10
12.221001
 20
4.797653
 30
0.0
 10
12.200707
 20
4.718038
 30
0.0
  0
SPLINE
  5
156
100
AcDbEntity
  8
0
 62
7
100
AcDbSpline
 70
8
 71
3
 72
8
 73
4
 74
0
 40
0
 40
0
 40
0
 40
0
 40
1
 40
1
 40
1
 40
1
 10
12.200707
 20
4.718038
 30
0.0
 10
12.053967
 20
4.145127
 30
0.0
 10
11.907227
 20
3.570655
 30
0.0
 10
11.758925
 20
2.997744
 30
0.0
  0
SPLINE
  5
157
100
AcDbEntity
  8
0
 62
7
100
AcDbSpline
 70
8
 71
3
 72
8
 73
4
 74
0
 40
0
 40
0
 40
0
 40
0
 40
1
 40
1
 40
1
 40
1
 10
11.758925
 20
2.997744
 30
0.0
 10
11.716777
 20
2.836955
 30
0.0
 10
11.679311
 20
2.674604
 30
0.0
 10
11.629357
 20
2.516936
 30
0.0
  0
SPLINE
  5
158
100
AcDbEntity
  8
0
 62
7
100
AcDbSpline
 70
8
 71
3
 72
8
 73
4
 74
0
 40
0
 40
0
 40
0
 40
0
 40
1
 40
1
 40
1
 40
1
 10
11.629357
 20
2.516936
 30
0.0
 10
11.448273
 20
1.947147
 30
0.0
 10
11.047079
 20
1.631812
 30
0.0
 10
10.467924
 20
1.527221
 30
0.0
  0
SPLINE
  5
159
100
AcDbEntity
  8
0
 62
7
100
AcDbSpline
 70
8
 71
3
 72
8
 73
4
 74
0
 40
0
 40
0
 40
0
 40
0
 40
1
 40
1
 40
1
 40
1
 10
10.467924
 20
1.527221
 30
0.0
 10
10.279035
 20
1.492877
 30
0.0
 10
10.090147
 20
1.481950
 30
0.0
 10
9.862231
 20
1.481950
 30
0.0
  0
LWPOLYLINE
  5
15a
100
AcDbEntity
  8
0
 62
7
100
AcDbPolyline
 90
2
 70
1
 10
13.600983
 20
1.533465
 30
0.0
 10
13.600983
 20
1.533465
 30
0.0
  0
SPLINE
  5
15b
100
AcDbEntity
  8
0
 62
7
100
AcDbSpline
 70
8
 71
3
 72
8
 73
4
 74
0
 40
0
 40
0
 40
0
 40
0
 40
1
 40
1
 40
1
 40
1
 10
1.810256
 20
5.278461
 30
0.0
 10
2.564250
 20
5.670288
 30
0.0
 10
3.343222
 20
5.984062
 30
0.0
 10
4.186197
 20
6.110508
 30
0.0
  0
SPLINE
  5
15c
100
AcDbEntity
  8
0
 62
7
100
AcDbSpline
 70
8
 71
3
 72
8
 73
4
 74
0
 40
0
 40
0
 40
0
 40
0
 40
1
 40
1
 40
1
 40
1
 10
4.186197
 20
6.110508
 30
0.0
 10
4.868383
 20
6.211978
 30
0.0
 10
5.539641
 20
6.180756
 30
0.0
 10
6.185922
 20
5.915375
 30
0.0
  0
SPLINE
  5
15d
100
AcDbEntity
  8
0
 62
7
100
AcDbSpline
 70
8
 71
3
 72
8
 73
4
 74
0
 40
0
 40
0
 40
0
 40
0
 40
1
 40
1
 40
1
 40
1
 10
6.185922
 20
5.915375
 30
0.0
 10
6.682341
 20
5.710876
 30
0.0
 10
7.097584
 20
5.400224
 30
0.0
 10
7.414480
 20
4.963125
 30
0.0
  0
SPLINE
  5
15e
100
AcDbEntity
  8
0
 62
7
100
AcDbSpline
 70
8
 71
3
 72
8
 73
4
 74
0
 40
0
 40
0
 40
0
 40
0
 40
1
 40
1
 40
1
 40
1
 10
7.414480
 20
4.963125
 30
0.0
 10
7.431654
 20
4.939709
 30
0.0
 10
7.445702
 20
4.916293
 30
0.0
 10
7.461312
 20
4.891316
 30
0.0
  0
SPLINE
  5
15f
100
AcDbEntity
  8
0
 62
7
100
AcDbSpline
 70
8
 71
3
 72
8
 73
4
 74
0
 40
0
 40
0
 40
0
 40
0
 40
1
 40
1
 40
1
 40
1
 10
7.461312
 20
4.891316
 30
0.0
 10
7.467558
 20
4.883511
 30
0.0
 10
7.470679
 20
4.874144
 30
0.0
 10
7.475361
 20
4.864778
 30
0.0
  0
SPLINE
  5
160
100
AcDbEntity
  8
0
 62
7
100
AcDbSpline
 70
8
 71
3
 72
8
 73
4
 74
0
 40
0
 40
0
 40
0
 40
0
 40
1
 40
1
 40
1
 40
1
 10
7.475361
 20
4.864778
 30
0.0
 10
7.462873
 20
4.842923
 30
0.0
 10
7.442579
 20
4.852289
 30
0.0
 10
7.425407
 20
4.852289
 30
0.0
  0
SPLINE
  5
161
100
AcDbEntity
  8
0
 62
7
100
AcDbSpline
 70
8
 71
3
 72
8
 73
4
 74
0
 40
0
 40
0
 40
0
 40
0
 40
1
 40
1
 40
1
 40
1
 10
7.425407
 20
4.852289
 30
0.0
 10
6.910256
 20
4.852289
 30
0.0
 10
6.395104
 20
4.852289
 30
0.0
 10
5.879953
 20
4.850729
 30
0.0
  0
SPLINE
  5
162
100
AcDbEntity
  8
0
 62
7
100
AcDbSpline
 70
8
 71
3
 72
8
 73
4
 74
0
 40
0
 40
0
 40
0
 40
0
 40
1
 40
1
 40
1
 40
1
 10
5.879953
 20
4.850729
 30
0.0
 10
5.840926
 20
4.850729
 30
0.0
 10
5.815949
 20
4.858534
 30
0.0
 10
5.790972
 20
4.896000
 30
0.0
  0
SPLINE
  5
163
100
AcDbEntity
  8
0
 62
7
100
AcDbSpline
 70
8
 71
3
 72
8
 73
4
 74
0
 40
0
 40
0
 40
0
 40
0
 40
1
 40
1
 40
1
 40
1
 10
5.790972
 20
4.896000
 30
0.0
 10
5.508420
 20
5.328415
 30
0.0
 10
5.096298
 20
5.564135
 30
0.0
 10
4.599880
 20
5.662483
 30
0.0
  0
SPLINE
  5
164
100
AcDbEntity
  8
0
 62
7
100
AcDbSpline
 70
8
 71
3
 72
8
 73
4
 74
0
 40
0
 40
0
 40
0
 40
0
 40
1
 40
1
 40
1
 40
1
 10
4.599880
 20
5.662483
 30
0.0
 10
4.030091
 20
5.776440
 30
0.0
 10
3.466546
 20
5.713998
 30
0.0
 10
2.906124
 20
5.593796
 30
0.0
  0
SPLINE
  5
165
100
AcDbEntity
  8
0
 62
7
100
AcDbSpline
 70
8
 71
3
 72
8
 73
4
 74
0
 40
0
 40
0
 40
0
 40
0
 40
1
 40
1
 40
1
 40
1
 10
2.906124
 20
5.593796
 30
0.0
 10
2.558006
 20
5.518865
 30
0.0
 10
2.217694
 20
5.415834
 30
0.0
 10
1.883626
 20
5.290949
 30
0.0
  0
SPLINE
  5
166
100
AcDbEntity
  8
0
 62
7
100
AcDbSpline
 70
8
 71
3
 72
8
 73
4
 74
0
 40
0
 40
0
 40
0
 40
0
 40
1
 40
1
 40
1
 40
1
 10
1.883626
 20
5.290949
 30
0.0
 10
1.863332
 20
5.281583
 30
0.0
 10
1.841477
 20
5.262850
 30
0.0
 10
1.810256
 20
5.278460
 30
0.0
  0
LWPOLYLINE
  5
167
100
AcDbEntity
  8
0
 62
7
100
AcDbPolyline
 90
2
 70
1
 10
9.862231
 20
1.481950
 30
0.0
 10
9.862231
 20
1.481950
 30
0.0
  0
SPLINE
  5
168
100
AcDbEntity
  8
0
 62
7
100
AcDbSpline
 70
8
 71
3
 72
8
 73
4
 74
0
 40
0
 40
0
 40
0
 40
0
 40
1
 40
1
 40
1
 40
1
 10
7.180321
 20
2.495081
 30
0.0
 10
6.921184
 20
2.502886
 30
0.0
 10
6.662047
 20
2.568451
 30
0.0
 10
6.470036
 20
2.794806
 30
0.0
  0
SPLINE
  5
169
100
AcDbEntity
  8
0
 62
7
100
AcDbSpline
 70
8
 71
3
 72
8
 73
4
 74
0
 40
0
 40
0
 40
0
 40
0
 40
1
 40
1
 40
1
 40
1
 10
6.470036
 20
2.794806
 30
0.0
 10
6.288952
 20
3.010233
 30
0.0
 10
6.260853
 20
3.264686
 30
0.0
 10
6.304563
 20
3.531628
 30
0.0
  0
SPLINE
  5
16a
100
AcDbEntity
  8
0
 62
7
100
AcDbSpline
 70
8
 71
3
 72
8
 73
4
 74
0
 40
0
 40
0
 40
0
 40
0
 40
1
 40
1
 40
1
 40
1
 10
6.304563
 20
3.531628
 30
0.0
 10
6.399788
 20
4.131077
 30
0.0
 10
6.816592
 20
4.561932
 30
0.0
 10
7.409797
 20
4.672767
 30
0.0
  0
SPLINE
  5
16b
100
AcDbEntity
  8
0
 62
7
100
AcDbSpline
 70
8
 71
3
 72
8
 73
4
 74
0
 40
0
 40
0
 40
0
 40
0
 40
1
 40
1
 40
1
 40
1
 10
7.409797
 20
4.672767
 30
0.0
 10
7.732938
 20
4.732088
 30
0.0
 10
8.031101
 20
4.682134
 30
0.0
 10
8.274627
 20
4.438607
 30
0.0
  0
SPLINE
  5
16c
100
AcDbEntity
  8
0
 62
7
100
AcDbSpline
 70
8
 71
3
 72
8
 73
4
 74
0
 40
0
 40
0
 40
0
 40
0
 40
1
 40
1
 40
1
 40
1
 10
8.274627
 20
4.438607
 30
0.0
 10
8.313654
 20
4.399581
 30
0.0
 10
8.315215
 20
4.379287
 30
0.0
 10
8.271506
 20
4.343382
 30
0.0
  0
SPLINE
  5
16d
100
AcDbEntity
  8
0
 62
7
100
AcDbSpline
 70
8
 71
3
 72
8
 73
4
 74
0
 40
0
 40
0
 40
0
 40
0
 40
1
 40
1
 40
1
 40
1
 10
8.271506
 20
4.343382
 30
0.0
 10
8.179403
 20
4.268451
 30
0.0
 10
8.090422
 20
4.185715
 30
0.0
 10
8.001442
 20
4.107661
 30
0.0
  0
SPLINE
  5
16e
100
AcDbEntity
  8
0
 62
7
100
AcDbSpline
 70
8
 71
3
 72
8
 73
4
 74
0
 40
0
 40
0
 40
0
 40
0
 40
1
 40
1
 40
1
 40
1
 10
8.001442
 20
4.107661
 30
0.0
 10
7.982708
 20
4.090490
 30
0.0
 10
7.967098
 20
4.070196
 30
0.0
 10
7.938999
 20
4.101417
 30
0.0
  0
SPLINE
  5
16f
100
AcDbEntity
  8
0
 62
7
100
AcDbSpline
 70
8
 71
3
 72
8
 73
4
 74
0
 40
0
 40
0
 40
0
 40
0
 40
1
 40
1
 40
1
 40
1
 10
7.938999
 20
4.101417
 30
0.0
 10
7.726694
 20
4.348066
 30
0.0
 10
7.348916
 20
4.293428
 30
0.0
 10
7.135050
 20
4.085807
 30
0.0
  0
SPLINE
  5
170
100
AcDbEntity
  8
0
 62
7
100
AcDbSpline
 70
8
 71
3
 72
8
 73
4
 74
0
 40
0
 40
0
 40
0
 40
0
 40
1
 40
1
 40
1
 40
1
 10
7.135050
 20
4.085807
 30
0.0
 10
6.899329
 20
3.857891
 30
0.0
 10
6.813471
 20
3.573777
 30
0.0
 10
6.866547
 20
3.253759
 30
0.0
  0
SPLINE
  5
171
100
AcDbEntity
  8
0
 62
7
100
AcDbSpline
 70
8
 71
3
 72
8
 73
4
 74
0
 40
0
 40
0
 40
0
 40
0
 40
1
 40
1
 40
1
 40
1
 10
6.866547
 20
3.253759
 30
0.0
 10
6.904013
 20
3.021160
 30
0.0
 10
7.125684
 20
2.894714
 30
0.0
 10
7.386382
 20
2.941546
 30
0.0
  0
SPLINE
  5
172
100
AcDbEntity
  8
0
 62
7
100
AcDbSpline
 70
8
 71
3
 72
8
 73
4
 74
0
 40
0
 40
0
 40
0
 40
0
 40
1
 40
1
 40
1
 40
1
 10
7.386382
 20
2.941546
 30
0.0
 10
7.514389
 20
2.964962
 30
0.0
 10
7.629908
 20
3.014916
 30
0.0
 10
7.732938
 20
3.094530
 30
0.0
  0
SPLINE
  5
173
100
AcDbEntity
  8
0
 62
7
100
AcDbSpline
 70
8
 71
3
 72
8
 73
4
 74
0
 40
0
 40
0
 40
0
 40
0
 40
1
 40
1
 40
1
 40
1
 10
7.732938
 20
3.094530
 30
0.0
 10
7.790698
 20
3.138240
 30
0.0
 10
7.832847
 20
3.135118
 30
0.0
 10
7.874995
 20
3.072675
 30
0.0
  0
SPLINE
  5
174
100
AcDbEntity
  8
0
 62
7
100
AcDbSpline
 70
8
 71
3
 72
8
 73
4
 74
0
 40
0
 40
0
 40
0
 40
0
 40
1
 40
1
 40
1
 40
1
 10
7.874995
 20
3.072675
 30
0.0
 10
7.920266
 20
3.005549
 30
0.0
 10
7.968659
 20
2.941546
 30
0.0
 10
8.020174
 20
2.880664
 30
0.0
  0
SPLINE
  5
175
100
AcDbEntity
  8
0
 62
7
100
AcDbSpline
 70
8
 71
3
 72
8
 73
4
 74
0
 40
0
 40
0
 40
0
 40
0
 40
1
 40
1
 40
1
 40
1
 10
8.020174
 20
2.880664
 30
0.0
 10
8.048273
 20
2.846321
 30
0.0
 10
8.046712
 20
2.827588
 30
0.0
 10
8.012368
 20
2.799489
 30
0.0
  0
SPLINE
  5
176
100
AcDbEntity
  8
0
 62
7
100
AcDbSpline
 70
8
 71
3
 72
8
 73
4
 74
0
 40
0
 40
0
 40
0
 40
0
 40
1
 40
1
 40
1
 40
1
 10
8.012368
 20
2.799489
 30
0.0
 10
7.778208
 20
2.601233
 30
0.0
 10
7.509705
 20
2.498203
 30
0.0
 10
7.180320
 20
2.495081
 30
0.0
  0
LWPOLYLINE
  5
177
100
AcDbEntity
  8
0
 62
7
100
AcDbPolyline
 90
2
 70
1
 10
1.810256
 20
5.278460
 30
0.0
 10
1.810256
 20
5.278461
 30
0.0
  0
SPLINE
  5
178
100
AcDbEntity
  8
0
 62
7
100
AcDbSpline
 70
8
 71
3
 72
8
 73
4
 74
0
 40
0
 40
0
 40
0
 40
0
 40
1
 40
1
 40
1
 40
1
 10
5.255527
 20
2.532547
 30
0.0
 10
5.041661
 20
2.532547
 30
0.0
 10
4.829356
 20
2.532547
 30
0.0
 10
4.615490
 20
2.532547
 30
0.0
  0
SPLINE
  5
179
100
AcDbEntity
  8
0
 62
7
100
AcDbSpline
 70
8
 71
3
 72
8
 73
4
 74
0
 40
0
 40
0
 40
0
 40
0
 40
1
 40
1
 40
1
 40
1
 10
4.615490
 20
2.532547
 30
0.0
 10
4.510899
 20
2.532547
 30
0.0
 10
4.495288
 20
2.551280
 30
0.0
 10
4.515582
 20
2.651187
 30
0.0
  0
SPLINE
  5
17a
100
AcDbEntity
  8
0
 62
7
100
AcDbSpline
 70
8
 71
3
 72
8
 73
4
 74
0
 40
0
 40
0
 40
0
 40
0
 40
1
 40
1
 40
1
 40
1
 10
4.515582
 20
2.651187
 30
0.0
 10
4.642028
 20
3.289663
 30
0.0
 10
4.770036
 20
3.928139
 30
0.0
 10
4.894921
 20
4.566615
 30
0.0
  0
SPLINE
  5
17b
100
AcDbEntity
  8
0
 62
7
100
AcDbSpline
 70
8
 71
3
 72
8
 73
4
 74
0
 40
0
 40
0
 40
0
 40
0
 40
1
 40
1
 40
1
 40
1
 10
4.894921
 20
4.566615
 30
0.0
 10
4.907409
 20
4.630618
 30
0.0
 10
4.929265
 20
4.655595
 30
0.0
 10
4.999512
 20
4.652473
 30
0.0
  0
SPLINE
  5
17c
100
AcDbEntity
  8
0
 62
7
100
AcDbSpline
 70
8
 71
3
 72
8
 73
4
 74
0
 40
0
 40
0
 40
0
 40
0
 40
1
 40
1
 40
1
 40
1
 10
4.999512
 20
4.652473
 30
0.0
 10
5.116592
 20
4.646229
 30
0.0
 10
5.233672
 20
4.650913
 30
0.0
 10
5.350752
 20
4.650913
 30
0.0
  0
SPLINE
  5
17d
100
AcDbEntity
  8
0
 62
7
100
AcDbSpline
 70
8
 71
3
 72
8
 73
4
 74
0
 40
0
 40
0
 40
0
 40
0
 40
1
 40
1
 40
1
 40
1
 10
5.350752
 20
4.650913
 30
0.0
 10
5.438172
 20
4.650913
 30
0.0
 10
5.456904
 20
4.629058
 30
0.0
 10
5.439733
 20
4.541638
 30
0.0
  0
SPLINE
  5
17e
100
AcDbEntity
  8
0
 62
7
100
AcDbSpline
 70
8
 71
3
 72
8
 73
4
 74
0
 40
0
 40
0
 40
0
 40
0
 40
1
 40
1
 40
1
 40
1
 10
5.439733
 20
4.541638
 30
0.0
 10
5.355435
 20
4.117028
 30
0.0
 10
5.271138
 20
3.692418
 30
0.0
 10
5.185279
 20
3.267809
 30
0.0
  0
SPLINE
  5
17f
100
AcDbEntity
  8
0
 62
7
100
AcDbSpline
 70
8
 71
3
 72
8
 73
4
 74
0
 40
0
 40
0
 40
0
 40
0
 40
1
 40
1
 40
1
 40
1
 10
5.185279
 20
3.267809
 30
0.0
 10
5.169669
 20
3.186633
 30
0.0
 10
5.155619
 20
3.103897
 30
0.0
 10
5.135325
 20
3.024282
 30
0.0
  0
SPLINE
  5
180
100
AcDbEntity
  8
0
 62
7
100
AcDbSpline
 70
8
 71
3
 72
8
 73
4
 74
0
 40
0
 40
0
 40
0
 40
0
 40
1
 40
1
 40
1
 40
1
 10
5.135325
 20
3.024282
 30
0.0
 10
5.121276
 20
2.969645
 30
0.0
 10
5.141568
 20
2.958718
 30
0.0
 10
5.191523
 20
2.958718
 30
0.0
  0
SPLINE
  5
181
100
AcDbEntity
  8
0
 62
7
100
AcDbSpline
 70
8
 71
3
 72
8
 73
4
 74
0
 40
0
 40
0
 40
0
 40
0
 40
1
 40
1
 40
1
 40
1
 10
5.191523
 20
2.958718
 30
0.0
 10
5.441294
 20
2.960270
 30
0.0
 10
5.691064
 20
2.960270
 30
0.0
 10
5.940835
 20
2.960270
 30
0.0
  0
SPLINE
  5
182
100
AcDbEntity
  8
0
 62
7
100
AcDbSpline
 70
8
 71
3
 72
8
 73
4
 74
0
 40
0
 40
0
 40
0
 40
0
 40
1
 40
1
 40
1
 40
1
 10
5.940835
 20
2.960270
 30
0.0
 10
6.032938
 20
2.960270
 30
0.0
 10
6.051671
 20
2.938415
 30
0.0
 10
6.034499
 20
2.847873
 30
0.0
  0
SPLINE
  5
183
100
AcDbEntity
  8
0
 62
7
100
AcDbSpline
 70
8
 71
3
 72
8
 73
4
 74
0
 40
0
 40
0
 40
0
 40
0
 40
1
 40
1
 40
1
 40
1
 10
6.034499
 20
2.847873
 30
0.0
 10
6.018889
 20
2.760454
 30
0.0
 10
5.998594
 20
2.674595
 30
0.0
 10
5.984545
 20
2.588736
 30
0.0
  0
SPLINE
  5
184
100
AcDbEntity
  8
0
 62
7
100
AcDbSpline
 70
8
 71
3
 72
8
 73
4
 74
0
 40
0
 40
0
 40
0
 40
0
 40
1
 40
1
 40
1
 40
1
 10
5.984545
 20
2.588736
 30
0.0
 10
5.976738
 20
2.545026
 30
0.0
 10
5.958007
 20
2.530977
 30
0.0
 10
5.912736
 20
2.530977
 30
0.0
  0
SPLINE
  5
185
100
AcDbEntity
  8
0
 62
7
100
AcDbSpline
 70
8
 71
3
 72
8
 73
4
 74
0
 40
0
 40
0
 40
0
 40
0
 40
1
 40
1
 40
1
 40
1
 10
5.912736
 20
2.530977
 30
0.0
 10
5.692625
 20
2.534098
 30
0.0
 10
5.474076
 20
2.532529
 30
0.0
 10
5.255527
 20
2.532529
 30
0.0
  0
LWPOLYLINE
  5
186
100
AcDbEntity
  8
0
 62
7
100
AcDbPolyline
 90
2
 70
1
 10
7.180320
 20
2.495081
 30
0.0
 10
7.180321
 20
2.495081
 30
0.0
  0
SPLINE
  5
187
100
AcDbEntity
  8
0
 62
7
100
AcDbSpline
 70
8
 71
3
 72
8
 73
4
 74
0
 40
0
 40
0
 40
0
 40
0
 40
1
 40
1
 40
1
 40
1
 10
0.804930
 20
2.493520
 30
0.0
 10
0.561403
 20
2.499764
 30
0.0
 10
0.344415
 20
2.549718
 30
0.0
 10
0.192992
 20
2.754218
 30
0.0
  0
SPLINE
  5
188
100
AcDbEntity
  8
0
 62
7
100
AcDbSpline
 70
8
 71
3
 72
8
 73
4
 74
0
 40
0
 40
0
 40
0
 40
0
 40
1
 40
1
 40
1
 40
1
 10
0.192992
 20
2.754218
 30
0.0
 10
0.086840
 20
2.897836
 30
0.0
 10
0.086840
 20
2.900958
 30
0.0
 10
0.239824
 20
2.988378
 30
0.0
  0
SPLINE
  5
189
100
AcDbEntity
  8
0
 62
7
100
AcDbSpline
 70
8
 71
3
 72
8
 73
4
 74
0
 40
0
 40
0
 40
0
 40
0
 40
1
 40
1
 40
1
 40
1
 10
0.239824
 20
2.988378
 30
0.0
 10
0.313194
 20
3.032088
 30
0.0
 10
0.388125
 20
3.074236
 30
0.0
 10
0.463056
 20
3.116385
 30
0.0
  0
SPLINE
  5
18a
100
AcDbEntity
  8
0
 62
7
100
AcDbSpline
 70
8
 71
3
 72
8
 73
4
 74
0
 40
0
 40
0
 40
0
 40
0
 40
1
 40
1
 40
1
 40
1
 10
0.463056
 20
3.116385
 30
0.0
 10
0.511449
 20
3.144483
 30
0.0
 10
0.547354
 20
3.133555
 30
0.0
 10
0.572331
 20
3.085164
 30
0.0
  0
SPLINE
  5
18b
100
AcDbEntity
  8
0
 62
7
100
AcDbSpline
 70
8
 71
3
 72
8
 73
4
 74
0
 40
0
 40
0
 40
0
 40
0
 40
1
 40
1
 40
1
 40
1
 10
0.572331
 20
3.085164
 30
0.0
 10
0.634774
 20
2.961840
 30
0.0
 10
0.736243
 20
2.918130
 30
0.0
 10
0.868933
 20
2.930618
 30
0.0
  0
SPLINE
  5
18c
100
AcDbEntity
  8
0
 62
7
100
AcDbSpline
 70
8
 71
3
 72
8
 73
4
 74
0
 40
0
 40
0
 40
0
 40
0
 40
1
 40
1
 40
1
 40
1
 10
0.868933
 20
2.930618
 30
0.0
 10
1.000063
 20
2.943107
 30
0.0
 10
1.082799
 20
3.018038
 30
0.0
 10
1.121826
 20
3.139801
 30
0.0
  0
SPLINE
  5
18d
100
AcDbEntity
  8
0
 62
7
100
AcDbSpline
 70
8
 71
3
 72
8
 73
4
 74
0
 40
0
 40
0
 40
0
 40
0
 40
1
 40
1
 40
1
 40
1
 10
1.121826
 20
3.139801
 30
0.0
 10
1.188952
 20
3.342739
 30
0.0
 10
1.213929
 20
3.555044
 30
0.0
 10
1.257639
 20
3.762666
 30
0.0
  0
SPLINE
  5
18e
100
AcDbEntity
  8
0
 62
7
100
AcDbSpline
 70
8
 71
3
 72
8
 73
4
 74
0
 40
0
 40
0
 40
0
 40
0
 40
1
 40
1
 40
1
 40
1
 10
1.257639
 20
3.762666
 30
0.0
 10
1.315398
 20
4.034291
 30
0.0
 10
1.366913
 20
4.307478
 30
0.0
 10
1.418428
 20
4.579103
 30
0.0
  0
SPLINE
  5
18f
100
AcDbEntity
  8
0
 62
7
100
AcDbSpline
 70
8
 71
3
 72
8
 73
4
 74
0
 40
0
 40
0
 40
0
 40
0
 40
1
 40
1
 40
1
 40
1
 10
1.418428
 20
4.579103
 30
0.0
 10
1.427795
 20
4.632179
 30
0.0
 10
1.448089
 20
4.650912
 30
0.0
 10
1.504287
 20
4.649351
 30
0.0
  0
SPLINE
  5
190
100
AcDbEntity
  8
0
 62
7
100
AcDbSpline
 70
8
 71
3
 72
8
 73
4
 74
0
 40
0
 40
0
 40
0
 40
0
 40
1
 40
1
 40
1
 40
1
 10
1.504287
 20
4.649351
 30
0.0
 10
1.626050
 20
4.644668
 30
0.0
 10
1.749374
 20
4.647790
 30
0.0
 10
1.871137
 20
4.647790
 30
0.0
  0
SPLINE
  5
191
100
AcDbEntity
  8
0
 62
7
100
AcDbSpline
 70
8
 71
3
 72
8
 73
4
 74
0
 40
0
 40
0
 40
0
 40
0
 40
1
 40
1
 40
1
 40
1
 10
1.871137
 20
4.647790
 30
0.0
 10
1.960118
 20
4.647790
 30
0.0
 10
1.977290
 20
4.627497
 30
0.0
 10
1.960118
 20
4.540077
 30
0.0
  0
SPLINE
  5
192
100
AcDbEntity
  8
0
 62
7
100
AcDbSpline
 70
8
 71
3
 72
8
 73
4
 74
0
 40
0
 40
0
 40
0
 40
0
 40
1
 40
1
 40
1
 40
1
 10
1.960118
 20
4.540077
 30
0.0
 10
1.880504
 20
4.140444
 30
0.0
 10
1.800889
 20
3.740811
 30
0.0
 10
1.721275
 20
3.341178
 30
0.0
  0
SPLINE
  5
193
100
AcDbEntity
  8
0
 62
7
100
AcDbSpline
 70
8
 71
3
 72
8
 73
4
 74
0
 40
0
 40
0
 40
0
 40
0
 40
1
 40
1
 40
1
 40
1
 10
1.721275
 20
3.341178
 30
0.0
 10
1.696298
 20
3.216293
 30
0.0
 10
1.674443
 20
3.091408
 30
0.0
 10
1.616684
 20
2.975889
 30
0.0
  0
SPLINE
  5
194
100
AcDbEntity
  8
0
 62
7
100
AcDbSpline
 70
8
 71
3
 72
8
 73
4
 74
0
 40
0
 40
0
 40
0
 40
0
 40
1
 40
1
 40
1
 40
1
 10
1.616684
 20
2.975889
 30
0.0
 10
1.444966
 20
2.644943
 30
0.0
 10
1.162414
 20
2.501325
 30
0.0
 10
0.804930
 20
2.493520
 30
0.0
  0
LWPOLYLINE
  5
195
100
AcDbEntity
  8
0
 62
7
100
AcDbPolyline
 90
2
 70
1
 10
5.255527
 20
2.532529
 30
0.0
 10
5.255527
 20
2.532547
 30
0.0
  0
SPLINE
  5
196
100
AcDbEntity
  8
0
 62
7
100
AcDbSpline
 70
8
 71
3
 72
8
 73
4
 74
0
 40
0
 40
0
 40
0
 40
0
 40
1
 40
1
 40
1
 40
1
 10
29.450479
 20
3.306835
 30
0.0
 10
29.481701
 20
3.289664
 30
0.0
 10
29.501996
 20
3.277175
 30
0.0
 10
29.522287
 20
3.266247
 30
0.0
  0
SPLINE
  5
197
100
AcDbEntity
  8
0
 62
7
100
AcDbSpline
 70
8
 71
3
 72
8
 73
4
 74
0
 40
0
 40
0
 40
0
 40
0
 40
1
 40
1
 40
1
 40
1
 10
29.522287
 20
3.266247
 30
0.0
 10
29.775181
 20
3.128873
 30
0.0
 10
29.886015
 20
2.907202
 30
0.0
 10
29.864163
 20
2.619966
 30
0.0
  0
SPLINE
  5
198
100
AcDbEntity
  8
0
 62
7
100
AcDbSpline
 70
8
 71
3
 72
8
 73
4
 74
0
 40
0
 40
0
 40
0
 40
0
 40
1
 40
1
 40
1
 40
1
 10
29.864163
 20
2.619966
 30
0.0
 10
29.831380
 20
2.187551
 30
0.0
 10
29.583171
 20
1.917487
 30
0.0
 10
29.210076
 20
1.744208
 30
0.0
  0
SPLINE
  5
199
100
AcDbEntity
  8
0
 62
7
100
AcDbSpline
 70
8
 71
3
 72
8
 73
4
 74
0
 40
0
 40
0
 40
0
 40
0
 40
1
 40
1
 40
1
 40
1
 10
29.210076
 20
1.744208
 30
0.0
 10
28.897862
 20
1.599029
 30
0.0
 10
28.565356
 20
1.549075
 30
0.0
 10
28.225042
 20
1.539709
 30
0.0
  0
SPLINE
  5
19a
100
AcDbEntity
  8
0
 62
7
100
AcDbSpline
 70
8
 71
3
 72
8
 73
4
 74
0
 40
0
 40
0
 40
0
 40
0
 40
1
 40
1
 40
1
 40
1
 10
28.225042
 20
1.539709
 30
0.0
 10
27.670865
 20
1.524099
 30
0.0
 10
27.116687
 20
1.536587
 30
0.0
 10
26.562508
 20
1.533463
 30
0.0
  0
SPLINE
  5
19b
100
AcDbEntity
  8
0
 62
7
100
AcDbSpline
 70
8
 71
3
 72
8
 73
4
 74
0
 40
0
 40
0
 40
0
 40
0
 40
1
 40
1
 40
1
 40
1
 10
26.562508
 20
1.533463
 30
0.0
 10
26.471967
 20
1.533463
 30
0.0
 10
26.409524
 20
1.611517
 30
0.0
 10
26.431379
 20
1.697375
 30
0.0
  0
SPLINE
  5
19c
100
AcDbEntity
  8
0
 62
7
100
AcDbSpline
 70
8
 71
3
 72
8
 73
4
 74
0
 40
0
 40
0
 40
0
 40
0
 40
1
 40
1
 40
1
 40
1
 10
26.431379
 20
1.697375
 30
0.0
 10
26.698321
 20
2.738606
 30
0.0
 10
26.965263
 20
3.779836
 30
0.0
 10
27.232205
 20
4.821067
 30
0.0
  0
SPLINE
  5
19d
100
AcDbEntity
  8
0
 62
7
100
AcDbSpline
 70
8
 71
3
 72
8
 73
4
 74
0
 40
0
 40
0
 40
0
 40
0
 40
1
 40
1
 40
1
 40
1
 10
27.232205
 20
4.821067
 30
0.0
 10
27.243133
 20
4.866338
 30
0.0
 10
27.257182
 20
4.885071
 30
0.0
 10
27.308698
 20
4.885071
 30
0.0
  0
SPLINE
  5
19e
100
AcDbEntity
  8
0
 62
7
100
AcDbSpline
 70
8
 71
3
 72
8
 73
4
 74
0
 40
0
 40
0
 40
0
 40
0
 40
1
 40
1
 40
1
 40
1
 10
27.308698
 20
4.885071
 30
0.0
 10
27.797311
 20
4.881948
 30
0.0
 10
28.287486
 20
4.886631
 30
0.0
 10
28.776100
 20
4.878826
 30
0.0
  0
SPLINE
  5
19f
100
AcDbEntity
  8
0
 62
7
100
AcDbSpline
 70
8
 71
3
 72
8
 73
4
 74
0
 40
0
 40
0
 40
0
 40
0
 40
1
 40
1
 40
1
 40
1
 10
28.776100
 20
4.878826
 30
0.0
 10
29.039919
 20
4.874143
 30
0.0
 10
29.300616
 20
4.836678
 30
0.0
 10
29.542582
 20
4.724281
 30
0.0
  0
SPLINE
  5
1a0
100
AcDbEntity
  8
0
 62
7
100
AcDbSpline
 70
8
 71
3
 72
8
 73
4
 74
0
 40
0
 40
0
 40
0
 40
0
 40
1
 40
1
 40
1
 40
1
 10
29.542582
 20
4.724281
 30
0.0
 10
29.829819
 20
4.591590
 30
0.0
 10
30.010902
 20
4.385530
 30
0.0
 10
30.001535
 20
4.048340
 30
0.0
  0
SPLINE
  5
1a1
100
AcDbEntity
  8
0
 62
7
100
AcDbSpline
 70
8
 71
3
 72
8
 73
4
 74
0
 40
0
 40
0
 40
0
 40
0
 40
1
 40
1
 40
1
 40
1
 10
30.001535
 20
4.048340
 30
0.0
 10
29.992165
 20
3.717394
 30
0.0
 10
29.823574
 20
3.494161
 30
0.0
 10
29.534776
 20
3.348982
 30
0.0
  0
SPLINE
  5
1a2
100
AcDbEntity
  8
0
 62
7
100
AcDbSpline
 70
8
 71
3
 72
8
 73
4
 74
0
 40
0
 40
0
 40
0
 40
0
 40
1
 40
1
 40
1
 40
1
 10
29.534776
 20
3.348982
 30
0.0
 10
29.509799
 20
3.336494
 30
0.0
 10
29.486383
 20
3.325566
 30
0.0
 10
29.450479
 20
3.306833
 30
0.0
  0
LWPOLYLINE
  5
1a3
100
AcDbEntity
  8
0
 62
7
100
AcDbPolyline
 90
2
 70
1
 10
0.804930
 20
2.493520
 30
0.0
 10
0.804930
 20
2.493520
 30
0.0
  0
SPLINE
  5
1a4
100
AcDbEntity
  8
0
 62
7
100
AcDbSpline
 70
8
 71
3
 72
8
 73
4
 74
0
 40
0
 40
0
 40
0
 40
0
 40
1
 40
1
 40
1
 40
1
 10
28.170406
 20
2.296826
 30
0.0
 10
28.328072
 20
2.306192
 30
0.0
 10
28.485742
 20
2.329608
 30
0.0
 10
28.624677
 20
2.418589
 30
0.0
  0
SPLINE
  5
1a5
100
AcDbEntity
  8
0
 62
7
100
AcDbSpline
 70
8
 71
3
 72
8
 73
4
 74
0
 40
0
 40
0
 40
0
 40
0
 40
1
 40
1
 40
1
 40
1
 10
28.624677
 20
2.418589
 30
0.0
 10
28.730829
 20
2.487276
 30
0.0
 10
28.783904
 20
2.598111
 30
0.0
 10
28.760488
 20
2.710508
 30
0.0
  0
SPLINE
  5
1a6
100
AcDbEntity
  8
0
 62
7
100
AcDbSpline
 70
8
 71
3
 72
8
 73
4
 74
0
 40
0
 40
0
 40
0
 40
0
 40
1
 40
1
 40
1
 40
1
 10
28.760488
 20
2.710508
 30
0.0
 10
28.735511
 20
2.830710
 30
0.0
 10
28.640286
 20
2.863492
 30
0.0
 10
28.537256
 20
2.885347
 30
0.0
  0
SPLINE
  5
1a7
100
AcDbEntity
  8
0
 62
7
100
AcDbSpline
 70
8
 71
3
 72
8
 73
4
 74
0
 40
0
 40
0
 40
0
 40
0
 40
1
 40
1
 40
1
 40
1
 10
28.537256
 20
2.885347
 30
0.0
 10
28.315584
 20
2.930618
 30
0.0
 10
28.092352
 20
2.907203
 30
0.0
 10
27.869120
 20
2.915008
 30
0.0
  0
SPLINE
  5
1a8
100
AcDbEntity
  8
0
 62
7
100
AcDbSpline
 70
8
 71
3
 72
8
 73
4
 74
0
 40
0
 40
0
 40
0
 40
0
 40
1
 40
1
 40
1
 40
1
 10
27.869120
 20
2.915008
 30
0.0
 10
27.826971
 20
2.916560
 30
0.0
 10
27.823849
 20
2.886910
 30
0.0
 10
27.817605
 20
2.860370
 30
0.0
  0
SPLINE
  5
1a9
100
AcDbEntity
  8
0
 62
7
100
AcDbSpline
 70
8
 71
3
 72
8
 73
4
 74
0
 40
0
 40
0
 40
0
 40
0
 40
1
 40
1
 40
1
 40
1
 10
27.817605
 20
2.860370
 30
0.0
 10
27.769212
 20
2.674603
 30
0.0
 10
27.722380
 20
2.488837
 30
0.0
 10
27.672426
 20
2.295265
 30
0.0
  0
SPLINE
  5
1aa
100
AcDbEntity
  8
0
 62
7
100
AcDbSpline
 70
8
 71
3
 72
8
 73
4
 74
0
 40
0
 40
0
 40
0
 40
0
 40
1
 40
1
 40
1
 40
1
 10
27.672426
 20
2.295265
 30
0.0
 10
27.842582
 20
2.293712
 30
0.0
 10
28.006494
 20
2.287458
 30
0.0
 10
28.170406
 20
2.296817
 30
0.0
  0
LWPOLYLINE
  5
1ab
100
AcDbEntity
  8
0
 62
7
100
AcDbPolyline
 90
2
 70
1
 10
29.450479
 20
3.306833
 30
0.0
 10
29.450479
 20
3.306835
 30
0.0
  0
SPLINE
  5
1ac
100
AcDbEntity
  8
0
 62
7
100
AcDbSpline
 70
8
 71
3
 72
8
 73
4
 74
0
 40
0
 40
0
 40
0
 40
0
 40
1
 40
1
 40
1
 40
1
 10
28.257825
 20
3.631537
 30
0.0
 10
28.299974
 20
3.631537
 30
0.0
 10
28.340561
 20
3.629976
 30
0.0
 10
28.382711
 20
3.631537
 30
0.0
  0
SPLINE
  5
1ad
100
AcDbEntity
  8
0
 62
7
100
AcDbSpline
 70
8
 71
3
 72
8
 73
4
 74
0
 40
0
 40
0
 40
0
 40
0
 40
1
 40
1
 40
1
 40
1
 10
28.382711
 20
3.631537
 30
0.0
 10
28.521646
 20
3.637781
 30
0.0
 10
28.657457
 20
3.654953
 30
0.0
 10
28.774537
 20
3.740811
 30
0.0
  0
SPLINE
  5
1ae
100
AcDbEntity
  8
0
 62
7
100
AcDbSpline
 70
8
 71
3
 72
8
 73
4
 74
0
 40
0
 40
0
 40
0
 40
0
 40
1
 40
1
 40
1
 40
1
 10
28.774537
 20
3.740811
 30
0.0
 10
28.855712
 20
3.801693
 30
0.0
 10
28.886935
 20
3.884429
 30
0.0
 10
28.868201
 20
3.981215
 30
0.0
  0
SPLINE
  5
1af
100
AcDbEntity
  8
0
 62
7
100
AcDbSpline
 70
8
 71
3
 72
8
 73
4
 74
0
 40
0
 40
0
 40
0
 40
0
 40
1
 40
1
 40
1
 40
1
 10
28.868201
 20
3.981215
 30
0.0
 10
28.851042
 20
4.067074
 30
0.0
 10
28.774537
 20
4.085807
 30
0.0
 10
28.702728
 20
4.102978
 30
0.0
  0
SPLINE
  5
1b0
100
AcDbEntity
  8
0
 62
7
100
AcDbSpline
 70
8
 71
3
 72
8
 73
4
 74
0
 40
0
 40
0
 40
0
 40
0
 40
1
 40
1
 40
1
 40
1
 10
28.702728
 20
4.102978
 30
0.0
 10
28.527889
 20
4.142005
 30
0.0
 10
28.349928
 20
4.118589
 30
0.0
 10
28.173528
 20
4.124833
 30
0.0
  0
SPLINE
  5
1b1
100
AcDbEntity
  8
0
 62
7
100
AcDbSpline
 70
8
 71
3
 72
8
 73
4
 74
0
 40
0
 40
0
 40
0
 40
0
 40
1
 40
1
 40
1
 40
1
 10
28.173528
 20
4.124833
 30
0.0
 10
28.140746
 20
4.126394
 30
0.0
 10
28.134501
 20
4.104540
 30
0.0
 10
28.129818
 20
4.081123
 30
0.0
  0
SPLINE
  5
1b2
100
AcDbEntity
  8
0
 62
7
100
AcDbSpline
 70
8
 71
3
 72
8
 73
4
 74
0
 40
0
 40
0
 40
0
 40
0
 40
1
 40
1
 40
1
 40
1
 10
28.129818
 20
4.081123
 30
0.0
 10
28.095475
 20
3.948433
 30
0.0
 10
28.064253
 20
3.814181
 30
0.0
 10
28.026788
 20
3.681491
 30
0.0
  0
SPLINE
  5
1b3
100
AcDbEntity
  8
0
 62
7
100
AcDbSpline
 70
8
 71
3
 72
8
 73
4
 74
0
 40
0
 40
0
 40
0
 40
0
 40
1
 40
1
 40
1
 40
1
 10
28.026788
 20
3.681491
 30
0.0
 10
28.012739
 20
3.631537
 30
0.0
 10
28.034594
 20
3.629976
 30
0.0
 10
28.070498
 20
3.631537
 30
0.0
  0
SPLINE
  5
1b4
100
AcDbEntity
  8
0
 62
7
100
AcDbSpline
 70
8
 71
3
 72
8
 73
4
 74
0
 40
0
 40
0
 40
0
 40
0
 40
1
 40
1
 40
1
 40
1
 10
28.070498
 20
3.631537
 30
0.0
 10
28.132940
 20
3.633097
 30
0.0
 10
28.195383
 20
3.631537
 30
0.0
 10
28.257825
 20
3.631537
 30
0.0
  0
LWPOLYLINE
  5
1b5
100
AcDbEntity
  8
0
 62
7
100
AcDbPolyline
 90
2
 70
1
 10
28.170406
 20
2.296817
 30
0.0
 10
28.170406
 20
2.296826
 30
0.0
  0
SPLINE
  5
1b6
100
AcDbEntity
  8
0
 62
7
100
AcDbSpline
 70
8
 71
3
 72
8
 73
4
 74
0
 40
0
 40
0
 40
0
 40
0
 40
1
 40
1
 40
1
 40
1
 10
20.789689
 20
4.883511
 30
0.0
 10
21.041020
 20
4.877267
 30
0.0
 10
21.340745
 20
4.896000
 30
0.0
 10
21.638908
 20
4.867900
 30
0.0
  0
SPLINE
  5
1b7
100
AcDbEntity
  8
0
 62
7
100
AcDbSpline
 70
8
 71
3
 72
8
 73
4
 74
0
 40
0
 40
0
 40
0
 40
0
 40
1
 40
1
 40
1
 40
1
 10
21.638908
 20
4.867900
 30
0.0
 10
21.862140
 20
4.847607
 30
0.0
 10
22.082251
 20
4.811702
 30
0.0
 10
22.285189
 20
4.710233
 30
0.0
  0
SPLINE
  5
1b8
100
AcDbEntity
  8
0
 62
7
100
AcDbSpline
 70
8
 71
3
 72
8
 73
4
 74
0
 40
0
 40
0
 40
0
 40
0
 40
1
 40
1
 40
1
 40
1
 10
22.285189
 20
4.710233
 30
0.0
 10
22.653601
 20
4.527588
 30
0.0
 10
22.780047
 20
4.221619
 30
0.0
 10
22.759753
 20
3.854769
 30
0.0
  0
SPLINE
  5
1b9
100
AcDbEntity
  8
0
 62
7
100
AcDbSpline
 70
8
 71
3
 72
8
 73
4
 74
0
 40
0
 40
0
 40
0
 40
0
 40
1
 40
1
 40
1
 40
1
 10
22.759753
 20
3.854769
 30
0.0
 10
22.733216
 20
3.366155
 30
0.0
 10
22.452223
 20
3.053942
 30
0.0
 10
22.041663
 20
2.836954
 30
0.0
  0
SPLINE
  5
1ba
100
AcDbEntity
  8
0
 62
7
100
AcDbSpline
 70
8
 71
3
 72
8
 73
4
 74
0
 40
0
 40
0
 40
0
 40
0
 40
1
 40
1
 40
1
 40
1
 10
22.041663
 20
2.836954
 30
0.0
 10
21.752866
 20
2.683970
 30
0.0
 10
21.437531
 20
2.619966
 30
0.0
 10
21.115951
 20
2.587184
 30
0.0
  0
SPLINE
  5
1bb
100
AcDbEntity
  8
0
 62
7
100
AcDbSpline
 70
8
 71
3
 72
8
 73
4
 74
0
 40
0
 40
0
 40
0
 40
0
 40
1
 40
1
 40
1
 40
1
 10
21.115951
 20
2.587184
 30
0.0
 10
20.908329
 20
2.566889
 30
0.0
 10
20.700708
 20
2.568450
 30
0.0
 10
20.493086
 20
2.571574
 30
0.0
  0
SPLINE
  5
1bc
100
AcDbEntity
  8
0
 62
7
100
AcDbSpline
 70
8
 71
3
 72
8
 73
4
 74
0
 40
0
 40
0
 40
0
 40
0
 40
1
 40
1
 40
1
 40
1
 10
20.493086
 20
2.571574
 30
0.0
 10
20.435327
 20
2.571574
 30
0.0
 10
20.408789
 20
2.560646
 30
0.0
 10
20.393178
 20
2.498204
 30
0.0
  0
SPLINE
  5
1bd
100
AcDbEntity
  8
0
 62
7
100
AcDbSpline
 70
8
 71
3
 72
8
 73
4
 74
0
 40
0
 40
0
 40
0
 40
0
 40
1
 40
1
 40
1
 40
1
 10
20.393178
 20
2.498204
 30
0.0
 10
20.321369
 20
2.200041
 30
0.0
 10
20.240193
 20
1.904999
 30
0.0
 10
20.166824
 20
1.608397
 30
0.0
  0
SPLINE
  5
1be
100
AcDbEntity
  8
0
 62
7
100
AcDbSpline
 70
8
 71
3
 72
8
 73
4
 74
0
 40
0
 40
0
 40
0
 40
0
 40
1
 40
1
 40
1
 40
1
 10
20.166824
 20
1.608397
 30
0.0
 10
20.152775
 20
1.553759
 30
0.0
 10
20.135602
 20
1.531905
 30
0.0
 10
20.076282
 20
1.533466
 30
0.0
  0
SPLINE
  5
1bf
100
AcDbEntity
  8
0
 62
7
100
AcDbSpline
 70
8
 71
3
 72
8
 73
4
 74
0
 40
0
 40
0
 40
0
 40
0
 40
1
 40
1
 40
1
 40
1
 10
20.076282
 20
1.533466
 30
0.0
 10
19.792168
 20
1.536587
 30
0.0
 10
19.509615
 20
1.535018
 30
0.0
 10
19.225501
 20
1.535018
 30
0.0
  0
SPLINE
  5
1c0
100
AcDbEntity
  8
0
 62
7
100
AcDbSpline
 70
8
 71
3
 72
8
 73
4
 74
0
 40
0
 40
0
 40
0
 40
0
 40
1
 40
1
 40
1
 40
1
 10
19.225501
 20
1.535018
 30
0.0
 10
19.136520
 20
1.535018
 30
0.0
 10
19.074078
 20
1.614632
 30
0.0
 10
19.097494
 20
1.700491
 30
0.0
  0
SPLINE
  5
1c1
100
AcDbEntity
  8
0
 62
7
100
AcDbSpline
 70
8
 71
3
 72
8
 73
4
 74
0
 40
0
 40
0
 40
0
 40
0
 40
1
 40
1
 40
1
 40
1
 10
19.097494
 20
1.700491
 30
0.0
 10
19.364436
 20
2.738599
 30
0.0
 10
19.631378
 20
3.776708
 30
0.0
 10
19.895198
 20
4.814816
 30
0.0
  0
SPLINE
  5
1c2
100
AcDbEntity
  8
0
 62
7
100
AcDbSpline
 70
8
 71
3
 72
8
 73
4
 74
0
 40
0
 40
0
 40
0
 40
0
 40
1
 40
1
 40
1
 40
1
 10
19.895198
 20
4.814816
 30
0.0
 10
19.910808
 20
4.872576
 30
0.0
 10
19.934225
 20
4.886625
 30
0.0
 10
19.988862
 20
4.885064
 30
0.0
  0
SPLINE
  5
1c3
100
AcDbEntity
  8
0
 62
7
100
AcDbSpline
 70
8
 71
3
 72
8
 73
4
 74
0
 40
0
 40
0
 40
0
 40
0
 40
1
 40
1
 40
1
 40
1
 10
19.988862
 20
4.885064
 30
0.0
 10
20.237072
 20
4.881942
 30
0.0
 10
20.489964
 20
4.883504
 30
0.0
 10
20.789689
 20
4.883504
 30
0.0
  0
LWPOLYLINE
  5
1c4
100
AcDbEntity
  8
0
 62
7
100
AcDbPolyline
 90
3
 70
1
 10
28.257825
 20
3.631537
 30
0.0
 10
28.257825
 20
3.631537
 30
0.0
 10
28.257825
 20
3.631537
 30
0.0
  0
SPLINE
  5
1c5
100
AcDbEntity
  8
0
 62
7
100
AcDbSpline
 70
8
 71
3
 72
8
 73
4
 74
0
 40
0
 40
0
 40
0
 40
0
 40
1
 40
1
 40
1
 40
1
 10
20.853692
 20
4.118589
 30
0.0
 10
20.819349
 20
4.120150
 30
0.0
 10
20.805299
 20
4.109223
 30
0.0
 10
20.795933
 20
4.073318
 30
0.0
  0
SPLINE
  5
1c6
100
AcDbEntity
  8
0
 62
7
100
AcDbSpline
 70
8
 71
3
 72
8
 73
4
 74
0
 40
0
 40
0
 40
0
 40
0
 40
1
 40
1
 40
1
 40
1
 10
20.795933
 20
4.073318
 30
0.0
 10
20.738173
 20
3.845402
 30
0.0
 10
20.680414
 20
3.615926
 30
0.0
 10
20.619533
 20
3.388010
 30
0.0
  0
SPLINE
  5
1c7
100
AcDbEntity
  8
0
 62
7
100
AcDbSpline
 70
8
 71
3
 72
8
 73
4
 74
0
 40
0
 40
0
 40
0
 40
0
 40
1
 40
1
 40
1
 40
1
 10
20.619533
 20
3.388010
 30
0.0
 10
20.608605
 20
3.344300
 30
0.0
 10
20.621085
 20
3.334934
 30
0.0
 10
20.663242
 20
3.334934
 30
0.0
  0
SPLINE
  5
1c8
100
AcDbEntity
  8
0
 62
7
100
AcDbSpline
 70
8
 71
3
 72
8
 73
4
 74
0
 40
0
 40
0
 40
0
 40
0
 40
1
 40
1
 40
1
 40
1
 10
20.663242
 20
3.334934
 30
0.0
 10
20.797494
 20
3.338055
 30
0.0
 10
20.933307
 20
3.330252
 30
0.0
 10
21.067558
 20
3.352107
 30
0.0
  0
SPLINE
  5
1c9
100
AcDbEntity
  8
0
 62
7
100
AcDbSpline
 70
8
 71
3
 72
8
 73
4
 74
0
 40
0
 40
0
 40
0
 40
0
 40
1
 40
1
 40
1
 40
1
 10
21.067558
 20
3.352107
 30
0.0
 10
21.233031
 20
3.378645
 30
0.0
 10
21.393821
 20
3.422355
 30
0.0
 10
21.512462
 20
3.550363
 30
0.0
  0
SPLINE
  5
1ca
100
AcDbEntity
  8
0
 62
7
100
AcDbSpline
 70
8
 71
3
 72
8
 73
4
 74
0
 40
0
 40
0
 40
0
 40
0
 40
1
 40
1
 40
1
 40
1
 10
21.512462
 20
3.550363
 30
0.0
 10
21.612370
 20
3.658076
 30
0.0
 10
21.643591
 20
3.787644
 30
0.0
 10
21.599881
 20
3.925018
 30
0.0
  0
SPLINE
  5
1cb
100
AcDbEntity
  8
0
 62
7
100
AcDbSpline
 70
8
 71
3
 72
8
 73
4
 74
0
 40
0
 40
0
 40
0
 40
0
 40
1
 40
1
 40
1
 40
1
 10
21.599881
 20
3.925018
 30
0.0
 10
21.559294
 20
4.051465
 30
0.0
 10
21.439092
 20
4.076442
 30
0.0
 10
21.326695
 20
4.098296
 30
0.0
  0
SPLINE
  5
1cc
100
AcDbEntity
  8
0
 62
7
100
AcDbSpline
 70
8
 71
3
 72
8
 73
4
 74
0
 40
0
 40
0
 40
0
 40
0
 40
1
 40
1
 40
1
 40
1
 10
21.326695
 20
4.098296
 30
0.0
 10
21.231470
 20
4.117029
 30
0.0
 10
21.136245
 20
4.118590
 30
0.0
 10
21.059753
 20
4.115468
 30
0.0
  0
SPLINE
  5
1cd
100
AcDbEntity
  8
0
 62
7
100
AcDbSpline
 70
8
 71
3
 72
8
 73
4
 74
0
 40
0
 40
0
 40
0
 40
0
 40
1
 40
1
 40
1
 40
1
 10
21.059753
 20
4.115468
 30
0.0
 10
20.978577
 20
4.118591
 30
0.0
 10
20.916135
 20
4.115468
 30
0.0
 10
20.853692
 20
4.118591
 30
0.0
  0
LWPOLYLINE
  5
1ce
100
AcDbEntity
  8
0
 62
7
100
AcDbPolyline
 90
2
 70
1
 10
20.789689
 20
4.883504
 30
0.0
 10
20.789689
 20
4.883511
 30
0.0
  0
SPLINE
  5
1cf
100
AcDbEntity
  8
0
 62
7
100
AcDbSpline
 70
8
 71
3
 72
8
 73
4
 74
0
 40
0
 40
0
 40
0
 40
0
 40
1
 40
1
 40
1
 40
1
 10
4.268934
 20
2.715191
 30
0.0
 10
4.122194
 20
2.524741
 30
0.0
 10
3.947354
 20
2.402978
 30
0.0
 10
3.741294
 20
2.326486
 30
0.0
  0
SPLINE
  5
1d0
100
AcDbEntity
  8
0
 62
7
100
AcDbSpline
 70
8
 71
3
 72
8
 73
4
 74
0
 40
0
 40
0
 40
0
 40
0
 40
1
 40
1
 40
1
 40
1
 10
3.741294
 20
2.326486
 30
0.0
 10
3.316684
 20
2.167257
 30
0.0
 10
2.882708
 20
2.154769
 30
0.0
 10
2.447170
 20
2.274971
 30
0.0
  0
SPLINE
  5
1d1
100
AcDbEntity
  8
0
 62
7
100
AcDbSpline
 70
8
 71
3
 72
8
 73
4
 74
0
 40
0
 40
0
 40
0
 40
0
 40
1
 40
1
 40
1
 40
1
 10
2.447170
 20
2.274971
 30
0.0
 10
1.935141
 20
2.417028
 30
0.0
 10
1.783718
 20
2.827588
 30
0.0
 10
1.874259
 20
3.255320
 30
0.0
  0
SPLINE
  5
1d2
100
AcDbEntity
  8
0
 62
7
100
AcDbSpline
 70
8
 71
3
 72
8
 73
4
 74
0
 40
0
 40
0
 40
0
 40
0
 40
1
 40
1
 40
1
 40
1
 10
1.874259
 20
3.255320
 30
0.0
 10
2.000706
 20
3.848525
 30
0.0
 10
2.508052
 20
4.302795
 30
0.0
 10
3.123112
 20
4.383970
 30
0.0
  0
SPLINE
  5
1d3
100
AcDbEntity
  8
0
 62
7
100
AcDbSpline
 70
8
 71
3
 72
8
 73
4
 74
0
 40
0
 40
0
 40
0
 40
0
 40
1
 40
1
 40
1
 40
1
 10
3.123112
 20
4.383970
 30
0.0
 10
3.341661
 20
4.413630
 30
0.0
 10
3.557088
 20
4.419875
 30
0.0
 10
3.774076
 20
4.369920
 30
0.0
  0
SPLINE
  5
1d4
100
AcDbEntity
  8
0
 62
7
100
AcDbSpline
 70
8
 71
3
 72
8
 73
4
 74
0
 40
0
 40
0
 40
0
 40
0
 40
1
 40
1
 40
1
 40
1
 10
3.774076
 20
4.369920
 30
0.0
 10
4.293911
 20
4.249718
 30
0.0
 10
4.526509
 20
3.800132
 30
0.0
 10
4.292350
 20
3.320884
 30
0.0
  0
SPLINE
  5
1d5
100
AcDbEntity
  8
0
 62
7
100
AcDbSpline
 70
8
 71
3
 72
8
 73
4
 74
0
 40
0
 40
0
 40
0
 40
0
 40
1
 40
1
 40
1
 40
1
 10
4.292350
 20
3.320884
 30
0.0
 10
4.098778
 20
2.925935
 30
0.0
 10
3.777198
 20
2.696458
 30
0.0
 10
3.319806
 20
2.694897
 30
0.0
  0
SPLINE
  5
1d6
100
AcDbEntity
  8
0
 62
7
100
AcDbSpline
 70
8
 71
3
 72
8
 73
4
 74
0
 40
0
 40
0
 40
0
 40
0
 40
1
 40
1
 40
1
 40
1
 10
3.319806
 20
2.694897
 30
0.0
 10
3.241753
 20
2.694897
 30
0.0
 10
3.168383
 20
2.704264
 30
0.0
 10
3.132478
 20
2.790122
 30
0.0
  0
SPLINE
  5
1d7
100
AcDbEntity
  8
0
 62
7
100
AcDbSpline
 70
8
 71
3
 72
8
 73
4
 74
0
 40
0
 40
0
 40
0
 40
0
 40
1
 40
1
 40
1
 40
1
 10
3.132478
 20
2.790122
 30
0.0
 10
3.113744
 20
2.833832
 30
0.0
 10
3.091890
 20
2.796368
 30
0.0
 10
3.079402
 20
2.788570
 30
0.0
  0
SPLINE
  5
1d8
100
AcDbEntity
  8
0
 62
7
100
AcDbSpline
 70
8
 71
3
 72
8
 73
4
 74
0
 40
0
 40
0
 40
0
 40
0
 40
1
 40
1
 40
1
 40
1
 10
3.079402
 20
2.788570
 30
0.0
 10
2.967005
 20
2.719883
 30
0.0
 10
2.846803
 20
2.691784
 30
0.0
 10
2.715674
 20
2.694906
 30
0.0
  0
SPLINE
  5
1d9
100
AcDbEntity
  8
0
 62
7
100
AcDbSpline
 70
8
 71
3
 72
8
 73
4
 74
0
 40
0
 40
0
 40
0
 40
0
 40
1
 40
1
 40
1
 40
1
 10
2.715674
 20
2.694906
 30
0.0
 10
2.465903
 20
2.702703
 30
0.0
 10
2.311358
 20
2.877542
 30
0.0
 10
2.337896
 20
3.125751
 30
0.0
  0
SPLINE
  5
1da
100
AcDbEntity
  8
0
 62
7
100
AcDbSpline
 70
8
 71
3
 72
8
 73
4
 74
0
 40
0
 40
0
 40
0
 40
0
 40
1
 40
1
 40
1
 40
1
 10
2.337896
 20
3.125751
 30
0.0
 10
2.375361
 20
3.478552
 30
0.0
 10
2.700063
 20
3.843841
 30
0.0
 10
3.048181
 20
3.923456
 30
0.0
  0
SPLINE
  5
1db
100
AcDbEntity
  8
0
 62
7
100
AcDbSpline
 70
8
 71
3
 72
8
 73
4
 74
0
 40
0
 40
0
 40
0
 40
0
 40
1
 40
1
 40
1
 40
1
 10
3.048181
 20
3.923456
 30
0.0
 10
3.135600
 20
3.943750
 30
0.0
 10
3.223020
 20
3.948433
 30
0.0
 10
3.312001
 20
3.929700
 30
0.0
  0
SPLINE
  5
1dc
100
AcDbEntity
  8
0
 62
7
100
AcDbSpline
 70
8
 71
3
 72
8
 73
4
 74
0
 40
0
 40
0
 40
0
 40
0
 40
1
 40
1
 40
1
 40
1
 10
3.312001
 20
3.929700
 30
0.0
 10
3.394737
 20
3.912528
 30
0.0
 10
3.461863
 20
3.873502
 30
0.0
 10
3.505573
 20
3.800132
 30
0.0
  0
SPLINE
  5
1dd
100
AcDbEntity
  8
0
 62
7
100
AcDbSpline
 70
8
 71
3
 72
8
 73
4
 74
0
 40
0
 40
0
 40
0
 40
0
 40
1
 40
1
 40
1
 40
1
 10
3.505573
 20
3.800132
 30
0.0
 10
3.514940
 20
3.804815
 30
0.0
 10
3.521183
 20
3.806376
 30
0.0
 10
3.521183
 20
3.807937
 30
0.0
  0
SPLINE
  5
1de
100
AcDbEntity
  8
0
 62
7
100
AcDbSpline
 70
8
 71
3
 72
8
 73
4
 74
0
 40
0
 40
0
 40
0
 40
0
 40
1
 40
1
 40
1
 40
1
 10
3.521183
 20
3.807937
 30
0.0
 10
3.541477
 20
3.896918
 30
0.0
 10
3.597675
 20
3.923456
 30
0.0
 10
3.686656
 20
3.914089
 30
0.0
  0
SPLINE
  5
1df
100
AcDbEntity
  8
0
 62
7
100
AcDbSpline
 70
8
 71
3
 72
8
 73
4
 74
0
 40
0
 40
0
 40
0
 40
0
 40
1
 40
1
 40
1
 40
1
 10
3.686656
 20
3.914089
 30
0.0
 10
3.758465
 20
3.906284
 30
0.0
 10
3.831835
 20
3.912529
 30
0.0
 10
3.916132
 20
3.912529
 30
0.0
  0
SPLINE
  5
1e0
100
AcDbEntity
  8
0
 62
7
100
AcDbSpline
 70
8
 71
3
 72
8
 73
4
 74
0
 40
0
 40
0
 40
0
 40
0
 40
1
 40
1
 40
1
 40
1
 10
3.916132
 20
3.912529
 30
0.0
 10
3.864617
 20
3.792327
 30
0.0
 10
3.814663
 20
3.678369
 30
0.0
 10
3.766270
 20
3.564411
 30
0.0
  0
SPLINE
  5
1e1
100
AcDbEntity
  8
0
 62
7
100
AcDbSpline
 70
8
 71
3
 72
8
 73
4
 74
0
 40
0
 40
0
 40
0
 40
0
 40
1
 40
1
 40
1
 40
1
 10
3.766270
 20
3.564411
 30
0.0
 10
3.689778
 20
3.388011
 30
0.0
 10
3.613285
 20
3.211610
 30
0.0
 10
3.536793
 20
3.035210
 30
0.0
  0
SPLINE
  5
1e2
100
AcDbEntity
  8
0
 62
7
100
AcDbSpline
 70
8
 71
3
 72
8
 73
4
 74
0
 40
0
 40
0
 40
0
 40
0
 40
1
 40
1
 40
1
 40
1
 10
3.536793
 20
3.035210
 30
0.0
 10
3.524305
 20
3.007112
 30
0.0
 10
3.505572
 20
2.975889
 30
0.0
 10
3.528987
 20
2.947790
 30
0.0
  0
SPLINE
  5
1e3
100
AcDbEntity
  8
0
 62
7
100
AcDbSpline
 70
8
 71
3
 72
8
 73
4
 74
0
 40
0
 40
0
 40
0
 40
0
 40
1
 40
1
 40
1
 40
1
 10
3.528987
 20
2.947790
 30
0.0
 10
3.555524
 20
2.915008
 30
0.0
 10
3.592991
 20
2.932181
 30
0.0
 10
3.622651
 20
2.944669
 30
0.0
  0
SPLINE
  5
1e4
100
AcDbEntity
  8
0
 62
7
100
AcDbSpline
 70
8
 71
3
 72
8
 73
4
 74
0
 40
0
 40
0
 40
0
 40
0
 40
1
 40
1
 40
1
 40
1
 10
3.622651
 20
2.944669
 30
0.0
 10
3.888032
 20
3.063310
 30
0.0
 10
4.072238
 20
3.256882
 30
0.0
 10
4.129997
 20
3.544118
 30
0.0
  0
SPLINE
  5
1e5
100
AcDbEntity
  8
0
 62
7
100
AcDbSpline
 70
8
 71
3
 72
8
 73
4
 74
0
 40
0
 40
0
 40
0
 40
0
 40
1
 40
1
 40
1
 40
1
 10
4.129997
 20
3.544118
 30
0.0
 10
4.187758
 20
3.826670
 30
0.0
 10
4.033213
 20
4.068635
 30
0.0
 10
3.736610
 20
4.142005
 30
0.0
  0
SPLINE
  5
1e6
100
AcDbEntity
  8
0
 62
7
100
AcDbSpline
 70
8
 71
3
 72
8
 73
4
 74
0
 40
0
 40
0
 40
0
 40
0
 40
1
 40
1
 40
1
 40
1
 10
3.736610
 20
4.142005
 30
0.0
 10
3.287024
 20
4.254402
 30
0.0
 10
2.857731
 20
4.191959
 30
0.0
 10
2.498686
 20
3.882868
 30
0.0
  0
SPLINE
  5
1e7
100
AcDbEntity
  8
0
 62
7
100
AcDbSpline
 70
8
 71
3
 72
8
 73
4
 74
0
 40
0
 40
0
 40
0
 40
0
 40
1
 40
1
 40
1
 40
1
 10
2.498686
 20
3.882868
 30
0.0
 10
2.241110
 20
3.661197
 30
0.0
 10
2.085003
 20
3.373961
 30
0.0
 10
2.103736
 20
3.021160
 30
0.0
  0
SPLINE
  5
1e8
100
AcDbEntity
  8
0
 62
7
100
AcDbSpline
 70
8
 71
3
 72
8
 73
4
 74
0
 40
0
 40
0
 40
0
 40
0
 40
1
 40
1
 40
1
 40
1
 10
2.103736
 20
3.021160
 30
0.0
 10
2.116225
 20
2.777634
 30
0.0
 10
2.242671
 20
2.593428
 30
0.0
 10
2.470586
 20
2.515375
 30
0.0
  0
SPLINE
  5
1e9
100
AcDbEntity
  8
0
 62
7
100
AcDbSpline
 70
8
 71
3
 72
8
 73
4
 74
0
 40
0
 40
0
 40
0
 40
0
 40
1
 40
1
 40
1
 40
1
 10
2.470586
 20
2.515375
 30
0.0
 10
2.990421
 20
2.338974
 30
0.0
 10
3.497767
 20
2.353024
 30
0.0
 10
3.961404
 20
2.688653
 30
0.0
  0
SPLINE
  5
1ea
100
AcDbEntity
  8
0
 62
7
100
AcDbSpline
 70
8
 71
3
 72
8
 73
4
 74
0
 40
0
 40
0
 40
0
 40
0
 40
1
 40
1
 40
1
 40
1
 10
3.961404
 20
2.688653
 30
0.0
 10
3.981698
 20
2.702702
 30
0.0
 10
3.998869
 20
2.713630
 30
0.0
 10
4.023847
 20
2.713630
 30
0.0
  0
SPLINE
  5
1eb
100
AcDbEntity
  8
0
 62
7
100
AcDbSpline
 70
8
 71
3
 72
8
 73
4
 74
0
 40
0
 40
0
 40
0
 40
0
 40
1
 40
1
 40
1
 40
1
 10
4.023847
 20
2.713630
 30
0.0
 10
4.098778
 20
2.715182
 30
0.0
 10
4.176831
 20
2.715182
 30
0.0
 10
4.268934
 20
2.715182
 30
0.0
  0
LWPOLYLINE
  5
1ec
100
AcDbEntity
  8
0
 62
7
100
AcDbPolyline
 90
2
 70
1
 10
20.853692
 20
4.118591
 30
0.0
 10
20.853692
 20
4.118589
 30
0.0
  0
SPLINE
  5
1ed
100
AcDbEntity
  8
0
 62
7
100
AcDbSpline
 70
8
 71
3
 72
8
 73
4
 74
0
 40
0
 40
0
 40
0
 40
0
 40
1
 40
1
 40
1
 40
1
 10
3.179310
 20
3.728323
 30
0.0
 10
3.126234
 20
3.726762
 30
0.0
 10
3.076280
 20
3.714273
 30
0.0
 10
3.031009
 20
3.687735
 30
0.0
  0
SPLINE
  5
1ee
100
AcDbEntity
  8
0
 62
7
100
AcDbSpline
 70
8
 71
3
 72
8
 73
4
 74
0
 40
0
 40
0
 40
0
 40
0
 40
1
 40
1
 40
1
 40
1
 10
3.031009
 20
3.687735
 30
0.0
 10
2.798410
 20
3.550361
 30
0.0
 10
2.695380
 20
3.334934
 30
0.0
 10
2.679769
 20
3.075797
 30
0.0
  0
SPLINE
  5
1ef
100
AcDbEntity
  8
0
 62
7
100
AcDbSpline
 70
8
 71
3
 72
8
 73
4
 74
0
 40
0
 40
0
 40
0
 40
0
 40
1
 40
1
 40
1
 40
1
 10
2.679769
 20
3.075797
 30
0.0
 10
2.673525
 20
2.969645
 30
0.0
 10
2.767189
 20
2.897836
 30
0.0
 10
2.879586
 20
2.908763
 30
0.0
  0
SPLINE
  5
1f0
100
AcDbEntity
  8
0
 62
7
100
AcDbSpline
 70
8
 71
3
 72
8
 73
4
 74
0
 40
0
 40
0
 40
0
 40
0
 40
1
 40
1
 40
1
 40
1
 10
2.879586
 20
2.908763
 30
0.0
 10
2.931101
 20
2.913445
 30
0.0
 10
2.982616
 20
2.924373
 30
0.0
 10
3.027887
 20
2.952473
 30
0.0
  0
SPLINE
  5
1f1
100
AcDbEntity
  8
0
 62
7
100
AcDbSpline
 70
8
 71
3
 72
8
 73
4
 74
0
 40
0
 40
0
 40
0
 40
0
 40
1
 40
1
 40
1
 40
1
 10
3.027887
 20
2.952473
 30
0.0
 10
3.243314
 20
3.085164
 30
0.0
 10
3.335417
 20
3.292785
 30
0.0
 10
3.380688
 20
3.492602
 30
0.0
  0
SPLINE
  5
1f2
100
AcDbEntity
  8
0
 62
7
100
AcDbSpline
 70
8
 71
3
 72
8
 73
4
 74
0
 40
0
 40
0
 40
0
 40
0
 40
1
 40
1
 40
1
 40
1
 10
3.380688
 20
3.492602
 30
0.0
 10
3.382240
 20
3.658075
 30
0.0
 10
3.308879
 20
3.729884
 30
0.0
 10
3.179310
 20
3.728323
 30
0.0
  0
LWPOLYLINE
  5
1f3
100
AcDbEntity
  8
0
 62
7
100
AcDbPolyline
 90
2
 70
1
 10
4.268934
 20
2.715182
 30
0.0
 10
4.268934
 20
2.715191
 30
0.0
  0
LWPOLYLINE
  5
1f4
100
AcDbEntity
  8
0
 62
7
100
AcDbPolyline
 90
2
 70
1
 10
3.179310
 20
3.728323
 30
0.0
 10
3.179310
 20
3.728323
 30
0.0
  0
ENDSEC
  0
SECTION
  2
OBJECTS
  0
DICTIONARY
  5
C
330
0
100
AcDbDictionary
  3
ACAD_GROUP
350
D
  3
ACAD_MLINESTYLE
350
17
  0
DICTIONARY
  5
D
330
C
100
AcDbDictionary
  0
DICTIONARY
  5
1A
330
C
100
AcDbDictionary
  0
DICTIONARY
  5
17
330
C
100
AcDbDictionary
  3
STANDARD
350
18
  0
DICTIONARY
  5
19
330
C
100
AcDbDictionary
  0
ENDSEC
  0
EOF
