G04 EAGLE Gerber RS-274X export*
G75*
%MOMM*%
%FSLAX34Y34*%
%LPD*%
%INSilkscreen Bottom*%
%IPPOS*%
%AMOC8*
5,1,8,0,0,1.08239X$1,22.5*%
G01*
%ADD10C,0.127000*%


D10*
X344167Y576665D02*
X339864Y576665D01*
X339734Y576663D01*
X339604Y576657D01*
X339474Y576647D01*
X339345Y576634D01*
X339216Y576616D01*
X339088Y576595D01*
X338961Y576569D01*
X338834Y576540D01*
X338708Y576507D01*
X338584Y576470D01*
X338460Y576430D01*
X338338Y576385D01*
X338217Y576337D01*
X338098Y576286D01*
X337980Y576231D01*
X337864Y576172D01*
X337750Y576110D01*
X337637Y576044D01*
X337527Y575975D01*
X337419Y575903D01*
X337313Y575828D01*
X337210Y575749D01*
X337109Y575667D01*
X337010Y575583D01*
X336914Y575495D01*
X336821Y575404D01*
X336730Y575311D01*
X336642Y575215D01*
X336558Y575116D01*
X336476Y575015D01*
X336397Y574912D01*
X336322Y574806D01*
X336250Y574698D01*
X336181Y574588D01*
X336115Y574475D01*
X336053Y574361D01*
X335994Y574245D01*
X335939Y574127D01*
X335888Y574008D01*
X335840Y573887D01*
X335795Y573765D01*
X335755Y573641D01*
X335718Y573517D01*
X335685Y573391D01*
X335656Y573264D01*
X335630Y573137D01*
X335609Y573009D01*
X335591Y572880D01*
X335578Y572751D01*
X335568Y572621D01*
X335562Y572491D01*
X335560Y572361D01*
X335562Y572231D01*
X335568Y572101D01*
X335578Y571971D01*
X335591Y571842D01*
X335609Y571713D01*
X335630Y571585D01*
X335656Y571458D01*
X335685Y571331D01*
X335718Y571205D01*
X335755Y571081D01*
X335795Y570957D01*
X335840Y570835D01*
X335888Y570714D01*
X335939Y570595D01*
X335994Y570477D01*
X336053Y570361D01*
X336115Y570247D01*
X336181Y570134D01*
X336250Y570024D01*
X336322Y569916D01*
X336397Y569810D01*
X336476Y569707D01*
X336558Y569606D01*
X336642Y569507D01*
X336730Y569411D01*
X336821Y569318D01*
X336914Y569227D01*
X337010Y569139D01*
X337109Y569055D01*
X337210Y568973D01*
X337313Y568894D01*
X337419Y568819D01*
X337527Y568747D01*
X337637Y568678D01*
X337750Y568612D01*
X337864Y568550D01*
X337980Y568491D01*
X338098Y568436D01*
X338217Y568385D01*
X338338Y568337D01*
X338460Y568292D01*
X338584Y568252D01*
X338708Y568215D01*
X338834Y568182D01*
X338961Y568153D01*
X339088Y568127D01*
X339216Y568106D01*
X339345Y568088D01*
X339474Y568075D01*
X339604Y568065D01*
X339734Y568059D01*
X339864Y568057D01*
X339864Y568058D02*
X344167Y568058D01*
X344167Y583552D01*
X339864Y583552D01*
X339864Y583551D02*
X339748Y583549D01*
X339632Y583543D01*
X339516Y583533D01*
X339400Y583520D01*
X339285Y583502D01*
X339171Y583481D01*
X339057Y583455D01*
X338945Y583426D01*
X338833Y583393D01*
X338723Y583356D01*
X338614Y583316D01*
X338506Y583272D01*
X338400Y583224D01*
X338296Y583173D01*
X338193Y583118D01*
X338092Y583060D01*
X337994Y582999D01*
X337897Y582934D01*
X337803Y582866D01*
X337711Y582795D01*
X337621Y582720D01*
X337534Y582643D01*
X337450Y582563D01*
X337369Y582480D01*
X337290Y582394D01*
X337214Y582306D01*
X337141Y582215D01*
X337072Y582122D01*
X337005Y582027D01*
X336942Y581929D01*
X336882Y581830D01*
X336826Y581728D01*
X336773Y581624D01*
X336723Y581519D01*
X336678Y581412D01*
X336635Y581304D01*
X336597Y581194D01*
X336562Y581083D01*
X336531Y580971D01*
X336504Y580858D01*
X336480Y580744D01*
X336461Y580629D01*
X336445Y580514D01*
X336433Y580398D01*
X336425Y580282D01*
X336421Y580166D01*
X336421Y580050D01*
X336425Y579934D01*
X336433Y579818D01*
X336445Y579702D01*
X336461Y579587D01*
X336480Y579472D01*
X336504Y579358D01*
X336531Y579245D01*
X336562Y579133D01*
X336597Y579022D01*
X336635Y578912D01*
X336678Y578804D01*
X336723Y578697D01*
X336773Y578592D01*
X336826Y578488D01*
X336882Y578387D01*
X336942Y578287D01*
X337005Y578189D01*
X337072Y578094D01*
X337141Y578001D01*
X337214Y577910D01*
X337290Y577822D01*
X337369Y577736D01*
X337450Y577653D01*
X337534Y577573D01*
X337621Y577496D01*
X337711Y577421D01*
X337803Y577350D01*
X337897Y577282D01*
X337994Y577217D01*
X338092Y577156D01*
X338193Y577098D01*
X338296Y577043D01*
X338400Y576992D01*
X338506Y576944D01*
X338614Y576900D01*
X338723Y576860D01*
X338833Y576823D01*
X338945Y576790D01*
X339057Y576761D01*
X339171Y576735D01*
X339285Y576714D01*
X339400Y576696D01*
X339516Y576683D01*
X339632Y576673D01*
X339748Y576667D01*
X339864Y576665D01*
X327180Y574083D02*
X323307Y574083D01*
X327180Y574083D02*
X327289Y574081D01*
X327397Y574075D01*
X327506Y574065D01*
X327614Y574052D01*
X327721Y574034D01*
X327828Y574013D01*
X327934Y573987D01*
X328038Y573958D01*
X328142Y573925D01*
X328245Y573889D01*
X328346Y573848D01*
X328445Y573805D01*
X328543Y573757D01*
X328639Y573706D01*
X328733Y573652D01*
X328826Y573594D01*
X328916Y573533D01*
X329003Y573469D01*
X329089Y573401D01*
X329172Y573331D01*
X329252Y573257D01*
X329330Y573181D01*
X329404Y573102D01*
X329476Y573021D01*
X329545Y572936D01*
X329611Y572850D01*
X329674Y572761D01*
X329733Y572670D01*
X329789Y572577D01*
X329842Y572481D01*
X329891Y572384D01*
X329937Y572286D01*
X329979Y572185D01*
X330017Y572083D01*
X330052Y571980D01*
X330083Y571876D01*
X330110Y571771D01*
X330134Y571664D01*
X330153Y571557D01*
X330169Y571450D01*
X330181Y571342D01*
X330189Y571233D01*
X330193Y571124D01*
X330193Y571016D01*
X330189Y570907D01*
X330181Y570798D01*
X330169Y570690D01*
X330153Y570583D01*
X330134Y570476D01*
X330110Y570369D01*
X330083Y570264D01*
X330052Y570160D01*
X330017Y570057D01*
X329979Y569955D01*
X329937Y569854D01*
X329891Y569756D01*
X329842Y569659D01*
X329789Y569564D01*
X329733Y569470D01*
X329674Y569379D01*
X329611Y569290D01*
X329545Y569204D01*
X329476Y569119D01*
X329404Y569038D01*
X329330Y568959D01*
X329252Y568883D01*
X329172Y568809D01*
X329089Y568739D01*
X329003Y568671D01*
X328916Y568607D01*
X328826Y568546D01*
X328733Y568488D01*
X328639Y568434D01*
X328543Y568383D01*
X328445Y568335D01*
X328346Y568292D01*
X328245Y568251D01*
X328142Y568215D01*
X328038Y568182D01*
X327934Y568153D01*
X327828Y568127D01*
X327721Y568106D01*
X327614Y568088D01*
X327506Y568075D01*
X327397Y568065D01*
X327289Y568059D01*
X327180Y568057D01*
X327180Y568058D02*
X323307Y568058D01*
X323307Y575805D01*
X323309Y575904D01*
X323315Y576003D01*
X323324Y576101D01*
X323337Y576199D01*
X323354Y576297D01*
X323375Y576393D01*
X323399Y576489D01*
X323427Y576584D01*
X323459Y576678D01*
X323494Y576770D01*
X323533Y576861D01*
X323575Y576951D01*
X323621Y577038D01*
X323670Y577124D01*
X323722Y577209D01*
X323777Y577290D01*
X323836Y577370D01*
X323897Y577448D01*
X323961Y577523D01*
X324029Y577595D01*
X324099Y577665D01*
X324171Y577733D01*
X324246Y577797D01*
X324324Y577858D01*
X324404Y577917D01*
X324486Y577972D01*
X324570Y578024D01*
X324656Y578073D01*
X324743Y578119D01*
X324833Y578161D01*
X324924Y578200D01*
X325016Y578235D01*
X325110Y578267D01*
X325205Y578295D01*
X325301Y578319D01*
X325397Y578340D01*
X325495Y578357D01*
X325593Y578370D01*
X325691Y578379D01*
X325790Y578385D01*
X325889Y578387D01*
X329332Y578387D01*
X314147Y568058D02*
X310704Y568058D01*
X314147Y568058D02*
X314246Y568060D01*
X314345Y568066D01*
X314443Y568075D01*
X314541Y568088D01*
X314639Y568105D01*
X314735Y568126D01*
X314831Y568150D01*
X314926Y568178D01*
X315020Y568210D01*
X315112Y568245D01*
X315203Y568284D01*
X315293Y568326D01*
X315380Y568372D01*
X315466Y568421D01*
X315550Y568473D01*
X315632Y568528D01*
X315712Y568587D01*
X315790Y568648D01*
X315865Y568712D01*
X315937Y568780D01*
X316007Y568850D01*
X316075Y568922D01*
X316139Y568997D01*
X316200Y569075D01*
X316259Y569155D01*
X316314Y569237D01*
X316366Y569321D01*
X316415Y569407D01*
X316461Y569494D01*
X316503Y569584D01*
X316542Y569675D01*
X316577Y569767D01*
X316609Y569861D01*
X316637Y569956D01*
X316661Y570052D01*
X316682Y570148D01*
X316699Y570246D01*
X316712Y570344D01*
X316721Y570442D01*
X316727Y570541D01*
X316729Y570640D01*
X316729Y575805D01*
X316727Y575904D01*
X316721Y576003D01*
X316712Y576101D01*
X316699Y576199D01*
X316682Y576297D01*
X316661Y576393D01*
X316637Y576489D01*
X316609Y576584D01*
X316577Y576678D01*
X316542Y576770D01*
X316503Y576861D01*
X316461Y576951D01*
X316415Y577038D01*
X316366Y577124D01*
X316314Y577208D01*
X316259Y577290D01*
X316200Y577370D01*
X316139Y577448D01*
X316075Y577523D01*
X316007Y577595D01*
X315937Y577665D01*
X315865Y577733D01*
X315790Y577797D01*
X315712Y577858D01*
X315632Y577917D01*
X315550Y577972D01*
X315466Y578024D01*
X315380Y578073D01*
X315293Y578119D01*
X315203Y578161D01*
X315112Y578200D01*
X315020Y578235D01*
X314926Y578267D01*
X314831Y578295D01*
X314735Y578319D01*
X314639Y578340D01*
X314541Y578357D01*
X314443Y578370D01*
X314345Y578379D01*
X314246Y578385D01*
X314147Y578387D01*
X310704Y578387D01*
X304853Y583552D02*
X304853Y568058D01*
X304853Y578387D02*
X300549Y578387D01*
X300448Y578385D01*
X300346Y578379D01*
X300246Y578369D01*
X300145Y578355D01*
X300045Y578337D01*
X299946Y578316D01*
X299848Y578290D01*
X299751Y578261D01*
X299655Y578227D01*
X299561Y578190D01*
X299468Y578150D01*
X299377Y578106D01*
X299287Y578058D01*
X299200Y578007D01*
X299115Y577952D01*
X299031Y577894D01*
X298951Y577833D01*
X298872Y577768D01*
X298796Y577701D01*
X298723Y577631D01*
X298653Y577558D01*
X298586Y577482D01*
X298521Y577404D01*
X298460Y577323D01*
X298402Y577240D01*
X298348Y577154D01*
X298296Y577067D01*
X298248Y576977D01*
X298204Y576886D01*
X298164Y576793D01*
X298127Y576699D01*
X298093Y576603D01*
X298064Y576506D01*
X298038Y576408D01*
X298017Y576309D01*
X297999Y576209D01*
X297985Y576109D01*
X297975Y576008D01*
X297969Y575906D01*
X297967Y575805D01*
X297966Y575805D02*
X297966Y568058D01*
X288891Y568058D02*
X284587Y568058D01*
X288891Y568058D02*
X288990Y568060D01*
X289089Y568066D01*
X289187Y568075D01*
X289285Y568088D01*
X289383Y568105D01*
X289479Y568126D01*
X289575Y568150D01*
X289670Y568178D01*
X289764Y568210D01*
X289856Y568245D01*
X289947Y568284D01*
X290037Y568326D01*
X290124Y568372D01*
X290210Y568421D01*
X290294Y568473D01*
X290376Y568528D01*
X290456Y568587D01*
X290534Y568648D01*
X290609Y568712D01*
X290681Y568780D01*
X290751Y568850D01*
X290819Y568922D01*
X290883Y568997D01*
X290944Y569075D01*
X291003Y569155D01*
X291058Y569237D01*
X291110Y569321D01*
X291159Y569407D01*
X291205Y569494D01*
X291247Y569584D01*
X291286Y569675D01*
X291321Y569767D01*
X291353Y569861D01*
X291381Y569956D01*
X291405Y570052D01*
X291426Y570148D01*
X291443Y570246D01*
X291456Y570344D01*
X291465Y570442D01*
X291471Y570541D01*
X291473Y570640D01*
X291473Y574944D01*
X291471Y575060D01*
X291465Y575176D01*
X291455Y575292D01*
X291442Y575408D01*
X291424Y575523D01*
X291403Y575637D01*
X291377Y575751D01*
X291348Y575863D01*
X291315Y575975D01*
X291278Y576085D01*
X291238Y576194D01*
X291194Y576302D01*
X291146Y576408D01*
X291095Y576512D01*
X291040Y576615D01*
X290982Y576716D01*
X290921Y576814D01*
X290856Y576911D01*
X290788Y577005D01*
X290717Y577097D01*
X290642Y577187D01*
X290565Y577274D01*
X290485Y577358D01*
X290402Y577439D01*
X290316Y577518D01*
X290228Y577594D01*
X290137Y577667D01*
X290044Y577736D01*
X289949Y577803D01*
X289851Y577866D01*
X289752Y577926D01*
X289650Y577982D01*
X289546Y578035D01*
X289441Y578085D01*
X289334Y578130D01*
X289226Y578173D01*
X289116Y578211D01*
X289005Y578246D01*
X288893Y578277D01*
X288780Y578304D01*
X288666Y578328D01*
X288551Y578347D01*
X288436Y578363D01*
X288320Y578375D01*
X288204Y578383D01*
X288088Y578387D01*
X287972Y578387D01*
X287856Y578383D01*
X287740Y578375D01*
X287624Y578363D01*
X287509Y578347D01*
X287394Y578328D01*
X287280Y578304D01*
X287167Y578277D01*
X287055Y578246D01*
X286944Y578211D01*
X286834Y578173D01*
X286726Y578130D01*
X286619Y578085D01*
X286514Y578035D01*
X286410Y577982D01*
X286309Y577926D01*
X286209Y577866D01*
X286111Y577803D01*
X286016Y577736D01*
X285923Y577667D01*
X285832Y577594D01*
X285744Y577518D01*
X285658Y577439D01*
X285575Y577358D01*
X285495Y577274D01*
X285418Y577187D01*
X285343Y577097D01*
X285272Y577005D01*
X285204Y576911D01*
X285139Y576814D01*
X285078Y576716D01*
X285020Y576615D01*
X284965Y576512D01*
X284914Y576408D01*
X284866Y576302D01*
X284822Y576194D01*
X284782Y576085D01*
X284745Y575975D01*
X284712Y575863D01*
X284683Y575751D01*
X284657Y575637D01*
X284636Y575523D01*
X284618Y575408D01*
X284605Y575292D01*
X284595Y575176D01*
X284589Y575060D01*
X284587Y574944D01*
X284587Y573222D01*
X291473Y573222D01*
X278361Y570640D02*
X278361Y583552D01*
X278360Y570640D02*
X278358Y570541D01*
X278352Y570442D01*
X278343Y570344D01*
X278330Y570246D01*
X278313Y570148D01*
X278292Y570052D01*
X278268Y569956D01*
X278240Y569861D01*
X278208Y569767D01*
X278173Y569675D01*
X278134Y569584D01*
X278092Y569494D01*
X278046Y569407D01*
X277997Y569321D01*
X277945Y569237D01*
X277890Y569155D01*
X277831Y569075D01*
X277770Y568997D01*
X277706Y568922D01*
X277638Y568850D01*
X277568Y568780D01*
X277496Y568712D01*
X277421Y568648D01*
X277343Y568587D01*
X277263Y568528D01*
X277181Y568473D01*
X277097Y568421D01*
X277011Y568372D01*
X276924Y568326D01*
X276834Y568284D01*
X276743Y568245D01*
X276651Y568210D01*
X276557Y568178D01*
X276462Y568150D01*
X276366Y568126D01*
X276270Y568105D01*
X276172Y568088D01*
X276074Y568075D01*
X275976Y568066D01*
X275877Y568060D01*
X275778Y568058D01*
X270661Y571501D02*
X270661Y574944D01*
X270659Y575060D01*
X270653Y575176D01*
X270643Y575292D01*
X270630Y575408D01*
X270612Y575523D01*
X270591Y575637D01*
X270565Y575751D01*
X270536Y575863D01*
X270503Y575975D01*
X270466Y576085D01*
X270426Y576194D01*
X270382Y576302D01*
X270334Y576408D01*
X270283Y576512D01*
X270228Y576615D01*
X270170Y576716D01*
X270109Y576814D01*
X270044Y576911D01*
X269976Y577005D01*
X269905Y577097D01*
X269830Y577187D01*
X269753Y577274D01*
X269673Y577358D01*
X269590Y577439D01*
X269504Y577518D01*
X269416Y577594D01*
X269325Y577667D01*
X269232Y577736D01*
X269137Y577803D01*
X269039Y577866D01*
X268940Y577926D01*
X268838Y577982D01*
X268734Y578035D01*
X268629Y578085D01*
X268522Y578130D01*
X268414Y578173D01*
X268304Y578211D01*
X268193Y578246D01*
X268081Y578277D01*
X267968Y578304D01*
X267854Y578328D01*
X267739Y578347D01*
X267624Y578363D01*
X267508Y578375D01*
X267392Y578383D01*
X267276Y578387D01*
X267160Y578387D01*
X267044Y578383D01*
X266928Y578375D01*
X266812Y578363D01*
X266697Y578347D01*
X266582Y578328D01*
X266468Y578304D01*
X266355Y578277D01*
X266243Y578246D01*
X266132Y578211D01*
X266022Y578173D01*
X265914Y578130D01*
X265807Y578085D01*
X265702Y578035D01*
X265598Y577982D01*
X265497Y577926D01*
X265397Y577866D01*
X265299Y577803D01*
X265204Y577736D01*
X265111Y577667D01*
X265020Y577594D01*
X264932Y577518D01*
X264846Y577439D01*
X264763Y577358D01*
X264683Y577274D01*
X264606Y577187D01*
X264531Y577097D01*
X264460Y577005D01*
X264392Y576911D01*
X264327Y576814D01*
X264266Y576716D01*
X264208Y576615D01*
X264153Y576512D01*
X264102Y576408D01*
X264054Y576302D01*
X264010Y576194D01*
X263970Y576085D01*
X263933Y575975D01*
X263900Y575863D01*
X263871Y575751D01*
X263845Y575637D01*
X263824Y575523D01*
X263806Y575408D01*
X263793Y575292D01*
X263783Y575176D01*
X263777Y575060D01*
X263775Y574944D01*
X263775Y571501D01*
X263777Y571385D01*
X263783Y571269D01*
X263793Y571153D01*
X263806Y571037D01*
X263824Y570922D01*
X263845Y570808D01*
X263871Y570694D01*
X263900Y570582D01*
X263933Y570470D01*
X263970Y570360D01*
X264010Y570251D01*
X264054Y570143D01*
X264102Y570037D01*
X264153Y569933D01*
X264208Y569830D01*
X264266Y569729D01*
X264327Y569631D01*
X264392Y569534D01*
X264460Y569440D01*
X264531Y569348D01*
X264606Y569258D01*
X264683Y569171D01*
X264763Y569087D01*
X264846Y569006D01*
X264932Y568927D01*
X265020Y568851D01*
X265111Y568778D01*
X265204Y568709D01*
X265299Y568642D01*
X265397Y568579D01*
X265497Y568519D01*
X265598Y568463D01*
X265702Y568410D01*
X265807Y568360D01*
X265914Y568315D01*
X266022Y568272D01*
X266132Y568234D01*
X266243Y568199D01*
X266355Y568168D01*
X266468Y568141D01*
X266582Y568117D01*
X266697Y568098D01*
X266812Y568082D01*
X266928Y568070D01*
X267044Y568062D01*
X267160Y568058D01*
X267276Y568058D01*
X267392Y568062D01*
X267508Y568070D01*
X267624Y568082D01*
X267739Y568098D01*
X267854Y568117D01*
X267968Y568141D01*
X268081Y568168D01*
X268193Y568199D01*
X268304Y568234D01*
X268414Y568272D01*
X268522Y568315D01*
X268629Y568360D01*
X268734Y568410D01*
X268838Y568463D01*
X268940Y568519D01*
X269039Y568579D01*
X269137Y568642D01*
X269232Y568709D01*
X269325Y568778D01*
X269416Y568851D01*
X269504Y568927D01*
X269590Y569006D01*
X269673Y569087D01*
X269753Y569171D01*
X269830Y569258D01*
X269905Y569348D01*
X269976Y569440D01*
X270044Y569534D01*
X270109Y569631D01*
X270170Y569729D01*
X270228Y569830D01*
X270283Y569933D01*
X270334Y570037D01*
X270382Y570143D01*
X270426Y570251D01*
X270466Y570360D01*
X270503Y570470D01*
X270536Y570582D01*
X270565Y570694D01*
X270591Y570808D01*
X270612Y570922D01*
X270630Y571037D01*
X270643Y571153D01*
X270653Y571269D01*
X270659Y571385D01*
X270661Y571501D01*
X257204Y568058D02*
X257204Y578387D01*
X252039Y578387D01*
X252039Y576665D01*
X236000Y583552D02*
X236000Y568058D01*
X240304Y583552D02*
X231696Y583552D01*
X226064Y583552D02*
X226064Y568058D01*
X226064Y578387D02*
X221760Y578387D01*
X221659Y578385D01*
X221557Y578379D01*
X221457Y578369D01*
X221356Y578355D01*
X221256Y578337D01*
X221157Y578316D01*
X221059Y578290D01*
X220962Y578261D01*
X220866Y578227D01*
X220772Y578190D01*
X220679Y578150D01*
X220588Y578106D01*
X220498Y578058D01*
X220411Y578007D01*
X220326Y577952D01*
X220242Y577894D01*
X220162Y577833D01*
X220083Y577768D01*
X220007Y577701D01*
X219934Y577631D01*
X219864Y577558D01*
X219797Y577482D01*
X219732Y577404D01*
X219671Y577323D01*
X219613Y577240D01*
X219559Y577154D01*
X219507Y577067D01*
X219459Y576977D01*
X219415Y576886D01*
X219375Y576793D01*
X219338Y576699D01*
X219304Y576603D01*
X219275Y576506D01*
X219249Y576408D01*
X219228Y576309D01*
X219210Y576209D01*
X219196Y576109D01*
X219186Y576008D01*
X219180Y575906D01*
X219178Y575805D01*
X219178Y568058D01*
X210102Y568058D02*
X205799Y568058D01*
X210102Y568058D02*
X210201Y568060D01*
X210300Y568066D01*
X210398Y568075D01*
X210496Y568088D01*
X210594Y568105D01*
X210690Y568126D01*
X210786Y568150D01*
X210881Y568178D01*
X210975Y568210D01*
X211067Y568245D01*
X211158Y568284D01*
X211248Y568326D01*
X211335Y568372D01*
X211421Y568421D01*
X211505Y568473D01*
X211587Y568528D01*
X211667Y568587D01*
X211745Y568648D01*
X211820Y568712D01*
X211892Y568780D01*
X211962Y568850D01*
X212030Y568922D01*
X212094Y568997D01*
X212155Y569075D01*
X212214Y569155D01*
X212269Y569237D01*
X212321Y569321D01*
X212370Y569407D01*
X212416Y569494D01*
X212458Y569584D01*
X212497Y569675D01*
X212532Y569767D01*
X212564Y569861D01*
X212592Y569956D01*
X212616Y570052D01*
X212637Y570148D01*
X212654Y570246D01*
X212667Y570344D01*
X212676Y570442D01*
X212682Y570541D01*
X212684Y570640D01*
X212685Y570640D02*
X212685Y574944D01*
X212683Y575060D01*
X212677Y575176D01*
X212667Y575292D01*
X212654Y575408D01*
X212636Y575523D01*
X212615Y575637D01*
X212589Y575751D01*
X212560Y575863D01*
X212527Y575975D01*
X212490Y576085D01*
X212450Y576194D01*
X212406Y576302D01*
X212358Y576408D01*
X212307Y576512D01*
X212252Y576615D01*
X212194Y576716D01*
X212133Y576814D01*
X212068Y576911D01*
X212000Y577005D01*
X211929Y577097D01*
X211854Y577187D01*
X211777Y577274D01*
X211697Y577358D01*
X211614Y577439D01*
X211528Y577518D01*
X211440Y577594D01*
X211349Y577667D01*
X211256Y577736D01*
X211161Y577803D01*
X211063Y577866D01*
X210964Y577926D01*
X210862Y577982D01*
X210758Y578035D01*
X210653Y578085D01*
X210546Y578130D01*
X210438Y578173D01*
X210328Y578211D01*
X210217Y578246D01*
X210105Y578277D01*
X209992Y578304D01*
X209878Y578328D01*
X209763Y578347D01*
X209648Y578363D01*
X209532Y578375D01*
X209416Y578383D01*
X209300Y578387D01*
X209184Y578387D01*
X209068Y578383D01*
X208952Y578375D01*
X208836Y578363D01*
X208721Y578347D01*
X208606Y578328D01*
X208492Y578304D01*
X208379Y578277D01*
X208267Y578246D01*
X208156Y578211D01*
X208046Y578173D01*
X207938Y578130D01*
X207831Y578085D01*
X207726Y578035D01*
X207622Y577982D01*
X207521Y577926D01*
X207421Y577866D01*
X207323Y577803D01*
X207228Y577736D01*
X207135Y577667D01*
X207044Y577594D01*
X206956Y577518D01*
X206870Y577439D01*
X206787Y577358D01*
X206707Y577274D01*
X206630Y577187D01*
X206555Y577097D01*
X206484Y577005D01*
X206416Y576911D01*
X206351Y576814D01*
X206290Y576716D01*
X206232Y576615D01*
X206177Y576512D01*
X206126Y576408D01*
X206078Y576302D01*
X206034Y576194D01*
X205994Y576085D01*
X205957Y575975D01*
X205924Y575863D01*
X205895Y575751D01*
X205869Y575637D01*
X205848Y575523D01*
X205830Y575408D01*
X205817Y575292D01*
X205807Y575176D01*
X205801Y575060D01*
X205799Y574944D01*
X205799Y573222D01*
X212685Y573222D01*
X198510Y574083D02*
X194206Y572361D01*
X198510Y574083D02*
X198596Y574119D01*
X198681Y574160D01*
X198764Y574203D01*
X198845Y574251D01*
X198924Y574301D01*
X199001Y574355D01*
X199076Y574412D01*
X199148Y574472D01*
X199217Y574536D01*
X199284Y574602D01*
X199348Y574670D01*
X199409Y574742D01*
X199466Y574816D01*
X199521Y574892D01*
X199573Y574970D01*
X199621Y575051D01*
X199665Y575133D01*
X199707Y575218D01*
X199744Y575304D01*
X199778Y575391D01*
X199808Y575480D01*
X199835Y575570D01*
X199858Y575661D01*
X199877Y575753D01*
X199891Y575846D01*
X199903Y575939D01*
X199910Y576033D01*
X199913Y576126D01*
X199912Y576220D01*
X199907Y576314D01*
X199899Y576407D01*
X199886Y576500D01*
X199870Y576593D01*
X199849Y576684D01*
X199825Y576775D01*
X199797Y576865D01*
X199765Y576953D01*
X199730Y577040D01*
X199691Y577125D01*
X199649Y577209D01*
X199602Y577291D01*
X199553Y577370D01*
X199500Y577448D01*
X199444Y577523D01*
X199385Y577596D01*
X199323Y577667D01*
X199258Y577734D01*
X199190Y577799D01*
X199120Y577861D01*
X199047Y577920D01*
X198971Y577976D01*
X198894Y578029D01*
X198814Y578078D01*
X198732Y578124D01*
X198648Y578166D01*
X198563Y578205D01*
X198476Y578241D01*
X198388Y578272D01*
X198298Y578300D01*
X198207Y578324D01*
X198116Y578344D01*
X198023Y578361D01*
X197930Y578373D01*
X197837Y578382D01*
X197743Y578386D01*
X197649Y578387D01*
X197414Y578381D01*
X197180Y578369D01*
X196945Y578352D01*
X196711Y578328D01*
X196478Y578300D01*
X196246Y578265D01*
X196014Y578225D01*
X195783Y578180D01*
X195554Y578129D01*
X195326Y578073D01*
X195099Y578011D01*
X194874Y577943D01*
X194650Y577870D01*
X194429Y577792D01*
X194209Y577709D01*
X193991Y577620D01*
X193776Y577526D01*
X194206Y572361D02*
X194120Y572325D01*
X194035Y572284D01*
X193952Y572241D01*
X193871Y572193D01*
X193792Y572143D01*
X193715Y572089D01*
X193640Y572032D01*
X193568Y571972D01*
X193499Y571908D01*
X193432Y571842D01*
X193368Y571774D01*
X193307Y571702D01*
X193250Y571628D01*
X193195Y571552D01*
X193143Y571474D01*
X193095Y571393D01*
X193051Y571311D01*
X193009Y571226D01*
X192972Y571140D01*
X192938Y571053D01*
X192908Y570964D01*
X192881Y570874D01*
X192858Y570783D01*
X192839Y570691D01*
X192825Y570598D01*
X192813Y570505D01*
X192806Y570411D01*
X192803Y570318D01*
X192804Y570224D01*
X192809Y570130D01*
X192817Y570037D01*
X192830Y569944D01*
X192846Y569851D01*
X192867Y569760D01*
X192891Y569669D01*
X192919Y569579D01*
X192951Y569491D01*
X192986Y569404D01*
X193025Y569319D01*
X193067Y569235D01*
X193114Y569153D01*
X193163Y569074D01*
X193216Y568996D01*
X193272Y568921D01*
X193331Y568848D01*
X193393Y568777D01*
X193458Y568710D01*
X193526Y568645D01*
X193596Y568583D01*
X193669Y568524D01*
X193745Y568468D01*
X193822Y568415D01*
X193902Y568366D01*
X193984Y568320D01*
X194068Y568278D01*
X194153Y568239D01*
X194240Y568203D01*
X194328Y568172D01*
X194418Y568144D01*
X194509Y568120D01*
X194600Y568100D01*
X194693Y568083D01*
X194786Y568071D01*
X194879Y568062D01*
X194973Y568058D01*
X195067Y568057D01*
X195066Y568057D02*
X195412Y568067D01*
X195756Y568084D01*
X196101Y568109D01*
X196444Y568142D01*
X196787Y568184D01*
X197129Y568234D01*
X197469Y568291D01*
X197808Y568357D01*
X198146Y568431D01*
X198481Y568513D01*
X198814Y568602D01*
X199146Y568700D01*
X199474Y568805D01*
X199801Y568918D01*
X186943Y568058D02*
X186943Y578387D01*
X187373Y582691D02*
X187373Y583552D01*
X186513Y583552D01*
X186513Y582691D01*
X187373Y582691D01*
X179680Y574083D02*
X175376Y572361D01*
X179680Y574083D02*
X179766Y574119D01*
X179851Y574160D01*
X179934Y574203D01*
X180015Y574251D01*
X180094Y574301D01*
X180171Y574355D01*
X180246Y574412D01*
X180318Y574472D01*
X180387Y574536D01*
X180454Y574602D01*
X180518Y574670D01*
X180579Y574742D01*
X180636Y574816D01*
X180691Y574892D01*
X180743Y574970D01*
X180791Y575051D01*
X180835Y575133D01*
X180877Y575218D01*
X180914Y575304D01*
X180948Y575391D01*
X180978Y575480D01*
X181005Y575570D01*
X181028Y575661D01*
X181047Y575753D01*
X181061Y575846D01*
X181073Y575939D01*
X181080Y576033D01*
X181083Y576126D01*
X181082Y576220D01*
X181077Y576314D01*
X181069Y576407D01*
X181056Y576500D01*
X181040Y576593D01*
X181019Y576684D01*
X180995Y576775D01*
X180967Y576865D01*
X180935Y576953D01*
X180900Y577040D01*
X180861Y577125D01*
X180819Y577209D01*
X180772Y577291D01*
X180723Y577370D01*
X180670Y577448D01*
X180614Y577523D01*
X180555Y577596D01*
X180493Y577667D01*
X180428Y577734D01*
X180360Y577799D01*
X180290Y577861D01*
X180217Y577920D01*
X180141Y577976D01*
X180064Y578029D01*
X179984Y578078D01*
X179902Y578124D01*
X179818Y578166D01*
X179733Y578205D01*
X179646Y578241D01*
X179558Y578272D01*
X179468Y578300D01*
X179377Y578324D01*
X179286Y578344D01*
X179193Y578361D01*
X179100Y578373D01*
X179007Y578382D01*
X178913Y578386D01*
X178819Y578387D01*
X178584Y578381D01*
X178350Y578369D01*
X178115Y578352D01*
X177881Y578328D01*
X177648Y578300D01*
X177416Y578265D01*
X177184Y578225D01*
X176953Y578180D01*
X176724Y578129D01*
X176496Y578073D01*
X176269Y578011D01*
X176044Y577943D01*
X175820Y577870D01*
X175599Y577792D01*
X175379Y577709D01*
X175161Y577620D01*
X174946Y577526D01*
X175376Y572361D02*
X175290Y572325D01*
X175205Y572284D01*
X175122Y572241D01*
X175041Y572193D01*
X174962Y572143D01*
X174885Y572089D01*
X174810Y572032D01*
X174738Y571972D01*
X174669Y571908D01*
X174602Y571842D01*
X174538Y571774D01*
X174477Y571702D01*
X174420Y571628D01*
X174365Y571552D01*
X174313Y571474D01*
X174265Y571393D01*
X174221Y571311D01*
X174179Y571226D01*
X174142Y571140D01*
X174108Y571053D01*
X174078Y570964D01*
X174051Y570874D01*
X174028Y570783D01*
X174009Y570691D01*
X173995Y570598D01*
X173983Y570505D01*
X173976Y570411D01*
X173973Y570318D01*
X173974Y570224D01*
X173979Y570130D01*
X173987Y570037D01*
X174000Y569944D01*
X174016Y569851D01*
X174037Y569760D01*
X174061Y569669D01*
X174089Y569579D01*
X174121Y569491D01*
X174156Y569404D01*
X174195Y569319D01*
X174237Y569235D01*
X174284Y569153D01*
X174333Y569074D01*
X174386Y568996D01*
X174442Y568921D01*
X174501Y568848D01*
X174563Y568777D01*
X174628Y568710D01*
X174696Y568645D01*
X174766Y568583D01*
X174839Y568524D01*
X174915Y568468D01*
X174992Y568415D01*
X175072Y568366D01*
X175154Y568320D01*
X175238Y568278D01*
X175323Y568239D01*
X175410Y568203D01*
X175498Y568172D01*
X175588Y568144D01*
X175679Y568120D01*
X175770Y568100D01*
X175863Y568083D01*
X175956Y568071D01*
X176049Y568062D01*
X176143Y568058D01*
X176237Y568057D01*
X176236Y568057D02*
X176582Y568067D01*
X176926Y568084D01*
X177271Y568109D01*
X177614Y568142D01*
X177957Y568184D01*
X178299Y568234D01*
X178639Y568291D01*
X178978Y568357D01*
X179316Y568431D01*
X179651Y568513D01*
X179984Y568602D01*
X180316Y568700D01*
X180644Y568805D01*
X180971Y568918D01*
X155295Y583552D02*
X155173Y583550D01*
X155052Y583544D01*
X154930Y583535D01*
X154809Y583521D01*
X154689Y583504D01*
X154569Y583483D01*
X154450Y583459D01*
X154332Y583430D01*
X154214Y583398D01*
X154098Y583362D01*
X153983Y583323D01*
X153869Y583280D01*
X153756Y583233D01*
X153646Y583183D01*
X153536Y583130D01*
X153429Y583073D01*
X153323Y583013D01*
X153219Y582949D01*
X153117Y582882D01*
X153018Y582812D01*
X152921Y582739D01*
X152826Y582663D01*
X152733Y582584D01*
X152643Y582502D01*
X152556Y582417D01*
X152471Y582330D01*
X152389Y582240D01*
X152310Y582147D01*
X152234Y582052D01*
X152161Y581955D01*
X152091Y581856D01*
X152024Y581754D01*
X151960Y581650D01*
X151900Y581544D01*
X151843Y581437D01*
X151790Y581327D01*
X151740Y581217D01*
X151693Y581104D01*
X151650Y580990D01*
X151611Y580875D01*
X151575Y580759D01*
X151543Y580641D01*
X151514Y580523D01*
X151490Y580404D01*
X151469Y580284D01*
X151452Y580164D01*
X151438Y580043D01*
X151429Y579921D01*
X151423Y579800D01*
X151421Y579678D01*
X155295Y583551D02*
X155434Y583549D01*
X155573Y583543D01*
X155712Y583534D01*
X155850Y583520D01*
X155988Y583502D01*
X156125Y583481D01*
X156262Y583456D01*
X156398Y583427D01*
X156533Y583394D01*
X156668Y583358D01*
X156801Y583318D01*
X156933Y583274D01*
X157063Y583226D01*
X157193Y583175D01*
X157320Y583120D01*
X157447Y583062D01*
X157571Y583000D01*
X157694Y582935D01*
X157815Y582866D01*
X157934Y582794D01*
X158051Y582718D01*
X158165Y582640D01*
X158278Y582558D01*
X158388Y582473D01*
X158496Y582385D01*
X158601Y582294D01*
X158703Y582200D01*
X158803Y582104D01*
X158901Y582004D01*
X158995Y581902D01*
X159087Y581798D01*
X159175Y581690D01*
X159261Y581581D01*
X159343Y581469D01*
X159422Y581354D01*
X159498Y581238D01*
X159571Y581120D01*
X159641Y580999D01*
X159707Y580877D01*
X159769Y580752D01*
X159828Y580627D01*
X159884Y580499D01*
X159936Y580370D01*
X159984Y580240D01*
X160029Y580108D01*
X152712Y576665D02*
X152623Y576752D01*
X152537Y576842D01*
X152453Y576935D01*
X152372Y577030D01*
X152294Y577127D01*
X152219Y577227D01*
X152147Y577329D01*
X152078Y577433D01*
X152013Y577539D01*
X151950Y577647D01*
X151891Y577757D01*
X151835Y577869D01*
X151782Y577982D01*
X151733Y578096D01*
X151688Y578213D01*
X151645Y578330D01*
X151607Y578449D01*
X151572Y578568D01*
X151540Y578689D01*
X151512Y578811D01*
X151488Y578933D01*
X151468Y579056D01*
X151451Y579180D01*
X151438Y579304D01*
X151428Y579429D01*
X151423Y579553D01*
X151421Y579678D01*
X152712Y576665D02*
X160029Y568058D01*
X151421Y568058D01*
X145163Y575805D02*
X145159Y576110D01*
X145148Y576414D01*
X145130Y576719D01*
X145105Y577022D01*
X145072Y577325D01*
X145032Y577628D01*
X144985Y577929D01*
X144931Y578229D01*
X144869Y578527D01*
X144801Y578824D01*
X144725Y579120D01*
X144643Y579413D01*
X144553Y579704D01*
X144456Y579993D01*
X144353Y580280D01*
X144243Y580564D01*
X144126Y580846D01*
X144002Y581124D01*
X143872Y581400D01*
X143834Y581503D01*
X143794Y581605D01*
X143749Y581705D01*
X143701Y581804D01*
X143650Y581901D01*
X143596Y581996D01*
X143538Y582090D01*
X143477Y582181D01*
X143413Y582270D01*
X143346Y582357D01*
X143276Y582441D01*
X143203Y582523D01*
X143127Y582603D01*
X143049Y582680D01*
X142968Y582754D01*
X142884Y582825D01*
X142798Y582893D01*
X142710Y582959D01*
X142620Y583021D01*
X142527Y583080D01*
X142433Y583136D01*
X142337Y583189D01*
X142239Y583238D01*
X142139Y583284D01*
X142038Y583326D01*
X141935Y583365D01*
X141831Y583400D01*
X141726Y583432D01*
X141620Y583460D01*
X141513Y583484D01*
X141405Y583505D01*
X141297Y583522D01*
X141188Y583535D01*
X141078Y583544D01*
X140969Y583550D01*
X140859Y583552D01*
X140749Y583550D01*
X140640Y583544D01*
X140530Y583535D01*
X140421Y583522D01*
X140313Y583505D01*
X140205Y583484D01*
X140098Y583460D01*
X139992Y583432D01*
X139887Y583400D01*
X139783Y583365D01*
X139680Y583326D01*
X139579Y583284D01*
X139479Y583238D01*
X139381Y583189D01*
X139285Y583136D01*
X139191Y583080D01*
X139098Y583021D01*
X139008Y582959D01*
X138920Y582893D01*
X138834Y582825D01*
X138750Y582754D01*
X138669Y582680D01*
X138591Y582603D01*
X138515Y582524D01*
X138442Y582441D01*
X138372Y582357D01*
X138305Y582270D01*
X138241Y582181D01*
X138180Y582090D01*
X138122Y581996D01*
X138068Y581901D01*
X138017Y581804D01*
X137969Y581705D01*
X137924Y581605D01*
X137884Y581503D01*
X137846Y581400D01*
X137716Y581124D01*
X137592Y580846D01*
X137475Y580564D01*
X137365Y580280D01*
X137262Y579993D01*
X137165Y579704D01*
X137075Y579413D01*
X136993Y579120D01*
X136917Y578824D01*
X136849Y578527D01*
X136787Y578229D01*
X136733Y577929D01*
X136686Y577628D01*
X136646Y577325D01*
X136613Y577022D01*
X136588Y576719D01*
X136570Y576414D01*
X136559Y576110D01*
X136555Y575805D01*
X145163Y575805D02*
X145159Y575500D01*
X145148Y575196D01*
X145130Y574891D01*
X145105Y574588D01*
X145072Y574285D01*
X145032Y573982D01*
X144985Y573681D01*
X144931Y573381D01*
X144869Y573083D01*
X144801Y572786D01*
X144725Y572490D01*
X144643Y572197D01*
X144553Y571906D01*
X144456Y571617D01*
X144353Y571330D01*
X144243Y571046D01*
X144126Y570764D01*
X144002Y570486D01*
X143872Y570210D01*
X143872Y570209D02*
X143834Y570106D01*
X143794Y570004D01*
X143749Y569904D01*
X143701Y569805D01*
X143650Y569708D01*
X143596Y569613D01*
X143538Y569519D01*
X143477Y569428D01*
X143413Y569339D01*
X143346Y569252D01*
X143276Y569168D01*
X143203Y569085D01*
X143127Y569006D01*
X143049Y568929D01*
X142968Y568855D01*
X142884Y568784D01*
X142798Y568716D01*
X142710Y568650D01*
X142620Y568588D01*
X142527Y568529D01*
X142433Y568473D01*
X142337Y568420D01*
X142239Y568371D01*
X142139Y568325D01*
X142038Y568283D01*
X141935Y568244D01*
X141831Y568209D01*
X141726Y568177D01*
X141620Y568149D01*
X141513Y568125D01*
X141405Y568104D01*
X141297Y568087D01*
X141188Y568074D01*
X141078Y568065D01*
X140969Y568059D01*
X140859Y568057D01*
X137847Y570210D02*
X137717Y570486D01*
X137593Y570764D01*
X137476Y571046D01*
X137366Y571330D01*
X137263Y571617D01*
X137166Y571906D01*
X137076Y572197D01*
X136994Y572490D01*
X136918Y572786D01*
X136850Y573083D01*
X136788Y573381D01*
X136734Y573681D01*
X136687Y573982D01*
X136647Y574285D01*
X136614Y574588D01*
X136589Y574891D01*
X136571Y575196D01*
X136560Y575500D01*
X136556Y575805D01*
X137846Y570209D02*
X137884Y570106D01*
X137924Y570004D01*
X137969Y569904D01*
X138017Y569805D01*
X138068Y569708D01*
X138122Y569613D01*
X138180Y569519D01*
X138241Y569428D01*
X138305Y569339D01*
X138372Y569252D01*
X138442Y569167D01*
X138515Y569085D01*
X138591Y569006D01*
X138669Y568929D01*
X138750Y568855D01*
X138834Y568784D01*
X138920Y568716D01*
X139008Y568650D01*
X139098Y568588D01*
X139191Y568529D01*
X139285Y568473D01*
X139381Y568420D01*
X139480Y568371D01*
X139579Y568325D01*
X139680Y568283D01*
X139783Y568244D01*
X139887Y568209D01*
X139992Y568177D01*
X140098Y568149D01*
X140205Y568125D01*
X140313Y568104D01*
X140421Y568087D01*
X140530Y568074D01*
X140640Y568065D01*
X140749Y568059D01*
X140859Y568057D01*
X144302Y571501D02*
X137416Y580108D01*
X130297Y580108D02*
X125993Y583552D01*
X125993Y568058D01*
X121690Y568058D02*
X130297Y568058D01*
X111988Y574944D02*
X106824Y574944D01*
X111988Y574944D02*
X112103Y574946D01*
X112218Y574952D01*
X112333Y574961D01*
X112447Y574975D01*
X112561Y574992D01*
X112674Y575013D01*
X112786Y575038D01*
X112898Y575066D01*
X113008Y575099D01*
X113117Y575135D01*
X113225Y575174D01*
X113332Y575217D01*
X113437Y575264D01*
X113541Y575314D01*
X113643Y575368D01*
X113743Y575425D01*
X113841Y575485D01*
X113937Y575548D01*
X114030Y575615D01*
X114122Y575685D01*
X114211Y575758D01*
X114298Y575834D01*
X114382Y575912D01*
X114463Y575993D01*
X114542Y576078D01*
X114617Y576164D01*
X114690Y576253D01*
X114760Y576345D01*
X114827Y576438D01*
X114890Y576534D01*
X114950Y576632D01*
X115007Y576732D01*
X115061Y576834D01*
X115111Y576938D01*
X115158Y577043D01*
X115201Y577150D01*
X115241Y577258D01*
X115276Y577367D01*
X115309Y577477D01*
X115337Y577589D01*
X115362Y577701D01*
X115383Y577814D01*
X115400Y577928D01*
X115414Y578042D01*
X115423Y578157D01*
X115429Y578272D01*
X115431Y578387D01*
X115432Y578387D02*
X115432Y579248D01*
X115430Y579378D01*
X115424Y579508D01*
X115414Y579638D01*
X115401Y579767D01*
X115383Y579896D01*
X115362Y580024D01*
X115336Y580151D01*
X115307Y580278D01*
X115274Y580404D01*
X115237Y580528D01*
X115197Y580652D01*
X115152Y580774D01*
X115104Y580895D01*
X115053Y581014D01*
X114998Y581132D01*
X114939Y581248D01*
X114877Y581362D01*
X114811Y581475D01*
X114742Y581585D01*
X114670Y581693D01*
X114595Y581799D01*
X114516Y581902D01*
X114434Y582003D01*
X114350Y582102D01*
X114262Y582198D01*
X114171Y582291D01*
X114078Y582382D01*
X113982Y582470D01*
X113883Y582554D01*
X113782Y582636D01*
X113679Y582715D01*
X113573Y582790D01*
X113465Y582862D01*
X113355Y582931D01*
X113242Y582997D01*
X113128Y583059D01*
X113012Y583118D01*
X112894Y583173D01*
X112775Y583224D01*
X112654Y583272D01*
X112532Y583317D01*
X112408Y583357D01*
X112284Y583394D01*
X112158Y583427D01*
X112031Y583456D01*
X111904Y583482D01*
X111776Y583503D01*
X111647Y583521D01*
X111518Y583534D01*
X111388Y583544D01*
X111258Y583550D01*
X111128Y583552D01*
X110998Y583550D01*
X110868Y583544D01*
X110738Y583534D01*
X110609Y583521D01*
X110480Y583503D01*
X110352Y583482D01*
X110225Y583456D01*
X110098Y583427D01*
X109972Y583394D01*
X109848Y583357D01*
X109724Y583317D01*
X109602Y583272D01*
X109481Y583224D01*
X109362Y583173D01*
X109244Y583118D01*
X109128Y583059D01*
X109014Y582997D01*
X108901Y582931D01*
X108791Y582862D01*
X108683Y582790D01*
X108577Y582715D01*
X108474Y582636D01*
X108373Y582554D01*
X108274Y582470D01*
X108178Y582382D01*
X108085Y582291D01*
X107994Y582198D01*
X107906Y582102D01*
X107822Y582003D01*
X107740Y581902D01*
X107661Y581799D01*
X107586Y581693D01*
X107514Y581585D01*
X107445Y581475D01*
X107379Y581362D01*
X107317Y581248D01*
X107258Y581132D01*
X107203Y581014D01*
X107152Y580895D01*
X107104Y580774D01*
X107059Y580652D01*
X107019Y580528D01*
X106982Y580404D01*
X106949Y580278D01*
X106920Y580151D01*
X106894Y580024D01*
X106873Y579896D01*
X106855Y579767D01*
X106842Y579638D01*
X106832Y579508D01*
X106826Y579378D01*
X106824Y579248D01*
X106824Y574944D01*
X106826Y574778D01*
X106832Y574611D01*
X106842Y574445D01*
X106856Y574279D01*
X106874Y574114D01*
X106896Y573949D01*
X106922Y573785D01*
X106952Y573621D01*
X106986Y573458D01*
X107024Y573296D01*
X107066Y573135D01*
X107112Y572975D01*
X107161Y572816D01*
X107214Y572658D01*
X107271Y572502D01*
X107332Y572347D01*
X107397Y572194D01*
X107465Y572042D01*
X107537Y571892D01*
X107613Y571744D01*
X107692Y571598D01*
X107774Y571453D01*
X107861Y571311D01*
X107950Y571170D01*
X108043Y571032D01*
X108139Y570897D01*
X108239Y570763D01*
X108341Y570632D01*
X108447Y570504D01*
X108556Y570378D01*
X108668Y570255D01*
X108782Y570134D01*
X108900Y570016D01*
X109021Y569902D01*
X109144Y569790D01*
X109270Y569681D01*
X109398Y569575D01*
X109529Y569473D01*
X109663Y569373D01*
X109798Y569277D01*
X109936Y569184D01*
X110077Y569095D01*
X110219Y569008D01*
X110364Y568926D01*
X110510Y568847D01*
X110658Y568771D01*
X110808Y568699D01*
X110960Y568631D01*
X111113Y568566D01*
X111268Y568505D01*
X111424Y568448D01*
X111582Y568395D01*
X111741Y568346D01*
X111901Y568300D01*
X112062Y568258D01*
X112224Y568220D01*
X112387Y568186D01*
X112551Y568156D01*
X112715Y568130D01*
X112880Y568108D01*
X113045Y568090D01*
X113211Y568076D01*
X113377Y568066D01*
X113544Y568060D01*
X113710Y568058D01*
X362895Y542912D02*
X369782Y542912D01*
X369782Y558406D01*
X362895Y558406D01*
X364617Y551519D02*
X369782Y551519D01*
X357322Y545494D02*
X357322Y558406D01*
X357322Y545494D02*
X357320Y545395D01*
X357314Y545296D01*
X357305Y545198D01*
X357292Y545100D01*
X357275Y545002D01*
X357254Y544906D01*
X357230Y544810D01*
X357202Y544715D01*
X357170Y544621D01*
X357135Y544529D01*
X357096Y544438D01*
X357054Y544348D01*
X357008Y544261D01*
X356959Y544175D01*
X356907Y544091D01*
X356852Y544009D01*
X356793Y543929D01*
X356732Y543851D01*
X356668Y543776D01*
X356600Y543704D01*
X356530Y543634D01*
X356458Y543566D01*
X356383Y543502D01*
X356305Y543441D01*
X356225Y543382D01*
X356143Y543327D01*
X356059Y543275D01*
X355973Y543226D01*
X355886Y543180D01*
X355796Y543138D01*
X355705Y543099D01*
X355613Y543064D01*
X355519Y543032D01*
X355424Y543004D01*
X355328Y542980D01*
X355232Y542959D01*
X355134Y542942D01*
X355036Y542929D01*
X354938Y542920D01*
X354839Y542914D01*
X354740Y542912D01*
X347040Y542912D02*
X342736Y542912D01*
X347040Y542912D02*
X347139Y542914D01*
X347238Y542920D01*
X347336Y542929D01*
X347434Y542942D01*
X347532Y542959D01*
X347628Y542980D01*
X347724Y543004D01*
X347819Y543032D01*
X347913Y543064D01*
X348005Y543099D01*
X348096Y543138D01*
X348186Y543180D01*
X348273Y543226D01*
X348359Y543275D01*
X348443Y543327D01*
X348525Y543382D01*
X348605Y543441D01*
X348683Y543502D01*
X348758Y543566D01*
X348830Y543634D01*
X348900Y543704D01*
X348968Y543776D01*
X349032Y543851D01*
X349093Y543929D01*
X349152Y544009D01*
X349207Y544091D01*
X349259Y544175D01*
X349308Y544261D01*
X349354Y544348D01*
X349396Y544438D01*
X349435Y544529D01*
X349470Y544621D01*
X349502Y544715D01*
X349530Y544810D01*
X349554Y544906D01*
X349575Y545002D01*
X349592Y545100D01*
X349605Y545198D01*
X349614Y545296D01*
X349620Y545395D01*
X349622Y545494D01*
X349622Y549798D01*
X349620Y549914D01*
X349614Y550030D01*
X349604Y550146D01*
X349591Y550262D01*
X349573Y550377D01*
X349552Y550491D01*
X349526Y550605D01*
X349497Y550717D01*
X349464Y550829D01*
X349427Y550939D01*
X349387Y551048D01*
X349343Y551156D01*
X349295Y551262D01*
X349244Y551366D01*
X349189Y551469D01*
X349131Y551570D01*
X349070Y551668D01*
X349005Y551765D01*
X348937Y551859D01*
X348866Y551951D01*
X348791Y552041D01*
X348714Y552128D01*
X348634Y552212D01*
X348551Y552293D01*
X348465Y552372D01*
X348377Y552448D01*
X348286Y552521D01*
X348193Y552590D01*
X348098Y552657D01*
X348000Y552720D01*
X347901Y552780D01*
X347799Y552836D01*
X347695Y552889D01*
X347590Y552939D01*
X347483Y552984D01*
X347375Y553027D01*
X347265Y553065D01*
X347154Y553100D01*
X347042Y553131D01*
X346929Y553158D01*
X346815Y553182D01*
X346700Y553201D01*
X346585Y553217D01*
X346469Y553229D01*
X346353Y553237D01*
X346237Y553241D01*
X346121Y553241D01*
X346005Y553237D01*
X345889Y553229D01*
X345773Y553217D01*
X345658Y553201D01*
X345543Y553182D01*
X345429Y553158D01*
X345316Y553131D01*
X345204Y553100D01*
X345093Y553065D01*
X344983Y553027D01*
X344875Y552984D01*
X344768Y552939D01*
X344663Y552889D01*
X344559Y552836D01*
X344458Y552780D01*
X344358Y552720D01*
X344260Y552657D01*
X344165Y552590D01*
X344072Y552521D01*
X343981Y552448D01*
X343893Y552372D01*
X343807Y552293D01*
X343724Y552212D01*
X343644Y552128D01*
X343567Y552041D01*
X343492Y551951D01*
X343421Y551859D01*
X343353Y551765D01*
X343288Y551668D01*
X343227Y551570D01*
X343169Y551469D01*
X343114Y551366D01*
X343063Y551262D01*
X343015Y551156D01*
X342971Y551048D01*
X342931Y550939D01*
X342894Y550829D01*
X342861Y550717D01*
X342832Y550605D01*
X342806Y550491D01*
X342785Y550377D01*
X342767Y550262D01*
X342754Y550146D01*
X342744Y550030D01*
X342738Y549914D01*
X342736Y549798D01*
X342736Y548076D01*
X349622Y548076D01*
X334140Y542912D02*
X330697Y542912D01*
X334140Y542912D02*
X334239Y542914D01*
X334338Y542920D01*
X334436Y542929D01*
X334534Y542942D01*
X334632Y542959D01*
X334728Y542980D01*
X334824Y543004D01*
X334919Y543032D01*
X335013Y543064D01*
X335105Y543099D01*
X335196Y543138D01*
X335286Y543180D01*
X335373Y543226D01*
X335459Y543275D01*
X335543Y543327D01*
X335625Y543382D01*
X335705Y543441D01*
X335783Y543502D01*
X335858Y543566D01*
X335930Y543634D01*
X336000Y543704D01*
X336068Y543776D01*
X336132Y543851D01*
X336193Y543929D01*
X336252Y544009D01*
X336307Y544091D01*
X336359Y544175D01*
X336408Y544261D01*
X336454Y544348D01*
X336496Y544438D01*
X336535Y544529D01*
X336570Y544621D01*
X336602Y544715D01*
X336630Y544810D01*
X336654Y544906D01*
X336675Y545002D01*
X336692Y545100D01*
X336705Y545198D01*
X336714Y545296D01*
X336720Y545395D01*
X336722Y545494D01*
X336723Y545494D02*
X336723Y550659D01*
X336722Y550659D02*
X336720Y550758D01*
X336714Y550857D01*
X336705Y550955D01*
X336692Y551053D01*
X336675Y551151D01*
X336654Y551247D01*
X336630Y551343D01*
X336602Y551438D01*
X336570Y551532D01*
X336535Y551624D01*
X336496Y551715D01*
X336454Y551805D01*
X336408Y551892D01*
X336359Y551978D01*
X336307Y552062D01*
X336252Y552144D01*
X336193Y552224D01*
X336132Y552302D01*
X336068Y552377D01*
X336000Y552449D01*
X335930Y552519D01*
X335858Y552587D01*
X335783Y552651D01*
X335705Y552712D01*
X335625Y552771D01*
X335543Y552826D01*
X335459Y552878D01*
X335373Y552927D01*
X335286Y552973D01*
X335196Y553015D01*
X335105Y553054D01*
X335013Y553089D01*
X334919Y553121D01*
X334824Y553149D01*
X334728Y553173D01*
X334632Y553194D01*
X334534Y553211D01*
X334436Y553224D01*
X334338Y553233D01*
X334239Y553239D01*
X334140Y553241D01*
X330697Y553241D01*
X326571Y553241D02*
X321406Y553241D01*
X324850Y558406D02*
X324850Y545494D01*
X324849Y545494D02*
X324847Y545395D01*
X324841Y545296D01*
X324832Y545198D01*
X324819Y545100D01*
X324802Y545002D01*
X324781Y544906D01*
X324757Y544810D01*
X324729Y544715D01*
X324697Y544621D01*
X324662Y544529D01*
X324623Y544438D01*
X324581Y544348D01*
X324535Y544261D01*
X324486Y544175D01*
X324434Y544091D01*
X324379Y544009D01*
X324320Y543929D01*
X324259Y543851D01*
X324195Y543776D01*
X324127Y543704D01*
X324057Y543634D01*
X323985Y543566D01*
X323910Y543502D01*
X323832Y543441D01*
X323752Y543382D01*
X323670Y543327D01*
X323586Y543275D01*
X323500Y543226D01*
X323413Y543180D01*
X323323Y543138D01*
X323232Y543099D01*
X323140Y543064D01*
X323046Y543032D01*
X322951Y543004D01*
X322855Y542980D01*
X322759Y542959D01*
X322661Y542942D01*
X322563Y542929D01*
X322465Y542920D01*
X322366Y542914D01*
X322267Y542912D01*
X321406Y542912D01*
X315353Y542912D02*
X315353Y553241D01*
X310188Y553241D01*
X310188Y551519D01*
X305521Y549798D02*
X305521Y546355D01*
X305521Y549798D02*
X305519Y549914D01*
X305513Y550030D01*
X305503Y550146D01*
X305490Y550262D01*
X305472Y550377D01*
X305451Y550491D01*
X305425Y550605D01*
X305396Y550717D01*
X305363Y550829D01*
X305326Y550939D01*
X305286Y551048D01*
X305242Y551156D01*
X305194Y551262D01*
X305143Y551366D01*
X305088Y551469D01*
X305030Y551570D01*
X304969Y551668D01*
X304904Y551765D01*
X304836Y551859D01*
X304765Y551951D01*
X304690Y552041D01*
X304613Y552128D01*
X304533Y552212D01*
X304450Y552293D01*
X304364Y552372D01*
X304276Y552448D01*
X304185Y552521D01*
X304092Y552590D01*
X303997Y552657D01*
X303899Y552720D01*
X303800Y552780D01*
X303698Y552836D01*
X303594Y552889D01*
X303489Y552939D01*
X303382Y552984D01*
X303274Y553027D01*
X303164Y553065D01*
X303053Y553100D01*
X302941Y553131D01*
X302828Y553158D01*
X302714Y553182D01*
X302599Y553201D01*
X302484Y553217D01*
X302368Y553229D01*
X302252Y553237D01*
X302136Y553241D01*
X302020Y553241D01*
X301904Y553237D01*
X301788Y553229D01*
X301672Y553217D01*
X301557Y553201D01*
X301442Y553182D01*
X301328Y553158D01*
X301215Y553131D01*
X301103Y553100D01*
X300992Y553065D01*
X300882Y553027D01*
X300774Y552984D01*
X300667Y552939D01*
X300562Y552889D01*
X300458Y552836D01*
X300357Y552780D01*
X300257Y552720D01*
X300159Y552657D01*
X300064Y552590D01*
X299971Y552521D01*
X299880Y552448D01*
X299792Y552372D01*
X299706Y552293D01*
X299623Y552212D01*
X299543Y552128D01*
X299466Y552041D01*
X299391Y551951D01*
X299320Y551859D01*
X299252Y551765D01*
X299187Y551668D01*
X299126Y551570D01*
X299068Y551469D01*
X299013Y551366D01*
X298962Y551262D01*
X298914Y551156D01*
X298870Y551048D01*
X298830Y550939D01*
X298793Y550829D01*
X298760Y550717D01*
X298731Y550605D01*
X298705Y550491D01*
X298684Y550377D01*
X298666Y550262D01*
X298653Y550146D01*
X298643Y550030D01*
X298637Y549914D01*
X298635Y549798D01*
X298635Y546355D01*
X298637Y546239D01*
X298643Y546123D01*
X298653Y546007D01*
X298666Y545891D01*
X298684Y545776D01*
X298705Y545662D01*
X298731Y545548D01*
X298760Y545436D01*
X298793Y545324D01*
X298830Y545214D01*
X298870Y545105D01*
X298914Y544997D01*
X298962Y544891D01*
X299013Y544787D01*
X299068Y544684D01*
X299126Y544583D01*
X299187Y544485D01*
X299252Y544388D01*
X299320Y544294D01*
X299391Y544202D01*
X299466Y544112D01*
X299543Y544025D01*
X299623Y543941D01*
X299706Y543860D01*
X299792Y543781D01*
X299880Y543705D01*
X299971Y543632D01*
X300064Y543563D01*
X300159Y543496D01*
X300257Y543433D01*
X300357Y543373D01*
X300458Y543317D01*
X300562Y543264D01*
X300667Y543214D01*
X300774Y543169D01*
X300882Y543126D01*
X300992Y543088D01*
X301103Y543053D01*
X301215Y543022D01*
X301328Y542995D01*
X301442Y542971D01*
X301557Y542952D01*
X301672Y542936D01*
X301788Y542924D01*
X301904Y542916D01*
X302020Y542912D01*
X302136Y542912D01*
X302252Y542916D01*
X302368Y542924D01*
X302484Y542936D01*
X302599Y542952D01*
X302714Y542971D01*
X302828Y542995D01*
X302941Y543022D01*
X303053Y543053D01*
X303164Y543088D01*
X303274Y543126D01*
X303382Y543169D01*
X303489Y543214D01*
X303594Y543264D01*
X303698Y543317D01*
X303800Y543373D01*
X303899Y543433D01*
X303997Y543496D01*
X304092Y543563D01*
X304185Y543632D01*
X304276Y543705D01*
X304364Y543781D01*
X304450Y543860D01*
X304533Y543941D01*
X304613Y544025D01*
X304690Y544112D01*
X304765Y544202D01*
X304836Y544294D01*
X304904Y544388D01*
X304969Y544485D01*
X305030Y544583D01*
X305088Y544684D01*
X305143Y544787D01*
X305194Y544891D01*
X305242Y544997D01*
X305286Y545105D01*
X305326Y545214D01*
X305363Y545324D01*
X305396Y545436D01*
X305425Y545548D01*
X305451Y545662D01*
X305472Y545776D01*
X305490Y545891D01*
X305503Y546007D01*
X305513Y546123D01*
X305519Y546239D01*
X305521Y546355D01*
X292142Y542912D02*
X292142Y553241D01*
X287838Y553241D01*
X287737Y553239D01*
X287635Y553233D01*
X287535Y553223D01*
X287434Y553209D01*
X287334Y553191D01*
X287235Y553170D01*
X287137Y553144D01*
X287040Y553115D01*
X286944Y553081D01*
X286850Y553044D01*
X286757Y553004D01*
X286666Y552960D01*
X286576Y552912D01*
X286489Y552861D01*
X286404Y552806D01*
X286320Y552748D01*
X286240Y552687D01*
X286161Y552622D01*
X286085Y552555D01*
X286012Y552485D01*
X285942Y552412D01*
X285875Y552336D01*
X285810Y552258D01*
X285749Y552177D01*
X285691Y552094D01*
X285637Y552008D01*
X285585Y551921D01*
X285537Y551831D01*
X285493Y551740D01*
X285453Y551647D01*
X285416Y551553D01*
X285382Y551457D01*
X285353Y551360D01*
X285327Y551262D01*
X285306Y551163D01*
X285288Y551063D01*
X285274Y550963D01*
X285264Y550862D01*
X285258Y550760D01*
X285256Y550659D01*
X285255Y550659D02*
X285255Y542912D01*
X278788Y542912D02*
X278788Y553241D01*
X279218Y557545D02*
X279218Y558406D01*
X278358Y558406D01*
X278358Y557545D01*
X279218Y557545D01*
X270218Y542912D02*
X266775Y542912D01*
X270218Y542912D02*
X270317Y542914D01*
X270416Y542920D01*
X270514Y542929D01*
X270612Y542942D01*
X270710Y542959D01*
X270806Y542980D01*
X270902Y543004D01*
X270997Y543032D01*
X271091Y543064D01*
X271183Y543099D01*
X271274Y543138D01*
X271364Y543180D01*
X271451Y543226D01*
X271537Y543275D01*
X271621Y543327D01*
X271703Y543382D01*
X271783Y543441D01*
X271861Y543502D01*
X271936Y543566D01*
X272008Y543634D01*
X272078Y543704D01*
X272146Y543776D01*
X272210Y543851D01*
X272271Y543929D01*
X272330Y544009D01*
X272385Y544091D01*
X272437Y544175D01*
X272486Y544261D01*
X272532Y544348D01*
X272574Y544438D01*
X272613Y544529D01*
X272648Y544621D01*
X272680Y544715D01*
X272708Y544810D01*
X272732Y544906D01*
X272753Y545002D01*
X272770Y545100D01*
X272783Y545198D01*
X272792Y545296D01*
X272798Y545395D01*
X272800Y545494D01*
X272800Y550659D01*
X272798Y550758D01*
X272792Y550857D01*
X272783Y550955D01*
X272770Y551053D01*
X272753Y551151D01*
X272732Y551247D01*
X272708Y551343D01*
X272680Y551438D01*
X272648Y551532D01*
X272613Y551624D01*
X272574Y551715D01*
X272532Y551805D01*
X272486Y551892D01*
X272437Y551978D01*
X272385Y552062D01*
X272330Y552144D01*
X272271Y552224D01*
X272210Y552302D01*
X272146Y552377D01*
X272078Y552449D01*
X272008Y552519D01*
X271936Y552587D01*
X271861Y552651D01*
X271783Y552712D01*
X271703Y552771D01*
X271621Y552826D01*
X271537Y552878D01*
X271451Y552927D01*
X271364Y552973D01*
X271274Y553015D01*
X271183Y553054D01*
X271091Y553089D01*
X270997Y553121D01*
X270902Y553149D01*
X270806Y553173D01*
X270710Y553194D01*
X270612Y553211D01*
X270514Y553224D01*
X270416Y553233D01*
X270317Y553239D01*
X270218Y553241D01*
X266775Y553241D01*
X250047Y558406D02*
X250047Y542912D01*
X254351Y558406D02*
X245744Y558406D01*
X240111Y558406D02*
X240111Y542912D01*
X240111Y553241D02*
X235808Y553241D01*
X235707Y553239D01*
X235605Y553233D01*
X235505Y553223D01*
X235404Y553209D01*
X235304Y553191D01*
X235205Y553170D01*
X235107Y553144D01*
X235010Y553115D01*
X234914Y553081D01*
X234820Y553044D01*
X234727Y553004D01*
X234636Y552960D01*
X234546Y552912D01*
X234459Y552861D01*
X234374Y552806D01*
X234290Y552748D01*
X234210Y552687D01*
X234131Y552622D01*
X234055Y552555D01*
X233982Y552485D01*
X233912Y552412D01*
X233845Y552336D01*
X233780Y552258D01*
X233719Y552177D01*
X233661Y552094D01*
X233607Y552008D01*
X233555Y551921D01*
X233507Y551831D01*
X233463Y551740D01*
X233423Y551647D01*
X233386Y551553D01*
X233352Y551457D01*
X233323Y551360D01*
X233297Y551262D01*
X233276Y551163D01*
X233258Y551063D01*
X233244Y550963D01*
X233234Y550862D01*
X233228Y550760D01*
X233226Y550659D01*
X233225Y550659D02*
X233225Y542912D01*
X226158Y542912D02*
X226158Y553241D01*
X220994Y553241D01*
X220994Y551519D01*
X216326Y549798D02*
X216326Y546355D01*
X216326Y549798D02*
X216324Y549914D01*
X216318Y550030D01*
X216308Y550146D01*
X216295Y550262D01*
X216277Y550377D01*
X216256Y550491D01*
X216230Y550605D01*
X216201Y550717D01*
X216168Y550829D01*
X216131Y550939D01*
X216091Y551048D01*
X216047Y551156D01*
X215999Y551262D01*
X215948Y551366D01*
X215893Y551469D01*
X215835Y551570D01*
X215774Y551668D01*
X215709Y551765D01*
X215641Y551859D01*
X215570Y551951D01*
X215495Y552041D01*
X215418Y552128D01*
X215338Y552212D01*
X215255Y552293D01*
X215169Y552372D01*
X215081Y552448D01*
X214990Y552521D01*
X214897Y552590D01*
X214802Y552657D01*
X214704Y552720D01*
X214605Y552780D01*
X214503Y552836D01*
X214399Y552889D01*
X214294Y552939D01*
X214187Y552984D01*
X214079Y553027D01*
X213969Y553065D01*
X213858Y553100D01*
X213746Y553131D01*
X213633Y553158D01*
X213519Y553182D01*
X213404Y553201D01*
X213289Y553217D01*
X213173Y553229D01*
X213057Y553237D01*
X212941Y553241D01*
X212825Y553241D01*
X212709Y553237D01*
X212593Y553229D01*
X212477Y553217D01*
X212362Y553201D01*
X212247Y553182D01*
X212133Y553158D01*
X212020Y553131D01*
X211908Y553100D01*
X211797Y553065D01*
X211687Y553027D01*
X211579Y552984D01*
X211472Y552939D01*
X211367Y552889D01*
X211263Y552836D01*
X211162Y552780D01*
X211062Y552720D01*
X210964Y552657D01*
X210869Y552590D01*
X210776Y552521D01*
X210685Y552448D01*
X210597Y552372D01*
X210511Y552293D01*
X210428Y552212D01*
X210348Y552128D01*
X210271Y552041D01*
X210196Y551951D01*
X210125Y551859D01*
X210057Y551765D01*
X209992Y551668D01*
X209931Y551570D01*
X209873Y551469D01*
X209818Y551366D01*
X209767Y551262D01*
X209719Y551156D01*
X209675Y551048D01*
X209635Y550939D01*
X209598Y550829D01*
X209565Y550717D01*
X209536Y550605D01*
X209510Y550491D01*
X209489Y550377D01*
X209471Y550262D01*
X209458Y550146D01*
X209448Y550030D01*
X209442Y549914D01*
X209440Y549798D01*
X209440Y546355D01*
X209442Y546239D01*
X209448Y546123D01*
X209458Y546007D01*
X209471Y545891D01*
X209489Y545776D01*
X209510Y545662D01*
X209536Y545548D01*
X209565Y545436D01*
X209598Y545324D01*
X209635Y545214D01*
X209675Y545105D01*
X209719Y544997D01*
X209767Y544891D01*
X209818Y544787D01*
X209873Y544684D01*
X209931Y544583D01*
X209992Y544485D01*
X210057Y544388D01*
X210125Y544294D01*
X210196Y544202D01*
X210271Y544112D01*
X210348Y544025D01*
X210428Y543941D01*
X210511Y543860D01*
X210597Y543781D01*
X210685Y543705D01*
X210776Y543632D01*
X210869Y543563D01*
X210964Y543496D01*
X211062Y543433D01*
X211162Y543373D01*
X211263Y543317D01*
X211367Y543264D01*
X211472Y543214D01*
X211579Y543169D01*
X211687Y543126D01*
X211797Y543088D01*
X211908Y543053D01*
X212020Y543022D01*
X212133Y542995D01*
X212247Y542971D01*
X212362Y542952D01*
X212477Y542936D01*
X212593Y542924D01*
X212709Y542916D01*
X212825Y542912D01*
X212941Y542912D01*
X213057Y542916D01*
X213173Y542924D01*
X213289Y542936D01*
X213404Y542952D01*
X213519Y542971D01*
X213633Y542995D01*
X213746Y543022D01*
X213858Y543053D01*
X213969Y543088D01*
X214079Y543126D01*
X214187Y543169D01*
X214294Y543214D01*
X214399Y543264D01*
X214503Y543317D01*
X214604Y543373D01*
X214704Y543433D01*
X214802Y543496D01*
X214897Y543563D01*
X214990Y543632D01*
X215081Y543705D01*
X215169Y543781D01*
X215255Y543860D01*
X215338Y543941D01*
X215418Y544025D01*
X215495Y544112D01*
X215570Y544202D01*
X215641Y544294D01*
X215709Y544388D01*
X215774Y544485D01*
X215835Y544583D01*
X215893Y544684D01*
X215948Y544787D01*
X215999Y544891D01*
X216047Y544997D01*
X216091Y545105D01*
X216131Y545214D01*
X216168Y545324D01*
X216201Y545436D01*
X216230Y545548D01*
X216256Y545662D01*
X216277Y545776D01*
X216295Y545891D01*
X216308Y546007D01*
X216318Y546123D01*
X216324Y546239D01*
X216326Y546355D01*
X204672Y553241D02*
X199507Y553241D01*
X202950Y558406D02*
X202950Y545494D01*
X202948Y545395D01*
X202942Y545296D01*
X202933Y545198D01*
X202920Y545100D01*
X202903Y545002D01*
X202882Y544906D01*
X202858Y544810D01*
X202830Y544715D01*
X202798Y544621D01*
X202763Y544529D01*
X202724Y544438D01*
X202682Y544348D01*
X202636Y544261D01*
X202587Y544175D01*
X202535Y544091D01*
X202480Y544009D01*
X202421Y543929D01*
X202360Y543851D01*
X202296Y543776D01*
X202228Y543704D01*
X202158Y543634D01*
X202086Y543566D01*
X202011Y543502D01*
X201933Y543441D01*
X201853Y543382D01*
X201771Y543327D01*
X201687Y543275D01*
X201601Y543226D01*
X201514Y543180D01*
X201424Y543138D01*
X201333Y543099D01*
X201241Y543064D01*
X201147Y543032D01*
X201052Y543004D01*
X200956Y542980D01*
X200860Y542959D01*
X200762Y542942D01*
X200664Y542929D01*
X200566Y542920D01*
X200467Y542914D01*
X200368Y542912D01*
X199507Y542912D01*
X195257Y553241D02*
X190092Y553241D01*
X193535Y558406D02*
X193535Y545494D01*
X193533Y545395D01*
X193527Y545296D01*
X193518Y545198D01*
X193505Y545100D01*
X193488Y545002D01*
X193467Y544906D01*
X193443Y544810D01*
X193415Y544715D01*
X193383Y544621D01*
X193348Y544529D01*
X193309Y544438D01*
X193267Y544348D01*
X193221Y544261D01*
X193172Y544175D01*
X193120Y544091D01*
X193065Y544009D01*
X193006Y543929D01*
X192945Y543851D01*
X192881Y543776D01*
X192813Y543704D01*
X192743Y543634D01*
X192671Y543566D01*
X192596Y543502D01*
X192518Y543441D01*
X192438Y543382D01*
X192356Y543327D01*
X192272Y543275D01*
X192186Y543226D01*
X192099Y543180D01*
X192009Y543138D01*
X191918Y543099D01*
X191826Y543064D01*
X191732Y543032D01*
X191637Y543004D01*
X191541Y542980D01*
X191445Y542959D01*
X191347Y542942D01*
X191249Y542929D01*
X191151Y542920D01*
X191052Y542914D01*
X190953Y542912D01*
X190092Y542912D01*
X184384Y545494D02*
X184384Y558406D01*
X184383Y545494D02*
X184381Y545395D01*
X184375Y545296D01*
X184366Y545198D01*
X184353Y545100D01*
X184336Y545002D01*
X184315Y544906D01*
X184291Y544810D01*
X184263Y544715D01*
X184231Y544621D01*
X184196Y544529D01*
X184157Y544438D01*
X184115Y544348D01*
X184069Y544261D01*
X184020Y544175D01*
X183968Y544091D01*
X183913Y544009D01*
X183854Y543929D01*
X183793Y543851D01*
X183729Y543776D01*
X183661Y543704D01*
X183591Y543634D01*
X183519Y543566D01*
X183444Y543502D01*
X183366Y543441D01*
X183286Y543382D01*
X183204Y543327D01*
X183120Y543275D01*
X183034Y543226D01*
X182947Y543180D01*
X182857Y543138D01*
X182766Y543099D01*
X182674Y543064D01*
X182580Y543032D01*
X182485Y543004D01*
X182389Y542980D01*
X182293Y542959D01*
X182195Y542942D01*
X182097Y542929D01*
X181999Y542920D01*
X181900Y542914D01*
X181801Y542912D01*
X174102Y542912D02*
X169798Y542912D01*
X174102Y542912D02*
X174201Y542914D01*
X174300Y542920D01*
X174398Y542929D01*
X174496Y542942D01*
X174594Y542959D01*
X174690Y542980D01*
X174786Y543004D01*
X174881Y543032D01*
X174975Y543064D01*
X175067Y543099D01*
X175158Y543138D01*
X175248Y543180D01*
X175335Y543226D01*
X175421Y543275D01*
X175505Y543327D01*
X175587Y543382D01*
X175667Y543441D01*
X175745Y543502D01*
X175820Y543566D01*
X175892Y543634D01*
X175962Y543704D01*
X176030Y543776D01*
X176094Y543851D01*
X176155Y543929D01*
X176214Y544009D01*
X176269Y544091D01*
X176321Y544175D01*
X176370Y544261D01*
X176416Y544348D01*
X176458Y544438D01*
X176497Y544529D01*
X176532Y544621D01*
X176564Y544715D01*
X176592Y544810D01*
X176616Y544906D01*
X176637Y545002D01*
X176654Y545100D01*
X176667Y545198D01*
X176676Y545296D01*
X176682Y545395D01*
X176684Y545494D01*
X176684Y549798D01*
X176682Y549914D01*
X176676Y550030D01*
X176666Y550146D01*
X176653Y550262D01*
X176635Y550377D01*
X176614Y550491D01*
X176588Y550605D01*
X176559Y550717D01*
X176526Y550829D01*
X176489Y550939D01*
X176449Y551048D01*
X176405Y551156D01*
X176357Y551262D01*
X176306Y551366D01*
X176251Y551469D01*
X176193Y551570D01*
X176132Y551668D01*
X176067Y551765D01*
X175999Y551859D01*
X175928Y551951D01*
X175853Y552041D01*
X175776Y552128D01*
X175696Y552212D01*
X175613Y552293D01*
X175527Y552372D01*
X175439Y552448D01*
X175348Y552521D01*
X175255Y552590D01*
X175160Y552657D01*
X175062Y552720D01*
X174963Y552780D01*
X174861Y552836D01*
X174757Y552889D01*
X174652Y552939D01*
X174545Y552984D01*
X174437Y553027D01*
X174327Y553065D01*
X174216Y553100D01*
X174104Y553131D01*
X173991Y553158D01*
X173877Y553182D01*
X173762Y553201D01*
X173647Y553217D01*
X173531Y553229D01*
X173415Y553237D01*
X173299Y553241D01*
X173183Y553241D01*
X173067Y553237D01*
X172951Y553229D01*
X172835Y553217D01*
X172720Y553201D01*
X172605Y553182D01*
X172491Y553158D01*
X172378Y553131D01*
X172266Y553100D01*
X172155Y553065D01*
X172045Y553027D01*
X171937Y552984D01*
X171830Y552939D01*
X171725Y552889D01*
X171621Y552836D01*
X171520Y552780D01*
X171420Y552720D01*
X171322Y552657D01*
X171227Y552590D01*
X171134Y552521D01*
X171043Y552448D01*
X170955Y552372D01*
X170869Y552293D01*
X170786Y552212D01*
X170706Y552128D01*
X170629Y552041D01*
X170554Y551951D01*
X170483Y551859D01*
X170415Y551765D01*
X170350Y551668D01*
X170289Y551570D01*
X170231Y551469D01*
X170176Y551366D01*
X170125Y551262D01*
X170077Y551156D01*
X170033Y551048D01*
X169993Y550939D01*
X169956Y550829D01*
X169923Y550717D01*
X169894Y550605D01*
X169868Y550491D01*
X169847Y550377D01*
X169829Y550262D01*
X169816Y550146D01*
X169806Y550030D01*
X169800Y549914D01*
X169798Y549798D01*
X169798Y548076D01*
X176684Y548076D01*
X152336Y542912D02*
X148893Y542912D01*
X152336Y542912D02*
X152451Y542914D01*
X152566Y542920D01*
X152681Y542929D01*
X152795Y542943D01*
X152909Y542960D01*
X153022Y542981D01*
X153134Y543006D01*
X153246Y543034D01*
X153356Y543067D01*
X153465Y543103D01*
X153573Y543142D01*
X153680Y543185D01*
X153785Y543232D01*
X153889Y543282D01*
X153991Y543336D01*
X154091Y543393D01*
X154189Y543453D01*
X154285Y543516D01*
X154378Y543583D01*
X154470Y543653D01*
X154559Y543726D01*
X154646Y543802D01*
X154730Y543880D01*
X154811Y543961D01*
X154890Y544046D01*
X154965Y544132D01*
X155038Y544221D01*
X155108Y544313D01*
X155175Y544406D01*
X155238Y544502D01*
X155298Y544600D01*
X155355Y544700D01*
X155409Y544802D01*
X155459Y544906D01*
X155506Y545011D01*
X155549Y545118D01*
X155589Y545226D01*
X155624Y545335D01*
X155657Y545445D01*
X155685Y545557D01*
X155710Y545669D01*
X155731Y545782D01*
X155748Y545896D01*
X155762Y546010D01*
X155771Y546125D01*
X155777Y546240D01*
X155779Y546355D01*
X155779Y554962D01*
X155777Y555077D01*
X155771Y555192D01*
X155762Y555307D01*
X155748Y555421D01*
X155731Y555535D01*
X155710Y555648D01*
X155685Y555760D01*
X155657Y555872D01*
X155624Y555982D01*
X155589Y556091D01*
X155549Y556199D01*
X155506Y556306D01*
X155459Y556411D01*
X155409Y556515D01*
X155355Y556617D01*
X155298Y556717D01*
X155238Y556815D01*
X155175Y556911D01*
X155108Y557004D01*
X155038Y557096D01*
X154965Y557185D01*
X154890Y557271D01*
X154811Y557356D01*
X154730Y557437D01*
X154646Y557515D01*
X154559Y557591D01*
X154470Y557664D01*
X154378Y557734D01*
X154285Y557801D01*
X154189Y557864D01*
X154091Y557924D01*
X153991Y557981D01*
X153889Y558035D01*
X153785Y558085D01*
X153680Y558132D01*
X153573Y558175D01*
X153465Y558214D01*
X153356Y558250D01*
X153246Y558283D01*
X153134Y558311D01*
X153022Y558336D01*
X152909Y558357D01*
X152795Y558374D01*
X152681Y558388D01*
X152566Y558397D01*
X152451Y558403D01*
X152336Y558405D01*
X152336Y558406D02*
X148893Y558406D01*
X143484Y549798D02*
X143484Y546355D01*
X143484Y549798D02*
X143482Y549914D01*
X143476Y550030D01*
X143466Y550146D01*
X143453Y550262D01*
X143435Y550377D01*
X143414Y550491D01*
X143388Y550605D01*
X143359Y550717D01*
X143326Y550829D01*
X143289Y550939D01*
X143249Y551048D01*
X143205Y551156D01*
X143157Y551262D01*
X143106Y551366D01*
X143051Y551469D01*
X142993Y551570D01*
X142932Y551668D01*
X142867Y551765D01*
X142799Y551859D01*
X142728Y551951D01*
X142653Y552041D01*
X142576Y552128D01*
X142496Y552212D01*
X142413Y552293D01*
X142327Y552372D01*
X142239Y552448D01*
X142148Y552521D01*
X142055Y552590D01*
X141960Y552657D01*
X141862Y552720D01*
X141763Y552780D01*
X141661Y552836D01*
X141557Y552889D01*
X141452Y552939D01*
X141345Y552984D01*
X141237Y553027D01*
X141127Y553065D01*
X141016Y553100D01*
X140904Y553131D01*
X140791Y553158D01*
X140677Y553182D01*
X140562Y553201D01*
X140447Y553217D01*
X140331Y553229D01*
X140215Y553237D01*
X140099Y553241D01*
X139983Y553241D01*
X139867Y553237D01*
X139751Y553229D01*
X139635Y553217D01*
X139520Y553201D01*
X139405Y553182D01*
X139291Y553158D01*
X139178Y553131D01*
X139066Y553100D01*
X138955Y553065D01*
X138845Y553027D01*
X138737Y552984D01*
X138630Y552939D01*
X138525Y552889D01*
X138421Y552836D01*
X138320Y552780D01*
X138220Y552720D01*
X138122Y552657D01*
X138027Y552590D01*
X137934Y552521D01*
X137843Y552448D01*
X137755Y552372D01*
X137669Y552293D01*
X137586Y552212D01*
X137506Y552128D01*
X137429Y552041D01*
X137354Y551951D01*
X137283Y551859D01*
X137215Y551765D01*
X137150Y551668D01*
X137089Y551570D01*
X137031Y551469D01*
X136976Y551366D01*
X136925Y551262D01*
X136877Y551156D01*
X136833Y551048D01*
X136793Y550939D01*
X136756Y550829D01*
X136723Y550717D01*
X136694Y550605D01*
X136668Y550491D01*
X136647Y550377D01*
X136629Y550262D01*
X136616Y550146D01*
X136606Y550030D01*
X136600Y549914D01*
X136598Y549798D01*
X136598Y546355D01*
X136600Y546239D01*
X136606Y546123D01*
X136616Y546007D01*
X136629Y545891D01*
X136647Y545776D01*
X136668Y545662D01*
X136694Y545548D01*
X136723Y545436D01*
X136756Y545324D01*
X136793Y545214D01*
X136833Y545105D01*
X136877Y544997D01*
X136925Y544891D01*
X136976Y544787D01*
X137031Y544684D01*
X137089Y544583D01*
X137150Y544485D01*
X137215Y544388D01*
X137283Y544294D01*
X137354Y544202D01*
X137429Y544112D01*
X137506Y544025D01*
X137586Y543941D01*
X137669Y543860D01*
X137755Y543781D01*
X137843Y543705D01*
X137934Y543632D01*
X138027Y543563D01*
X138122Y543496D01*
X138220Y543433D01*
X138320Y543373D01*
X138421Y543317D01*
X138525Y543264D01*
X138630Y543214D01*
X138737Y543169D01*
X138845Y543126D01*
X138955Y543088D01*
X139066Y543053D01*
X139178Y543022D01*
X139291Y542995D01*
X139405Y542971D01*
X139520Y542952D01*
X139635Y542936D01*
X139751Y542924D01*
X139867Y542916D01*
X139983Y542912D01*
X140099Y542912D01*
X140215Y542916D01*
X140331Y542924D01*
X140447Y542936D01*
X140562Y542952D01*
X140677Y542971D01*
X140791Y542995D01*
X140904Y543022D01*
X141016Y543053D01*
X141127Y543088D01*
X141237Y543126D01*
X141345Y543169D01*
X141452Y543214D01*
X141557Y543264D01*
X141661Y543317D01*
X141762Y543373D01*
X141862Y543433D01*
X141960Y543496D01*
X142055Y543563D01*
X142148Y543632D01*
X142239Y543705D01*
X142327Y543781D01*
X142413Y543860D01*
X142496Y543941D01*
X142576Y544025D01*
X142653Y544112D01*
X142728Y544202D01*
X142799Y544294D01*
X142867Y544388D01*
X142932Y544485D01*
X142993Y544583D01*
X143051Y544684D01*
X143106Y544787D01*
X143157Y544891D01*
X143205Y544997D01*
X143249Y545105D01*
X143289Y545214D01*
X143326Y545324D01*
X143359Y545436D01*
X143388Y545548D01*
X143414Y545662D01*
X143435Y545776D01*
X143453Y545891D01*
X143466Y546007D01*
X143476Y546123D01*
X143482Y546239D01*
X143484Y546355D01*
X130105Y542912D02*
X130105Y553241D01*
X125801Y553241D01*
X125700Y553239D01*
X125598Y553233D01*
X125498Y553223D01*
X125397Y553209D01*
X125297Y553191D01*
X125198Y553170D01*
X125100Y553144D01*
X125003Y553115D01*
X124907Y553081D01*
X124813Y553044D01*
X124720Y553004D01*
X124629Y552960D01*
X124539Y552912D01*
X124452Y552861D01*
X124367Y552806D01*
X124283Y552748D01*
X124203Y552687D01*
X124124Y552622D01*
X124048Y552555D01*
X123975Y552485D01*
X123905Y552412D01*
X123838Y552336D01*
X123773Y552258D01*
X123712Y552177D01*
X123654Y552094D01*
X123600Y552008D01*
X123548Y551921D01*
X123500Y551831D01*
X123456Y551740D01*
X123416Y551647D01*
X123379Y551553D01*
X123345Y551457D01*
X123316Y551360D01*
X123290Y551262D01*
X123269Y551163D01*
X123251Y551063D01*
X123237Y550963D01*
X123227Y550862D01*
X123221Y550760D01*
X123219Y550659D01*
X123219Y542912D01*
X117955Y553241D02*
X112790Y553241D01*
X116233Y558406D02*
X116233Y545494D01*
X116231Y545395D01*
X116225Y545296D01*
X116216Y545198D01*
X116203Y545100D01*
X116186Y545002D01*
X116165Y544906D01*
X116141Y544810D01*
X116113Y544715D01*
X116081Y544621D01*
X116046Y544529D01*
X116007Y544438D01*
X115965Y544348D01*
X115919Y544261D01*
X115870Y544175D01*
X115818Y544091D01*
X115763Y544009D01*
X115704Y543929D01*
X115643Y543851D01*
X115579Y543776D01*
X115511Y543704D01*
X115441Y543634D01*
X115369Y543566D01*
X115294Y543502D01*
X115216Y543441D01*
X115136Y543382D01*
X115054Y543327D01*
X114970Y543275D01*
X114884Y543226D01*
X114797Y543180D01*
X114707Y543138D01*
X114616Y543099D01*
X114524Y543064D01*
X114430Y543032D01*
X114335Y543004D01*
X114239Y542980D01*
X114143Y542959D01*
X114045Y542942D01*
X113947Y542929D01*
X113849Y542920D01*
X113750Y542914D01*
X113651Y542912D01*
X112790Y542912D01*
X106737Y542912D02*
X106737Y553241D01*
X101572Y553241D01*
X101572Y551519D01*
X96905Y549798D02*
X96905Y546355D01*
X96904Y549798D02*
X96902Y549914D01*
X96896Y550030D01*
X96886Y550146D01*
X96873Y550262D01*
X96855Y550377D01*
X96834Y550491D01*
X96808Y550605D01*
X96779Y550717D01*
X96746Y550829D01*
X96709Y550939D01*
X96669Y551048D01*
X96625Y551156D01*
X96577Y551262D01*
X96526Y551366D01*
X96471Y551469D01*
X96413Y551570D01*
X96352Y551668D01*
X96287Y551765D01*
X96219Y551859D01*
X96148Y551951D01*
X96073Y552041D01*
X95996Y552128D01*
X95916Y552212D01*
X95833Y552293D01*
X95747Y552372D01*
X95659Y552448D01*
X95568Y552521D01*
X95475Y552590D01*
X95380Y552657D01*
X95282Y552720D01*
X95183Y552780D01*
X95081Y552836D01*
X94977Y552889D01*
X94872Y552939D01*
X94765Y552984D01*
X94657Y553027D01*
X94547Y553065D01*
X94436Y553100D01*
X94324Y553131D01*
X94211Y553158D01*
X94097Y553182D01*
X93982Y553201D01*
X93867Y553217D01*
X93751Y553229D01*
X93635Y553237D01*
X93519Y553241D01*
X93403Y553241D01*
X93287Y553237D01*
X93171Y553229D01*
X93055Y553217D01*
X92940Y553201D01*
X92825Y553182D01*
X92711Y553158D01*
X92598Y553131D01*
X92486Y553100D01*
X92375Y553065D01*
X92265Y553027D01*
X92157Y552984D01*
X92050Y552939D01*
X91945Y552889D01*
X91841Y552836D01*
X91740Y552780D01*
X91640Y552720D01*
X91542Y552657D01*
X91447Y552590D01*
X91354Y552521D01*
X91263Y552448D01*
X91175Y552372D01*
X91089Y552293D01*
X91006Y552212D01*
X90926Y552128D01*
X90849Y552041D01*
X90774Y551951D01*
X90703Y551859D01*
X90635Y551765D01*
X90570Y551668D01*
X90509Y551570D01*
X90451Y551469D01*
X90396Y551366D01*
X90345Y551262D01*
X90297Y551156D01*
X90253Y551048D01*
X90213Y550939D01*
X90176Y550829D01*
X90143Y550717D01*
X90114Y550605D01*
X90088Y550491D01*
X90067Y550377D01*
X90049Y550262D01*
X90036Y550146D01*
X90026Y550030D01*
X90020Y549914D01*
X90018Y549798D01*
X90018Y546355D01*
X90020Y546239D01*
X90026Y546123D01*
X90036Y546007D01*
X90049Y545891D01*
X90067Y545776D01*
X90088Y545662D01*
X90114Y545548D01*
X90143Y545436D01*
X90176Y545324D01*
X90213Y545214D01*
X90253Y545105D01*
X90297Y544997D01*
X90345Y544891D01*
X90396Y544787D01*
X90451Y544684D01*
X90509Y544583D01*
X90570Y544485D01*
X90635Y544388D01*
X90703Y544294D01*
X90774Y544202D01*
X90849Y544112D01*
X90926Y544025D01*
X91006Y543941D01*
X91089Y543860D01*
X91175Y543781D01*
X91263Y543705D01*
X91354Y543632D01*
X91447Y543563D01*
X91542Y543496D01*
X91640Y543433D01*
X91739Y543373D01*
X91841Y543317D01*
X91945Y543264D01*
X92050Y543214D01*
X92157Y543169D01*
X92265Y543126D01*
X92375Y543088D01*
X92486Y543053D01*
X92598Y543022D01*
X92711Y542995D01*
X92825Y542971D01*
X92940Y542952D01*
X93055Y542936D01*
X93171Y542924D01*
X93287Y542916D01*
X93403Y542912D01*
X93519Y542912D01*
X93635Y542916D01*
X93751Y542924D01*
X93867Y542936D01*
X93982Y542952D01*
X94097Y542971D01*
X94211Y542995D01*
X94324Y543022D01*
X94436Y543053D01*
X94547Y543088D01*
X94657Y543126D01*
X94765Y543169D01*
X94872Y543214D01*
X94977Y543264D01*
X95081Y543317D01*
X95182Y543373D01*
X95282Y543433D01*
X95380Y543496D01*
X95475Y543563D01*
X95568Y543632D01*
X95659Y543705D01*
X95747Y543781D01*
X95833Y543860D01*
X95916Y543941D01*
X95996Y544025D01*
X96073Y544112D01*
X96148Y544202D01*
X96219Y544294D01*
X96287Y544388D01*
X96352Y544485D01*
X96413Y544583D01*
X96471Y544684D01*
X96526Y544787D01*
X96577Y544891D01*
X96625Y544997D01*
X96669Y545105D01*
X96709Y545214D01*
X96746Y545324D01*
X96779Y545436D01*
X96808Y545548D01*
X96834Y545662D01*
X96855Y545776D01*
X96873Y545891D01*
X96886Y546007D01*
X96896Y546123D01*
X96902Y546239D01*
X96904Y546355D01*
X83792Y545494D02*
X83792Y558406D01*
X83792Y545494D02*
X83790Y545395D01*
X83784Y545296D01*
X83775Y545198D01*
X83762Y545100D01*
X83745Y545002D01*
X83724Y544906D01*
X83700Y544810D01*
X83672Y544715D01*
X83640Y544621D01*
X83605Y544529D01*
X83566Y544438D01*
X83524Y544348D01*
X83478Y544261D01*
X83429Y544175D01*
X83377Y544091D01*
X83322Y544009D01*
X83263Y543929D01*
X83202Y543851D01*
X83138Y543776D01*
X83070Y543704D01*
X83000Y543634D01*
X82928Y543566D01*
X82853Y543502D01*
X82775Y543441D01*
X82695Y543382D01*
X82613Y543327D01*
X82529Y543275D01*
X82443Y543226D01*
X82356Y543180D01*
X82266Y543138D01*
X82175Y543099D01*
X82083Y543064D01*
X81989Y543032D01*
X81894Y543004D01*
X81798Y542980D01*
X81702Y542959D01*
X81604Y542942D01*
X81506Y542929D01*
X81408Y542920D01*
X81309Y542914D01*
X81210Y542912D01*
M02*
