M48
;GenerationSoftware,Autodesk,EAGLE,9.2.0*%
;CreationDate,2019-03-12T12:26:40Z*%
FMAT,2
ICI,OFF
METRIC,TZ,000.000
T5C0.350
T4C0.610
T3C0.900
T2C1.000
T1C3.400
%
G90
M71
T1
X41000Y56000
X4000Y4000
X4000Y56000
X41000Y4000
T2
X15000Y25500
X20500Y25500
X5060Y8450
X29290Y38990
X33270Y4000
X30730Y4000
X28270Y4000
X25730Y4000
X23270Y4000
X20730Y4000
X5060Y10990
T3
X6500Y36000
X8500Y36000
X8500Y38000
X10500Y36000
X10500Y38000
X12500Y36000
X12500Y38000
X14500Y36000
X14500Y38000
X39000Y30680
X6500Y38000
X37000Y30680
T4
X7000Y18460
X14500Y23540
X14500Y21000
X14500Y18460
X7000Y23540
X7000Y21000
T5
X27810Y19840
X27090Y16300
X34660Y18300
X25390Y19840
X29790Y18980
X12000Y15500
X24338Y14402
X28760Y25710
X18680Y50500
X43250Y28500
X18650Y10570
X10477Y22108
X38500Y33000
X12990Y25770
X19000Y12500
X10000Y50500
X22500Y25000
X35500Y32000
X35000Y27500
X36500Y19500
X24414Y15481
X6982Y28734
X10000Y4500
X41500Y28500
X20000Y29500
X15500Y53500
X20000Y31500
X34000Y46560
X38000Y46560
X42000Y46560
X7000Y51000
X39000Y27000
X30500Y35500
X34500Y35500
X27250Y31250
X30407Y8441
X15876Y28682
X34500Y33000
X20290Y12490
X26500Y24500
X31500Y27000
M30