G04 EAGLE Gerber RS-274X export*
G75*
%MOMM*%
%FSLAX34Y34*%
%LPD*%
%IN*%
%IPPOS*%
%AMOC8*
5,1,8,0,0,1.08239X$1,22.5*%
G01*
%ADD10C,0.254000*%


D10*
X0Y0D02*
X450000Y0D01*
X450000Y600000D01*
X0Y600000D01*
X0Y0D01*
X57000Y39443D02*
X56927Y38333D01*
X56782Y37229D01*
X56565Y36138D01*
X56277Y35063D01*
X55919Y34009D01*
X55493Y32980D01*
X55001Y31982D01*
X54444Y31018D01*
X53826Y30093D01*
X53148Y29210D01*
X52414Y28373D01*
X51627Y27586D01*
X50790Y26852D01*
X49907Y26174D01*
X48982Y25556D01*
X48018Y24999D01*
X47020Y24507D01*
X45991Y24081D01*
X44937Y23723D01*
X43862Y23435D01*
X42771Y23218D01*
X41667Y23073D01*
X40557Y23000D01*
X39443Y23000D01*
X38333Y23073D01*
X37229Y23218D01*
X36138Y23435D01*
X35063Y23723D01*
X34009Y24081D01*
X32980Y24507D01*
X31982Y24999D01*
X31018Y25556D01*
X30093Y26174D01*
X29210Y26852D01*
X28373Y27586D01*
X27586Y28373D01*
X26852Y29210D01*
X26174Y30093D01*
X25556Y31018D01*
X24999Y31982D01*
X24507Y32980D01*
X24081Y34009D01*
X23723Y35063D01*
X23435Y36138D01*
X23218Y37229D01*
X23073Y38333D01*
X23000Y39443D01*
X23000Y40557D01*
X23073Y41667D01*
X23218Y42771D01*
X23435Y43862D01*
X23723Y44937D01*
X24081Y45991D01*
X24507Y47020D01*
X24999Y48018D01*
X25556Y48982D01*
X26174Y49907D01*
X26852Y50790D01*
X27586Y51627D01*
X28373Y52414D01*
X29210Y53148D01*
X30093Y53826D01*
X31018Y54444D01*
X31982Y55001D01*
X32980Y55493D01*
X34009Y55919D01*
X35063Y56277D01*
X36138Y56565D01*
X37229Y56782D01*
X38333Y56927D01*
X39443Y57000D01*
X40557Y57000D01*
X41667Y56927D01*
X42771Y56782D01*
X43862Y56565D01*
X44937Y56277D01*
X45991Y55919D01*
X47020Y55493D01*
X48018Y55001D01*
X48982Y54444D01*
X49907Y53826D01*
X50790Y53148D01*
X51627Y52414D01*
X52414Y51627D01*
X53148Y50790D01*
X53826Y49907D01*
X54444Y48982D01*
X55001Y48018D01*
X55493Y47020D01*
X55919Y45991D01*
X56277Y44937D01*
X56565Y43862D01*
X56782Y42771D01*
X56927Y41667D01*
X57000Y40557D01*
X57000Y39443D01*
X57000Y559443D02*
X56927Y558333D01*
X56782Y557229D01*
X56565Y556138D01*
X56277Y555063D01*
X55919Y554009D01*
X55493Y552980D01*
X55001Y551982D01*
X54444Y551018D01*
X53826Y550093D01*
X53148Y549210D01*
X52414Y548373D01*
X51627Y547586D01*
X50790Y546852D01*
X49907Y546174D01*
X48982Y545556D01*
X48018Y544999D01*
X47020Y544507D01*
X45991Y544081D01*
X44937Y543723D01*
X43862Y543435D01*
X42771Y543218D01*
X41667Y543073D01*
X40557Y543000D01*
X39443Y543000D01*
X38333Y543073D01*
X37229Y543218D01*
X36138Y543435D01*
X35063Y543723D01*
X34009Y544081D01*
X32980Y544507D01*
X31982Y544999D01*
X31018Y545556D01*
X30093Y546174D01*
X29210Y546852D01*
X28373Y547586D01*
X27586Y548373D01*
X26852Y549210D01*
X26174Y550093D01*
X25556Y551018D01*
X24999Y551982D01*
X24507Y552980D01*
X24081Y554009D01*
X23723Y555063D01*
X23435Y556138D01*
X23218Y557229D01*
X23073Y558333D01*
X23000Y559443D01*
X23000Y560557D01*
X23073Y561667D01*
X23218Y562771D01*
X23435Y563862D01*
X23723Y564937D01*
X24081Y565991D01*
X24507Y567020D01*
X24999Y568018D01*
X25556Y568982D01*
X26174Y569907D01*
X26852Y570790D01*
X27586Y571627D01*
X28373Y572414D01*
X29210Y573148D01*
X30093Y573826D01*
X31018Y574444D01*
X31982Y575001D01*
X32980Y575493D01*
X34009Y575919D01*
X35063Y576277D01*
X36138Y576565D01*
X37229Y576782D01*
X38333Y576927D01*
X39443Y577000D01*
X40557Y577000D01*
X41667Y576927D01*
X42771Y576782D01*
X43862Y576565D01*
X44937Y576277D01*
X45991Y575919D01*
X47020Y575493D01*
X48018Y575001D01*
X48982Y574444D01*
X49907Y573826D01*
X50790Y573148D01*
X51627Y572414D01*
X52414Y571627D01*
X53148Y570790D01*
X53826Y569907D01*
X54444Y568982D01*
X55001Y568018D01*
X55493Y567020D01*
X55919Y565991D01*
X56277Y564937D01*
X56565Y563862D01*
X56782Y562771D01*
X56927Y561667D01*
X57000Y560557D01*
X57000Y559443D01*
X427000Y559443D02*
X426927Y558333D01*
X426782Y557229D01*
X426565Y556138D01*
X426277Y555063D01*
X425919Y554009D01*
X425493Y552980D01*
X425001Y551982D01*
X424444Y551018D01*
X423826Y550093D01*
X423148Y549210D01*
X422414Y548373D01*
X421627Y547586D01*
X420790Y546852D01*
X419907Y546174D01*
X418982Y545556D01*
X418018Y544999D01*
X417020Y544507D01*
X415991Y544081D01*
X414937Y543723D01*
X413862Y543435D01*
X412771Y543218D01*
X411667Y543073D01*
X410557Y543000D01*
X409443Y543000D01*
X408333Y543073D01*
X407229Y543218D01*
X406138Y543435D01*
X405063Y543723D01*
X404009Y544081D01*
X402980Y544507D01*
X401982Y544999D01*
X401018Y545556D01*
X400093Y546174D01*
X399210Y546852D01*
X398373Y547586D01*
X397586Y548373D01*
X396852Y549210D01*
X396174Y550093D01*
X395556Y551018D01*
X394999Y551982D01*
X394507Y552980D01*
X394081Y554009D01*
X393723Y555063D01*
X393435Y556138D01*
X393218Y557229D01*
X393073Y558333D01*
X393000Y559443D01*
X393000Y560557D01*
X393073Y561667D01*
X393218Y562771D01*
X393435Y563862D01*
X393723Y564937D01*
X394081Y565991D01*
X394507Y567020D01*
X394999Y568018D01*
X395556Y568982D01*
X396174Y569907D01*
X396852Y570790D01*
X397586Y571627D01*
X398373Y572414D01*
X399210Y573148D01*
X400093Y573826D01*
X401018Y574444D01*
X401982Y575001D01*
X402980Y575493D01*
X404009Y575919D01*
X405063Y576277D01*
X406138Y576565D01*
X407229Y576782D01*
X408333Y576927D01*
X409443Y577000D01*
X410557Y577000D01*
X411667Y576927D01*
X412771Y576782D01*
X413862Y576565D01*
X414937Y576277D01*
X415991Y575919D01*
X417020Y575493D01*
X418018Y575001D01*
X418982Y574444D01*
X419907Y573826D01*
X420790Y573148D01*
X421627Y572414D01*
X422414Y571627D01*
X423148Y570790D01*
X423826Y569907D01*
X424444Y568982D01*
X425001Y568018D01*
X425493Y567020D01*
X425919Y565991D01*
X426277Y564937D01*
X426565Y563862D01*
X426782Y562771D01*
X426927Y561667D01*
X427000Y560557D01*
X427000Y559443D01*
X427000Y39443D02*
X426927Y38333D01*
X426782Y37229D01*
X426565Y36138D01*
X426277Y35063D01*
X425919Y34009D01*
X425493Y32980D01*
X425001Y31982D01*
X424444Y31018D01*
X423826Y30093D01*
X423148Y29210D01*
X422414Y28373D01*
X421627Y27586D01*
X420790Y26852D01*
X419907Y26174D01*
X418982Y25556D01*
X418018Y24999D01*
X417020Y24507D01*
X415991Y24081D01*
X414937Y23723D01*
X413862Y23435D01*
X412771Y23218D01*
X411667Y23073D01*
X410557Y23000D01*
X409443Y23000D01*
X408333Y23073D01*
X407229Y23218D01*
X406138Y23435D01*
X405063Y23723D01*
X404009Y24081D01*
X402980Y24507D01*
X401982Y24999D01*
X401018Y25556D01*
X400093Y26174D01*
X399210Y26852D01*
X398373Y27586D01*
X397586Y28373D01*
X396852Y29210D01*
X396174Y30093D01*
X395556Y31018D01*
X394999Y31982D01*
X394507Y32980D01*
X394081Y34009D01*
X393723Y35063D01*
X393435Y36138D01*
X393218Y37229D01*
X393073Y38333D01*
X393000Y39443D01*
X393000Y40557D01*
X393073Y41667D01*
X393218Y42771D01*
X393435Y43862D01*
X393723Y44937D01*
X394081Y45991D01*
X394507Y47020D01*
X394999Y48018D01*
X395556Y48982D01*
X396174Y49907D01*
X396852Y50790D01*
X397586Y51627D01*
X398373Y52414D01*
X399210Y53148D01*
X400093Y53826D01*
X401018Y54444D01*
X401982Y55001D01*
X402980Y55493D01*
X404009Y55919D01*
X405063Y56277D01*
X406138Y56565D01*
X407229Y56782D01*
X408333Y56927D01*
X409443Y57000D01*
X410557Y57000D01*
X411667Y56927D01*
X412771Y56782D01*
X413862Y56565D01*
X414937Y56277D01*
X415991Y55919D01*
X417020Y55493D01*
X418018Y55001D01*
X418982Y54444D01*
X419907Y53826D01*
X420790Y53148D01*
X421627Y52414D01*
X422414Y51627D01*
X423148Y50790D01*
X423826Y49907D01*
X424444Y48982D01*
X425001Y48018D01*
X425493Y47020D01*
X425919Y45991D01*
X426277Y44937D01*
X426565Y43862D01*
X426782Y42771D01*
X426927Y41667D01*
X427000Y40557D01*
X427000Y39443D01*
M02*
