G04 EAGLE Gerber RS-274X export*
G75*
%MOMM*%
%FSLAX34Y34*%
%LPD*%
%INSoldermask Bottom*%
%IPNEG*%
%AMOC8*
5,1,8,0,0,1.08239X$1,22.5*%
G01*
%ADD10C,3.603200*%
%ADD11C,1.320800*%
%ADD12C,1.611200*%
%ADD13C,1.711200*%
%ADD14P,1.843527X8X22.500000*%
%ADD15C,0.959600*%
%ADD16C,1.703200*%


D10*
X40000Y40000D03*
X40000Y560000D03*
X410000Y560000D03*
X410000Y40000D03*
D11*
X145000Y184600D03*
X145000Y210000D03*
X145000Y235400D03*
X70000Y184600D03*
X70000Y210000D03*
X70000Y235400D03*
D12*
X65000Y360000D03*
X65000Y380000D03*
X85000Y360000D03*
X85000Y380000D03*
X105000Y360000D03*
X105000Y380000D03*
X125000Y360000D03*
X125000Y380000D03*
X145000Y360000D03*
X145000Y380000D03*
X370000Y306800D03*
X390000Y306800D03*
D13*
X207300Y47540D02*
X207300Y32460D01*
X232700Y32460D02*
X232700Y47540D01*
X257300Y47540D02*
X257300Y32460D01*
X282700Y32460D02*
X282700Y47540D01*
X307300Y47540D02*
X307300Y32460D01*
X332700Y32460D02*
X332700Y47540D01*
X58140Y109900D02*
X43060Y109900D01*
X43060Y84500D02*
X58140Y84500D01*
D14*
X150000Y255000D03*
X205000Y255000D03*
D15*
X104766Y221080D03*
X385000Y330000D03*
X190000Y125000D03*
X100000Y505000D03*
X225000Y250000D03*
X355000Y320000D03*
X350000Y275000D03*
X297900Y189800D03*
X365000Y195000D03*
X244145Y154812D03*
X69816Y287337D03*
X100000Y45000D03*
X415000Y285000D03*
X200000Y295000D03*
X155000Y535000D03*
X200000Y315000D03*
X340000Y465600D03*
X380000Y465600D03*
X420000Y465600D03*
X70000Y510000D03*
D16*
X292900Y389900D03*
D15*
X305000Y355000D03*
X345000Y355000D03*
X272500Y312500D03*
X304072Y84413D03*
X158760Y286818D03*
X390000Y270000D03*
X345000Y330000D03*
X202900Y124900D03*
X265000Y245000D03*
X315000Y270000D03*
X278100Y198400D03*
X270897Y162999D03*
X346600Y183000D03*
X253900Y198400D03*
X129900Y257700D03*
X120000Y155000D03*
X243378Y144024D03*
X287600Y257100D03*
X186800Y505000D03*
X432500Y285000D03*
X186500Y105700D03*
M02*
