G04 EAGLE Gerber RS-274X export*
G75*
%MOMM*%
%FSLAX34Y34*%
%LPD*%
%INSoldermask Top*%
%IPNEG*%
%AMOC8*
5,1,8,0,0,1.08239X$1,22.5*%
G01*
%ADD10C,3.603200*%
%ADD11R,1.703200X1.703200*%
%ADD12C,1.320800*%
%ADD13R,1.303200X1.203200*%
%ADD14R,1.203200X1.303200*%
%ADD15R,0.803200X1.003200*%
%ADD16R,1.003200X0.803200*%
%ADD17R,0.803200X2.403200*%
%ADD18R,0.863600X2.235200*%
%ADD19R,1.423200X0.823200*%
%ADD20R,1.203200X1.603200*%
%ADD21R,1.603200X1.203200*%
%ADD22R,1.422400X2.438400*%
%ADD23R,3.803200X2.403200*%
%ADD24C,1.611200*%
%ADD25C,1.711200*%
%ADD26R,0.753200X1.203200*%
%ADD27P,1.843527X8X22.500000*%
%ADD28C,0.959600*%
%ADD29C,1.703200*%


D10*
X40000Y40000D03*
X40000Y560000D03*
X410000Y560000D03*
X410000Y40000D03*
D11*
X365000Y427500D03*
X365000Y462500D03*
D12*
X145000Y184600D03*
X145000Y210000D03*
X145000Y235400D03*
D13*
X182700Y200800D03*
X199700Y200800D03*
X215600Y301300D03*
X232600Y301300D03*
X320000Y196100D03*
X337000Y196100D03*
X364900Y286600D03*
X381900Y286600D03*
D14*
X232000Y327100D03*
X232000Y344100D03*
D13*
X142300Y274600D03*
X125300Y274600D03*
D14*
X175000Y411500D03*
X175000Y428500D03*
X275000Y411500D03*
X275000Y428500D03*
D15*
X195500Y181100D03*
X212500Y181100D03*
X208100Y164200D03*
X225100Y164200D03*
X241900Y89000D03*
X224900Y89000D03*
X241800Y115000D03*
X224800Y115000D03*
D16*
X207400Y327100D03*
X207400Y344100D03*
D17*
X195400Y141000D03*
X195400Y89000D03*
X208100Y141000D03*
X182700Y141000D03*
X170000Y141000D03*
X208100Y89000D03*
X182700Y89000D03*
X170000Y89000D03*
X144600Y141000D03*
X144600Y89000D03*
X157300Y141000D03*
X131900Y141000D03*
X157300Y89000D03*
X131900Y89000D03*
D18*
X215550Y214266D03*
X215550Y275734D03*
X228250Y214266D03*
X240950Y214266D03*
X228250Y275734D03*
X240950Y275734D03*
X253650Y214266D03*
X253650Y275734D03*
X266350Y214266D03*
X266350Y275734D03*
X279050Y214266D03*
X291750Y214266D03*
X279050Y275734D03*
X291750Y275734D03*
X304450Y214266D03*
X304450Y275734D03*
D19*
X307000Y174500D03*
X307000Y165000D03*
X307000Y155500D03*
X333000Y155500D03*
X333000Y165000D03*
X333000Y174500D03*
X352000Y264500D03*
X352000Y255000D03*
X352000Y245500D03*
X378000Y245500D03*
X378000Y255000D03*
X378000Y264500D03*
D11*
X227500Y475000D03*
X262500Y475000D03*
D20*
X126500Y474100D03*
X117000Y496100D03*
X136000Y496100D03*
D21*
X222800Y530000D03*
X200800Y520500D03*
X200800Y539500D03*
X136000Y530000D03*
X114000Y520500D03*
X114000Y539500D03*
D20*
X405000Y411000D03*
X414500Y389000D03*
X395500Y389000D03*
X365000Y411000D03*
X374500Y389000D03*
X355500Y389000D03*
X325000Y411000D03*
X334500Y389000D03*
X315500Y389000D03*
X86800Y462850D03*
X96300Y440850D03*
X77300Y440850D03*
D21*
X52550Y143300D03*
X30550Y133800D03*
X30550Y152800D03*
D14*
X132000Y44000D03*
X115000Y44000D03*
D13*
X90000Y521500D03*
X90000Y538500D03*
X155000Y506500D03*
X155000Y523500D03*
X176800Y538500D03*
X176800Y521500D03*
D14*
X252400Y364700D03*
X269400Y364700D03*
X269500Y344100D03*
X252500Y344100D03*
X325200Y286500D03*
X342200Y286500D03*
X342200Y306800D03*
X325200Y306800D03*
D13*
X405000Y237900D03*
X405000Y254900D03*
D14*
X365100Y229300D03*
X382100Y229300D03*
X115000Y64500D03*
X132000Y64500D03*
X348500Y229300D03*
X331500Y229300D03*
X356500Y365000D03*
X373500Y365000D03*
X316500Y365000D03*
X333500Y365000D03*
X396500Y365000D03*
X413500Y365000D03*
X396500Y344000D03*
X413500Y344000D03*
X316500Y344000D03*
X333500Y344000D03*
X356600Y344000D03*
X373600Y344000D03*
X325100Y480600D03*
X342100Y480600D03*
X365000Y480600D03*
X382000Y480600D03*
X405000Y480600D03*
X422000Y480600D03*
D13*
X146856Y291452D03*
X146856Y308452D03*
D14*
X62100Y420300D03*
X45100Y420300D03*
X62100Y440800D03*
X45100Y440800D03*
X45100Y461200D03*
X62100Y461200D03*
D13*
X125300Y291500D03*
X125300Y308500D03*
X192400Y451200D03*
X192400Y468200D03*
X82796Y291703D03*
X82796Y308703D03*
X255000Y175000D03*
X255000Y158000D03*
D14*
X266500Y105000D03*
X283500Y105000D03*
D13*
X359900Y148100D03*
X359900Y165100D03*
D14*
X320000Y140000D03*
X337000Y140000D03*
X305300Y140000D03*
X288300Y140000D03*
D11*
X86900Y480400D03*
X51900Y480400D03*
X325000Y427500D03*
X325000Y462500D03*
D12*
X70000Y184600D03*
X70000Y210000D03*
X70000Y235400D03*
D11*
X405000Y427500D03*
X405000Y462500D03*
D22*
X201886Y389012D03*
X225000Y389012D03*
X248114Y389012D03*
D23*
X225000Y450990D03*
D24*
X65000Y360000D03*
X65000Y380000D03*
X85000Y360000D03*
X85000Y380000D03*
X105000Y360000D03*
X105000Y380000D03*
X125000Y360000D03*
X125000Y380000D03*
X145000Y360000D03*
X145000Y380000D03*
X370000Y306800D03*
X390000Y306800D03*
D25*
X207300Y47540D02*
X207300Y32460D01*
X232700Y32460D02*
X232700Y47540D01*
X257300Y47540D02*
X257300Y32460D01*
X282700Y32460D02*
X282700Y47540D01*
X307300Y47540D02*
X307300Y32460D01*
X332700Y32460D02*
X332700Y47540D01*
D13*
X88000Y274500D03*
X105000Y274500D03*
X105000Y291500D03*
X105000Y308500D03*
X155000Y457300D03*
X155000Y474300D03*
D26*
X126900Y454900D03*
X136400Y454900D03*
X117400Y454900D03*
X117400Y427900D03*
X136400Y427900D03*
X126900Y427900D03*
D16*
X417500Y318500D03*
X417500Y301500D03*
X432500Y318500D03*
X432500Y301500D03*
D25*
X58140Y109900D02*
X43060Y109900D01*
X43060Y84500D02*
X58140Y84500D01*
D26*
X285000Y326000D03*
X294500Y326000D03*
X275500Y326000D03*
X275500Y299000D03*
X294500Y299000D03*
X285000Y299000D03*
D14*
X283561Y84667D03*
X266561Y84667D03*
X242031Y132625D03*
X225031Y132625D03*
D27*
X150000Y255000D03*
X205000Y255000D03*
D28*
X104766Y221080D03*
X385000Y330000D03*
X190000Y125000D03*
X100000Y505000D03*
X225000Y250000D03*
X355000Y320000D03*
X350000Y275000D03*
X297900Y189800D03*
X365000Y195000D03*
X244145Y154812D03*
X69816Y287337D03*
X100000Y45000D03*
X415000Y285000D03*
X200000Y295000D03*
X155000Y535000D03*
X200000Y315000D03*
X340000Y465600D03*
X380000Y465600D03*
X420000Y465600D03*
X70000Y510000D03*
D29*
X292900Y389900D03*
D28*
X305000Y355000D03*
X345000Y355000D03*
X272500Y312500D03*
X304072Y84413D03*
X158760Y286818D03*
X390000Y270000D03*
X345000Y330000D03*
X202900Y124900D03*
X265000Y245000D03*
X315000Y270000D03*
X278100Y198400D03*
X270897Y162999D03*
X346600Y183000D03*
X253900Y198400D03*
X129900Y257700D03*
X120000Y155000D03*
X243378Y144024D03*
X287600Y257100D03*
X186800Y505000D03*
X432500Y285000D03*
X186500Y105700D03*
M02*
